<?xml version="1.0" encoding="UTF-8"?>
<svg id="Layer_2" xmlns="http://www.w3.org/2000/svg" version="1.1" viewBox="0 0 489.5 489.5">
  <!-- Generator: Adobe Illustrator 30.0.0, SVG Export Plug-In . SVG Version: 2.1.1 Build 123)  -->
  <defs>
    <style>
      .st0 {
        fill: #fff;
      }
    </style>
  </defs>
  <g>
    <path class="st0" d="M396.5,145.4c-20.8-19.4-35.6-32-76.3-46.7-4.6-1.7-8.2-4.9-10-9-3.4-7.8-11.7-15.7-22.6-15.7s-24.5,10.6-24.5,24.5,1,17.7,1.7,25c.4,4.2.8,7.8.8,9.4s0,1.5.1,2.3c.2,2.7.5,6.1-1.4,8.2-1.7,1.9-5.3,2.8-10.4,2.8-36.2,0-69.5,26.2-96.3,47.2-17.1,13.4-31.8,25-41.3,25s-3.7,1.7-3.7,3.7,1.7,3.7,3.7,3.7c45.6,0,63.1,4,77.1,7.2,5.5,1.3,10.6,2.4,16.6,3.2l-15.8,27.5v57.6l-8.1,2c-2,.5-3.2,2.5-2.7,4.5.4,1.7,1.9,2.8,3.6,2.8s.6,0,.9-.1l10.2-2.5,17.4,2.6c.2,0,.4,0,.5,0,1.8,0,3.4-1.3,3.7-3.2.3-2-1.1-3.9-3.1-4.2l-15-2.2v-55.3l16.5-28.8c2.3.1,4.8.2,7.5.2s6.2-.2,9.2-.5l-8.2,33.2,32,52-6.4,1.5c-2,.5-3.2,2.5-2.8,4.5.4,1.7,1.9,2.9,3.6,2.9s.6,0,.8,0l10.6-2.5,14,2.5c.2,0,.4,0,.7,0s0,0,0,0h98.5c2.1,0,3.7-1.7,3.7-3.7v-162.6c0-2.1-1.7-3.7-3.7-3.7s-3.7,1.7-3.7,3.7v158.8h-94.5l-12.8-2.3-32.2-52.3,8.2-33.2c43.8-9.2,66.8-52.4,67-76.8,0-9.1-1.2-17-2.4-24-2-12.2-2.7-18.2,2.3-21.4,8.1-5.2,25.1-.4,47.9,13.5,18.2,11.1,33.9,24.3,34.1,24.4,1.5,1.3,3.8,1.1,5.2-.4,1.3-1.5,1.2-3.8-.2-5.2h0ZM305.6,106.8c-9.3,6-7.6,16.6-5.6,28.8,1.1,6.7,2.3,14.3,2.3,22.8-.1,18.4-19.2,62.3-63,70-.1,0-.2,0-.4,0-3.6.6-7.4,1-11.3,1.1,4.3-1.1,8.1-2.5,11.3-3.8,15.2-6.3,27.1-16.2,32.6-27.2,5.7-11.5,3.8-22.7-5.2-30.9-6.9-6.2-18.2-6.9-26.2-1.6-6.8,4.6-8.7,13.9-4.1,20.7,3.9,5.8,11.8,7.4,17.6,3.5,1.7-1.1,2.2-3.4,1-5.2-1.1-1.7-3.4-2.2-5.2-1-2.4,1.6-5.7,1-7.3-1.5-2.3-3.4-1.4-8.1,2.1-10.4,5.2-3.5,12.7-3.1,17.1.9,8.3,7.5,6.5,16.1,3.6,22-9.6,19.2-42.7,35.5-79.6,28.4-10.8-2.2-25.2-4.3-49.6-5,7.8-4.8,16.6-11.7,26.4-19.4,25.9-20.3,58.1-45.6,91.7-45.6s12.6-1.7,15.8-5.2c4.1-4.5,3.7-10.3,3.4-13.8,0-.6,0-1.2,0-1.7,0-1.9-.4-5.5-.8-10.1-.7-7.1-1.7-16.7-1.7-24.2s7.2-17.1,17.1-17.1,13.4,5.8,15.8,11.2c2.1,4.7,5.7,8.6,10.4,11.3-3,.4-5.8,1.4-8.2,2.9h0Z"/>
    <path class="st0" d="M292.3,93.1c-2.2-1.1-4.8-.6-5.7,1.1s.2,4.1,2.4,5.2,4.8.6,5.7-1.1-.2-4.1-2.4-5.2Z"/>
    <path class="st0" d="M159.1,323.1h-59.8V48.3h274.8v59.6c0,2.1,1.7,3.7,3.7,3.7s3.7-1.7,3.7-3.7v-63.3c0-2.1-1.7-3.7-3.7-3.7H95.6c-2.1,0-3.7,1.7-3.7,3.7v282.2c0,2.1,1.7,3.7,3.7,3.7h63.5c2.1,0,3.7-1.7,3.7-3.7s-1.7-3.7-3.7-3.7h0Z"/>
  </g>
  <g>
    <path class="st0" d="M130,440h-27.2v-88.4c0-1-.8-1.9-1.9-1.9h-4.1c-1,0-1.9.8-1.9,1.9v93.9c0,1,.8,1.9,1.9,1.9h33.2c1,0,1.9-.8,1.9-1.9v-3.6c0-1-.8-1.9-1.9-1.9Z"/>
    <path class="st0" d="M175.6,349.8h-33.7c-1,0-1.9.8-1.9,1.9v93.9c0,1,.8,1.9,1.9,1.9h33.7c1,0,1.9-.8,1.9-1.9v-3.6c0-1-.8-1.9-1.9-1.9h-27.7v-28.2h22.8c1,0,1.9-.8,1.9-1.9v-3.6c0-1-.8-1.9-1.9-1.9h-22.8v-47.3h27.7c1,0,1.9-.8,1.9-1.9v-3.6c0-1-.8-1.9-1.9-1.9h0Z"/>
    <path class="st0" d="M295.8,439.5h-49.3l28.5-17.8c15.3-9.6,23-21.7,23-36.1s-3.3-18.7-9.9-25.9c-6.6-7.3-15.4-11-26.1-11s-19.8,3.8-26.9,11.2c-7.2,7.4-10.8,16.8-10.8,27.8s.8,1.9,1.9,1.9h3.9c1,0,1.9-.8,1.9-1.9,0-8.8,2.9-16.4,8.6-22.6,5.7-6.2,12.7-9.2,21.4-9.2s15.3,2.9,20.5,8.8c5.2,5.9,7.8,12.9,7.8,20.8,0,11.9-6.9,22.2-20.5,30.8l-43.7,27.7c-.7.4-1,1.3-.8,2.1.2.8,1,1.3,1.8,1.3h68.8c1,0,1.9-.8,1.9-1.9v-4.1c0-1-.8-1.9-1.9-1.9h0Z"/>
  </g>
  <path class="st0" d="M329.5,438.4c-1.7-.9-3.4-1.9-5.1-3.2-.2-.2-.5-.4-.7-.6-.8-.6-1.5-1.3-2.2-2-4.4-4.7-5.9-11.6-3.5-17.9,1.3-3.2,3.7-5.7,6.9-7.1,3.2-1.4,6.7-1.4,9.9-.2,4.9,1.9,7.4,7.5,5.4,12.5-.7,1.7-2,3.1-3.7,3.8s-3.6.8-5.3,0c-1.9-.7-4,.2-4.7,2.1-.7,1.9.2,4,2.1,4.7,3.5,1.4,7.4,1.3,10.9-.2,3.5-1.5,6.2-4.3,7.6-7.9,3.4-8.7-.9-18.5-9.6-21.9-5-2-10.5-1.9-15.5.3-5,2.2-8.8,6.1-10.7,11.1-.8,2-1.3,4.1-1.5,6.1-1,8.6,2.7,17.1,9.6,22.3h0c0,0,.1,0,.2.1.1,0,.2.2.4.3,6.7,5,14.2,7.7,22.3,7.7s19.2-3.7,26.5-10.9c7.3-7.2,11-16.1,11-26.4s-3.7-19.2-10.9-26.5c-7.3-7.3-16.2-11-26.6-11s-10.5,1.1-15.3,3.2c-3,1.3-5.7,3-8.1,5.1l2.6-25.1h46c1,0,1.9-.8,1.9-1.9v-3.6c0-1-.8-1.9-1.9-1.9h-51.3c-1,0-1.7.7-1.8,1.7l-4.4,41.8c0,.5.1,1,.5,1.4.4.4.9.6,1.4.6h4.4c.6,0,1.2-.3,1.5-.8,2.8-4.1,6.4-7.4,10.8-9.8,4.3-2.4,8.9-3.6,13.7-3.6,8.3,0,15.2,2.9,21.1,8.9,5.9,6,8.7,13,8.7,21.4s-2.9,15.3-8.7,21.2c-5.9,5.9-12.8,8.8-21.1,8.8s-8.7-1-12.7-3h0Z"/>
</svg>