<?xml version="1.0" encoding="UTF-8"?>
<svg xmlns="http://www.w3.org/2000/svg" viewBox="0 0 841.89 595.276">
  <defs>
    <style>
      .cls-1 {
        font-size: 9.483px;
      }

      .cls-1, .cls-2, .cls-3 {
        font-family: TimesNewRomanPSMT, 'Times New Roman';
      }

      .cls-1, .cls-2, .cls-3, .cls-4 {
        fill: #010101;
      }

      .cls-2 {
        font-size: 9.483px;
      }

      .cls-3 {
        font-size: 4.369px;
      }

      .cls-5, .cls-6, .cls-7, .cls-8, .cls-9, .cls-10, .cls-11, .cls-12 {
        stroke-miterlimit: 10;
      }

      .cls-5, .cls-7 {
        stroke: #000;
      }

      .cls-5, .cls-7, .cls-8, .cls-9, .cls-10, .cls-11 {
        fill: none;
        stroke-linecap: round;
      }

      .cls-5, .cls-10, .cls-11 {
        stroke-width: .18px;
      }

      .cls-6 {
        fill: #fcd7d7;
      }

      .cls-6, .cls-12 {
        stroke: #fff;
      }

      .cls-8, .cls-10 {
        stroke: #818181;
      }

      .cls-9, .cls-11 {
        stroke: #646566;
      }

      .cls-12 {
        fill: #d2edfb;
      }

      .cls-13 {
        fill: #818181;
      }

      .cls-14 {
        fill: #646566;
      }
    </style>
  </defs>
  <g id="Layer_3" data-name="Layer 3">
    <g>
      <polygon class="cls-12" points="415.846 203.102 366.92 203.18 361.858 388.161 505.086 388.284 505.409 200.646 415.85 200.545 415.846 203.102"/>
      <polygon class="cls-6" points="461.806 344.502 461.314 388.145 505.086 388.284 504.671 344.689 461.806 344.502"/>
    </g>
  </g>
  <g id="Layer_6" data-name="Layer 6">
    <g>
      <line class="cls-5" x1="439.662" y1="393.352" x2="397.411" y2="393.279"/>
      <line class="cls-5" x1="439.662" y1="393.352" x2="397.411" y2="393.279"/>
      <polygon class="cls-14" points="477.196 195.54 477.196 195.377 427.441 195.454 477.196 195.54"/>
      <polygon class="cls-9" points="477.196 195.54 477.196 195.377 427.441 195.454 477.196 195.54"/>
      <path class="cls-14" d="M510.474,195.597l-6.362-.011,6.362.011ZM510.474,195.597h0l-6.362-.011,6.362.011ZM510.474,195.597,510.474,195.597,504.112,195.586l6.362.011-6.362-.011Z"/>
      <path class="cls-9" d="M510.474,195.597l-6.362-.011,6.362.011ZM510.474,195.597h0l-6.362-.011,6.362.011ZM510.474,195.597,510.474,195.597,504.112,195.586l6.362.011-6.362-.011Z"/>
      <path class="cls-14" d="M510.474,195.597l-.009,5.057.009-5.057Z"/>
      <path class="cls-9" d="M510.474,195.597l-.009,5.057.009-5.057Z"/>
      <polygon class="cls-14" points="427.441 195.454 477.196 195.54 408.192 195.421 427.441 195.454"/>
      <polygon class="cls-9" points="427.441 195.454 477.196 195.54 408.192 195.421 427.441 195.454"/>
      <path class="cls-14" d="M415.85,200.491l61.337.106-61.337-.106Z"/>
      <path class="cls-9" d="M415.85,200.491l61.337.106-61.337-.106Z"/>
      <polygon class="cls-14" points="408.183 200.478 477.187 200.597 408.192 195.421 408.183 200.478"/>
      <polygon class="cls-14" points="477.187 200.597 477.196 195.54 408.192 195.421 477.187 200.597"/>
      <polygon class="cls-9" points="408.183 200.478 477.187 200.597 408.192 195.421 408.183 200.478"/>
      <polygon class="cls-9" points="477.187 200.597 477.196 195.54 408.192 195.421 477.187 200.597"/>
      <path class="cls-14" d="M415.85,200.491h0l-7.667-.013,7.667.013ZM408.183,200.478l7.667.013-7.667-.013Z"/>
      <path class="cls-9" d="M415.85,200.491h0l-7.667-.013,7.667.013ZM408.183,200.478l7.667.013-7.667-.013Z"/>
      <polygon class="cls-14" points="504.103 200.643 510.465 200.654 504.112 195.586 504.103 200.643"/>
      <polygon class="cls-9" points="504.103 200.643 510.465 200.654 504.112 195.586 504.103 200.643"/>
      <polygon class="cls-14" points="510.465 200.654 510.474 195.597 504.112 195.586 510.465 200.654"/>
      <polygon class="cls-9" points="510.465 200.654 510.474 195.597 504.112 195.586 510.465 200.654"/>
      <polygon class="cls-14" points="408.179 203.088 415.846 203.101 408.183 200.478 408.179 203.088"/>
      <polygon class="cls-9" points="408.179 203.088 415.846 203.101 408.183 200.478 408.179 203.088"/>
      <polygon class="cls-14" points="415.846 203.101 415.85 200.491 408.183 200.478 415.846 203.101"/>
      <polygon class="cls-9" points="415.846 203.101 415.85 200.491 408.183 200.478 415.846 203.101"/>
      <polygon class="cls-14" points="505.084 389.06 510.141 389.069 505.409 200.645 505.084 389.06"/>
      <polygon class="cls-14" points="510.141 389.069 510.465 200.654 505.409 200.645 510.141 389.069"/>
      <polygon class="cls-9" points="505.084 389.06 510.141 389.069 505.409 200.645 505.084 389.06"/>
      <polygon class="cls-9" points="510.141 389.069 510.465 200.654 505.409 200.645 510.141 389.069"/>
      <line class="cls-5" x1="415.85" y1="200.491" x2="478.655" y2="200.599"/>
      <line class="cls-5" x1="502.146" y1="200.64" x2="505.409" y2="200.645"/>
      <text class="cls-1" transform="translate(411.402 266.589) rotate(.099)"><tspan x="0" y="0">S-40.10 m²</tspan></text>
      <line class="cls-5" x1="353.53" y1="202.994" x2="361.524" y2="203.008"/>
      <line class="cls-5" x1="366.907" y1="203.18" x2="415.846" y2="203.101"/>
      <path class="cls-5" d="M478.492,200.517c-.023,13.379,10.804,24.243,24.183,24.266"/>
      <polyline class="cls-5" points="477.187 200.597 478.655 200.599 478.657 199.62 479.146 199.621 479.149 197.99 477.191 197.987"/>
      <line class="cls-5" x1="502.798" y1="200.641" x2="502.757" y2="224.784"/>
      <line class="cls-5" x1="504.103" y1="200.643" x2="502.146" y2="200.64"/>
      <polyline class="cls-5" points="502.798 200.641 502.8 199.662 502.311 199.661 502.313 198.03 504.108 198.033"/>
      <line class="cls-5" x1="502.146" y1="200.64" x2="502.104" y2="224.783"/>
      <line class="cls-5" x1="477.187" y1="200.597" x2="477.196" y2="195.54"/>
      <line class="cls-5" x1="504.103" y1="200.643" x2="504.112" y2="195.586"/>
      <polygon class="cls-4" points="490.087 193.278 494.336 189.044 486.016 189.03 490.087 193.278"/>
      <polygon class="cls-7" points="490.087 193.278 494.336 189.044 486.016 189.03 490.087 193.278"/>
      <polyline class="cls-5" points="486.016 189.03 494.336 189.044 490.087 193.278 486.016 189.03"/>
      <polyline class="cls-5" points="505.077 393.464 505.086 388.244 361.858 388.161 361.849 393.218 505.077 393.464"/>
      <polygon class="cls-14" points="505.085 388.407 505.086 388.244 361.858 388.161 505.085 388.407"/>
      <polygon class="cls-9" points="505.085 388.407 505.086 388.244 361.858 388.161 505.085 388.407"/>
      <polygon class="cls-14" points="361.849 393.218 505.077 393.464 361.858 388.161 361.849 393.218"/>
      <polygon class="cls-9" points="361.849 393.218 505.077 393.464 361.858 388.161 361.849 393.218"/>
      <polygon class="cls-14" points="505.077 393.464 505.085 388.407 361.858 388.161 505.077 393.464"/>
      <polygon class="cls-9" points="505.077 393.464 505.085 388.407 361.858 388.161 505.077 393.464"/>
      <polyline class="cls-5" points="409.55 259.207 455.227 259.286 455.21 268.91 409.534 268.832 409.55 259.207"/>
      <polygon class="cls-14" points="505.086 388.244 510.142 388.253 509.653 388.252 505.086 388.244"/>
      <polygon class="cls-9" points="505.086 388.244 510.142 388.253 509.653 388.252 505.086 388.244"/>
      <polygon class="cls-14" points="505.086 388.244 505.071 393.464 505.301 393.464 505.086 388.244"/>
      <polygon class="cls-14" points="505.086 388.244 505.301 393.464 510.128 393.464 510.142 388.253 505.086 388.244"/>
      <polygon class="cls-9" points="505.086 388.244 505.071 393.464 505.301 393.464 505.086 388.244"/>
      <polygon class="cls-9" points="505.086 388.244 505.301 393.464 510.128 393.464 510.142 388.253 505.086 388.244"/>
      <path class="cls-14" d="M458.836,341.999l6.525.011-6.525-.011Z"/>
      <path class="cls-9" d="M458.836,341.999l6.525.011-6.525-.011Z"/>
      <polygon class="cls-14" points="458.832 344.609 465.357 344.62 458.836 341.999 458.832 344.609"/>
      <polygon class="cls-14" points="465.357 344.62 465.361 342.01 458.836 341.999 465.357 344.62"/>
      <polygon class="cls-9" points="458.832 344.609 465.357 344.62 458.836 341.999 458.832 344.609"/>
      <polygon class="cls-9" points="465.357 344.62 465.361 342.01 458.836 341.999 465.357 344.62"/>
      <path class="cls-14" d="M461.442,344.613h0l-2.61-.004,2.61.004ZM458.832,344.609l2.61.004-2.61-.004Z"/>
      <path class="cls-9" d="M461.442,344.613h0l-2.61-.004,2.61.004ZM458.832,344.609l2.61.004-2.61-.004Z"/>
      <polygon class="cls-14" points="465.031 344.619 465.357 344.62 461.442 344.613 465.031 344.619"/>
      <polygon class="cls-9" points="465.031 344.619 465.357 344.62 461.442 344.613 465.031 344.619"/>
      <path class="cls-14" d="M461.442,344.613h0l-2.61-.004,2.61.004ZM458.832,344.609l2.61.004-2.61-.004Z"/>
      <path class="cls-9" d="M461.442,344.613h0l-2.61-.004,2.61.004ZM458.832,344.609l2.61.004-2.61-.004Z"/>
      <polygon class="cls-14" points="458.757 388.164 461.367 388.169 458.832 344.609 458.757 388.164"/>
      <polygon class="cls-9" points="458.757 388.164 461.367 388.169 458.832 344.609 458.757 388.164"/>
      <polygon class="cls-14" points="461.367 388.169 461.442 344.613 458.832 344.609 461.367 388.169"/>
      <polygon class="cls-9" points="461.367 388.169 461.442 344.613 458.832 344.609 461.367 388.169"/>
      <line class="cls-5" x1="458.757" y1="388.164" x2="458.836" y2="341.999"/>
      <line class="cls-5" x1="461.367" y1="388.169" x2="461.442" y2="344.613"/>
      <path class="cls-14" d="M485.916,342.045l19.249.033-19.249-.033Z"/>
      <path class="cls-9" d="M485.916,342.045l19.249.033-19.249-.033Z"/>
      <polygon class="cls-14" points="485.912 344.656 505.161 344.689 485.916 342.045 485.912 344.656"/>
      <polygon class="cls-9" points="485.912 344.656 505.161 344.689 485.916 342.045 485.912 344.656"/>
      <polygon class="cls-14" points="505.161 344.689 505.165 342.078 485.916 342.045 505.161 344.689"/>
      <polygon class="cls-9" points="505.161 344.689 505.165 342.078 485.916 342.045 505.161 344.689"/>
      <line class="cls-5" x1="505.161" y1="344.689" x2="485.911" y2="344.655"/>
      <line class="cls-5" x1="465.357" y1="344.62" x2="461.442" y2="344.613"/>
      <line class="cls-5" x1="465.194" y1="344.62" x2="467.151" y2="344.623"/>
      <polyline class="cls-5" points="466.499 344.622 466.501 343.48 466.99 343.481 466.993 342.013 465.198 342.01"/>
      <polyline class="cls-5" points="485.748 344.655 484.28 344.653 484.282 343.511 483.793 343.51 483.795 342.042 485.753 342.045"/>
      <line class="cls-5" x1="466.499" y1="344.622" x2="466.466" y2="363.545"/>
      <path class="cls-5" d="M466.361,363.524c5.014.256,9.886-1.712,13.317-5.378,3.43-3.666,5.07-8.658,4.482-13.645"/>
      <line class="cls-5" x1="467.151" y1="344.623" x2="467.119" y2="363.546"/>
      <line class="cls-5" x1="485.916" y1="342.045" x2="485.911" y2="344.655"/>
      <polyline class="cls-5" points="458.836 341.999 465.361 342.01 465.357 344.62"/>
      <line class="cls-5" x1="485.916" y1="342.045" x2="505.165" y2="342.079"/>
      <path class="cls-5" d="M491.311,382.348c-.676-.001-1.225.546-1.226,1.221"/>
      <line class="cls-5" x1="490.249" y1="383.651" x2="490.244" y2="386.261"/>
      <path class="cls-5" d="M490.081,386.179c-.001.676.546,1.224,1.221,1.226"/>
      <line class="cls-5" x1="491.384" y1="387.568" x2="501.661" y2="387.586"/>
      <path class="cls-5" d="M501.58,387.423c.676.001,1.225-.546,1.226-1.221"/>
      <line class="cls-5" x1="502.968" y1="386.283" x2="502.973" y2="383.673"/>
      <path class="cls-5" d="M502.81,383.591c.001-.676-.546-1.224-1.221-1.226"/>
      <line class="cls-5" x1="501.67" y1="382.529" x2="491.393" y2="382.511"/>
      <path class="cls-5" d="M502.941,383.739c.253-4.917-.905-9.689-2.985-12.305-2.08-2.616-4.721-2.62-6.811-.012-2.089,2.608-3.263,7.376-3.027,12.294"/>
      <polyline class="cls-5" points="501.512 379.429 501.189 377.471 500.703 375.676 500.216 374.207 499.403 372.9 498.752 371.92 497.937 371.266 497.285 370.939 496.633 370.775 495.98 370.937 495.327 371.262 494.51 371.913 493.693 372.89 493.038 374.194 492.546 375.662 492.054 377.455 491.724 379.412"/>
      <line class="cls-5" x1="500.204" y1="380.895" x2="492.864" y2="380.882"/>
      <path class="cls-5" d="M491.571,379.337c-.046.349.061.7.293.965.232.265.566.417.918.417"/>
      <path class="cls-5" d="M500.123,380.732c.352,0,.687-.15.919-.414.233-.264.341-.615.297-.963"/>
      <line class="cls-5" x1="496.603" y1="388.066" x2="496.61" y2="383.825"/>
      <line class="cls-5" x1="497.912" y1="385.622" x2="495.139" y2="385.617"/>
      <path class="cls-5" d="M497.097,385.539c0-.315-.255-.571-.57-.572s-.571.255-.572.57.255.571.57.572.571-.255.572-.57"/>
      <line class="cls-5" x1="496.603" y1="388.393" x2="496.636" y2="368.817"/>
      <path class="cls-5" d="M475.827,385.078c3.269-.201,5.745-2.326,5.613-4.816-.132-2.491-2.825-4.461-6.104-4.467-3.28-.006-5.979,1.955-6.12,4.446-.14,2.49,2.328,4.623,5.596,4.836"/>
      <path class="cls-5" d="M476.226,380.283c0-.496-.4-.898-.896-.899s-.898.4-.899.896.4.898.896.899.898-.4.899-.896"/>
      <line class="cls-5" x1="475.407" y1="381.668" x2="475.412" y2="379.221"/>
      <line class="cls-5" x1="474.268" y1="380.361" x2="476.388" y2="380.365"/>
      <line class="cls-5" x1="475.24" y1="383.788" x2="475.567" y2="383.789"/>
      <path class="cls-5" d="M475.159,383.788c-.225,0-.408.182-.408.407"/>
      <path class="cls-5" d="M475.892,384.197c0-.225-.182-.408-.407-.409"/>
      <line class="cls-5" x1="461.389" y1="375.445" x2="487.163" y2="375.489"/>
      <text class="cls-1" transform="translate(471.766 358.535) rotate(.099)"><tspan x="0" y="0">Toil.</tspan></text>
      <line class="cls-11" x1="463.836" y1="375.449" x2="463.889" y2="344.618"/>
      <line class="cls-11" x1="467.914" y1="375.456" x2="467.967" y2="344.625"/>
      <line class="cls-11" x1="471.992" y1="375.463" x2="472.045" y2="344.632"/>
      <line class="cls-11" x1="476.071" y1="375.47" x2="476.124" y2="344.639"/>
      <line class="cls-11" x1="480.149" y1="375.477" x2="480.202" y2="344.646"/>
      <line class="cls-11" x1="484.227" y1="375.484" x2="484.28" y2="344.653"/>
      <line class="cls-11" x1="488.305" y1="375.491" x2="488.358" y2="344.66"/>
      <line class="cls-11" x1="492.39" y1="371.583" x2="492.437" y2="344.667"/>
      <line class="cls-11" x1="496.473" y1="369.143" x2="496.515" y2="344.674"/>
      <line class="cls-11" x1="500.546" y1="372.087" x2="500.593" y2="344.681"/>
      <line class="cls-11" x1="504.611" y1="379.434" x2="504.671" y2="344.688"/>
      <line class="cls-11" x1="505.101" y1="379.109" x2="504.449" y2="379.108"/>
      <line class="cls-11" x1="505.108" y1="375.031" x2="502.172" y2="375.026"/>
      <line class="cls-11" x1="489.611" y1="375.004" x2="461.39" y2="374.955"/>
      <line class="cls-11" x1="505.115" y1="370.952" x2="499.08" y2="370.942"/>
      <line class="cls-11" x1="493.533" y1="370.933" x2="461.397" y2="370.877"/>
      <line class="cls-11" x1="505.123" y1="366.874" x2="461.404" y2="366.799"/>
      <line class="cls-11" x1="505.13" y1="362.796" x2="461.411" y2="362.721"/>
      <line class="cls-11" x1="505.137" y1="358.718" x2="461.418" y2="358.643"/>
      <line class="cls-11" x1="505.144" y1="354.64" x2="461.425" y2="354.564"/>
      <line class="cls-11" x1="505.151" y1="350.561" x2="461.432" y2="350.486"/>
      <line class="cls-11" x1="505.158" y1="346.483" x2="461.439" y2="346.408"/>
      <line class="cls-5" x1="487.163" y1="375.489" x2="487.141" y2="388.213"/>
      <line class="cls-5" x1="510.474" y1="195.597" x2="510.266" y2="316.639"/>
      <line class="cls-5" x1="510.27" y1="314.192" x2="510.143" y2="388.253"/>
      <line class="cls-5" x1="505.409" y1="200.645" x2="505.086" y2="388.244"/>
      <line class="cls-5" x1="504.103" y1="200.643" x2="506.55" y2="200.647"/>
      <polygon class="cls-4" points="497.555 214.335 497.564 208.625 485.167 208.604 497.555 214.335"/>
      <polygon class="cls-4" points="485.167 208.604 497.564 208.625 484.84 208.44 485.167 208.604"/>
      <polygon class="cls-7" points="497.555 214.335 497.564 208.625 485.167 208.604 497.555 214.335"/>
      <polygon class="cls-7" points="485.167 208.604 497.564 208.625 484.84 208.44 485.167 208.604"/>
      <polyline class="cls-5" points="497.564 208.625 484.841 208.44 484.668 214.149 497.555 214.335 497.564 208.625"/>
      <line class="cls-5" x1="484.841" y1="208.44" x2="497.555" y2="214.335"/>
      <line class="cls-10" x1="505.122" y1="367.2" x2="505.114" y2="371.768"/>
      <line class="cls-10" x1="461.403" y1="367.125" x2="461.395" y2="371.693"/>
      <line class="cls-10" x1="502.998" y1="369.154" x2="463.52" y2="369.086"/>
      <polygon class="cls-13" points="504.304 368.341 505.119 369.158 505.12 368.179 504.304 368.341"/>
      <polygon class="cls-13" points="505.12 368.179 505.119 369.158 505.772 368.344 505.12 368.179"/>
      <polygon class="cls-13" points="505.119 369.158 506.097 369.16 505.772 368.344 505.119 369.158"/>
      <polygon class="cls-8" points="504.304 368.341 505.119 369.158 505.12 368.179 504.304 368.341"/>
      <polygon class="cls-8" points="505.119 369.158 506.097 369.16 505.772 368.344 505.119 369.158"/>
      <polygon class="cls-8" points="505.12 368.179 505.119 369.158 505.772 368.344 505.12 368.179"/>
      <polygon class="cls-13" points="505.117 370.137 505.119 369.158 504.302 369.809 505.117 370.137"/>
      <polygon class="cls-13" points="504.302 369.809 505.119 369.158 504.14 369.156 504.302 369.809"/>
      <polygon class="cls-13" points="504.14 369.156 505.119 369.158 504.304 368.341 504.14 369.156"/>
      <polygon class="cls-8" points="505.117 370.137 505.119 369.158 504.302 369.809 505.117 370.137"/>
      <polygon class="cls-8" points="504.302 369.809 505.119 369.158 504.14 369.156 504.302 369.809"/>
      <polygon class="cls-8" points="504.14 369.156 505.119 369.158 504.304 368.341 504.14 369.156"/>
      <polygon class="cls-13" points="505.117 370.137 505.77 369.812 505.119 369.158 505.117 370.137"/>
      <polygon class="cls-13" points="505.77 369.812 506.097 369.16 505.119 369.158 505.77 369.812"/>
      <polygon class="cls-8" points="505.117 370.137 505.77 369.812 505.119 369.158 505.117 370.137"/>
      <polygon class="cls-8" points="505.77 369.812 506.097 369.16 505.119 369.158 505.77 369.812"/>
      <line class="cls-10" x1="504.14" y1="369.156" x2="502.998" y2="369.154"/>
      <polygon class="cls-13" points="460.421 369.081 460.746 369.734 461.4 369.083 460.421 369.081"/>
      <polygon class="cls-13" points="460.746 369.734 461.398 370.062 461.4 369.083 460.746 369.734"/>
      <polygon class="cls-13" points="461.398 370.062 462.214 369.737 461.4 369.083 461.398 370.062"/>
      <polygon class="cls-8" points="460.421 369.081 460.746 369.734 461.4 369.083 460.421 369.081"/>
      <polygon class="cls-8" points="460.746 369.734 461.398 370.062 461.4 369.083 460.746 369.734"/>
      <polygon class="cls-8" points="461.398 370.062 462.214 369.737 461.4 369.083 461.398 370.062"/>
      <polygon class="cls-13" points="461.402 368.104 461.4 369.083 462.217 368.269 461.402 368.104"/>
      <polygon class="cls-13" points="462.214 369.737 462.379 369.085 461.4 369.083 462.214 369.737"/>
      <polygon class="cls-13" points="461.4 369.083 462.379 369.085 462.217 368.269 461.4 369.083"/>
      <polygon class="cls-8" points="462.214 369.737 462.379 369.085 461.4 369.083 462.214 369.737"/>
      <polygon class="cls-8" points="461.4 369.083 462.379 369.085 462.217 368.269 461.4 369.083"/>
      <polygon class="cls-8" points="461.402 368.104 461.4 369.083 462.217 368.269 461.402 368.104"/>
      <polygon class="cls-13" points="460.421 369.081 461.4 369.083 460.748 368.266 460.421 369.081"/>
      <polygon class="cls-13" points="461.4 369.083 461.402 368.104 460.748 368.266 461.4 369.083"/>
      <polygon class="cls-8" points="460.421 369.081 461.4 369.083 460.748 368.266 460.421 369.081"/>
      <polygon class="cls-8" points="461.4 369.083 461.402 368.104 460.748 368.266 461.4 369.083"/>
      <line class="cls-10" x1="462.379" y1="369.085" x2="463.52" y2="369.086"/>
      <text class="cls-1" transform="translate(475.828 367.679) rotate(.099)"><tspan x="0" y="0">170</tspan></text>
      <line class="cls-10" x1="395.617" y1="393.276" x2="402.305" y2="393.288"/>
      <polygon class="cls-13" points="399.858 393.283 399.86 392.141 399.044 392.466 399.858 393.283"/>
      <polygon class="cls-13" points="399.041 393.934 399.858 393.283 398.716 393.281 399.041 393.934"/>
      <polygon class="cls-13" points="398.716 393.281 399.858 393.283 399.044 392.466 398.716 393.281"/>
      <polygon class="cls-8" points="399.041 393.934 399.858 393.283 398.716 393.281 399.041 393.934"/>
      <polygon class="cls-8" points="398.716 393.281 399.858 393.283 399.044 392.466 398.716 393.281"/>
      <polygon class="cls-8" points="399.858 393.283 399.86 392.141 399.044 392.466 399.858 393.283"/>
      <polygon class="cls-13" points="400.509 393.937 400.837 393.285 399.858 393.283 400.509 393.937"/>
      <polygon class="cls-8" points="400.509 393.937 400.837 393.285 399.858 393.283 400.509 393.937"/>
      <polygon class="cls-13" points="399.86 392.141 399.858 393.283 400.512 392.469 399.86 392.141"/>
      <polygon class="cls-13" points="399.858 393.283 400.837 393.285 400.512 392.469 399.858 393.283"/>
      <polygon class="cls-8" points="399.86 392.141 399.858 393.283 400.512 392.469 399.86 392.141"/>
      <polygon class="cls-8" points="399.858 393.283 400.837 393.285 400.512 392.469 399.858 393.283"/>
      <line class="cls-10" x1="426.774" y1="393.33" x2="422.859" y2="393.323"/>
      <polygon class="cls-13" points="424.653 393.978 425.469 393.327 424.328 393.325 424.653 393.978"/>
      <polygon class="cls-13" points="425.469 393.327 425.471 392.185 424.655 392.51 425.469 393.327"/>
      <polygon class="cls-13" points="424.328 393.325 425.469 393.327 424.655 392.51 424.328 393.325"/>
      <polygon class="cls-8" points="424.653 393.978 425.469 393.327 424.328 393.325 424.653 393.978"/>
      <polygon class="cls-8" points="425.469 393.327 425.471 392.185 424.655 392.51 425.469 393.327"/>
      <polygon class="cls-8" points="424.328 393.325 425.469 393.327 424.655 392.51 424.328 393.325"/>
      <polygon class="cls-13" points="426.121 393.981 426.448 393.329 425.469 393.327 426.121 393.981"/>
      <polygon class="cls-8" points="426.121 393.981 426.448 393.329 425.469 393.327 426.121 393.981"/>
      <polygon class="cls-13" points="425.471 392.185 425.469 393.327 426.123 392.513 425.471 392.185"/>
      <polygon class="cls-13" points="425.469 393.327 426.448 393.329 426.123 392.513 425.469 393.327"/>
      <polygon class="cls-8" points="425.471 392.185 425.469 393.327 426.123 392.513 425.471 392.185"/>
      <polygon class="cls-8" points="425.469 393.327 426.448 393.329 426.123 392.513 425.469 393.327"/>
      <text class="cls-1" transform="translate(406.365 255.652) rotate(.099)"><tspan x="0" y="0" xml:space="preserve"> Bureau 04</tspan></text>
      <line class="cls-10" x1="470.339" y1="388.184" x2="447.012" y2="388.144"/>
      <line class="cls-10" x1="452.801" y1="341.988" x2="447.091" y2="341.979"/>
      <line class="cls-10" x1="449.625" y1="386.191" x2="449.697" y2="344.104"/>
      <polygon class="cls-13" points="449.62 389.291 450.436 388.966 449.621 388.149 449.62 389.291"/>
      <polygon class="cls-13" points="450.436 388.966 450.764 388.151 449.621 388.149 450.436 388.966"/>
      <polygon class="cls-13" points="449.621 388.149 450.764 388.151 450.438 387.498 449.621 388.149"/>
      <polygon class="cls-8" points="449.621 388.149 450.764 388.151 450.438 387.498 449.621 388.149"/>
      <polygon class="cls-8" points="449.62 389.291 450.436 388.966 449.621 388.149 449.62 389.291"/>
      <polygon class="cls-8" points="450.436 388.966 450.764 388.151 449.621 388.149 450.436 388.966"/>
      <polygon class="cls-13" points="448.643 388.147 449.621 388.149 448.97 387.495 448.643 388.147"/>
      <polygon class="cls-13" points="449.621 388.149 450.438 387.498 449.623 387.17 449.621 388.149"/>
      <polygon class="cls-13" points="448.97 387.495 449.621 388.149 449.623 387.17 448.97 387.495"/>
      <polygon class="cls-8" points="448.643 388.147 449.621 388.149 448.97 387.495 448.643 388.147"/>
      <polygon class="cls-8" points="448.97 387.495 449.621 388.149 449.623 387.17 448.97 387.495"/>
      <polygon class="cls-8" points="449.621 388.149 450.438 387.498 449.623 387.17 449.621 388.149"/>
      <polygon class="cls-13" points="449.62 389.291 449.621 388.149 448.968 388.963 449.62 389.291"/>
      <polygon class="cls-13" points="448.968 388.963 449.621 388.149 448.643 388.147 448.968 388.963"/>
      <polygon class="cls-8" points="449.62 389.291 449.621 388.149 448.968 388.963 449.62 389.291"/>
      <polygon class="cls-8" points="448.968 388.963 449.621 388.149 448.643 388.147 448.968 388.963"/>
      <line class="cls-10" x1="449.623" y1="387.17" x2="449.625" y2="386.191"/>
      <polygon class="cls-13" points="448.722 341.981 449.701 341.983 449.05 341.329 448.722 341.981"/>
      <polygon class="cls-13" points="449.047 342.635 449.701 341.983 448.722 341.981 449.047 342.635"/>
      <polygon class="cls-13" points="449.701 341.983 449.703 341.004 449.05 341.329 449.701 341.983"/>
      <polygon class="cls-8" points="448.722 341.981 449.701 341.983 449.05 341.329 448.722 341.981"/>
      <polygon class="cls-8" points="449.047 342.635 449.701 341.983 448.722 341.981 449.047 342.635"/>
      <polygon class="cls-8" points="449.701 341.983 449.703 341.004 449.05 341.329 449.701 341.983"/>
      <polygon class="cls-13" points="449.047 342.635 449.699 342.962 449.701 341.983 449.047 342.635"/>
      <polygon class="cls-13" points="450.516 342.637 450.843 341.985 449.701 341.983 450.516 342.637"/>
      <polygon class="cls-13" points="449.699 342.962 450.516 342.637 449.701 341.983 449.699 342.962"/>
      <polygon class="cls-8" points="449.699 342.962 450.516 342.637 449.701 341.983 449.699 342.962"/>
      <polygon class="cls-8" points="449.047 342.635 449.699 342.962 449.701 341.983 449.047 342.635"/>
      <polygon class="cls-8" points="450.516 342.637 450.843 341.985 449.701 341.983 450.516 342.637"/>
      <polygon class="cls-13" points="449.703 341.004 449.701 341.983 450.518 341.332 449.703 341.004"/>
      <polygon class="cls-13" points="449.701 341.983 450.843 341.985 450.518 341.332 449.701 341.983"/>
      <polygon class="cls-8" points="449.703 341.004 449.701 341.983 450.518 341.332 449.703 341.004"/>
      <polygon class="cls-8" points="449.701 341.983 450.843 341.985 450.518 341.332 449.701 341.983"/>
      <line class="cls-10" x1="449.699" y1="342.962" x2="449.697" y2="344.104"/>
      <text class="cls-2" transform="translate(448.138 372.41) rotate(-89.901)"><tspan x="0" y="0">180</tspan></text>
      <line class="cls-5" x1="404.428" y1="202.592" x2="389.419" y2="202.729"/>
      <line class="cls-5" x1="368.866" y1="202.368" x2="406.712" y2="202.27"/>
      <line class="cls-5" x1="408.183" y1="200.478" x2="366.911" y2="200.57"/>
      <line class="cls-5" x1="404.264" y1="203.081" x2="404.265" y2="202.266"/>
      <line class="cls-5" x1="406.712" y1="202.27" x2="406.711" y2="203.085"/>
      <line class="cls-5" x1="406.226" y1="200.475" x2="406.223" y2="202.269"/>
      <line class="cls-5" x1="385.504" y1="202.886" x2="370.659" y2="202.697"/>
      <line class="cls-5" x1="385.014" y1="203.211" x2="385.016" y2="202.233"/>
      <line class="cls-5" x1="390.234" y1="203.22" x2="390.236" y2="202.242"/>
      <line class="cls-5" x1="370.822" y1="203.187" x2="370.823" y2="202.371"/>
      <polyline class="cls-5" points="368.869 200.573 368.866 202.368 368.213 202.367 368.212 203.182"/>
      <line class="cls-5" x1="366.907" y1="203.18" x2="366.92" y2="195.513"/>
      <line class="cls-5" x1="408.179" y1="203.088" x2="408.192" y2="195.421"/>
      <polyline class="cls-5" points="366.907 203.18 366.92 195.513 366.907 203.18"/>
      <line class="cls-5" x1="415.846" y1="203.101" x2="415.85" y2="200.491"/>
      <text class="cls-1" transform="translate(410.731 278.007) rotate(.099)"><tspan x="0" y="0">H.S.P.5.25</tspan></text>
      <line class="cls-10" x1="365.026" y1="253.584" x2="364.898" y2="327.971"/>
      <line class="cls-10" x1="505.195" y1="324.624" x2="505.198" y2="323.156"/>
      <line class="cls-10" x1="366.86" y1="325.364" x2="503.073" y2="325.599"/>
      <polygon class="cls-13" points="363.923 325.359 364.085 326.175 364.902 325.361 363.923 325.359"/>
      <polygon class="cls-13" points="364.9 326.503 365.553 326.178 364.902 325.361 364.9 326.503"/>
      <polygon class="cls-13" points="364.085 326.175 364.9 326.503 364.902 325.361 364.085 326.175"/>
      <polygon class="cls-8" points="363.923 325.359 364.085 326.175 364.902 325.361 363.923 325.359"/>
      <polygon class="cls-8" points="364.9 326.503 365.553 326.178 364.902 325.361 364.9 326.503"/>
      <polygon class="cls-8" points="364.085 326.175 364.9 326.503 364.902 325.361 364.085 326.175"/>
      <polygon class="cls-13" points="365.553 326.178 365.881 325.363 364.902 325.361 365.553 326.178"/>
      <polygon class="cls-13" points="364.904 324.382 364.902 325.361 365.556 324.71 364.904 324.382"/>
      <polygon class="cls-13" points="364.902 325.361 365.881 325.363 365.556 324.71 364.902 325.361"/>
      <polygon class="cls-8" points="364.904 324.382 364.902 325.361 365.556 324.71 364.904 324.382"/>
      <polygon class="cls-8" points="365.553 326.178 365.881 325.363 364.902 325.361 365.553 326.178"/>
      <polygon class="cls-8" points="364.902 325.361 365.881 325.363 365.556 324.71 364.902 325.361"/>
      <polygon class="cls-13" points="363.923 325.359 364.902 325.361 364.087 324.707 363.923 325.359"/>
      <polygon class="cls-13" points="364.902 325.361 364.904 324.382 364.087 324.707 364.902 325.361"/>
      <polygon class="cls-8" points="363.923 325.359 364.902 325.361 364.087 324.707 363.923 325.359"/>
      <polygon class="cls-8" points="364.902 325.361 364.904 324.382 364.087 324.707 364.902 325.361"/>
      <line class="cls-10" x1="365.881" y1="325.363" x2="366.86" y2="325.364"/>
      <polygon class="cls-13" points="505.195 324.624 505.194 325.602 505.847 324.951 505.195 324.624"/>
      <polygon class="cls-13" points="504.379 324.949 505.194 325.602 505.195 324.624 504.379 324.949"/>
      <polygon class="cls-13" points="505.194 325.602 506.172 325.604 505.847 324.951 505.194 325.602"/>
      <polygon class="cls-8" points="505.194 325.602 506.172 325.604 505.847 324.951 505.194 325.602"/>
      <polygon class="cls-8" points="504.379 324.949 505.194 325.602 505.195 324.624 504.379 324.949"/>
      <polygon class="cls-8" points="505.195 324.624 505.194 325.602 505.847 324.951 505.195 324.624"/>
      <polygon class="cls-13" points="505.192 326.744 505.194 325.602 504.376 326.417 505.192 326.744"/>
      <polygon class="cls-13" points="504.215 325.601 505.194 325.602 504.379 324.949 504.215 325.601"/>
      <polygon class="cls-13" points="504.376 326.417 505.194 325.602 504.215 325.601 504.376 326.417"/>
      <polygon class="cls-8" points="505.192 326.744 505.194 325.602 504.376 326.417 505.192 326.744"/>
      <polygon class="cls-8" points="504.215 325.601 505.194 325.602 504.379 324.949 504.215 325.601"/>
      <polygon class="cls-8" points="504.376 326.417 505.194 325.602 504.215 325.601 504.376 326.417"/>
      <polygon class="cls-13" points="505.192 326.744 505.845 326.419 505.194 325.602 505.192 326.744"/>
      <polygon class="cls-13" points="505.845 326.419 506.172 325.604 505.194 325.602 505.845 326.419"/>
      <polygon class="cls-8" points="505.192 326.744 505.845 326.419 505.194 325.602 505.192 326.744"/>
      <polygon class="cls-8" points="505.845 326.419 506.172 325.604 505.194 325.602 505.845 326.419"/>
      <line class="cls-10" x1="504.215" y1="325.601" x2="503.073" y2="325.599"/>
      <text class="cls-1" transform="translate(428.106 324.205) rotate(.099)"><tspan x="0" y="0">545</tspan></text>
      <line class="cls-10" x1="390.079" y1="388.209" x2="391.384" y2="388.212"/>
      <line class="cls-10" x1="386.972" y1="203.215" x2="396.759" y2="203.231"/>
      <line class="cls-10" x1="393.835" y1="386.095" x2="394.146" y2="205.185"/>
      <polygon class="cls-13" points="393.83 389.195 394.645 388.87 393.831 388.216 393.83 389.195"/>
      <polygon class="cls-13" points="394.645 388.87 394.973 388.218 393.831 388.216 394.645 388.87"/>
      <polygon class="cls-13" points="393.831 388.216 394.973 388.218 394.648 387.565 393.831 388.216"/>
      <polygon class="cls-8" points="393.83 389.195 394.645 388.87 393.831 388.216 393.83 389.195"/>
      <polygon class="cls-8" points="393.831 388.216 394.973 388.218 394.648 387.565 393.831 388.216"/>
      <polygon class="cls-8" points="394.645 388.87 394.973 388.218 393.831 388.216 394.645 388.87"/>
      <polygon class="cls-13" points="392.852 388.214 393.831 388.216 393.18 387.562 392.852 388.214"/>
      <polygon class="cls-13" points="393.18 387.562 393.831 388.216 393.833 387.237 393.18 387.562"/>
      <polygon class="cls-13" points="393.831 388.216 394.648 387.565 393.833 387.237 393.831 388.216"/>
      <polygon class="cls-8" points="392.852 388.214 393.831 388.216 393.18 387.562 392.852 388.214"/>
      <polygon class="cls-8" points="393.831 388.216 394.648 387.565 393.833 387.237 393.831 388.216"/>
      <polygon class="cls-8" points="393.18 387.562 393.831 388.216 393.833 387.237 393.18 387.562"/>
      <polygon class="cls-13" points="393.83 389.195 393.831 388.216 393.177 388.867 393.83 389.195"/>
      <polygon class="cls-13" points="393.177 388.867 393.831 388.216 392.852 388.214 393.177 388.867"/>
      <polygon class="cls-8" points="393.83 389.195 393.831 388.216 393.177 388.867 393.83 389.195"/>
      <polygon class="cls-8" points="393.177 388.867 393.831 388.216 392.852 388.214 393.177 388.867"/>
      <line class="cls-10" x1="393.833" y1="387.237" x2="393.835" y2="386.095"/>
      <polygon class="cls-13" points="393.496 203.878 394.149 203.227 393.171 203.225 393.496 203.878"/>
      <polygon class="cls-13" points="394.149 203.227 394.151 202.085 393.498 202.41 394.149 203.227"/>
      <polygon class="cls-13" points="393.171 203.225 394.149 203.227 393.498 202.41 393.171 203.225"/>
      <polygon class="cls-8" points="393.171 203.225 394.149 203.227 393.498 202.41 393.171 203.225"/>
      <polygon class="cls-8" points="393.496 203.878 394.149 203.227 393.171 203.225 393.496 203.878"/>
      <polygon class="cls-8" points="394.149 203.227 394.151 202.085 393.498 202.41 394.149 203.227"/>
      <polygon class="cls-13" points="393.496 203.878 394.148 204.206 394.149 203.227 393.496 203.878"/>
      <polygon class="cls-13" points="394.148 204.206 394.964 203.881 394.149 203.227 394.148 204.206"/>
      <polygon class="cls-13" points="394.964 203.881 395.291 203.229 394.149 203.227 394.964 203.881"/>
      <polygon class="cls-8" points="394.148 204.206 394.964 203.881 394.149 203.227 394.148 204.206"/>
      <polygon class="cls-8" points="393.496 203.878 394.148 204.206 394.149 203.227 393.496 203.878"/>
      <polygon class="cls-8" points="394.964 203.881 395.291 203.229 394.149 203.227 394.964 203.881"/>
      <polygon class="cls-13" points="394.151 202.085 394.149 203.227 394.966 202.413 394.151 202.085"/>
      <polygon class="cls-13" points="394.149 203.227 395.291 203.229 394.966 202.413 394.149 203.227"/>
      <polygon class="cls-8" points="394.151 202.085 394.149 203.227 394.966 202.413 394.151 202.085"/>
      <polygon class="cls-8" points="394.149 203.227 395.291 203.229 394.966 202.413 394.149 203.227"/>
      <line class="cls-10" x1="394.148" y1="204.206" x2="394.146" y2="205.185"/>
      <text class="cls-2" transform="translate(392.47 302.496) rotate(-89.901)"><tspan x="0" y="0">720</tspan></text>
      <line class="cls-10" x1="360.11" y1="360.915" x2="360.112" y2="359.936"/>
      <line class="cls-10" x1="458.803" y1="361.085" x2="458.805" y2="360.106"/>
      <line class="cls-10" x1="362.074" y1="357.33" x2="456.852" y2="357.493"/>
      <polygon class="cls-13" points="358.975 357.325 359.299 358.14 360.116 357.326 358.975 357.325"/>
      <polygon class="cls-13" points="359.299 358.14 360.115 358.305 360.116 357.326 359.299 358.14"/>
      <polygon class="cls-13" points="360.115 358.305 360.767 358.143 360.116 357.326 360.115 358.305"/>
      <polygon class="cls-8" points="358.975 357.325 359.299 358.14 360.116 357.326 358.975 357.325"/>
      <polygon class="cls-8" points="359.299 358.14 360.115 358.305 360.116 357.326 359.299 358.14"/>
      <polygon class="cls-8" points="360.115 358.305 360.767 358.143 360.116 357.326 360.115 358.305"/>
      <polygon class="cls-13" points="360.767 358.143 361.095 357.328 360.116 357.326 360.767 358.143"/>
      <polygon class="cls-13" points="360.118 356.347 360.116 357.326 360.77 356.675 360.118 356.347"/>
      <polygon class="cls-13" points="360.116 357.326 361.095 357.328 360.77 356.675 360.116 357.326"/>
      <polygon class="cls-8" points="360.767 358.143 361.095 357.328 360.116 357.326 360.767 358.143"/>
      <polygon class="cls-8" points="360.116 357.326 361.095 357.328 360.77 356.675 360.116 357.326"/>
      <polygon class="cls-8" points="360.118 356.347 360.116 357.326 360.77 356.675 360.118 356.347"/>
      <polygon class="cls-13" points="358.975 357.325 360.116 357.326 359.302 356.672 358.975 357.325"/>
      <polygon class="cls-13" points="360.116 357.326 360.118 356.347 359.302 356.672 360.116 357.326"/>
      <polygon class="cls-8" points="358.975 357.325 360.116 357.326 359.302 356.672 358.975 357.325"/>
      <polygon class="cls-8" points="360.116 357.326 360.118 356.347 359.302 356.672 360.116 357.326"/>
      <line class="cls-10" x1="361.095" y1="357.328" x2="362.074" y2="357.33"/>
      <polygon class="cls-13" points="458.158 356.843 458.809 357.496 458.811 356.517 458.158 356.843"/>
      <polygon class="cls-13" points="458.811 356.517 458.809 357.496 459.626 356.845 458.811 356.517"/>
      <polygon class="cls-13" points="458.809 357.496 459.952 357.498 459.626 356.845 458.809 357.496"/>
      <polygon class="cls-8" points="458.811 356.517 458.809 357.496 459.626 356.845 458.811 356.517"/>
      <polygon class="cls-8" points="458.158 356.843 458.809 357.496 458.811 356.517 458.158 356.843"/>
      <polygon class="cls-8" points="458.809 357.496 459.952 357.498 459.626 356.845 458.809 357.496"/>
      <polygon class="cls-13" points="458.808 358.475 458.809 357.496 458.156 358.311 458.808 358.475"/>
      <polygon class="cls-13" points="457.831 357.494 458.809 357.496 458.158 356.843 457.831 357.494"/>
      <polygon class="cls-13" points="458.156 358.311 458.809 357.496 457.831 357.494 458.156 358.311"/>
      <polygon class="cls-8" points="458.808 358.475 458.809 357.496 458.156 358.311 458.808 358.475"/>
      <polygon class="cls-8" points="457.831 357.494 458.809 357.496 458.158 356.843 457.831 357.494"/>
      <polygon class="cls-8" points="458.156 358.311 458.809 357.496 457.831 357.494 458.156 358.311"/>
      <polygon class="cls-13" points="458.808 358.475 459.624 358.313 458.809 357.496 458.808 358.475"/>
      <polygon class="cls-13" points="459.624 358.313 459.952 357.498 458.809 357.496 459.624 358.313"/>
      <polygon class="cls-8" points="458.808 358.475 459.624 358.313 458.809 357.496 458.808 358.475"/>
      <polygon class="cls-8" points="459.624 358.313 459.952 357.498 458.809 357.496 459.624 358.313"/>
      <line class="cls-10" x1="457.831" y1="357.494" x2="456.852" y2="357.493"/>
      <text class="cls-1" transform="translate(402.602 356.134) rotate(.099)"><tspan x="0" y="0">385</tspan></text>
      <line class="cls-10" x1="489.668" y1="342.052" x2="493.257" y2="342.058"/>
      <line class="cls-10" x1="486.322" y1="200.612" x2="493.5" y2="200.625"/>
      <line class="cls-10" x1="490.65" y1="339.933" x2="490.886" y2="202.741"/>
      <polygon class="cls-13" points="491.461 342.707 491.788 342.055 490.647 342.054 491.461 342.707"/>
      <polygon class="cls-13" points="490.645 343.032 491.461 342.707 490.647 342.054 490.645 343.032"/>
      <polygon class="cls-13" points="490.647 342.054 491.788 342.055 491.463 341.402 490.647 342.054"/>
      <polygon class="cls-8" points="490.645 343.032 491.461 342.707 490.647 342.054 490.645 343.032"/>
      <polygon class="cls-8" points="490.647 342.054 491.788 342.055 491.463 341.402 490.647 342.054"/>
      <polygon class="cls-8" points="491.461 342.707 491.788 342.055 490.647 342.054 491.461 342.707"/>
      <polygon class="cls-13" points="489.995 341.4 490.647 342.054 490.648 341.075 489.995 341.4"/>
      <polygon class="cls-13" points="489.668 342.052 490.647 342.054 489.995 341.4 489.668 342.052"/>
      <polygon class="cls-13" points="490.647 342.054 491.463 341.402 490.648 341.075 490.647 342.054"/>
      <polygon class="cls-8" points="489.668 342.052 490.647 342.054 489.995 341.4 489.668 342.052"/>
      <polygon class="cls-8" points="489.995 341.4 490.647 342.054 490.648 341.075 489.995 341.4"/>
      <polygon class="cls-8" points="490.647 342.054 491.463 341.402 490.648 341.075 490.647 342.054"/>
      <polygon class="cls-13" points="490.645 343.032 490.647 342.054 489.993 342.705 490.645 343.032"/>
      <polygon class="cls-13" points="489.993 342.705 490.647 342.054 489.668 342.052 489.993 342.705"/>
      <polygon class="cls-8" points="490.645 343.032 490.647 342.054 489.993 342.705 490.645 343.032"/>
      <polygon class="cls-8" points="489.993 342.705 490.647 342.054 489.668 342.052 489.993 342.705"/>
      <line class="cls-10" x1="490.648" y1="341.075" x2="490.65" y2="339.933"/>
      <polygon class="cls-13" points="490.236 201.435 490.89 200.62 489.911 200.618 490.236 201.435"/>
      <polygon class="cls-13" points="490.89 200.62 490.892 199.641 490.239 199.967 490.89 200.62"/>
      <polygon class="cls-13" points="489.911 200.618 490.89 200.62 490.239 199.967 489.911 200.618"/>
      <polygon class="cls-8" points="490.236 201.435 490.89 200.62 489.911 200.618 490.236 201.435"/>
      <polygon class="cls-8" points="490.89 200.62 490.892 199.641 490.239 199.967 490.89 200.62"/>
      <polygon class="cls-8" points="489.911 200.618 490.89 200.62 490.239 199.967 489.911 200.618"/>
      <polygon class="cls-13" points="490.236 201.435 490.888 201.599 490.89 200.62 490.236 201.435"/>
      <polygon class="cls-13" points="491.704 201.437 492.032 200.622 490.89 200.62 491.704 201.437"/>
      <polygon class="cls-13" points="490.888 201.599 491.704 201.437 490.89 200.62 490.888 201.599"/>
      <polygon class="cls-8" points="490.888 201.599 491.704 201.437 490.89 200.62 490.888 201.599"/>
      <polygon class="cls-8" points="490.236 201.435 490.888 201.599 490.89 200.62 490.236 201.435"/>
      <polygon class="cls-8" points="491.704 201.437 492.032 200.622 490.89 200.62 491.704 201.437"/>
      <polygon class="cls-13" points="490.89 200.62 492.032 200.622 491.707 199.969 490.89 200.62"/>
      <polygon class="cls-13" points="490.892 199.641 490.89 200.62 491.707 199.969 490.892 199.641"/>
      <polygon class="cls-8" points="490.892 199.641 490.89 200.62 491.707 199.969 490.892 199.641"/>
      <polygon class="cls-8" points="490.89 200.62 492.032 200.622 491.707 199.969 490.89 200.62"/>
      <line class="cls-10" x1="490.888" y1="201.599" x2="490.886" y2="202.741"/>
      <text class="cls-2" transform="translate(489.245 278.192) rotate(-89.901)"><tspan x="0" y="0">550</tspan></text>
      <polygon class="cls-4" points="501.443 229.676 502.422 229.677 501.933 229.513 501.443 229.676"/>
      <polygon class="cls-7" points="501.443 229.676 502.422 229.677 501.933 229.513 501.443 229.676"/>
      <polygon class="cls-4" points="500.954 229.838 502.911 229.841 501.443 229.676 500.954 229.838"/>
      <polygon class="cls-4" points="501.443 229.676 502.911 229.841 502.422 229.677 501.443 229.676"/>
      <polygon class="cls-7" points="501.443 229.676 502.911 229.841 502.422 229.677 501.443 229.676"/>
      <polygon class="cls-7" points="500.954 229.838 502.911 229.841 501.443 229.676 500.954 229.838"/>
      <polygon class="cls-4" points="500.464 230 503.4 230.005 500.954 229.838 500.464 230"/>
      <polygon class="cls-4" points="500.954 229.838 503.4 230.005 502.911 229.841 500.954 229.838"/>
      <polygon class="cls-7" points="500.464 230 503.4 230.005 500.954 229.838 500.464 230"/>
      <polygon class="cls-7" points="500.954 229.838 503.4 230.005 502.911 229.841 500.954 229.838"/>
      <polygon class="cls-4" points="499.974 230.325 503.726 230.332 500.464 230 499.974 230.325"/>
      <polygon class="cls-4" points="500.464 230 503.726 230.332 503.4 230.005 500.464 230"/>
      <polygon class="cls-7" points="499.974 230.325 503.726 230.332 500.464 230 499.974 230.325"/>
      <polygon class="cls-7" points="500.464 230 503.726 230.332 503.4 230.005 500.464 230"/>
      <polygon class="cls-4" points="499.647 230.651 504.052 230.659 499.974 230.325 499.647 230.651"/>
      <polygon class="cls-4" points="499.974 230.325 504.052 230.659 503.726 230.332 499.974 230.325"/>
      <polygon class="cls-7" points="499.647 230.651 504.052 230.659 499.974 230.325 499.647 230.651"/>
      <polygon class="cls-7" points="499.974 230.325 504.052 230.659 503.726 230.332 499.974 230.325"/>
      <polygon class="cls-4" points="499.647 230.651 504.377 231.149 504.052 230.659 499.647 230.651"/>
      <polygon class="cls-4" points="499.483 231.14 504.377 231.149 499.647 230.651 499.483 231.14"/>
      <polygon class="cls-7" points="499.483 231.14 504.377 231.149 499.647 230.651 499.483 231.14"/>
      <polygon class="cls-7" points="499.647 230.651 504.377 231.149 504.052 230.659 499.647 230.651"/>
      <polygon class="cls-4" points="499.483 231.14 504.539 231.638 504.377 231.149 499.483 231.14"/>
      <polygon class="cls-4" points="499.319 231.629 504.539 231.638 499.483 231.14 499.319 231.629"/>
      <polygon class="cls-7" points="499.319 231.629 504.539 231.638 499.483 231.14 499.319 231.629"/>
      <polygon class="cls-7" points="499.483 231.14 504.539 231.638 504.377 231.149 499.483 231.14"/>
      <polygon class="cls-4" points="499.155 232.118 504.538 232.128 499.319 231.629 499.155 232.118"/>
      <polygon class="cls-4" points="504.538 232.128 504.539 231.638 499.319 231.629 504.538 232.128"/>
      <polygon class="cls-7" points="499.155 232.118 504.538 232.128 499.319 231.629 499.155 232.118"/>
      <polygon class="cls-7" points="504.538 232.128 504.539 231.638 499.319 231.629 504.538 232.128"/>
      <polygon class="cls-4" points="499.154 232.608 504.538 232.617 499.155 232.118 499.154 232.608"/>
      <polygon class="cls-4" points="504.538 232.617 504.538 232.128 499.155 232.118 504.538 232.617"/>
      <polygon class="cls-7" points="504.538 232.617 504.538 232.128 499.155 232.118 504.538 232.617"/>
      <polygon class="cls-7" points="499.154 232.608 504.538 232.617 499.155 232.118 499.154 232.608"/>
      <polygon class="cls-4" points="504.374 233.106 504.538 232.617 499.154 232.608 504.374 233.106"/>
      <polygon class="cls-4" points="499.317 233.097 504.374 233.106 499.154 232.608 499.317 233.097"/>
      <polygon class="cls-7" points="499.317 233.097 504.374 233.106 499.154 232.608 499.317 233.097"/>
      <polygon class="cls-7" points="504.374 233.106 504.538 232.617 499.154 232.608 504.374 233.106"/>
      <polygon class="cls-4" points="504.21 233.596 504.374 233.106 499.317 233.097 504.21 233.596"/>
      <polygon class="cls-4" points="499.479 233.587 504.21 233.596 499.317 233.097 499.479 233.587"/>
      <polygon class="cls-7" points="499.479 233.587 504.21 233.596 499.317 233.097 499.479 233.587"/>
      <polygon class="cls-7" points="504.21 233.596 504.374 233.106 499.317 233.097 504.21 233.596"/>
      <polygon class="cls-4" points="503.883 234.084 504.21 233.596 499.479 233.587 503.883 234.084"/>
      <polygon class="cls-4" points="499.805 234.077 503.883 234.084 499.479 233.587 499.805 234.077"/>
      <polygon class="cls-7" points="499.805 234.077 503.883 234.084 499.479 233.587 499.805 234.077"/>
      <polygon class="cls-7" points="503.883 234.084 504.21 233.596 499.479 233.587 503.883 234.084"/>
      <polygon class="cls-4" points="500.13 234.404 503.556 234.41 499.805 234.077 500.13 234.404"/>
      <polygon class="cls-4" points="503.556 234.41 503.883 234.084 499.805 234.077 503.556 234.41"/>
      <polygon class="cls-7" points="503.556 234.41 503.883 234.084 499.805 234.077 503.556 234.41"/>
      <polygon class="cls-7" points="500.13 234.404 503.556 234.41 499.805 234.077 500.13 234.404"/>
      <polygon class="cls-4" points="500.619 234.568 503.066 234.572 500.13 234.404 500.619 234.568"/>
      <polygon class="cls-4" points="503.066 234.572 503.556 234.41 500.13 234.404 503.066 234.572"/>
      <polygon class="cls-7" points="500.619 234.568 503.066 234.572 500.13 234.404 500.619 234.568"/>
      <polygon class="cls-7" points="503.066 234.572 503.556 234.41 500.13 234.404 503.066 234.572"/>
      <polygon class="cls-4" points="501.108 234.895 502.576 234.898 500.619 234.568 501.108 234.895"/>
      <polygon class="cls-4" points="502.576 234.898 503.066 234.572 500.619 234.568 502.576 234.898"/>
      <polygon class="cls-7" points="501.108 234.895 502.576 234.898 500.619 234.568 501.108 234.895"/>
      <polygon class="cls-7" points="502.576 234.898 503.066 234.572 500.619 234.568 502.576 234.898"/>
      <polygon class="cls-4" points="501.598 234.896 502.087 234.897 501.108 234.895 501.598 234.896"/>
      <polygon class="cls-4" points="502.087 234.897 502.576 234.898 501.108 234.895 502.087 234.897"/>
      <polygon class="cls-7" points="501.598 234.896 502.087 234.897 501.108 234.895 501.598 234.896"/>
      <polygon class="cls-7" points="502.087 234.897 502.576 234.898 501.108 234.895 502.087 234.897"/>
      <text class="cls-3" transform="translate(497.964 236.61) rotate(-89.901) scale(1 1.25)"><tspan x="0" y="0">EXT</tspan></text>
      <path class="cls-5" d="M504.539,232.209c.003-1.487-1.2-2.694-2.687-2.696-1.487-.003-2.694,1.2-2.696,2.687s1.2,2.694,2.687,2.696c1.487.003,2.694-1.2,2.696-2.687"/>
      <line class="cls-10" x1="510.343" y1="271.942" x2="510.341" y2="272.92"/>
      <polygon class="cls-13" points="509.358 275.529 509.683 276.345 510.337 275.53 509.358 275.529"/>
      <polygon class="cls-13" points="510.335 276.509 511.151 276.347 510.337 275.53 510.335 276.509"/>
      <polygon class="cls-13" points="509.683 276.345 510.335 276.509 510.337 275.53 509.683 276.345"/>
      <polygon class="cls-8" points="509.358 275.529 509.683 276.345 510.337 275.53 509.358 275.529"/>
      <polygon class="cls-8" points="509.683 276.345 510.335 276.509 510.337 275.53 509.683 276.345"/>
      <polygon class="cls-8" points="510.335 276.509 511.151 276.347 510.337 275.53 510.335 276.509"/>
      <polygon class="cls-13" points="511.151 276.347 511.478 275.532 510.337 275.53 511.151 276.347"/>
      <polygon class="cls-13" points="510.338 274.552 510.337 275.53 511.153 274.879 510.338 274.552"/>
      <polygon class="cls-13" points="510.337 275.53 511.478 275.532 511.153 274.879 510.337 275.53"/>
      <polygon class="cls-8" points="511.151 276.347 511.478 275.532 510.337 275.53 511.151 276.347"/>
      <polygon class="cls-8" points="510.337 275.53 511.478 275.532 511.153 274.879 510.337 275.53"/>
      <polygon class="cls-8" points="510.338 274.552 510.337 275.53 511.153 274.879 510.338 274.552"/>
      <polygon class="cls-13" points="509.358 275.529 510.337 275.53 509.685 274.877 509.358 275.529"/>
      <polygon class="cls-13" points="510.337 275.53 510.338 274.552 509.685 274.877 510.337 275.53"/>
      <polygon class="cls-8" points="509.358 275.529 510.337 275.53 509.685 274.877 509.358 275.529"/>
      <polygon class="cls-8" points="510.337 275.53 510.338 274.552 509.685 274.877 510.337 275.53"/>
      <text class="cls-3" transform="translate(503.102 283.6) rotate(-89.901) scale(1 1.25)"><tspan x="0" y="0">MCF 1h</tspan></text>
      <line class="cls-5" x1="353.53" y1="202.994" x2="353.544" y2="195.327"/>
      <path class="cls-14" d="M366.92,195.35l-13.377-.023,13.377.023Z"/>
      <path class="cls-9" d="M366.92,195.35l-13.377-.023,13.377.023Z"/>
      <polygon class="cls-14" points="353.53 202.994 366.907 203.017 353.544 195.327 353.53 202.994"/>
      <polygon class="cls-14" points="366.907 203.017 366.92 195.35 353.544 195.327 366.907 203.017"/>
      <polygon class="cls-9" points="353.53 202.994 366.907 203.017 353.544 195.327 353.53 202.994"/>
      <polygon class="cls-9" points="366.907 203.017 366.92 195.35 353.544 195.327 366.907 203.017"/>
      <polygon class="cls-14" points="361.523 203.171 366.907 203.18 361.524 203.008 361.523 203.171"/>
      <polygon class="cls-14" points="366.907 203.18 366.907 203.017 361.524 203.008 366.907 203.18"/>
      <polygon class="cls-9" points="361.523 203.171 366.907 203.18 361.524 203.008 361.523 203.171"/>
      <polygon class="cls-9" points="366.907 203.18 366.907 203.017 361.524 203.008 366.907 203.18"/>
      <polygon class="cls-14" points="361.523 203.171 359.236 393.309 361.816 393.309 366.907 203.18 361.523 203.171"/>
      <polygon class="cls-14" points="361.523 203.171 356.517 393.309 359.236 393.309 361.523 203.171"/>
      <polygon class="cls-9" points="361.523 203.171 359.236 393.309 361.816 393.309 366.907 203.18 361.523 203.171"/>
      <polygon class="cls-9" points="361.523 203.171 356.517 393.309 359.236 393.309 361.523 203.171"/>
      <line class="cls-5" x1="353.53" y1="202.994" x2="353.544" y2="195.327"/>
      <line class="cls-10" x1="470.997" y1="195.529" x2="471.649" y2="195.53"/>
      <polygon class="cls-13" points="474.096 195.534 475.238 195.536 474.913 194.72 474.096 195.534"/>
      <polygon class="cls-13" points="474.095 196.513 474.911 196.188 474.096 195.534 474.095 196.513"/>
      <polygon class="cls-13" points="474.911 196.188 475.238 195.536 474.096 195.534 474.911 196.188"/>
      <polygon class="cls-8" points="474.095 196.513 474.911 196.188 474.096 195.534 474.095 196.513"/>
      <polygon class="cls-8" points="474.911 196.188 475.238 195.536 474.096 195.534 474.911 196.188"/>
      <polygon class="cls-8" points="474.096 195.534 475.238 195.536 474.913 194.72 474.096 195.534"/>
      <polygon class="cls-13" points="473.118 195.533 474.096 195.534 473.445 194.718 473.118 195.533"/>
      <polygon class="cls-13" points="474.096 195.534 474.913 194.72 474.098 194.392 474.096 195.534"/>
      <polygon class="cls-13" points="473.445 194.718 474.096 195.534 474.098 194.392 473.445 194.718"/>
      <polygon class="cls-8" points="473.118 195.533 474.096 195.534 473.445 194.718 473.118 195.533"/>
      <polygon class="cls-8" points="474.096 195.534 474.913 194.72 474.098 194.392 474.096 195.534"/>
      <polygon class="cls-8" points="473.445 194.718 474.096 195.534 474.098 194.392 473.445 194.718"/>
      <polygon class="cls-13" points="474.095 196.513 474.096 195.534 473.443 196.186 474.095 196.513"/>
      <polygon class="cls-13" points="473.443 196.186 474.096 195.534 473.118 195.533 473.443 196.186"/>
      <polygon class="cls-8" points="474.095 196.513 474.096 195.534 473.443 196.186 474.095 196.513"/>
      <polygon class="cls-8" points="473.443 196.186 474.096 195.534 473.118 195.533 473.443 196.186"/>
      <line class="cls-10" x1="474.098" y1="194.392" x2="474.1" y2="193.414"/>
      <line class="cls-5" x1="504.112" y1="195.586" x2="510.474" y2="195.597"/>
    </g>
  </g>
</svg>