<?xml version="1.0" encoding="UTF-8"?>
<svg id="Layer_6" data-name="Layer 6" xmlns="http://www.w3.org/2000/svg" viewBox="0 0 841.89 595.276">
  <defs>
    <style>
      .cls-1 {
        font-size: 9.483px;
      }

      .cls-1, .cls-2, .cls-3 {
        font-family: TimesNewRomanPSMT, 'Times New Roman';
      }

      .cls-1, .cls-2, .cls-3, .cls-4 {
        fill: #010101;
      }

      .cls-2 {
        font-size: 9.483px;
      }

      .cls-3 {
        font-size: 4.369px;
      }

      .cls-5 {
        stroke-width: .18px;
      }

      .cls-5, .cls-6, .cls-7, .cls-8, .cls-9, .cls-10, .cls-11, .cls-12, .cls-13, .cls-14, .cls-15 {
        stroke-miterlimit: 10;
      }

      .cls-5, .cls-6, .cls-7, .cls-9, .cls-16 {
        stroke: #000;
      }

      .cls-5, .cls-6, .cls-7, .cls-9, .cls-16, .cls-10, .cls-11, .cls-12, .cls-13, .cls-14 {
        fill: none;
      }

      .cls-5, .cls-6, .cls-7, .cls-9, .cls-16, .cls-11, .cls-12, .cls-13, .cls-14 {
        stroke-linecap: round;
      }

      .cls-6, .cls-13, .cls-14 {
        stroke-width: .18px;
      }

      .cls-7 {
        stroke-width: .18px;
      }

      .cls-8 {
        fill: #fcd7d7;
      }

      .cls-8, .cls-15 {
        stroke: #fff;
      }

      .cls-16 {
        stroke-linejoin: round;
      }

      .cls-10, .cls-12, .cls-14 {
        stroke: #646566;
      }

      .cls-11, .cls-13 {
        stroke: #818181;
      }

      .cls-15 {
        fill: #d2edfb;
      }

      .cls-17 {
        fill: #818181;
      }

      .cls-18 {
        fill: #646566;
      }
    </style>
  </defs>
  <g>
    <polygon class="cls-15" points="501.857 95.006 304.611 186.173 304.61 392.566 409.992 392.56 410.115 511.029 525.774 510.83 525.774 337.622 560.003 337.689 560.197 112.888 519.411 132.067 501.857 95.006"/>
    <polygon class="cls-8" points="504.63 93.868 521.212 128.481 560.395 109.952 544.142 75.34 504.63 93.868"/>
  </g>
  <g>
    <polygon class="cls-18" points="299.093 186.173 304.15 186.182 299.098 182.91 299.093 186.173"/>
    <polygon class="cls-10" points="299.093 186.173 304.15 186.182 299.098 182.91 299.093 186.173"/>
    <polygon class="cls-18" points="318.64 392.566 318.64 392.403 304.61 392.542 318.64 392.566"/>
    <polygon class="cls-10" points="318.64 392.566 318.64 392.403 304.61 392.542 318.64 392.566"/>
    <polygon class="cls-18" points="299.39 392.37 304.611 392.379 299.093 186.173 299.39 392.37"/>
    <polygon class="cls-18" points="299.093 186.173 304.611 392.379 304.15 186.182 299.093 186.173"/>
    <polygon class="cls-10" points="299.39 392.37 304.611 392.379 299.093 186.173 299.39 392.37"/>
    <polygon class="cls-10" points="299.093 186.173 304.611 392.379 304.15 186.182 299.093 186.173"/>
    <polygon class="cls-18" points="304.61 392.542 304.611 392.379 299.39 392.37 304.61 392.542"/>
    <polygon class="cls-18" points="299.39 392.533 304.61 392.542 299.39 392.37 299.39 392.533"/>
    <polygon class="cls-10" points="299.39 392.533 304.61 392.542 299.39 392.37 299.39 392.533"/>
    <polygon class="cls-10" points="304.61 392.542 304.611 392.379 299.39 392.37 304.61 392.542"/>
    <polygon class="cls-18" points="299.54 400.2 318.626 400.233 299.39 392.533 299.54 400.2"/>
    <polygon class="cls-18" points="318.626 400.233 318.64 392.566 299.39 392.533 318.626 400.233"/>
    <polygon class="cls-10" points="299.54 400.2 318.626 400.233 299.39 392.533 299.54 400.2"/>
    <polygon class="cls-10" points="318.626 400.233 318.64 392.566 299.39 392.533 318.626 400.233"/>
    <polygon class="cls-18" points="547.088 69.472 547.052 69.489 547.545 70.543 547.088 69.472"/>
    <polygon class="cls-18" points="547.052 69.489 542.353 71.748 548.063 71.758 547.545 70.543 547.052 69.489"/>
    <polygon class="cls-12" points="547.088 69.472 547.052 69.489 547.545 70.543 547.088 69.472"/>
    <polygon class="cls-12" points="547.052 69.489 542.353 71.748 548.063 71.758 547.545 70.543 547.052 69.489"/>
    <polygon class="cls-18" points="565.129 108.165 565.129 108.165 565.129 108.165 565.129 108.165"/>
    <polygon class="cls-18" points="565.129 108.165 542.353 71.748 559.419 108.155 565.129 108.165 565.129 108.165"/>
    <polygon class="cls-18" points="565.129 108.165 565.124 108.154 565.129 108.165 565.129 108.165"/>
    <polygon class="cls-18" points="542.353 71.748 565.129 108.165 565.124 108.154 548.063 71.758 542.353 71.748"/>
    <polygon class="cls-12" points="565.129 108.165 565.129 108.165 565.129 108.165 565.129 108.165"/>
    <polygon class="cls-12" points="565.129 108.165 542.353 71.748 559.419 108.155 565.129 108.165 565.129 108.165"/>
    <polygon class="cls-12" points="565.129 108.165 565.124 108.154 565.129 108.165 565.129 108.165"/>
    <polygon class="cls-12" points="542.353 71.748 565.129 108.165 565.124 108.154 548.063 71.758 542.353 71.748"/>
    <polygon class="cls-18" points="560.395 110.115 565.452 110.123 559.419 108.155 560.395 110.115"/>
    <polygon class="cls-18" points="565.129 108.165 559.419 108.155 565.452 110.123 565.129 108.165 565.129 108.165"/>
    <polygon class="cls-12" points="560.395 110.115 565.452 110.123 559.419 108.155 560.395 110.115"/>
    <polygon class="cls-12" points="565.129 108.165 559.419 108.155 565.452 110.123 565.129 108.165 565.129 108.165"/>
    <polygon class="cls-18" points="565.451 110.776 565.452 110.123 560.395 110.115 565.451 110.776"/>
    <polygon class="cls-18" points="560.394 110.767 565.451 110.776 560.395 110.115 560.394 110.767"/>
    <polygon class="cls-12" points="560.394 110.767 565.451 110.776 560.395 110.115 560.394 110.767"/>
    <polygon class="cls-12" points="565.451 110.776 565.452 110.123 560.395 110.115 565.451 110.776"/>
    <polygon class="cls-18" points="560.39 112.888 565.447 112.896 560.394 110.767 560.39 112.888"/>
    <polygon class="cls-18" points="565.447 112.896 565.451 110.776 560.394 110.767 565.447 112.896"/>
    <polygon class="cls-12" points="565.447 112.896 565.451 110.776 560.394 110.767 565.447 112.896"/>
    <polygon class="cls-12" points="560.39 112.888 565.447 112.896 560.394 110.767 560.39 112.888"/>
    <polygon class="cls-18" points="560.003 337.68 565.06 337.689 560.39 112.888 560.003 337.68"/>
    <polygon class="cls-18" points="565.06 337.689 565.447 112.896 560.39 112.888 565.06 337.689"/>
    <polygon class="cls-12" points="560.003 337.68 565.06 337.689 560.39 112.888 560.003 337.68"/>
    <polygon class="cls-12" points="565.06 337.689 565.447 112.896 560.39 112.888 565.06 337.689"/>
    <path class="cls-6" d="M557.843,313.37c-13.379-.023-24.243,10.804-24.266,24.183"/>
    <polyline class="cls-6" points="532.434 337.633 533.739 337.635 533.737 338.777 534.227 338.778 534.224 340.246 532.43 340.243"/>
    <line class="cls-6" x1="557.883" y1="337.677" x2="557.924" y2="313.533"/>
    <line class="cls-6" x1="559.351" y1="337.679" x2="557.393" y2="337.676"/>
    <polyline class="cls-6" points="557.883 337.677 557.881 338.819 557.391 338.818 557.389 340.286 559.346 340.289"/>
    <line class="cls-6" x1="557.393" y1="337.676" x2="557.435" y2="313.533"/>
    <polygon class="cls-18" points="559.342 342.899 571.665 342.92 571.665 340.664 559.351 337.679 559.342 342.899"/>
    <polygon class="cls-12" points="559.342 342.899 571.665 342.92 571.665 340.664 559.351 337.679 559.342 342.899"/>
    <polygon class="cls-18" points="559.351 337.679 571.665 340.664 571.665 337.7 559.351 337.679"/>
    <polygon class="cls-12" points="559.351 337.679 571.665 340.664 571.665 337.7 559.351 337.679"/>
    <line class="cls-6" x1="559.351" y1="337.679" x2="559.342" y2="342.899"/>
    <line class="cls-6" x1="532.434" y1="337.633" x2="532.425" y2="342.853"/>
    <polygon class="cls-4" points="542.688 351.19 550.845 351.204 546.774 346.956 542.688 351.19"/>
    <polygon class="cls-9" points="542.688 351.19 550.845 351.204 546.774 346.956 542.688 351.19"/>
    <polyline class="cls-6" points="550.845 351.204 542.688 351.19 546.774 346.956 550.845 351.204"/>
    <polygon class="cls-18" points="453.216 111.725 465.45 111.746 462.032 107.661 453.216 111.725"/>
    <polygon class="cls-18" points="465.45 111.746 474.266 107.683 462.032 107.661 465.45 111.746"/>
    <polygon class="cls-18" points="462.032 107.661 474.266 107.683 547.488 70.421 546.659 68.649 462.032 107.661"/>
    <polygon class="cls-18" points="474.266 107.683 548.82 73.271 547.488 70.421 474.266 107.683"/>
    <polygon class="cls-12" points="465.45 111.746 474.266 107.683 462.032 107.661 465.45 111.746"/>
    <polygon class="cls-12" points="453.216 111.725 465.45 111.746 462.032 107.661 453.216 111.725"/>
    <polygon class="cls-12" points="462.032 107.661 474.266 107.683 547.488 70.421 546.659 68.649 462.032 107.661"/>
    <polygon class="cls-12" points="474.266 107.683 548.82 73.271 547.488 70.421 474.266 107.683"/>
    <polygon class="cls-18" points="304.15 186.182 311.333 182.931 299.098 182.91 304.15 186.182"/>
    <polygon class="cls-18" points="311.333 182.931 453.216 111.725 299.098 182.91 311.333 182.931"/>
    <polygon class="cls-12" points="311.333 182.931 453.216 111.725 299.098 182.91 311.333 182.931"/>
    <polygon class="cls-12" points="304.15 186.182 311.333 182.931 299.098 182.91 304.15 186.182"/>
    <polygon class="cls-18" points="311.333 182.931 465.45 111.746 453.216 111.725 311.333 182.931"/>
    <polygon class="cls-12" points="311.333 182.931 465.45 111.746 453.216 111.725 311.333 182.931"/>
    <line class="cls-16" x1="550.845" y1="351.204" x2="550.85" y2="348.105"/>
    <line class="cls-16" x1="550.851" y1="347.452" x2="550.857" y2="344.353"/>
    <line class="cls-16" x1="550.858" y1="343.537" x2="550.863" y2="340.438"/>
    <line class="cls-16" x1="550.865" y1="339.622" x2="550.87" y2="336.686"/>
    <line class="cls-16" x1="550.871" y1="335.87" x2="550.877" y2="332.771"/>
    <line class="cls-16" x1="550.878" y1="331.955" x2="550.883" y2="328.856"/>
    <line class="cls-16" x1="550.884" y1="328.203" x2="550.89" y2="325.104"/>
    <line class="cls-16" x1="550.891" y1="324.288" x2="550.896" y2="321.188"/>
    <line class="cls-16" x1="550.898" y1="320.373" x2="550.903" y2="317.273"/>
    <line class="cls-16" x1="550.904" y1="316.621" x2="550.91" y2="313.521"/>
    <line class="cls-16" x1="550.911" y1="312.706" x2="550.916" y2="309.606"/>
    <line class="cls-16" x1="550.918" y1="308.954" x2="550.923" y2="305.854"/>
    <line class="cls-16" x1="550.924" y1="305.039" x2="550.93" y2="301.939"/>
    <line class="cls-16" x1="550.931" y1="301.124" x2="550.936" y2="298.024"/>
    <line class="cls-16" x1="550.937" y1="297.372" x2="550.943" y2="294.272"/>
    <line class="cls-16" x1="550.944" y1="293.456" x2="550.95" y2="290.357"/>
    <line class="cls-16" x1="550.951" y1="289.541" x2="550.956" y2="286.605"/>
    <line class="cls-16" x1="550.957" y1="285.789" x2="550.963" y2="282.69"/>
    <line class="cls-16" x1="550.964" y1="281.874" x2="550.969" y2="278.775"/>
    <line class="cls-16" x1="550.971" y1="278.122" x2="550.976" y2="275.023"/>
    <line class="cls-16" x1="550.977" y1="274.207" x2="550.983" y2="271.108"/>
    <line class="cls-16" x1="550.984" y1="270.292" x2="550.989" y2="267.193"/>
    <line class="cls-16" x1="550.99" y1="266.54" x2="550.996" y2="263.441"/>
    <line class="cls-16" x1="550.997" y1="262.625" x2="551.003" y2="259.526"/>
    <line class="cls-16" x1="551.004" y1="258.71" x2="551.009" y2="255.774"/>
    <line class="cls-16" x1="551.01" y1="254.958" x2="551.016" y2="251.858"/>
    <line class="cls-16" x1="551.017" y1="251.043" x2="551.022" y2="247.943"/>
    <line class="cls-16" x1="551.024" y1="247.291" x2="551.029" y2="244.191"/>
    <line class="cls-16" x1="551.03" y1="243.376" x2="551.036" y2="240.276"/>
    <line class="cls-16" x1="551.037" y1="239.461" x2="551.042" y2="236.361"/>
    <line class="cls-16" x1="551.044" y1="235.709" x2="551.049" y2="232.609"/>
    <polyline class="cls-16" points="551.05 231.794 551.054 229.347 549.427 227.06"/>
    <line class="cls-16" x1="548.939" y1="226.407" x2="547.149" y2="223.957"/>
    <line class="cls-16" x1="546.66" y1="223.303" x2="544.707" y2="220.853"/>
    <line class="cls-16" x1="544.382" y1="220.2" x2="542.429" y2="217.749"/>
    <line class="cls-16" x1="541.94" y1="217.259" x2="540.15" y2="214.646"/>
    <line class="cls-16" x1="539.661" y1="214.156" x2="537.872" y2="211.543"/>
    <line class="cls-16" x1="537.383" y1="211.052" x2="535.593" y2="208.602"/>
    <line class="cls-16" x1="535.104" y1="207.949" x2="533.314" y2="205.499"/>
    <line class="cls-16" x1="532.826" y1="204.846" x2="530.873" y2="202.395"/>
    <line class="cls-16" x1="530.547" y1="201.742" x2="528.594" y2="199.292"/>
    <line class="cls-16" x1="528.106" y1="198.639" x2="526.316" y2="196.189"/>
    <line class="cls-16" x1="525.827" y1="195.535" x2="524.037" y2="193.085"/>
    <line class="cls-16" x1="523.549" y1="192.432" x2="521.759" y2="189.982"/>
    <line class="cls-16" x1="521.27" y1="189.328" x2="519.48" y2="186.878"/>
    <line class="cls-16" x1="518.992" y1="186.225" x2="517.039" y2="183.775"/>
    <line class="cls-16" x1="516.713" y1="183.285" x2="514.76" y2="180.671"/>
    <line class="cls-16" x1="514.272" y1="180.181" x2="512.481" y2="177.731"/>
    <line class="cls-16" x1="511.993" y1="177.078" x2="510.203" y2="174.628"/>
    <line class="cls-16" x1="509.715" y1="173.974" x2="507.924" y2="171.524"/>
    <line class="cls-16" x1="507.436" y1="170.871" x2="505.646" y2="168.421"/>
    <line class="cls-16" x1="505.158" y1="167.768" x2="503.204" y2="165.317"/>
    <line class="cls-16" x1="502.879" y1="164.664" x2="500.926" y2="162.214"/>
    <line class="cls-16" x1="500.601" y1="161.561" x2="498.647" y2="159.11"/>
    <line class="cls-16" x1="498.159" y1="158.457" x2="496.369" y2="156.007"/>
    <line class="cls-16" x1="495.881" y1="155.354" x2="494.09" y2="152.904"/>
    <line class="cls-16" x1="493.602" y1="152.413" x2="491.812" y2="149.8"/>
    <line class="cls-16" x1="491.323" y1="149.31" x2="489.533" y2="146.697"/>
    <line class="cls-16" x1="489.045" y1="146.207" x2="487.092" y2="143.756"/>
    <line class="cls-16" x1="486.766" y1="143.103" x2="484.813" y2="140.653"/>
    <line class="cls-16" x1="484.325" y1="140" x2="482.535" y2="137.55"/>
    <line class="cls-16" x1="482.046" y1="136.896" x2="480.256" y2="134.446"/>
    <line class="cls-16" x1="479.768" y1="133.793" x2="477.978" y2="131.343"/>
    <line class="cls-16" x1="477.489" y1="130.689" x2="475.699" y2="128.239"/>
    <line class="cls-16" x1="475.211" y1="127.586" x2="473.258" y2="125.136"/>
    <line class="cls-16" x1="472.932" y1="124.483" x2="470.979" y2="122.032"/>
    <line class="cls-16" x1="470.491" y1="121.379" x2="468.701" y2="118.929"/>
    <line class="cls-16" x1="468.212" y1="118.439" x2="466.422" y2="115.826"/>
    <line class="cls-16" x1="465.934" y1="115.335" x2="464.143" y2="112.885"/>
    <line class="cls-16" x1="463.655" y1="112.232" x2="461.865" y2="109.782"/>
    <line class="cls-16" x1="461.377" y1="109.129" x2="459.423" y2="106.678"/>
    <line class="cls-16" x1="459.098" y1="106.025" x2="457.145" y2="103.575"/>
    <line class="cls-16" x1="334.434" y1="409.559" x2="334.439" y2="406.459"/>
    <line class="cls-16" x1="334.441" y1="405.644" x2="334.446" y2="402.707"/>
    <line class="cls-16" x1="334.447" y1="401.892" x2="334.452" y2="398.792"/>
    <line class="cls-16" x1="334.617" y1="397.977" x2="334.622" y2="394.877"/>
    <line class="cls-16" x1="334.624" y1="394.225" x2="334.629" y2="391.125"/>
    <line class="cls-16" x1="334.63" y1="390.31" x2="334.636" y2="387.21"/>
    <line class="cls-16" x1="334.637" y1="386.395" x2="334.642" y2="383.295"/>
    <line class="cls-16" x1="334.643" y1="382.643" x2="334.812" y2="379.544"/>
    <line class="cls-16" x1="334.813" y1="378.728" x2="334.819" y2="375.628"/>
    <line class="cls-16" x1="334.82" y1="374.813" x2="334.825" y2="371.876"/>
    <line class="cls-16" x1="334.826" y1="371.061" x2="334.832" y2="367.961"/>
    <line class="cls-16" x1="334.833" y1="367.146" x2="335.002" y2="364.046"/>
    <line class="cls-16" x1="335.003" y1="363.394" x2="335.008" y2="360.295"/>
    <line class="cls-16" x1="335.009" y1="359.479" x2="335.015" y2="356.379"/>
    <line class="cls-16" x1="335.016" y1="355.564" x2="335.022" y2="352.464"/>
    <line class="cls-16" x1="335.023" y1="351.812" x2="335.028" y2="348.712"/>
    <line class="cls-16" x1="335.029" y1="347.897" x2="335.198" y2="344.797"/>
    <line class="cls-16" x1="335.199" y1="343.982" x2="335.204" y2="341.045"/>
    <line class="cls-16" x1="335.206" y1="340.23" x2="335.211" y2="337.13"/>
    <line class="cls-16" x1="335.212" y1="336.315" x2="335.218" y2="333.215"/>
    <line class="cls-16" x1="335.219" y1="332.563" x2="335.387" y2="329.464"/>
    <line class="cls-16" x1="335.389" y1="328.648" x2="335.394" y2="325.548"/>
    <line class="cls-16" x1="335.396" y1="324.733" x2="335.401" y2="321.633"/>
    <line class="cls-16" x1="335.402" y1="320.981" x2="335.407" y2="317.881"/>
    <line class="cls-16" x1="335.409" y1="317.066" x2="335.414" y2="313.966"/>
    <line class="cls-16" x1="335.578" y1="313.314" x2="335.584" y2="310.215"/>
    <line class="cls-16" x1="335.585" y1="309.399" x2="335.59" y2="306.299"/>
    <line class="cls-16" x1="335.592" y1="305.484" x2="335.597" y2="302.384"/>
    <line class="cls-16" x1="335.598" y1="301.732" x2="335.604" y2="298.632"/>
    <line class="cls-16" x1="335.605" y1="297.817" x2="335.773" y2="294.718"/>
    <line class="cls-16" x1="335.775" y1="293.902" x2="335.78" y2="290.966"/>
    <line class="cls-16" x1="335.781" y1="290.15" x2="335.787" y2="287.05"/>
    <line class="cls-16" x1="335.788" y1="286.235" x2="335.793" y2="283.135"/>
    <line class="cls-16" x1="335.794" y1="282.483" x2="335.963" y2="279.384"/>
    <line class="cls-16" x1="335.964" y1="278.568" x2="335.97" y2="275.469"/>
    <line class="cls-16" x1="335.971" y1="274.653" x2="335.976" y2="271.553"/>
    <line class="cls-16" x1="335.978" y1="270.901" x2="335.983" y2="267.801"/>
    <line class="cls-16" x1="335.984" y1="266.986" x2="335.99" y2="263.886"/>
    <line class="cls-16" x1="336.154" y1="263.071" x2="336.159" y2="260.135"/>
    <line class="cls-16" x1="336.161" y1="259.319" x2="336.166" y2="256.22"/>
    <line class="cls-16" x1="336.167" y1="255.404" x2="336.173" y2="252.304"/>
    <line class="cls-16" x1="336.174" y1="251.652" x2="336.179" y2="248.552"/>
    <line class="cls-16" x1="336.181" y1="247.737" x2="336.349" y2="244.638"/>
    <line class="cls-16" x1="336.35" y1="243.822" x2="336.356" y2="240.723"/>
    <line class="cls-16" x1="336.357" y1="240.07" x2="336.362" y2="236.971"/>
    <line class="cls-16" x1="336.364" y1="236.155" x2="336.369" y2="233.055"/>
    <line class="cls-16" x1="336.37" y1="232.24" x2="336.538" y2="229.304"/>
    <line class="cls-16" x1="336.54" y1="228.488" x2="336.545" y2="225.389"/>
    <line class="cls-16" x1="336.547" y1="224.573" x2="336.552" y2="221.473"/>
    <line class="cls-16" x1="336.553" y1="220.821" x2="336.558" y2="217.722"/>
    <line class="cls-16" x1="336.56" y1="216.906" x2="336.565" y2="213.806"/>
    <line class="cls-16" x1="336.566" y1="212.991" x2="336.735" y2="209.892"/>
    <line class="cls-16" x1="336.736" y1="209.239" x2="336.742" y2="206.14"/>
    <line class="cls-16" x1="336.743" y1="205.324" x2="336.748" y2="202.224"/>
    <line class="cls-16" x1="336.749" y1="201.572" x2="336.755" y2="198.473"/>
    <line class="cls-16" x1="336.756" y1="197.657" x2="336.925" y2="194.558"/>
    <line class="cls-16" x1="336.926" y1="193.742" x2="336.931" y2="190.643"/>
    <line class="cls-16" x1="336.932" y1="189.99" x2="336.938" y2="186.891"/>
    <line class="cls-16" x1="336.939" y1="186.075" x2="336.944" y2="182.976"/>
    <line class="cls-16" x1="336.946" y1="182.16" x2="337.114" y2="179.224"/>
    <line class="cls-16" x1="337.115" y1="178.408" x2="337.121" y2="175.309"/>
    <line class="cls-16" x1="337.122" y1="174.493" x2="337.127" y2="171.394"/>
    <line class="cls-16" x1="337.129" y1="170.741" x2="337.134" y2="167.642"/>
    <line class="cls-16" x1="337.135" y1="166.826" x2="337.141" y2="163.727"/>
    <line class="cls-16" x1="337.142" y1="162.911" x2="337.311" y2="159.812"/>
    <line class="cls-6" x1="565.06" y1="337.689" x2="565.451" y2="110.776"/>
    <line class="cls-6" x1="560.003" y1="337.68" x2="560.39" y2="112.888"/>
    <line class="cls-6" x1="526.072" y1="337.622" x2="533.739" y2="337.635"/>
    <polyline class="cls-6" points="560.395 110.115 529.375 124.743 530.35 127.028 560.39 112.888"/>
    <text class="cls-1" transform="translate(451.931 235.084) rotate(.099)"><tspan x="0" y="0" xml:space="preserve"> Bureau 01</tspan></text>
    <text class="cls-1" transform="translate(454.03 246.997) rotate(.099)"><tspan x="0" y="0">S-123.40 m²</tspan></text>
    <polyline class="cls-6" points="453.647 240.109 497.04 240.183 497.026 248.014 453.634 247.939 453.647 240.109"/>
    <text class="cls-1" transform="translate(456.776 263.151) rotate(.099)"><tspan x="0" y="0">H.S.P.5.25</tspan></text>
    <line class="cls-13" x1="409.955" y1="414.419" x2="409.958" y2="412.625"/>
    <line class="cls-13" x1="525.94" y1="414.619" x2="525.943" y2="412.825"/>
    <line class="cls-13" x1="412.074" y1="415.239" x2="523.818" y2="415.431"/>
    <polygon class="cls-17" points="408.975 415.233 409.3 415.887 409.953 415.235 408.975 415.233"/>
    <polygon class="cls-17" points="409.3 415.887 409.952 416.214 409.953 415.235 409.3 415.887"/>
    <polygon class="cls-17" points="409.952 416.214 410.605 415.889 409.953 415.235 409.952 416.214"/>
    <polygon class="cls-11" points="408.975 415.233 409.3 415.887 409.953 415.235 408.975 415.233"/>
    <polygon class="cls-11" points="409.3 415.887 409.952 416.214 409.953 415.235 409.3 415.887"/>
    <polygon class="cls-11" points="409.952 416.214 410.605 415.889 409.953 415.235 409.952 416.214"/>
    <polygon class="cls-17" points="409.953 415.235 410.932 415.237 410.607 414.42 409.953 415.235"/>
    <polygon class="cls-17" points="410.605 415.889 410.932 415.237 409.953 415.235 410.605 415.889"/>
    <polygon class="cls-17" points="409.955 414.256 409.953 415.235 410.607 414.42 409.955 414.256"/>
    <polygon class="cls-11" points="410.605 415.889 410.932 415.237 409.953 415.235 410.605 415.889"/>
    <polygon class="cls-11" points="409.955 414.256 409.953 415.235 410.607 414.42 409.955 414.256"/>
    <polygon class="cls-11" points="409.953 415.235 410.932 415.237 410.607 414.42 409.953 415.235"/>
    <polygon class="cls-17" points="408.975 415.233 409.953 415.235 409.302 414.418 408.975 415.233"/>
    <polygon class="cls-17" points="409.953 415.235 409.955 414.256 409.302 414.418 409.953 415.235"/>
    <polygon class="cls-11" points="409.953 415.235 409.955 414.256 409.302 414.418 409.953 415.235"/>
    <polygon class="cls-11" points="408.975 415.233 409.953 415.235 409.302 414.418 408.975 415.233"/>
    <line class="cls-13" x1="410.932" y1="415.237" x2="412.074" y2="415.239"/>
    <polygon class="cls-17" points="525.124 414.618 525.938 415.435 525.94 414.456 525.124 414.618"/>
    <polygon class="cls-17" points="525.938 415.435 526.917 415.436 526.592 414.62 525.938 415.435"/>
    <polygon class="cls-17" points="525.94 414.456 525.938 415.435 526.592 414.62 525.94 414.456"/>
    <polygon class="cls-11" points="525.124 414.618 525.938 415.435 525.94 414.456 525.124 414.618"/>
    <polygon class="cls-11" points="525.94 414.456 525.938 415.435 526.592 414.62 525.94 414.456"/>
    <polygon class="cls-11" points="525.938 415.435 526.917 415.436 526.592 414.62 525.938 415.435"/>
    <polygon class="cls-17" points="525.937 416.413 525.938 415.435 525.122 416.086 525.937 416.413"/>
    <polygon class="cls-17" points="524.96 415.433 525.938 415.435 525.124 414.618 524.96 415.433"/>
    <polygon class="cls-17" points="525.122 416.086 525.938 415.435 524.96 415.433 525.122 416.086"/>
    <polygon class="cls-11" points="525.937 416.413 525.938 415.435 525.122 416.086 525.937 416.413"/>
    <polygon class="cls-11" points="525.122 416.086 525.938 415.435 524.96 415.433 525.122 416.086"/>
    <polygon class="cls-11" points="524.96 415.433 525.938 415.435 525.124 414.618 524.96 415.433"/>
    <polygon class="cls-17" points="525.937 416.413 526.59 416.088 525.938 415.435 525.937 416.413"/>
    <polygon class="cls-17" points="526.59 416.088 526.917 415.436 525.938 415.435 526.59 416.088"/>
    <polygon class="cls-11" points="525.937 416.413 526.59 416.088 525.938 415.435 525.937 416.413"/>
    <polygon class="cls-11" points="526.59 416.088 526.917 415.436 525.938 415.435 526.59 416.088"/>
    <line class="cls-13" x1="524.96" y1="415.433" x2="523.818" y2="415.431"/>
    <text class="cls-1" transform="translate(460.922 413.892) rotate(.099)"><tspan x="0" y="0">450</tspan></text>
    <line class="cls-13" x1="507.667" y1="510.997" x2="515.171" y2="511.01"/>
    <line class="cls-13" x1="522.157" y1="337.615" x2="510.412" y2="337.595"/>
    <line class="cls-13" x1="512.727" y1="508.885" x2="513.018" y2="339.72"/>
    <polygon class="cls-17" points="512.724 511.006 513.702 511.008 513.378 510.192 512.724 511.006"/>
    <polygon class="cls-17" points="512.722 511.985 513.375 511.66 512.724 511.006 512.722 511.985"/>
    <polygon class="cls-17" points="513.375 511.66 513.702 511.008 512.724 511.006 513.375 511.66"/>
    <polygon class="cls-11" points="512.722 511.985 513.375 511.66 512.724 511.006 512.722 511.985"/>
    <polygon class="cls-11" points="513.375 511.66 513.702 511.008 512.724 511.006 513.375 511.66"/>
    <polygon class="cls-11" points="512.724 511.006 513.702 511.008 513.378 510.192 512.724 511.006"/>
    <polygon class="cls-17" points="511.909 510.189 512.724 511.006 512.725 510.027 511.909 510.189"/>
    <polygon class="cls-17" points="511.582 511.004 512.724 511.006 511.909 510.189 511.582 511.004"/>
    <polygon class="cls-17" points="512.724 511.006 513.378 510.192 512.725 510.027 512.724 511.006"/>
    <polygon class="cls-11" points="512.724 511.006 513.378 510.192 512.725 510.027 512.724 511.006"/>
    <polygon class="cls-11" points="511.582 511.004 512.724 511.006 511.909 510.189 511.582 511.004"/>
    <polygon class="cls-11" points="511.909 510.189 512.724 511.006 512.725 510.027 511.909 510.189"/>
    <polygon class="cls-17" points="512.722 511.985 512.724 511.006 511.907 511.657 512.722 511.985"/>
    <polygon class="cls-17" points="511.907 511.657 512.724 511.006 511.582 511.004 511.907 511.657"/>
    <polygon class="cls-11" points="512.722 511.985 512.724 511.006 511.907 511.657 512.722 511.985"/>
    <polygon class="cls-11" points="511.907 511.657 512.724 511.006 511.582 511.004 511.907 511.657"/>
    <line class="cls-13" x1="512.725" y1="510.027" x2="512.727" y2="508.885"/>
    <polygon class="cls-17" points="511.88 337.597 513.022 337.599 512.207 336.946 511.88 337.597"/>
    <polygon class="cls-17" points="512.205 338.414 513.022 337.599 511.88 337.597 512.205 338.414"/>
    <polygon class="cls-17" points="513.022 337.599 513.024 336.621 512.207 336.946 513.022 337.599"/>
    <polygon class="cls-11" points="512.205 338.414 513.022 337.599 511.88 337.597 512.205 338.414"/>
    <polygon class="cls-11" points="513.022 337.599 513.024 336.621 512.207 336.946 513.022 337.599"/>
    <polygon class="cls-11" points="511.88 337.597 513.022 337.599 512.207 336.946 511.88 337.597"/>
    <polygon class="cls-17" points="512.205 338.414 513.02 338.741 513.022 337.599 512.205 338.414"/>
    <polygon class="cls-17" points="513.02 338.741 513.673 338.416 513.022 337.599 513.02 338.741"/>
    <polygon class="cls-17" points="513.673 338.416 514.001 337.601 513.022 337.599 513.673 338.416"/>
    <polygon class="cls-11" points="512.205 338.414 513.02 338.741 513.022 337.599 512.205 338.414"/>
    <polygon class="cls-11" points="513.673 338.416 514.001 337.601 513.022 337.599 513.673 338.416"/>
    <polygon class="cls-11" points="513.02 338.741 513.673 338.416 513.022 337.599 513.02 338.741"/>
    <polygon class="cls-17" points="513.024 336.621 513.022 337.599 513.676 336.948 513.024 336.621"/>
    <polygon class="cls-17" points="513.022 337.599 514.001 337.601 513.676 336.948 513.022 337.599"/>
    <polygon class="cls-11" points="513.024 336.621 513.022 337.599 513.676 336.948 513.024 336.621"/>
    <polygon class="cls-11" points="513.022 337.599 514.001 337.601 513.676 336.948 513.022 337.599"/>
    <line class="cls-13" x1="513.02" y1="338.741" x2="513.018" y2="339.72"/>
    <text class="cls-2" transform="translate(511.185 431.162) rotate(-89.901)"><tspan x="0" y="0">675</tspan></text>
    <polygon class="cls-4" points="521.502 339.409 522.154 339.41 521.991 339.246 521.502 339.409"/>
    <polygon class="cls-9" points="521.502 339.409 522.154 339.41 521.991 339.246 521.502 339.409"/>
    <polygon class="cls-4" points="521.502 339.409 522.48 339.41 521.338 339.408 521.502 339.409"/>
    <polygon class="cls-4" points="522.154 339.41 522.48 339.41 521.502 339.409 522.154 339.41"/>
    <polygon class="cls-9" points="522.154 339.41 522.48 339.41 521.502 339.409 522.154 339.41"/>
    <polygon class="cls-9" points="521.502 339.409 522.48 339.41 521.338 339.408 521.502 339.409"/>
    <polygon class="cls-4" points="521.012 339.408 522.807 339.411 521.338 339.408 521.012 339.408"/>
    <polygon class="cls-4" points="521.338 339.408 522.807 339.411 522.48 339.41 521.338 339.408"/>
    <polygon class="cls-9" points="521.012 339.408 522.807 339.411 521.338 339.408 521.012 339.408"/>
    <polygon class="cls-9" points="521.338 339.408 522.807 339.411 522.48 339.41 521.338 339.408"/>
    <polygon class="cls-4" points="520.849 339.57 522.97 339.574 521.012 339.408 520.849 339.57"/>
    <polygon class="cls-4" points="521.012 339.408 522.97 339.574 522.807 339.411 521.012 339.408"/>
    <polygon class="cls-9" points="520.849 339.57 522.97 339.574 521.012 339.408 520.849 339.57"/>
    <polygon class="cls-9" points="521.012 339.408 522.97 339.574 522.807 339.411 521.012 339.408"/>
    <polygon class="cls-4" points="520.522 339.733 523.295 339.738 520.849 339.57 520.522 339.733"/>
    <polygon class="cls-4" points="520.849 339.57 523.295 339.738 522.97 339.574 520.849 339.57"/>
    <polygon class="cls-9" points="520.522 339.733 523.295 339.738 520.849 339.57 520.522 339.733"/>
    <polygon class="cls-9" points="520.849 339.57 523.295 339.738 522.97 339.574 520.849 339.57"/>
    <polygon class="cls-4" points="520.359 339.896 523.458 339.901 520.522 339.733 520.359 339.896"/>
    <polygon class="cls-4" points="520.522 339.733 523.458 339.901 523.295 339.738 520.522 339.733"/>
    <polygon class="cls-9" points="520.359 339.896 523.458 339.901 520.522 339.733 520.359 339.896"/>
    <polygon class="cls-9" points="520.522 339.733 523.458 339.901 523.295 339.738 520.522 339.733"/>
    <polygon class="cls-4" points="523.458 339.901 523.622 339.901 520.359 339.896 523.458 339.901"/>
    <polygon class="cls-4" points="520.359 339.896 523.622 339.901 520.196 339.896 520.359 339.896"/>
    <polygon class="cls-9" points="523.458 339.901 523.622 339.901 520.359 339.896 523.458 339.901"/>
    <polygon class="cls-9" points="520.359 339.896 523.622 339.901 520.196 339.896 520.359 339.896"/>
    <polygon class="cls-4" points="520.032 340.222 523.784 340.228 520.196 339.896 520.032 340.222"/>
    <polygon class="cls-4" points="520.196 339.896 523.784 340.228 523.622 339.901 520.196 339.896"/>
    <polygon class="cls-9" points="520.032 340.222 523.784 340.228 520.196 339.896 520.032 340.222"/>
    <polygon class="cls-9" points="520.196 339.896 523.784 340.228 523.622 339.901 520.196 339.896"/>
    <polygon class="cls-4" points="520.032 340.222 523.947 340.391 523.784 340.228 520.032 340.222"/>
    <polygon class="cls-4" points="519.869 340.384 523.947 340.391 520.032 340.222 519.869 340.384"/>
    <polygon class="cls-9" points="519.869 340.384 523.947 340.391 520.032 340.222 519.869 340.384"/>
    <polygon class="cls-9" points="520.032 340.222 523.947 340.391 523.784 340.228 520.032 340.222"/>
    <polygon class="cls-4" points="519.705 340.547 524.11 340.555 519.869 340.384 519.705 340.547"/>
    <polygon class="cls-4" points="519.869 340.384 524.11 340.555 523.947 340.391 519.869 340.384"/>
    <polygon class="cls-9" points="519.705 340.547 524.11 340.555 519.869 340.384 519.705 340.547"/>
    <polygon class="cls-9" points="519.869 340.384 524.11 340.555 523.947 340.391 519.869 340.384"/>
    <polygon class="cls-4" points="519.542 340.71 524.273 340.718 519.705 340.547 519.542 340.71"/>
    <polygon class="cls-4" points="519.705 340.547 524.273 340.718 524.11 340.555 519.705 340.547"/>
    <polygon class="cls-9" points="519.542 340.71 524.273 340.718 519.705 340.547 519.542 340.71"/>
    <polygon class="cls-9" points="519.705 340.547 524.273 340.718 524.11 340.555 519.705 340.547"/>
    <polygon class="cls-4" points="519.378 341.036 524.435 341.045 519.542 340.71 519.378 341.036"/>
    <polygon class="cls-4" points="519.542 340.71 524.435 341.045 524.273 340.718 519.542 340.71"/>
    <polygon class="cls-9" points="519.378 341.036 524.435 341.045 519.542 340.71 519.378 341.036"/>
    <polygon class="cls-9" points="519.542 340.71 524.435 341.045 524.273 340.718 519.542 340.71"/>
    <polygon class="cls-4" points="519.378 341.199 524.435 341.208 519.378 341.036 519.378 341.199"/>
    <polygon class="cls-4" points="524.435 341.208 524.435 341.045 519.378 341.036 524.435 341.208"/>
    <polygon class="cls-9" points="524.435 341.208 524.435 341.045 519.378 341.036 524.435 341.208"/>
    <polygon class="cls-9" points="519.378 341.199 524.435 341.208 519.378 341.036 519.378 341.199"/>
    <polygon class="cls-4" points="519.214 341.525 524.598 341.535 519.378 341.199 519.214 341.525"/>
    <polygon class="cls-4" points="519.378 341.199 524.598 341.535 524.435 341.208 519.378 341.199"/>
    <polygon class="cls-9" points="519.214 341.525 524.598 341.535 519.378 341.199 519.214 341.525"/>
    <polygon class="cls-9" points="519.378 341.199 524.598 341.535 524.435 341.208 519.378 341.199"/>
    <polygon class="cls-4" points="519.214 341.688 524.597 341.698 519.214 341.525 519.214 341.688"/>
    <polygon class="cls-4" points="524.597 341.698 524.598 341.535 519.214 341.525 524.597 341.698"/>
    <polygon class="cls-9" points="519.214 341.688 524.597 341.698 519.214 341.525 519.214 341.688"/>
    <polygon class="cls-9" points="524.597 341.698 524.598 341.535 519.214 341.525 524.597 341.698"/>
    <polygon class="cls-4" points="524.597 342.024 524.597 341.698 519.214 341.688 524.597 342.024"/>
    <polygon class="cls-4" points="519.213 342.014 524.597 342.024 519.214 341.688 519.213 342.014"/>
    <polygon class="cls-9" points="524.597 342.024 524.597 341.698 519.214 341.688 524.597 342.024"/>
    <polygon class="cls-9" points="519.213 342.014 524.597 342.024 519.214 341.688 519.213 342.014"/>
    <polygon class="cls-4" points="519.213 342.178 524.596 342.187 519.213 342.014 519.213 342.178"/>
    <polygon class="cls-4" points="524.596 342.187 524.597 342.024 519.213 342.014 524.596 342.187"/>
    <polygon class="cls-9" points="519.213 342.178 524.596 342.187 519.213 342.014 519.213 342.178"/>
    <polygon class="cls-9" points="524.596 342.187 524.597 342.024 519.213 342.014 524.596 342.187"/>
    <polygon class="cls-4" points="519.212 342.504 524.596 342.513 519.213 342.178 519.212 342.504"/>
    <polygon class="cls-4" points="524.596 342.513 524.596 342.187 519.213 342.178 524.596 342.513"/>
    <polygon class="cls-9" points="519.212 342.504 524.596 342.513 519.213 342.178 519.212 342.504"/>
    <polygon class="cls-9" points="524.596 342.513 524.596 342.187 519.213 342.178 524.596 342.513"/>
    <polygon class="cls-4" points="519.375 342.83 524.432 342.839 519.212 342.504 519.375 342.83"/>
    <polygon class="cls-4" points="524.432 342.839 524.596 342.513 519.212 342.504 524.432 342.839"/>
    <polygon class="cls-9" points="519.375 342.83 524.432 342.839 519.212 342.504 519.375 342.83"/>
    <polygon class="cls-9" points="524.432 342.839 524.596 342.513 519.212 342.504 524.432 342.839"/>
    <polygon class="cls-4" points="519.375 342.994 524.432 343.002 519.375 342.83 519.375 342.994"/>
    <polygon class="cls-4" points="524.432 343.002 524.432 342.839 519.375 342.83 524.432 343.002"/>
    <polygon class="cls-9" points="524.432 343.002 524.432 342.839 519.375 342.83 524.432 343.002"/>
    <polygon class="cls-9" points="519.375 342.994 524.432 343.002 519.375 342.83 519.375 342.994"/>
    <polygon class="cls-4" points="524.268 343.165 524.432 343.002 519.375 342.994 524.268 343.165"/>
    <polygon class="cls-4" points="519.538 343.157 524.268 343.165 519.375 342.994 519.538 343.157"/>
    <polygon class="cls-9" points="519.538 343.157 524.268 343.165 519.375 342.994 519.538 343.157"/>
    <polygon class="cls-9" points="524.268 343.165 524.432 343.002 519.375 342.994 524.268 343.165"/>
    <polygon class="cls-4" points="519.7 343.484 524.105 343.491 519.538 343.157 519.7 343.484"/>
    <polygon class="cls-4" points="524.105 343.491 524.268 343.165 519.538 343.157 524.105 343.491"/>
    <polygon class="cls-9" points="519.7 343.484 524.105 343.491 519.538 343.157 519.7 343.484"/>
    <polygon class="cls-9" points="524.105 343.491 524.268 343.165 519.538 343.157 524.105 343.491"/>
    <polygon class="cls-4" points="519.863 343.647 523.941 343.654 519.7 343.484 519.863 343.647"/>
    <polygon class="cls-4" points="523.941 343.654 524.105 343.491 519.7 343.484 523.941 343.654"/>
    <polygon class="cls-9" points="519.863 343.647 523.941 343.654 519.7 343.484 519.863 343.647"/>
    <polygon class="cls-9" points="523.941 343.654 524.105 343.491 519.7 343.484 523.941 343.654"/>
    <polygon class="cls-4" points="520.026 343.81 523.778 343.817 519.863 343.647 520.026 343.81"/>
    <polygon class="cls-4" points="523.778 343.817 523.941 343.654 519.863 343.647 523.778 343.817"/>
    <polygon class="cls-9" points="520.026 343.81 523.778 343.817 519.863 343.647 520.026 343.81"/>
    <polygon class="cls-9" points="523.778 343.817 523.941 343.654 519.863 343.647 523.778 343.817"/>
    <polygon class="cls-4" points="520.189 343.974 523.614 343.98 520.026 343.81 520.189 343.974"/>
    <polygon class="cls-4" points="523.614 343.98 523.778 343.817 520.026 343.81 523.614 343.98"/>
    <polygon class="cls-9" points="520.189 343.974 523.614 343.98 520.026 343.81 520.189 343.974"/>
    <polygon class="cls-9" points="523.614 343.98 523.778 343.817 520.026 343.81 523.614 343.98"/>
    <polygon class="cls-4" points="520.351 344.137 523.451 344.142 520.189 343.974 520.351 344.137"/>
    <polygon class="cls-4" points="523.451 344.142 523.614 343.98 520.189 343.974 523.451 344.142"/>
    <polygon class="cls-9" points="520.351 344.137 523.451 344.142 520.189 343.974 520.351 344.137"/>
    <polygon class="cls-9" points="523.451 344.142 523.614 343.98 520.189 343.974 523.451 344.142"/>
    <polygon class="cls-4" points="520.515 344.301 523.288 344.306 520.351 344.137 520.515 344.301"/>
    <polygon class="cls-4" points="523.288 344.306 523.451 344.142 520.351 344.137 523.288 344.306"/>
    <polygon class="cls-9" points="520.515 344.301 523.288 344.306 520.351 344.137 520.515 344.301"/>
    <polygon class="cls-9" points="523.288 344.306 523.451 344.142 520.351 344.137 523.288 344.306"/>
    <polygon class="cls-4" points="520.84 344.464 522.961 344.468 520.515 344.301 520.84 344.464"/>
    <polygon class="cls-4" points="522.961 344.468 523.288 344.306 520.515 344.301 522.961 344.468"/>
    <polygon class="cls-9" points="520.84 344.464 522.961 344.468 520.515 344.301 520.84 344.464"/>
    <polygon class="cls-9" points="522.961 344.468 523.288 344.306 520.515 344.301 522.961 344.468"/>
    <polygon class="cls-4" points="521.003 344.465 520.84 344.464 522.798 344.468 521.003 344.465"/>
    <polygon class="cls-4" points="520.84 344.464 522.961 344.468 522.798 344.468 520.84 344.464"/>
    <polygon class="cls-9" points="521.003 344.465 520.84 344.464 522.798 344.468 521.003 344.465"/>
    <polygon class="cls-9" points="520.84 344.464 522.961 344.468 522.798 344.468 520.84 344.464"/>
    <polygon class="cls-4" points="521.33 344.628 522.471 344.63 521.003 344.465 521.33 344.628"/>
    <polygon class="cls-4" points="522.471 344.63 522.798 344.468 521.003 344.465 522.471 344.63"/>
    <polygon class="cls-9" points="521.33 344.628 522.471 344.63 521.003 344.465 521.33 344.628"/>
    <polygon class="cls-9" points="522.471 344.63 522.798 344.468 521.003 344.465 522.471 344.63"/>
    <polygon class="cls-4" points="521.982 344.629 522.145 344.63 521.493 344.629 521.982 344.629"/>
    <polygon class="cls-4" points="521.493 344.629 522.145 344.63 521.33 344.628 521.493 344.629"/>
    <polygon class="cls-9" points="521.982 344.629 522.145 344.63 521.493 344.629 521.982 344.629"/>
    <polygon class="cls-9" points="521.493 344.629 522.145 344.63 521.33 344.628 521.493 344.629"/>
    <polygon class="cls-4" points="522.145 344.63 522.471 344.63 521.33 344.628 522.145 344.63"/>
    <polygon class="cls-9" points="522.145 344.63 522.471 344.63 521.33 344.628 522.145 344.63"/>
    <text class="cls-3" transform="translate(517.495 338.458) rotate(.099) scale(1 1.25)"><tspan x="0" y="0">EXT</tspan></text>
    <path class="cls-6" d="M524.597,341.942c.003-1.487-1.2-2.694-2.687-2.696-1.487-.003-2.694,1.2-2.696,2.687s1.2,2.694,2.687,2.696,2.694-1.2,2.696-2.687"/>
    <line class="cls-13" x1="530.96" y1="436.324" x2="530.959" y2="436.487"/>
    <polygon class="cls-17" points="529.976 438.932 530.301 439.749 530.955 438.934 529.976 438.932"/>
    <polygon class="cls-17" points="530.301 439.749 530.953 440.076 530.955 438.934 530.301 439.749"/>
    <polygon class="cls-17" points="530.953 440.076 531.769 439.751 530.955 438.934 530.953 440.076"/>
    <polygon class="cls-11" points="529.976 438.932 530.301 439.749 530.955 438.934 529.976 438.932"/>
    <polygon class="cls-11" points="530.301 439.749 530.953 440.076 530.955 438.934 530.301 439.749"/>
    <polygon class="cls-11" points="530.953 440.076 531.769 439.751 530.955 438.934 530.953 440.076"/>
    <polygon class="cls-17" points="531.769 439.751 532.097 438.936 530.955 438.934 531.769 439.751"/>
    <polygon class="cls-17" points="530.957 437.955 530.955 438.934 531.772 438.283 530.957 437.955"/>
    <polygon class="cls-17" points="530.955 438.934 532.097 438.936 531.772 438.283 530.955 438.934"/>
    <polygon class="cls-11" points="531.769 439.751 532.097 438.936 530.955 438.934 531.769 439.751"/>
    <polygon class="cls-11" points="530.957 437.955 530.955 438.934 531.772 438.283 530.957 437.955"/>
    <polygon class="cls-11" points="530.955 438.934 532.097 438.936 531.772 438.283 530.955 438.934"/>
    <polygon class="cls-17" points="529.976 438.932 530.955 438.934 530.304 438.28 529.976 438.932"/>
    <polygon class="cls-17" points="530.955 438.934 530.957 437.955 530.304 438.28 530.955 438.934"/>
    <polygon class="cls-11" points="530.955 438.934 530.957 437.955 530.304 438.28 530.955 438.934"/>
    <polygon class="cls-11" points="529.976 438.932 530.955 438.934 530.304 438.28 529.976 438.932"/>
    <line class="cls-13" x1="532.097" y1="438.936" x2="533.076" y2="438.938"/>
    <line class="cls-6" x1="565.129" y1="108.002" x2="548.713" y2="73.227"/>
    <line class="cls-6" x1="560.395" y1="110.115" x2="544.142" y2="75.34"/>
    <polygon class="cls-18" points="556.477 111.902 562.675 111.913 560.395 110.115 556.477 111.902"/>
    <polygon class="cls-12" points="556.477 111.902 562.675 111.913 560.395 110.115 556.477 111.902"/>
    <polygon class="cls-18" points="518.112 128.802 520.559 128.806 520.071 127.826 518.112 128.802"/>
    <polygon class="cls-12" points="518.112 128.802 520.559 128.806 520.071 127.826 518.112 128.802"/>
    <polygon class="cls-18" points="526.595 128.816 562.675 111.913 556.477 111.902 526.595 128.816"/>
    <polygon class="cls-18" points="526.595 128.816 556.477 111.902 520.559 128.806 526.595 128.816"/>
    <polygon class="cls-12" points="526.595 128.816 556.477 111.902 520.559 128.806 526.595 128.816"/>
    <polygon class="cls-12" points="526.595 128.816 562.675 111.913 556.477 111.902 526.595 128.816"/>
    <polygon class="cls-18" points="519.411 132.067 526.268 128.816 517.786 128.801 519.411 132.067"/>
    <polygon class="cls-18" points="517.786 128.801 526.268 128.816 518.112 128.802 517.786 128.801"/>
    <polygon class="cls-12" points="519.411 132.067 526.268 128.816 517.786 128.801 519.411 132.067"/>
    <polygon class="cls-12" points="517.786 128.801 526.268 128.816 518.112 128.802 517.786 128.801"/>
    <polygon class="cls-18" points="526.268 128.816 526.595 128.816 518.112 128.802 526.268 128.816"/>
    <polygon class="cls-12" points="526.268 128.816 526.595 128.816 518.112 128.802 526.268 128.816"/>
    <polyline class="cls-6" points="560.39 112.888 519.411 132.067 517.786 128.801 520.071 127.826 520.559 128.806 560.395 110.115"/>
    <line class="cls-6" x1="504.143" y1="93.868" x2="511.944" y2="110.521"/>
    <polyline class="cls-6" points="520.071 127.826 519.259 125.867 520.559 128.806"/>
    <polyline class="cls-6" points="519.584 126.52 518.605 127.008 518.442 126.519 516.973 127.168 517.786 128.801"/>
    <polyline class="cls-6" points="511.294 109.214 511.944 110.521 510.965 110.845 511.291 111.335 509.821 111.985 509.008 110.352"/>
    <line class="cls-6" x1="519.584" y1="126.52" x2="536.727" y2="118.393"/>
    <path class="cls-7" d="M536.736,118.318c-1.912-4.642-5.773-8.206-10.554-9.74-4.781-1.534-9.995-.882-14.251,1.781"/>
    <line class="cls-6" x1="519.259" y1="125.867" x2="536.401" y2="117.903"/>
    <line class="cls-6" x1="517.786" y1="128.801" x2="520.071" y2="127.826"/>
    <line class="cls-6" x1="509.008" y1="110.352" x2="511.294" y2="109.214"/>
    <path class="cls-6" d="M540.758,78.877c-.611.288-.874,1.017-.586,1.628"/>
    <line class="cls-6" x1="540.873" y1="78.923" x2="543.159" y2="77.785"/>
    <path class="cls-6" d="M544.835,78.326c-.288-.611-1.017-.874-1.628-.586"/>
    <line class="cls-6" x1="544.952" y1="78.441" x2="549.34" y2="87.747"/>
    <path class="cls-6" d="M548.474,89.259c.611-.288.874-1.017.586-1.628"/>
    <line class="cls-6" x1="548.685" y1="89.377" x2="546.399" y2="90.515"/>
    <path class="cls-6" d="M544.561,89.811c.288.611,1.017.874,1.628.586"/>
    <line class="cls-6" x1="544.606" y1="89.859" x2="540.218" y2="80.553"/>
    <path class="cls-7" d="M540.848,78.856c-4.553,1.874-8.372,4.96-9.848,7.959-1.475,2.999-.35,5.388,2.901,6.162,3.251.774,8.063-.203,12.409-2.518"/>
    <polyline class="cls-6" points="541.831 90.996 539.872 91.482 538.078 91.806 536.446 91.966 534.978 91.963 533.836 91.635 532.858 91.307 532.207 90.817 531.881 90.164 531.719 89.511 531.721 88.858 532.049 87.88 532.54 86.739 533.521 85.599 534.665 84.296 535.972 83.156 537.605 82.017"/>
    <line class="cls-6" x1="542.487" y1="89.203" x2="539.398" y2="82.673"/>
    <path class="cls-6" d="M539.281,82.557c-.15-.318-.429-.557-.768-.654-.338-.098-.702-.045-.998.144"/>
    <path class="cls-6" d="M541.638,90.936c.335-.108.607-.355.747-.677.14-.323.134-.69-.016-1.008"/>
    <line class="cls-6" x1="547.554" y1="82.85" x2="543.799" y2="84.801"/>
    <line class="cls-6" x1="545.919" y1="85.131" x2="544.619" y2="82.518"/>
    <path class="cls-6" d="M545.758,83.907c0-.315-.255-.571-.57-.572s-.571.255-.572.57.255.571.57.572.571-.255.572-.57"/>
    <line class="cls-6" x1="547.881" y1="82.85" x2="530.249" y2="91.14"/>
    <line class="cls-6" x1="519.411" y1="132.067" x2="517.786" y2="128.801"/>
    <line class="cls-6" x1="501.857" y1="95.006" x2="509.008" y2="110.352"/>
    <line class="cls-6" x1="552.417" y1="101.129" x2="555.192" y2="99.828"/>
    <path class="cls-5" d="M551.903,100.456c-1.988-3.64-5.718-5.353-8.454-3.882-2.737,1.471-3.507,5.602-1.745,9.365,1.761,3.763,5.427,5.818,8.309,4.659,2.883-1.159,3.957-5.119,2.435-8.978"/>
    <polyline class="cls-6" points="550.93 111.73 549.625 112.217 548.156 112.377 546.526 112.048 545.058 111.556 543.755 110.738 542.452 109.594 541.475 108.288 540.662 106.818 540.012 105.186 539.689 103.554 539.528 101.759 539.695 100.128 540.186 98.661 540.841 97.357 541.822 96.217 543.128 95.403"/>
    <line class="cls-6" x1="555.512" y1="103.744" x2="552.261" y2="96.887"/>
    <line class="cls-6" x1="555.841" y1="102.113" x2="553.882" y2="103.089"/>
    <line class="cls-6" x1="553.891" y1="97.869" x2="551.768" y2="98.844"/>
    <path class="cls-6" d="M555.351,102.52c0-.315-.255-.571-.57-.572s-.571.255-.572.57.255.571.57.572.571-.255.572-.57"/>
    <path class="cls-6" d="M553.401,98.276c0-.315-.255-.571-.57-.572s-.571.255-.572.57.255.571.57.572.571-.255.572-.57"/>
    <path class="cls-6" d="M547.682,103.649c.001-.586-.473-1.061-1.058-1.062-.586-.001-1.061.473-1.062,1.059s.473,1.061,1.058,1.062,1.061-.473,1.062-1.059"/>
    <line class="cls-6" x1="548.335" y1="103.079" x2="545.397" y2="104.379"/>
    <line class="cls-6" x1="547.353" y1="105.035" x2="546.215" y2="102.586"/>
    <line class="cls-6" x1="550.786" y1="101.126" x2="554.051" y2="99.663"/>
    <line class="cls-6" x1="551.436" y1="102.269" x2="554.701" y2="100.806"/>
    <line class="cls-6" x1="554.866" y1="99.991" x2="554.703" y2="99.828"/>
    <path class="cls-6" d="M554.812,99.666c-.134-.286-.473-.409-.759-.275"/>
    <path class="cls-6" d="M554.537,100.752c.286-.134.409-.474.275-.759"/>
    <line class="cls-6" x1="550.784" y1="101.942" x2="550.621" y2="101.778"/>
    <path class="cls-6" d="M550.512,101.939c.134.286.473.409.759.275"/>
    <path class="cls-6" d="M550.788,101.017c-.286.134-.409.474-.275.759"/>
    <line class="cls-6" x1="543.128" y1="95.403" x2="551.618" y2="91.503"/>
    <line class="cls-6" x1="550.93" y1="111.73" x2="559.257" y2="107.829"/>
    <line class="cls-14" x1="506.256" y1="98.276" x2="506.918" y2="92.568"/>
    <line class="cls-14" x1="509.507" y1="105.296" x2="511.163" y2="90.617"/>
    <line class="cls-14" x1="512.757" y1="112.316" x2="515.571" y2="88.504"/>
    <line class="cls-14" x1="516.171" y1="119.337" x2="519.816" y2="86.391"/>
    <line class="cls-14" x1="519.421" y1="126.357" x2="524.224" y2="84.441"/>
    <line class="cls-14" x1="523.335" y1="127.343" x2="528.469" y2="82.491"/>
    <line class="cls-14" x1="527.742" y1="125.393" x2="532.877" y2="80.378"/>
    <line class="cls-14" x1="532.151" y1="123.28" x2="537.285" y2="78.428"/>
    <line class="cls-14" x1="536.395" y1="121.329" x2="541.53" y2="76.477"/>
    <line class="cls-14" x1="540.804" y1="119.216" x2="545.442" y2="78.278"/>
    <line class="cls-14" x1="545.048" y1="117.266" x2="548.692" y2="85.299"/>
    <line class="cls-14" x1="549.457" y1="115.153" x2="552.106" y2="92.319"/>
    <line class="cls-14" x1="553.701" y1="113.039" x2="555.356" y2="99.339"/>
    <line class="cls-14" x1="558.109" y1="111.089" x2="558.607" y2="106.36"/>
    <line class="cls-14" x1="521.212" y1="128.481" x2="520.397" y2="128.316"/>
    <line class="cls-14" x1="528.232" y1="125.067" x2="518.284" y2="123.908"/>
    <line class="cls-14" x1="535.253" y1="121.817" x2="516.333" y2="119.663"/>
    <line class="cls-14" x1="542.273" y1="118.566" x2="514.22" y2="115.255"/>
    <line class="cls-14" x1="549.293" y1="115.153" x2="512.27" y2="111.011"/>
    <line class="cls-14" x1="556.313" y1="111.902" x2="510.157" y2="106.602"/>
    <line class="cls-14" x1="559.419" y1="108.155" x2="508.043" y2="102.357"/>
    <line class="cls-14" x1="557.469" y1="103.748" x2="506.093" y2="97.95"/>
    <line class="cls-14" x1="555.356" y1="99.502" x2="504.633" y2="93.706"/>
    <line class="cls-14" x1="553.406" y1="95.095" x2="511.653" y2="90.292"/>
    <line class="cls-14" x1="551.293" y1="90.85" x2="518.673" y2="87.042"/>
    <line class="cls-14" x1="549.343" y1="86.442" x2="525.693" y2="83.791"/>
    <line class="cls-14" x1="547.229" y1="82.197" x2="532.714" y2="80.54"/>
    <line class="cls-14" x1="545.279" y1="77.789" x2="539.897" y2="77.127"/>
    <polygon class="cls-18" points="501.857 95.006 504.63 95.011 504.143 93.868 501.857 95.006"/>
    <polygon class="cls-12" points="501.857 95.006 504.63 95.011 504.143 93.868 501.857 95.006"/>
    <polygon class="cls-18" points="508.521 109.21 511.294 109.214 501.857 95.006 508.521 109.21"/>
    <polygon class="cls-18" points="509.008 110.352 511.294 109.214 508.521 109.21 509.008 110.352"/>
    <polygon class="cls-12" points="509.008 110.352 511.294 109.214 508.521 109.21 509.008 110.352"/>
    <polygon class="cls-12" points="508.521 109.21 511.294 109.214 501.857 95.006 508.521 109.21"/>
    <polygon class="cls-18" points="501.857 95.006 511.294 109.214 504.63 95.011 501.857 95.006"/>
    <polygon class="cls-12" points="501.857 95.006 511.294 109.214 504.63 95.011 501.857 95.006"/>
    <polyline class="cls-6" points="501.857 95.006 509.008 110.352 511.294 109.214 504.143 93.868 501.857 95.006"/>
    <line class="cls-6" x1="560.395" y1="109.951" x2="543.979" y2="75.177"/>
    <line class="cls-13" x1="465.407" y1="515.982" x2="466.06" y2="515.983"/>
    <polygon class="cls-17" points="467.528 515.985 468.507 515.987 467.856 515.333 467.528 515.985"/>
    <polygon class="cls-17" points="468.507 515.987 468.509 515.008 467.856 515.333 468.507 515.987"/>
    <polygon class="cls-11" points="468.507 515.987 468.509 515.008 467.856 515.333 468.507 515.987"/>
    <polygon class="cls-11" points="467.528 515.985 468.507 515.987 467.856 515.333 467.528 515.985"/>
    <polygon class="cls-17" points="468.509 515.008 468.507 515.987 469.324 515.336 468.509 515.008"/>
    <polygon class="cls-17" points="468.507 515.987 469.649 515.989 469.324 515.336 468.507 515.987"/>
    <polygon class="cls-11" points="468.509 515.008 468.507 515.987 469.324 515.336 468.509 515.008"/>
    <polygon class="cls-11" points="468.507 515.987 469.649 515.989 469.324 515.336 468.507 515.987"/>
    <line class="cls-13" x1="307.376" y1="302.173" x2="307.381" y2="299.073"/>
    <line class="cls-13" x1="560.064" y1="302.607" x2="560.069" y2="299.508"/>
    <line class="cls-13" x1="309.497" y1="301.687" x2="557.944" y2="302.114"/>
    <polygon class="cls-17" points="306.723 302.498 307.375 302.662 307.377 301.683 306.723 302.498"/>
    <polygon class="cls-17" points="306.398 301.681 306.723 302.498 307.377 301.683 306.398 301.681"/>
    <polygon class="cls-17" points="307.375 302.662 308.191 302.5 307.377 301.683 307.375 302.662"/>
    <polygon class="cls-11" points="306.398 301.681 306.723 302.498 307.377 301.683 306.398 301.681"/>
    <polygon class="cls-11" points="306.723 302.498 307.375 302.662 307.377 301.683 306.723 302.498"/>
    <polygon class="cls-11" points="307.375 302.662 308.191 302.5 307.377 301.683 307.375 302.662"/>
    <polygon class="cls-17" points="307.379 300.704 307.377 301.683 308.194 301.032 307.379 300.704"/>
    <polygon class="cls-17" points="308.191 302.5 308.519 301.685 307.377 301.683 308.191 302.5"/>
    <polygon class="cls-17" points="307.377 301.683 308.519 301.685 308.194 301.032 307.377 301.683"/>
    <polygon class="cls-11" points="308.191 302.5 308.519 301.685 307.377 301.683 308.191 302.5"/>
    <polygon class="cls-11" points="307.377 301.683 308.519 301.685 308.194 301.032 307.377 301.683"/>
    <polygon class="cls-11" points="307.379 300.704 307.377 301.683 308.194 301.032 307.379 300.704"/>
    <polygon class="cls-17" points="307.377 301.683 307.379 300.704 306.725 301.03 307.377 301.683"/>
    <polygon class="cls-17" points="306.398 301.681 307.377 301.683 306.725 301.03 306.398 301.681"/>
    <polygon class="cls-11" points="307.377 301.683 307.379 300.704 306.725 301.03 307.377 301.683"/>
    <polygon class="cls-11" points="306.398 301.681 307.377 301.683 306.725 301.03 306.398 301.681"/>
    <line class="cls-13" x1="308.519" y1="301.685" x2="309.497" y2="301.687"/>
    <polygon class="cls-17" points="560.066 301.139 560.064 302.118 560.718 301.467 560.066 301.139"/>
    <polygon class="cls-17" points="559.25 301.464 560.064 302.118 560.066 301.139 559.25 301.464"/>
    <polygon class="cls-17" points="560.064 302.118 561.043 302.12 560.718 301.467 560.064 302.118"/>
    <polygon class="cls-11" points="559.25 301.464 560.064 302.118 560.066 301.139 559.25 301.464"/>
    <polygon class="cls-11" points="560.066 301.139 560.064 302.118 560.718 301.467 560.066 301.139"/>
    <polygon class="cls-11" points="560.064 302.118 561.043 302.12 560.718 301.467 560.064 302.118"/>
    <polygon class="cls-17" points="560.063 303.097 560.064 302.118 559.247 302.932 560.063 303.097"/>
    <polygon class="cls-17" points="559.086 302.116 560.064 302.118 559.25 301.464 559.086 302.116"/>
    <polygon class="cls-17" points="559.247 302.932 560.064 302.118 559.086 302.116 559.247 302.932"/>
    <polygon class="cls-11" points="560.063 303.097 560.064 302.118 559.247 302.932 560.063 303.097"/>
    <polygon class="cls-11" points="559.086 302.116 560.064 302.118 559.25 301.464 559.086 302.116"/>
    <polygon class="cls-11" points="559.247 302.932 560.064 302.118 559.086 302.116 559.247 302.932"/>
    <polygon class="cls-17" points="560.063 303.097 560.716 302.935 560.064 302.118 560.063 303.097"/>
    <polygon class="cls-17" points="560.716 302.935 561.043 302.12 560.064 302.118 560.716 302.935"/>
    <polygon class="cls-11" points="560.063 303.097 560.716 302.935 560.064 302.118 560.063 303.097"/>
    <polygon class="cls-11" points="560.716 302.935 561.043 302.12 560.064 302.118 560.716 302.935"/>
    <line class="cls-13" x1="559.086" y1="302.116" x2="557.944" y2="302.114"/>
    <text class="cls-1" transform="translate(426.859 300.457) rotate(.099)"><tspan x="0" y="0">985</tspan></text>
    <line class="cls-13" x1="565.308" y1="193.809" x2="565.306" y2="194.624"/>
    <polygon class="cls-17" points="564.323 197.233 564.648 198.049 565.302 197.234 564.323 197.233"/>
    <polygon class="cls-17" points="564.648 198.049 565.3 198.213 565.302 197.234 564.648 198.049"/>
    <polygon class="cls-17" points="565.3 198.213 566.116 198.052 565.302 197.234 565.3 198.213"/>
    <polygon class="cls-11" points="564.323 197.233 564.648 198.049 565.302 197.234 564.323 197.233"/>
    <polygon class="cls-11" points="564.648 198.049 565.3 198.213 565.302 197.234 564.648 198.049"/>
    <polygon class="cls-11" points="565.3 198.213 566.116 198.052 565.302 197.234 565.3 198.213"/>
    <polygon class="cls-17" points="565.304 196.256 565.302 197.234 566.119 196.583 565.304 196.256"/>
    <polygon class="cls-17" points="566.116 198.052 566.444 197.236 565.302 197.234 566.116 198.052"/>
    <polygon class="cls-17" points="565.302 197.234 566.444 197.236 566.119 196.583 565.302 197.234"/>
    <polygon class="cls-11" points="566.116 198.052 566.444 197.236 565.302 197.234 566.116 198.052"/>
    <polygon class="cls-11" points="565.304 196.256 565.302 197.234 566.119 196.583 565.304 196.256"/>
    <polygon class="cls-11" points="565.302 197.234 566.444 197.236 566.119 196.583 565.302 197.234"/>
    <polygon class="cls-17" points="564.323 197.233 565.302 197.234 564.651 196.581 564.323 197.233"/>
    <polygon class="cls-17" points="565.302 197.234 565.304 196.256 564.651 196.581 565.302 197.234"/>
    <polygon class="cls-11" points="564.323 197.233 565.302 197.234 564.651 196.581 564.323 197.233"/>
    <polygon class="cls-11" points="565.302 197.234 565.304 196.256 564.651 196.581 565.302 197.234"/>
    <line class="cls-13" x1="566.444" y1="197.236" x2="567.423" y2="197.238"/>
    <line class="cls-6" x1="410.115" y1="510.83" x2="409.992" y2="392.56"/>
    <line class="cls-6" x1="402.149" y1="400.377" x2="299.54" y2="400.2"/>
    <line class="cls-6" x1="304.61" y1="392.542" x2="409.992" y2="392.56"/>
    <line class="cls-6" x1="378.834" y1="392.996" x2="353.712" y2="392.953"/>
    <line class="cls-6" x1="320.596" y1="393.222" x2="381.28" y2="393.326"/>
    <line class="cls-6" x1="382.75" y1="392.513" x2="318.64" y2="392.403"/>
    <line class="cls-6" x1="382.745" y1="395.123" x2="318.635" y2="395.013"/>
    <line class="cls-6" x1="378.671" y1="392.506" x2="378.67" y2="393.322"/>
    <line class="cls-6" x1="381.28" y1="393.326" x2="381.282" y2="392.511"/>
    <line class="cls-6" x1="380.788" y1="395.12" x2="380.791" y2="393.326"/>
    <line class="cls-6" x1="348.981" y1="392.945" x2="322.391" y2="392.899"/>
    <line class="cls-6" x1="348.656" y1="392.455" x2="348.654" y2="393.27"/>
    <line class="cls-6" x1="353.876" y1="392.464" x2="353.874" y2="393.279"/>
    <line class="cls-6" x1="322.555" y1="392.41" x2="322.554" y2="393.225"/>
    <polyline class="cls-6" points="320.593 395.016 320.596 393.222 320.107 393.221 320.108 392.405"/>
    <line class="cls-6" x1="318.64" y1="392.403" x2="318.626" y2="400.233"/>
    <line class="cls-6" x1="382.75" y1="392.513" x2="382.736" y2="400.343"/>
    <line class="cls-6" x1="410.255" y1="524.533" x2="402.424" y2="524.519"/>
    <line class="cls-6" x1="410.145" y1="493.538" x2="402.478" y2="493.525"/>
    <line class="cls-6" x1="409.662" y1="489.785" x2="409.706" y2="464.5"/>
    <line class="cls-6" x1="409.273" y1="431.384" x2="409.332" y2="492.068"/>
    <line class="cls-6" x1="410.145" y1="493.538" x2="409.929" y2="429.427"/>
    <line class="cls-6" x1="407.535" y1="493.533" x2="407.482" y2="429.423"/>
    <line class="cls-6" x1="410.152" y1="489.46" x2="409.336" y2="489.458"/>
    <line class="cls-6" x1="409.332" y1="492.068" x2="410.148" y2="492.07"/>
    <line class="cls-6" x1="407.538" y1="491.576" x2="409.333" y2="491.579"/>
    <line class="cls-6" x1="409.714" y1="459.769" x2="409.596" y2="433.179"/>
    <line class="cls-6" x1="410.04" y1="459.444" x2="409.225" y2="459.442"/>
    <line class="cls-6" x1="410.031" y1="464.664" x2="409.216" y2="464.662"/>
    <line class="cls-6" x1="409.922" y1="433.343" x2="409.27" y2="433.341"/>
    <polyline class="cls-6" points="407.479 431.381 409.273 431.384 409.274 430.894 409.926 430.896"/>
    <line class="cls-6" x1="409.929" y1="429.427" x2="402.262" y2="429.414"/>
    <line class="cls-14" x1="325.151" y1="400.408" x2="325.315" y2="400.082"/>
    <line class="cls-14" x1="347.337" y1="400.446" x2="347.5" y2="400.283"/>
    <line class="cls-14" x1="369.523" y1="400.484" x2="369.523" y2="400.321"/>
    <line class="cls-14" x1="391.545" y1="400.522" x2="391.708" y2="400.359"/>
    <line class="cls-14" x1="402.591" y1="522.399" x2="402.428" y2="522.236"/>
    <line class="cls-14" x1="402.61" y1="511.306" x2="402.447" y2="511.143"/>
    <line class="cls-14" x1="402.466" y1="500.213" x2="402.466" y2="500.213"/>
    <line class="cls-14" x1="330.688" y1="405.963" x2="324.989" y2="400.081"/>
    <line class="cls-14" x1="352.874" y1="406.002" x2="347.174" y2="400.282"/>
    <line class="cls-14" x1="375.059" y1="406.04" x2="369.36" y2="400.32"/>
    <line class="cls-14" x1="397.082" y1="406.078" x2="391.545" y2="400.359"/>
    <line class="cls-13" x1="299.534" y1="403.952" x2="299.518" y2="412.761"/>
    <line class="cls-13" x1="318.62" y1="403.985" x2="318.605" y2="412.794"/>
    <line class="cls-13" x1="301.481" y1="410.155" x2="316.489" y2="410.18"/>
    <polygon class="cls-17" points="298.381 410.149 298.706 410.802 299.523 410.151 298.381 410.149"/>
    <polygon class="cls-17" points="298.706 410.802 299.521 411.13 299.523 410.151 298.706 410.802"/>
    <polygon class="cls-17" points="299.521 411.13 300.175 410.805 299.523 410.151 299.521 411.13"/>
    <polygon class="cls-11" points="298.381 410.149 298.706 410.802 299.523 410.151 298.381 410.149"/>
    <polygon class="cls-11" points="298.706 410.802 299.521 411.13 299.523 410.151 298.706 410.802"/>
    <polygon class="cls-11" points="299.521 411.13 300.175 410.805 299.523 410.151 299.521 411.13"/>
    <polygon class="cls-17" points="300.175 410.805 300.502 410.153 299.523 410.151 300.175 410.805"/>
    <polygon class="cls-17" points="299.525 409.009 299.523 410.151 300.177 409.337 299.525 409.009"/>
    <polygon class="cls-17" points="299.523 410.151 300.502 410.153 300.177 409.337 299.523 410.151"/>
    <polygon class="cls-11" points="300.175 410.805 300.502 410.153 299.523 410.151 300.175 410.805"/>
    <polygon class="cls-11" points="299.525 409.009 299.523 410.151 300.177 409.337 299.525 409.009"/>
    <polygon class="cls-11" points="299.523 410.151 300.502 410.153 300.177 409.337 299.523 410.151"/>
    <polygon class="cls-17" points="298.381 410.149 299.523 410.151 298.709 409.334 298.381 410.149"/>
    <polygon class="cls-17" points="299.523 410.151 299.525 409.009 298.709 409.334 299.523 410.151"/>
    <polygon class="cls-11" points="298.381 410.149 299.523 410.151 298.709 409.334 298.381 410.149"/>
    <polygon class="cls-11" points="299.523 410.151 299.525 409.009 298.709 409.334 299.523 410.151"/>
    <line class="cls-13" x1="300.502" y1="410.153" x2="301.481" y2="410.155"/>
    <polygon class="cls-17" points="317.795 409.367 318.609 410.184 318.611 409.042 317.795 409.367"/>
    <polygon class="cls-17" points="318.611 409.042 318.609 410.184 319.263 409.369 318.611 409.042"/>
    <polygon class="cls-17" points="318.609 410.184 319.588 410.186 319.263 409.369 318.609 410.184"/>
    <polygon class="cls-11" points="317.795 409.367 318.609 410.184 318.611 409.042 317.795 409.367"/>
    <polygon class="cls-11" points="318.609 410.184 319.588 410.186 319.263 409.369 318.609 410.184"/>
    <polygon class="cls-11" points="318.611 409.042 318.609 410.184 319.263 409.369 318.611 409.042"/>
    <polygon class="cls-17" points="318.608 411.163 318.609 410.184 317.793 410.835 318.608 411.163"/>
    <polygon class="cls-17" points="317.63 410.182 318.609 410.184 317.795 409.367 317.63 410.182"/>
    <polygon class="cls-17" points="317.793 410.835 318.609 410.184 317.63 410.182 317.793 410.835"/>
    <polygon class="cls-11" points="318.608 411.163 318.609 410.184 317.793 410.835 318.608 411.163"/>
    <polygon class="cls-11" points="317.793 410.835 318.609 410.184 317.63 410.182 317.793 410.835"/>
    <polygon class="cls-11" points="317.63 410.182 318.609 410.184 317.795 409.367 317.63 410.182"/>
    <polygon class="cls-17" points="318.608 411.163 319.261 410.838 318.609 410.184 318.608 411.163"/>
    <polygon class="cls-17" points="319.261 410.838 319.588 410.186 318.609 410.184 319.261 410.838"/>
    <polygon class="cls-11" points="318.608 411.163 319.261 410.838 318.609 410.184 318.608 411.163"/>
    <polygon class="cls-11" points="319.261 410.838 319.588 410.186 318.609 410.184 319.261 410.838"/>
    <line class="cls-13" x1="317.63" y1="410.182" x2="316.489" y2="410.18"/>
    <text class="cls-1" transform="translate(304.489 408.73) rotate(.099)"><tspan x="0" y="0">75</tspan></text>
    <line class="cls-13" x1="318.62" y1="403.985" x2="318.605" y2="412.794"/>
    <line class="cls-13" x1="382.73" y1="404.095" x2="382.715" y2="412.904"/>
    <line class="cls-13" x1="320.73" y1="410.188" x2="380.599" y2="410.291"/>
    <polygon class="cls-17" points="317.63 410.182 317.793 410.835 318.609 410.184 317.63 410.182"/>
    <polygon class="cls-17" points="317.793 410.835 318.608 411.163 318.609 410.184 317.793 410.835"/>
    <polygon class="cls-17" points="318.608 411.163 319.261 410.838 318.609 410.184 318.608 411.163"/>
    <polygon class="cls-11" points="317.63 410.182 317.793 410.835 318.609 410.184 317.63 410.182"/>
    <polygon class="cls-11" points="317.793 410.835 318.608 411.163 318.609 410.184 317.793 410.835"/>
    <polygon class="cls-11" points="318.608 411.163 319.261 410.838 318.609 410.184 318.608 411.163"/>
    <polygon class="cls-17" points="319.261 410.838 319.588 410.186 318.609 410.184 319.261 410.838"/>
    <polygon class="cls-17" points="318.609 410.184 319.588 410.186 319.263 409.369 318.609 410.184"/>
    <polygon class="cls-17" points="318.611 409.042 318.609 410.184 319.263 409.369 318.611 409.042"/>
    <polygon class="cls-11" points="319.261 410.838 319.588 410.186 318.609 410.184 319.261 410.838"/>
    <polygon class="cls-11" points="318.609 410.184 319.588 410.186 319.263 409.369 318.609 410.184"/>
    <polygon class="cls-11" points="318.611 409.042 318.609 410.184 319.263 409.369 318.611 409.042"/>
    <polygon class="cls-17" points="317.63 410.182 318.609 410.184 317.795 409.367 317.63 410.182"/>
    <polygon class="cls-17" points="318.609 410.184 318.611 409.042 317.795 409.367 318.609 410.184"/>
    <polygon class="cls-11" points="317.63 410.182 318.609 410.184 317.795 409.367 317.63 410.182"/>
    <polygon class="cls-11" points="318.609 410.184 318.611 409.042 317.795 409.367 318.609 410.184"/>
    <line class="cls-13" x1="319.588" y1="410.186" x2="320.73" y2="410.188"/>
    <polygon class="cls-17" points="381.905 409.477 382.719 410.294 382.721 409.152 381.905 409.477"/>
    <polygon class="cls-17" points="382.719 410.294 383.698 410.296 383.373 409.48 382.719 410.294"/>
    <polygon class="cls-17" points="382.721 409.152 382.719 410.294 383.373 409.48 382.721 409.152"/>
    <polygon class="cls-11" points="382.721 409.152 382.719 410.294 383.373 409.48 382.721 409.152"/>
    <polygon class="cls-11" points="381.905 409.477 382.719 410.294 382.721 409.152 381.905 409.477"/>
    <polygon class="cls-11" points="382.719 410.294 383.698 410.296 383.373 409.48 382.719 410.294"/>
    <polygon class="cls-17" points="381.902 410.946 382.719 410.294 381.577 410.292 381.902 410.946"/>
    <polygon class="cls-17" points="382.717 411.273 382.719 410.294 381.902 410.946 382.717 411.273"/>
    <polygon class="cls-17" points="381.577 410.292 382.719 410.294 381.905 409.477 381.577 410.292"/>
    <polygon class="cls-11" points="382.717 411.273 382.719 410.294 381.902 410.946 382.717 411.273"/>
    <polygon class="cls-11" points="381.902 410.946 382.719 410.294 381.577 410.292 381.902 410.946"/>
    <polygon class="cls-11" points="381.577 410.292 382.719 410.294 381.905 409.477 381.577 410.292"/>
    <polygon class="cls-17" points="382.717 411.273 383.37 410.948 382.719 410.294 382.717 411.273"/>
    <polygon class="cls-17" points="383.37 410.948 383.698 410.296 382.719 410.294 383.37 410.948"/>
    <polygon class="cls-11" points="382.717 411.273 383.37 410.948 382.719 410.294 382.717 411.273"/>
    <polygon class="cls-11" points="383.37 410.948 383.698 410.296 382.719 410.294 383.37 410.948"/>
    <line class="cls-13" x1="381.577" y1="410.292" x2="380.599" y2="410.291"/>
    <text class="cls-1" transform="translate(343.639 408.797) rotate(.099)"><tspan x="0" y="0">250</tspan></text>
    <line class="cls-13" x1="382.73" y1="404.095" x2="382.715" y2="412.904"/>
    <line class="cls-13" x1="402.292" y1="411.633" x2="402.29" y2="412.938"/>
    <line class="cls-13" x1="384.677" y1="410.298" x2="400.174" y2="410.324"/>
    <polygon class="cls-17" points="381.577 410.292 381.902 410.946 382.719 410.294 381.577 410.292"/>
    <polygon class="cls-17" points="382.717 411.273 383.37 410.948 382.719 410.294 382.717 411.273"/>
    <polygon class="cls-17" points="381.902 410.946 382.717 411.273 382.719 410.294 381.902 410.946"/>
    <polygon class="cls-11" points="381.577 410.292 381.902 410.946 382.719 410.294 381.577 410.292"/>
    <polygon class="cls-11" points="381.902 410.946 382.717 411.273 382.719 410.294 381.902 410.946"/>
    <polygon class="cls-11" points="382.717 411.273 383.37 410.948 382.719 410.294 382.717 411.273"/>
    <polygon class="cls-17" points="383.37 410.948 383.698 410.296 382.719 410.294 383.37 410.948"/>
    <polygon class="cls-17" points="382.721 409.152 382.719 410.294 383.373 409.48 382.721 409.152"/>
    <polygon class="cls-17" points="382.719 410.294 383.698 410.296 383.373 409.48 382.719 410.294"/>
    <polygon class="cls-11" points="383.37 410.948 383.698 410.296 382.719 410.294 383.37 410.948"/>
    <polygon class="cls-11" points="382.719 410.294 383.698 410.296 383.373 409.48 382.719 410.294"/>
    <polygon class="cls-11" points="382.721 409.152 382.719 410.294 383.373 409.48 382.721 409.152"/>
    <polygon class="cls-17" points="381.577 410.292 382.719 410.294 381.905 409.477 381.577 410.292"/>
    <polygon class="cls-17" points="382.719 410.294 382.721 409.152 381.905 409.477 382.719 410.294"/>
    <polygon class="cls-11" points="381.577 410.292 382.719 410.294 381.905 409.477 381.577 410.292"/>
    <polygon class="cls-11" points="382.719 410.294 382.721 409.152 381.905 409.477 382.719 410.294"/>
    <line class="cls-13" x1="383.698" y1="410.296" x2="384.677" y2="410.298"/>
    <polygon class="cls-17" points="401.48 409.511 402.295 410.328 402.297 409.186 401.48 409.511"/>
    <polygon class="cls-17" points="402.295 410.328 403.274 410.33 402.949 409.514 402.295 410.328"/>
    <polygon class="cls-17" points="402.297 409.186 402.295 410.328 402.949 409.514 402.297 409.186"/>
    <polygon class="cls-11" points="401.48 409.511 402.295 410.328 402.297 409.186 401.48 409.511"/>
    <polygon class="cls-11" points="402.297 409.186 402.295 410.328 402.949 409.514 402.297 409.186"/>
    <polygon class="cls-11" points="402.295 410.328 403.274 410.33 402.949 409.514 402.295 410.328"/>
    <polygon class="cls-17" points="402.293 411.307 402.295 410.328 401.478 410.979 402.293 411.307"/>
    <polygon class="cls-17" points="401.153 410.326 402.295 410.328 401.48 409.511 401.153 410.326"/>
    <polygon class="cls-17" points="401.478 410.979 402.295 410.328 401.153 410.326 401.478 410.979"/>
    <polygon class="cls-11" points="402.293 411.307 402.295 410.328 401.478 410.979 402.293 411.307"/>
    <polygon class="cls-11" points="401.153 410.326 402.295 410.328 401.48 409.511 401.153 410.326"/>
    <polygon class="cls-11" points="401.478 410.979 402.295 410.328 401.153 410.326 401.478 410.979"/>
    <polygon class="cls-17" points="402.293 411.307 402.946 410.982 402.295 410.328 402.293 411.307"/>
    <polygon class="cls-17" points="402.946 410.982 403.274 410.33 402.295 410.328 402.946 410.982"/>
    <polygon class="cls-11" points="402.293 411.307 402.946 410.982 402.295 410.328 402.293 411.307"/>
    <polygon class="cls-11" points="402.946 410.982 403.274 410.33 402.295 410.328 402.946 410.982"/>
    <line class="cls-13" x1="401.153" y1="410.326" x2="400.174" y2="410.324"/>
    <text class="cls-1" transform="translate(387.849 408.873) rotate(.099)"><tspan x="0" y="0">75</tspan></text>
    <line class="cls-13" x1="398.673" y1="524.513" x2="392.31" y2="524.502"/>
    <path class="cls-17" d="M394.757,524.506l-.979-.002.325.816.654-.815ZM394.106,523.852l.651.654-.979-.002.327-.652ZM394.759,523.527l-.653.325.651.654.002-.979Z"/>
    <path class="cls-11" d="M394.757,524.506l-.979-.002.325.816.654-.815ZM394.106,523.852l.651.654-.979-.002.327-.652ZM394.759,523.527l-.653.325.651.654.002-.979Z"/>
    <path class="cls-17" d="M394.757,524.506l.814.817.328-.815-1.142-.002ZM394.755,525.648l.002-1.142.814.817-.816.325ZM394.103,525.321l.652.327.002-1.142-.654.815Z"/>
    <path class="cls-11" d="M394.757,524.506l.814.817.328-.815-1.142-.002ZM394.755,525.648l.002-1.142.814.817-.816.325ZM394.103,525.321l.652.327.002-1.142-.654.815Z"/>
    <path class="cls-17" d="M395.574,523.855l-.817.651.002-.979.815.328ZM395.899,524.508l-.325-.653-.817.651,1.142.002Z"/>
    <path class="cls-11" d="M395.574,523.855l-.817.651.002-.979.815.328ZM395.899,524.508l-.325-.653-.817.651,1.142.002Z"/>
    <line class="cls-13" x1="394.755" y1="525.648" x2="394.754" y2="526.627"/>
    <line class="cls-13" x1="398.673" y1="524.513" x2="392.31" y2="524.502"/>
    <line class="cls-13" x1="398.563" y1="493.518" x2="392.364" y2="493.507"/>
    <line class="cls-13" x1="394.761" y1="522.549" x2="394.807" y2="495.469"/>
    <path class="cls-17" d="M394.757,524.506l1.142.002-.325-.653-.817.651ZM395.572,525.323l-.814-.817,1.142.002-.328.815ZM394.755,525.648l.816-.325-.814-.817-.002,1.142Z"/>
    <path class="cls-11" d="M394.757,524.506l1.142.002-.325-.653-.817.651ZM395.572,525.323l-.814-.817,1.142.002-.328.815ZM394.755,525.648l.816-.325-.814-.817-.002,1.142Z"/>
    <path class="cls-17" d="M394.757,524.506l-.651-.654-.327.652.979.002ZM394.759,523.527l-.002.979-.651-.654.653-.325ZM395.574,523.855l-.815-.328-.002.979.817-.651Z"/>
    <path class="cls-11" d="M394.757,524.506l-.651-.654-.327.652.979.002ZM394.759,523.527l-.002.979-.651-.654.653-.325ZM395.574,523.855l-.815-.328-.002.979.817-.651Z"/>
    <path class="cls-17" d="M394.103,525.321l.654-.815-.002,1.142-.652-.327ZM393.779,524.504l.325.816.654-.815-.979-.002Z"/>
    <path class="cls-11" d="M394.103,525.321l.654-.815-.002,1.142-.652-.327ZM393.779,524.504l.325.816.654-.815-.979-.002Z"/>
    <line class="cls-13" x1="394.759" y1="523.527" x2="394.761" y2="522.549"/>
    <polygon class="cls-17" points="394.157 494.163 394.811 493.512 393.832 493.51 394.157 494.163"/>
    <polygon class="cls-17" points="394.811 493.512 394.813 492.369 394.16 492.695 394.811 493.512"/>
    <polygon class="cls-17" points="393.832 493.51 394.811 493.512 394.16 492.695 393.832 493.51"/>
    <polygon class="cls-11" points="394.157 494.163 394.811 493.512 393.832 493.51 394.157 494.163"/>
    <polygon class="cls-11" points="393.832 493.51 394.811 493.512 394.16 492.695 393.832 493.51"/>
    <polygon class="cls-11" points="394.811 493.512 394.813 492.369 394.16 492.695 394.811 493.512"/>
    <polygon class="cls-17" points="394.809 494.49 395.625 494.165 394.811 493.512 394.809 494.49"/>
    <polygon class="cls-17" points="394.157 494.163 394.809 494.49 394.811 493.512 394.157 494.163"/>
    <polygon class="cls-17" points="395.625 494.165 395.953 493.514 394.811 493.512 395.625 494.165"/>
    <polygon class="cls-11" points="394.157 494.163 394.809 494.49 394.811 493.512 394.157 494.163"/>
    <polygon class="cls-11" points="395.625 494.165 395.953 493.514 394.811 493.512 395.625 494.165"/>
    <polygon class="cls-11" points="394.809 494.49 395.625 494.165 394.811 493.512 394.809 494.49"/>
    <polygon class="cls-17" points="394.813 492.369 394.811 493.512 395.628 492.697 394.813 492.369"/>
    <polygon class="cls-17" points="394.811 493.512 395.953 493.514 395.628 492.697 394.811 493.512"/>
    <polygon class="cls-11" points="394.813 492.369 394.811 493.512 395.628 492.697 394.813 492.369"/>
    <polygon class="cls-11" points="394.811 493.512 395.953 493.514 395.628 492.697 394.811 493.512"/>
    <line class="cls-13" x1="394.809" y1="494.49" x2="394.807" y2="495.469"/>
    <text class="cls-2" transform="translate(393.261 516.275) rotate(-89.901)"><tspan x="0" y="0">120</tspan></text>
    <line class="cls-13" x1="398.563" y1="493.518" x2="392.364" y2="493.507"/>
    <line class="cls-13" x1="398.51" y1="429.408" x2="392.474" y2="429.397"/>
    <line class="cls-13" x1="394.814" y1="491.391" x2="394.917" y2="431.522"/>
    <polygon class="cls-17" points="394.809 494.49 395.625 494.165 394.811 493.512 394.809 494.49"/>
    <polygon class="cls-17" points="394.811 493.512 395.953 493.514 395.628 492.697 394.811 493.512"/>
    <polygon class="cls-17" points="395.625 494.165 395.953 493.514 394.811 493.512 395.625 494.165"/>
    <polygon class="cls-11" points="394.809 494.49 395.625 494.165 394.811 493.512 394.809 494.49"/>
    <polygon class="cls-11" points="395.625 494.165 395.953 493.514 394.811 493.512 395.625 494.165"/>
    <polygon class="cls-11" points="394.811 493.512 395.953 493.514 395.628 492.697 394.811 493.512"/>
    <polygon class="cls-17" points="393.832 493.51 394.811 493.512 394.16 492.695 393.832 493.51"/>
    <polygon class="cls-17" points="394.16 492.695 394.811 493.512 394.813 492.369 394.16 492.695"/>
    <polygon class="cls-17" points="394.811 493.512 395.628 492.697 394.813 492.369 394.811 493.512"/>
    <polygon class="cls-11" points="393.832 493.51 394.811 493.512 394.16 492.695 393.832 493.51"/>
    <polygon class="cls-11" points="394.16 492.695 394.811 493.512 394.813 492.369 394.16 492.695"/>
    <polygon class="cls-11" points="394.811 493.512 395.628 492.697 394.813 492.369 394.811 493.512"/>
    <polygon class="cls-17" points="394.809 494.49 394.811 493.512 394.157 494.163 394.809 494.49"/>
    <polygon class="cls-17" points="394.157 494.163 394.811 493.512 393.832 493.51 394.157 494.163"/>
    <polygon class="cls-11" points="394.809 494.49 394.811 493.512 394.157 494.163 394.809 494.49"/>
    <polygon class="cls-11" points="394.157 494.163 394.811 493.512 393.832 493.51 394.157 494.163"/>
    <line class="cls-13" x1="394.813" y1="492.37" x2="394.814" y2="491.391"/>
    <polygon class="cls-17" points="394.921 429.402 394.923 428.423 394.27 428.748 394.921 429.402"/>
    <polygon class="cls-17" points="394.267 430.216 394.921 429.402 393.942 429.4 394.267 430.216"/>
    <polygon class="cls-17" points="393.942 429.4 394.921 429.402 394.27 428.748 393.942 429.4"/>
    <polygon class="cls-11" points="394.267 430.216 394.921 429.402 393.942 429.4 394.267 430.216"/>
    <polygon class="cls-11" points="393.942 429.4 394.921 429.402 394.27 428.748 393.942 429.4"/>
    <polygon class="cls-11" points="394.921 429.402 394.923 428.423 394.27 428.748 394.921 429.402"/>
    <polygon class="cls-17" points="394.267 430.216 394.919 430.38 394.921 429.402 394.267 430.216"/>
    <polygon class="cls-17" points="395.735 430.219 396.063 429.404 394.921 429.402 395.735 430.219"/>
    <polygon class="cls-17" points="394.919 430.38 395.735 430.219 394.921 429.402 394.919 430.38"/>
    <polygon class="cls-11" points="394.267 430.216 394.919 430.38 394.921 429.402 394.267 430.216"/>
    <polygon class="cls-11" points="395.735 430.219 396.063 429.404 394.921 429.402 395.735 430.219"/>
    <polygon class="cls-11" points="394.919 430.38 395.735 430.219 394.921 429.402 394.919 430.38"/>
    <polygon class="cls-17" points="394.923 428.423 394.921 429.402 395.738 428.75 394.923 428.423"/>
    <polygon class="cls-17" points="394.921 429.402 396.063 429.404 395.738 428.75 394.921 429.402"/>
    <polygon class="cls-11" points="394.921 429.402 396.063 429.404 395.738 428.75 394.921 429.402"/>
    <polygon class="cls-11" points="394.923 428.423 394.921 429.402 395.738 428.75 394.923 428.423"/>
    <line class="cls-13" x1="394.919" y1="430.38" x2="394.917" y2="431.522"/>
    <text class="cls-2" transform="translate(393.344 468.315) rotate(-89.901)"><tspan x="0" y="0">250</tspan></text>
    <line class="cls-13" x1="398.51" y1="429.408" x2="392.474" y2="429.397"/>
    <line class="cls-13" x1="398.397" y1="400.37" x2="392.524" y2="400.36"/>
    <line class="cls-13" x1="394.924" y1="427.444" x2="394.967" y2="402.485"/>
    <polygon class="cls-17" points="394.919 430.38 395.735 430.219 394.921 429.402 394.919 430.38"/>
    <polygon class="cls-17" points="394.921 429.402 396.063 429.404 395.738 428.75 394.921 429.402"/>
    <polygon class="cls-17" points="395.735 430.219 396.063 429.404 394.921 429.402 395.735 430.219"/>
    <polygon class="cls-11" points="394.919 430.38 395.735 430.219 394.921 429.402 394.919 430.38"/>
    <polygon class="cls-11" points="394.921 429.402 396.063 429.404 395.738 428.75 394.921 429.402"/>
    <polygon class="cls-11" points="395.735 430.219 396.063 429.404 394.921 429.402 395.735 430.219"/>
    <polygon class="cls-17" points="393.942 429.4 394.921 429.402 394.27 428.748 393.942 429.4"/>
    <polygon class="cls-17" points="394.921 429.402 395.738 428.75 394.923 428.423 394.921 429.402"/>
    <polygon class="cls-17" points="394.27 428.748 394.921 429.402 394.923 428.423 394.27 428.748"/>
    <polygon class="cls-11" points="393.942 429.4 394.921 429.402 394.27 428.748 393.942 429.4"/>
    <polygon class="cls-11" points="394.921 429.402 395.738 428.75 394.923 428.423 394.921 429.402"/>
    <polygon class="cls-11" points="394.27 428.748 394.921 429.402 394.923 428.423 394.27 428.748"/>
    <polygon class="cls-17" points="394.919 430.38 394.921 429.402 394.267 430.216 394.919 430.38"/>
    <polygon class="cls-17" points="394.267 430.216 394.921 429.402 393.942 429.4 394.267 430.216"/>
    <polygon class="cls-11" points="394.919 430.38 394.921 429.402 394.267 430.216 394.919 430.38"/>
    <polygon class="cls-11" points="394.267 430.216 394.921 429.402 393.942 429.4 394.267 430.216"/>
    <line class="cls-13" x1="394.923" y1="428.423" x2="394.924" y2="427.444"/>
    <polygon class="cls-17" points="394.317 401.179 394.971 400.365 393.992 400.363 394.317 401.179"/>
    <polygon class="cls-17" points="394.971 400.365 394.973 399.386 394.32 399.711 394.971 400.365"/>
    <polygon class="cls-17" points="393.992 400.363 394.971 400.365 394.32 399.711 393.992 400.363"/>
    <polygon class="cls-11" points="394.317 401.179 394.971 400.365 393.992 400.363 394.317 401.179"/>
    <polygon class="cls-11" points="394.971 400.365 394.973 399.386 394.32 399.711 394.971 400.365"/>
    <polygon class="cls-11" points="393.992 400.363 394.971 400.365 394.32 399.711 393.992 400.363"/>
    <polygon class="cls-17" points="394.969 401.343 395.785 401.181 394.971 400.365 394.969 401.343"/>
    <polygon class="cls-17" points="394.317 401.179 394.969 401.343 394.971 400.365 394.317 401.179"/>
    <polygon class="cls-17" points="395.785 401.181 396.113 400.367 394.971 400.365 395.785 401.181"/>
    <polygon class="cls-11" points="394.317 401.179 394.969 401.343 394.971 400.365 394.317 401.179"/>
    <polygon class="cls-11" points="395.785 401.181 396.113 400.367 394.971 400.365 395.785 401.181"/>
    <polygon class="cls-11" points="394.969 401.343 395.785 401.181 394.971 400.365 394.969 401.343"/>
    <polygon class="cls-17" points="394.971 400.365 396.113 400.367 395.788 399.713 394.971 400.365"/>
    <polygon class="cls-17" points="394.973 399.386 394.971 400.365 395.788 399.713 394.973 399.386"/>
    <polygon class="cls-11" points="394.973 399.386 394.971 400.365 395.788 399.713 394.973 399.386"/>
    <polygon class="cls-11" points="394.971 400.365 396.113 400.367 395.788 399.713 394.971 400.365"/>
    <line class="cls-13" x1="394.969" y1="401.343" x2="394.967" y2="402.485"/>
    <text class="cls-2" transform="translate(393.424 421.987) rotate(-89.901)"><tspan x="0" y="0">115</tspan></text>
    <line class="cls-13" x1="358.593" y1="400.302" x2="387.467" y2="400.352"/>
    <polygon class="cls-17" points="384.203 400.998 384.857 400.347 383.878 400.346 384.203 400.998"/>
    <polygon class="cls-17" points="383.878 400.346 384.857 400.347 384.206 399.53 383.878 400.346"/>
    <polygon class="cls-17" points="384.857 400.347 384.859 399.205 384.206 399.53 384.857 400.347"/>
    <polygon class="cls-11" points="384.203 400.998 384.857 400.347 383.878 400.346 384.203 400.998"/>
    <polygon class="cls-11" points="383.878 400.346 384.857 400.347 384.206 399.53 383.878 400.346"/>
    <polygon class="cls-11" points="384.857 400.347 384.859 399.205 384.206 399.53 384.857 400.347"/>
    <polygon class="cls-17" points="384.203 400.998 384.855 401.326 384.857 400.347 384.203 400.998"/>
    <polygon class="cls-17" points="385.671 401.001 385.999 400.349 384.857 400.347 385.671 401.001"/>
    <polygon class="cls-17" points="384.855 401.326 385.671 401.001 384.857 400.347 384.855 401.326"/>
    <polygon class="cls-11" points="385.671 401.001 385.999 400.349 384.857 400.347 385.671 401.001"/>
    <polygon class="cls-11" points="384.203 400.998 384.855 401.326 384.857 400.347 384.203 400.998"/>
    <polygon class="cls-11" points="384.855 401.326 385.671 401.001 384.857 400.347 384.855 401.326"/>
    <polygon class="cls-17" points="384.859 399.205 384.857 400.347 385.674 399.533 384.859 399.205"/>
    <polygon class="cls-17" points="384.857 400.347 385.999 400.349 385.674 399.533 384.857 400.347"/>
    <polygon class="cls-11" points="384.859 399.205 384.857 400.347 385.674 399.533 384.859 399.205"/>
    <polygon class="cls-11" points="384.857 400.347 385.999 400.349 385.674 399.533 384.857 400.347"/>
    <line class="cls-13" x1="384.855" y1="401.326" x2="384.854" y2="402.305"/>
    <line class="cls-13" x1="402.456" y1="506.249" x2="402.451" y2="509.022"/>
    <polygon class="cls-17" points="401.641 505.758 402.456 506.412 402.457 505.433 401.641 505.758"/>
    <polygon class="cls-17" points="402.456 506.412 403.434 506.414 403.109 505.761 402.456 506.412"/>
    <polygon class="cls-17" points="402.457 505.433 402.456 506.412 403.109 505.761 402.457 505.433"/>
    <polygon class="cls-11" points="401.641 505.758 402.456 506.412 402.457 505.433 401.641 505.758"/>
    <polygon class="cls-11" points="402.456 506.412 403.434 506.414 403.109 505.761 402.456 506.412"/>
    <polygon class="cls-11" points="402.457 505.433 402.456 506.412 403.109 505.761 402.457 505.433"/>
    <polygon class="cls-17" points="401.639 507.226 402.456 506.412 401.314 506.41 401.639 507.226"/>
    <polygon class="cls-17" points="402.454 507.391 402.456 506.412 401.639 507.226 402.454 507.391"/>
    <polygon class="cls-17" points="401.314 506.41 402.456 506.412 401.641 505.758 401.314 506.41"/>
    <polygon class="cls-11" points="401.639 507.226 402.456 506.412 401.314 506.41 401.639 507.226"/>
    <polygon class="cls-11" points="402.454 507.391 402.456 506.412 401.639 507.226 402.454 507.391"/>
    <polygon class="cls-11" points="401.314 506.41 402.456 506.412 401.641 505.758 401.314 506.41"/>
    <polygon class="cls-17" points="402.454 507.391 403.107 507.229 402.456 506.412 402.454 507.391"/>
    <polygon class="cls-17" points="403.107 507.229 403.434 506.414 402.456 506.412 403.107 507.229"/>
    <polygon class="cls-11" points="402.454 507.391 403.107 507.229 402.456 506.412 402.454 507.391"/>
    <polygon class="cls-11" points="403.107 507.229 403.434 506.414 402.456 506.412 403.107 507.229"/>
    <line class="cls-6" x1="530.822" y1="516.094" x2="531.121" y2="342.688"/>
    <line class="cls-6" x1="525.774" y1="511.029" x2="526.072" y2="337.622"/>
    <line class="cls-6" x1="530.822" y1="516.094" x2="410.107" y2="515.887"/>
    <line class="cls-6" x1="410.115" y1="510.83" x2="525.774" y2="511.029"/>
    <path class="cls-18" d="M526.072,337.622l6.362.011-6.362-.011Z"/>
    <path class="cls-12" d="M526.072,337.622l6.362.011-6.362-.011Z"/>
    <polygon class="cls-18" points="532.425 342.853 532.426 342.69 531.121 342.688 532.425 342.853"/>
    <polygon class="cls-12" points="532.425 342.853 532.426 342.69 531.121 342.688 532.425 342.853"/>
    <polygon class="cls-18" points="526.064 342.679 532.426 342.69 526.072 337.622 526.064 342.679"/>
    <polygon class="cls-18" points="532.426 342.69 532.434 337.633 526.072 337.622 532.426 342.69"/>
    <polygon class="cls-12" points="526.064 342.679 532.426 342.69 526.072 337.622 526.064 342.679"/>
    <polygon class="cls-12" points="532.426 342.69 532.434 337.633 526.072 337.622 532.426 342.69"/>
    <polygon class="cls-18" points="531.12 342.851 531.121 342.688 526.064 342.679 531.12 342.851"/>
    <polygon class="cls-18" points="526.063 342.842 531.12 342.851 526.064 342.679 526.063 342.842"/>
    <polygon class="cls-12" points="526.063 342.842 531.12 342.851 526.064 342.679 526.063 342.842"/>
    <polygon class="cls-12" points="531.12 342.851 531.121 342.688 526.064 342.679 531.12 342.851"/>
    <polygon class="cls-18" points="525.774 511.029 530.831 511.037 526.063 342.842 525.774 511.029"/>
    <polygon class="cls-18" points="530.831 511.037 531.12 342.851 526.063 342.842 530.831 511.037"/>
    <polygon class="cls-12" points="525.774 511.029 530.831 511.037 526.063 342.842 525.774 511.029"/>
    <polygon class="cls-12" points="530.831 511.037 531.12 342.851 526.063 342.842 530.831 511.037"/>
    <polygon class="cls-18" points="410.107 515.887 530.822 516.094 410.115 510.83 410.107 515.887"/>
    <polygon class="cls-12" points="410.107 515.887 530.822 516.094 410.115 510.83 410.107 515.887"/>
    <polygon class="cls-18" points="530.822 516.094 530.831 511.037 410.115 510.83 530.822 516.094"/>
    <polygon class="cls-12" points="530.822 516.094 530.831 511.037 410.115 510.83 530.822 516.094"/>
    <path class="cls-18" d="M402.478,493.525l7.667.013-7.667-.013Z"/>
    <path class="cls-12" d="M402.478,493.525l7.667.013-7.667-.013Z"/>
    <polygon class="cls-18" points="402.424 524.519 410.255 524.533 409.333 520.859 402.431 520.859 402.424 524.519"/>
    <polygon class="cls-18" points="402.431 520.859 409.333 520.859 402.478 493.525 402.431 520.859"/>
    <polygon class="cls-12" points="402.424 524.519 410.255 524.533 409.333 520.859 402.431 520.859 402.424 524.519"/>
    <polygon class="cls-12" points="402.431 520.859 409.333 520.859 402.478 493.525 402.431 520.859"/>
    <polygon class="cls-18" points="410.255 524.533 410.242 520.859 409.333 520.859 410.255 524.533"/>
    <polygon class="cls-18" points="402.478 493.525 409.333 520.859 410.242 520.859 410.145 493.538 402.478 493.525"/>
    <polygon class="cls-12" points="410.255 524.533 410.242 520.859 409.333 520.859 410.255 524.533"/>
    <polygon class="cls-12" points="402.478 493.525 409.333 520.859 410.242 520.859 410.145 493.538 402.478 493.525"/>
    <path class="cls-18" d="M409.992,392.56l-27.243-.047,27.243.047Z"/>
    <path class="cls-12" d="M409.992,392.56l-27.243-.047,27.243.047Z"/>
    <path class="cls-18" d="M382.736,400.343l19.413.033-19.413-.033Z"/>
    <path class="cls-12" d="M382.736,400.343l19.413.033-19.413-.033Z"/>
    <polygon class="cls-18" points="382.736 400.344 409.979 400.39 382.75 392.513 382.736 400.344"/>
    <polygon class="cls-18" points="409.979 400.39 409.992 392.56 382.75 392.513 409.979 400.39"/>
    <polygon class="cls-12" points="382.736 400.344 409.979 400.39 382.75 392.513 382.736 400.344"/>
    <polygon class="cls-12" points="409.979 400.39 409.992 392.56 382.75 392.513 409.979 400.39"/>
    <path class="cls-18" d="M409.979,400.39h0l-7.83-.013,7.83.013ZM402.149,400.377l7.83.013-7.83-.013Z"/>
    <path class="cls-12" d="M409.979,400.39h0l-7.83-.013,7.83.013ZM402.149,400.377l7.83.013-7.83-.013Z"/>
    <polygon class="cls-18" points="402.262 429.414 409.929 429.427 402.149 400.377 402.262 429.414"/>
    <polygon class="cls-12" points="402.262 429.414 409.929 429.427 402.149 400.377 402.262 429.414"/>
    <polygon class="cls-18" points="409.929 429.427 409.979 400.39 402.149 400.377 409.929 429.427"/>
    <polygon class="cls-12" points="409.929 429.427 409.979 400.39 402.149 400.377 409.929 429.427"/>
    <line class="cls-13" x1="295.625" y1="400.194" x2="284.695" y2="400.175"/>
    <polygon class="cls-17" points="286.489 400.83 287.142 400.179 286.163 400.177 286.489 400.83"/>
    <polygon class="cls-17" points="286.163 400.177 287.142 400.179 286.491 399.362 286.163 400.177"/>
    <polygon class="cls-17" points="287.142 400.179 287.144 399.037 286.491 399.362 287.142 400.179"/>
    <polygon class="cls-11" points="286.489 400.83 287.142 400.179 286.163 400.177 286.489 400.83"/>
    <polygon class="cls-11" points="287.142 400.179 287.144 399.037 286.491 399.362 287.142 400.179"/>
    <polygon class="cls-11" points="286.163 400.177 287.142 400.179 286.491 399.362 286.163 400.177"/>
    <polygon class="cls-17" points="286.489 400.83 287.141 401.158 287.142 400.179 286.489 400.83"/>
    <polygon class="cls-17" points="287.141 401.158 287.957 400.833 287.142 400.179 287.141 401.158"/>
    <polygon class="cls-17" points="287.957 400.833 288.284 400.181 287.142 400.179 287.957 400.833"/>
    <polygon class="cls-11" points="286.489 400.83 287.141 401.158 287.142 400.179 286.489 400.83"/>
    <polygon class="cls-11" points="287.957 400.833 288.284 400.181 287.142 400.179 287.957 400.833"/>
    <polygon class="cls-11" points="287.141 401.158 287.957 400.833 287.142 400.179 287.141 401.158"/>
    <polygon class="cls-17" points="287.144 399.037 287.142 400.179 287.96 399.365 287.144 399.037"/>
    <polygon class="cls-17" points="287.142 400.179 288.284 400.181 287.96 399.365 287.142 400.179"/>
    <polygon class="cls-11" points="287.144 399.037 287.142 400.179 287.96 399.365 287.144 399.037"/>
    <polygon class="cls-11" points="287.142 400.179 288.284 400.181 287.96 399.365 287.142 400.179"/>
    <line class="cls-13" x1="287.141" y1="401.158" x2="287.139" y2="402.137"/>
    <line class="cls-13" x1="295.625" y1="400.194" x2="284.695" y2="400.175"/>
    <line class="cls-13" x1="295.183" y1="182.904" x2="285.069" y2="182.886"/>
    <line class="cls-13" x1="287.146" y1="398.058" x2="287.513" y2="185.011"/>
    <polygon class="cls-17" points="287.141 401.158 287.957 400.833 287.142 400.179 287.141 401.158"/>
    <polygon class="cls-17" points="287.957 400.833 288.284 400.181 287.142 400.179 287.957 400.833"/>
    <polygon class="cls-17" points="287.142 400.179 288.284 400.181 287.96 399.365 287.142 400.179"/>
    <polygon class="cls-11" points="287.141 401.158 287.957 400.833 287.142 400.179 287.141 401.158"/>
    <polygon class="cls-11" points="287.142 400.179 288.284 400.181 287.96 399.365 287.142 400.179"/>
    <polygon class="cls-11" points="287.957 400.833 288.284 400.181 287.142 400.179 287.957 400.833"/>
    <polygon class="cls-17" points="286.163 400.177 287.142 400.179 286.491 399.362 286.163 400.177"/>
    <polygon class="cls-17" points="286.491 399.362 287.142 400.179 287.144 399.037 286.491 399.362"/>
    <polygon class="cls-17" points="287.142 400.179 287.96 399.365 287.144 399.037 287.142 400.179"/>
    <polygon class="cls-11" points="286.163 400.177 287.142 400.179 286.491 399.362 286.163 400.177"/>
    <polygon class="cls-11" points="287.142 400.179 287.96 399.365 287.144 399.037 287.142 400.179"/>
    <polygon class="cls-11" points="286.491 399.362 287.142 400.179 287.144 399.037 286.491 399.362"/>
    <polygon class="cls-17" points="286.489 400.83 287.142 400.179 286.163 400.177 286.489 400.83"/>
    <polygon class="cls-17" points="287.141 401.158 287.142 400.179 286.489 400.83 287.141 401.158"/>
    <polygon class="cls-11" points="287.141 401.158 287.142 400.179 286.489 400.83 287.141 401.158"/>
    <polygon class="cls-11" points="286.489 400.83 287.142 400.179 286.163 400.177 286.489 400.83"/>
    <line class="cls-13" x1="287.144" y1="399.037" x2="287.146" y2="398.058"/>
    <polygon class="cls-17" points="286.537 182.889 287.516 182.89 286.865 182.237 286.537 182.889"/>
    <polygon class="cls-17" points="286.862 183.705 287.516 182.89 286.537 182.889 286.862 183.705"/>
    <polygon class="cls-17" points="287.516 182.89 287.518 181.912 286.865 182.237 287.516 182.89"/>
    <polygon class="cls-11" points="286.862 183.705 287.516 182.89 286.537 182.889 286.862 183.705"/>
    <polygon class="cls-11" points="287.516 182.89 287.518 181.912 286.865 182.237 287.516 182.89"/>
    <polygon class="cls-11" points="286.537 182.889 287.516 182.89 286.865 182.237 286.537 182.889"/>
    <polygon class="cls-17" points="286.862 183.705 287.514 184.032 287.516 182.89 286.862 183.705"/>
    <polygon class="cls-17" points="288.331 183.708 288.658 182.892 287.516 182.89 288.331 183.708"/>
    <polygon class="cls-17" points="287.514 184.032 288.331 183.708 287.516 182.89 287.514 184.032"/>
    <polygon class="cls-11" points="286.862 183.705 287.514 184.032 287.516 182.89 286.862 183.705"/>
    <polygon class="cls-11" points="287.514 184.032 288.331 183.708 287.516 182.89 287.514 184.032"/>
    <polygon class="cls-11" points="288.331 183.708 288.658 182.892 287.516 182.89 288.331 183.708"/>
    <polygon class="cls-17" points="287.518 181.912 287.516 182.89 288.333 182.239 287.518 181.912"/>
    <polygon class="cls-17" points="287.516 182.89 288.658 182.892 288.333 182.239 287.516 182.89"/>
    <polygon class="cls-11" points="287.518 181.912 287.516 182.89 288.333 182.239 287.518 181.912"/>
    <polygon class="cls-11" points="287.516 182.89 288.658 182.892 288.333 182.239 287.516 182.89"/>
    <line class="cls-13" x1="287.514" y1="184.032" x2="287.513" y2="185.011"/>
    <text class="cls-2" transform="translate(285.81 298.478) rotate(-89.901)"><tspan x="0" y="0">846</tspan></text>
  </g>
</svg>