<?xml version="1.0" encoding="UTF-8"?>
<svg xmlns="http://www.w3.org/2000/svg" viewBox="0 0 841.89 595.276">
  <defs>
    <style>
      .cls-1 {
        font-size: 9.483px;
      }

      .cls-1, .cls-2, .cls-3 {
        font-family: TimesNewRomanPSMT, 'Times New Roman';
      }

      .cls-1, .cls-2, .cls-3, .cls-4 {
        fill: #010101;
      }

      .cls-2 {
        font-size: 9.483px;
      }

      .cls-3 {
        font-size: 4.369px;
      }

      .cls-5, .cls-6, .cls-7, .cls-8, .cls-9, .cls-10, .cls-11, .cls-12, .cls-13 {
        stroke-miterlimit: 10;
      }

      .cls-5, .cls-7, .cls-14 {
        stroke: #000;
      }

      .cls-5, .cls-7, .cls-14, .cls-8, .cls-9, .cls-10, .cls-11, .cls-12 {
        fill: none;
      }

      .cls-5, .cls-7, .cls-14, .cls-9, .cls-10, .cls-11, .cls-12 {
        stroke-linecap: round;
      }

      .cls-5, .cls-11, .cls-12 {
        stroke-width: .18px;
      }

      .cls-6 {
        fill: #fcd7d7;
      }

      .cls-6, .cls-13 {
        stroke: #fff;
      }

      .cls-14 {
        stroke-linejoin: round;
      }

      .cls-8, .cls-10, .cls-12 {
        stroke: #646566;
      }

      .cls-9, .cls-11 {
        stroke: #818181;
      }

      .cls-13 {
        fill: #d2edfb;
      }

      .cls-15 {
        fill: #818181;
      }

      .cls-16 {
        fill: #646566;
      }
    </style>
  </defs>
  <g id="Layer_3" data-name="Layer 3">
    <g>
      <polygon class="cls-13" points="461.159 215.37 368.665 215.165 368.849 379.531 475.931 379.849 476.356 295.114 559.063 295.114 559.195 218.259 461.154 218.091 461.159 215.37"/>
      <polygon class="cls-6" points="433.195 379.558 475.931 379.849 476.051 338.575 432.713 338.452 433.195 379.558"/>
    </g>
  </g>
  <g id="Layer_6" data-name="Layer 6">
    <g>
      <path class="cls-16" d="M558.882,210.591l5.22.009-5.22-.009Z"/>
      <path class="cls-8" d="M558.882,210.591l5.22.009-5.22-.009Z"/>
      <polygon class="cls-16" points="558.953 300.343 561.314 300.343 558.882 210.592 558.953 300.343"/>
      <polygon class="cls-8" points="558.953 300.343 561.314 300.343 558.882 210.592 558.953 300.343"/>
      <polygon class="cls-16" points="558.882 210.592 561.314 300.343 564.097 300.343 564.102 210.601 558.882 210.592"/>
      <polygon class="cls-8" points="558.882 210.592 561.314 300.343 564.097 300.343 564.102 210.601 558.882 210.592"/>
      <path class="cls-16" d="M432.726,338.432l43.556.075-43.556-.075Z"/>
      <path class="cls-10" d="M432.726,338.432l43.556.075-43.556-.075Z"/>
      <polygon class="cls-16" points="430.116 338.427 476.281 338.506 430.12 335.98 430.116 338.427"/>
      <polygon class="cls-16" points="476.281 338.506 476.286 336.06 430.12 335.98 476.281 338.506"/>
      <polygon class="cls-10" points="430.116 338.427 476.281 338.506 430.12 335.98 430.116 338.427"/>
      <polygon class="cls-10" points="476.281 338.506 476.286 336.06 430.12 335.98 476.281 338.506"/>
      <polygon class="cls-16" points="432.719 342.347 432.726 338.432 430.116 338.427 432.719 342.347"/>
      <polygon class="cls-16" points="430.109 342.342 432.719 342.347 430.116 338.427 430.109 342.342"/>
      <polygon class="cls-10" points="430.109 342.342 432.719 342.347 430.116 338.427 430.109 342.342"/>
      <polygon class="cls-10" points="432.719 342.347 432.726 338.432 430.116 338.427 432.719 342.347"/>
      <polygon class="cls-16" points="364.63 379.742 363.561 379.74 364.63 379.788 364.63 379.742"/>
      <polygon class="cls-16" points="481.422 385.17 481.43 379.95 364.63 379.742 364.63 379.788 481.422 385.17"/>
      <polygon class="cls-16" points="364.63 379.788 364.63 384.962 481.422 385.17 364.63 379.788"/>
      <polygon class="cls-10" points="364.63 379.742 363.561 379.74 364.63 379.788 364.63 379.742"/>
      <polygon class="cls-10" points="481.422 385.17 481.43 379.95 364.63 379.742 364.63 379.788 481.422 385.17"/>
      <polygon class="cls-10" points="363.161 379.788 363.161 384.962 481.422 385.17 363.161 379.788"/>
      <polygon class="cls-16" points="476.239 363.139 481.459 363.148 476.356 295.114 476.239 363.139"/>
      <polygon class="cls-16" points="481.459 363.148 481.576 295.123 476.356 295.114 481.459 363.148"/>
      <polygon class="cls-10" points="476.239 363.139 481.459 363.148 476.356 295.114 476.239 363.139"/>
      <polygon class="cls-10" points="481.459 363.148 481.576 295.123 476.356 295.114 481.459 363.148"/>
      <text class="cls-1" transform="translate(384.593 290.753) rotate(.099)"><tspan x="0" y="0">S-36.50 m²</tspan></text>
      <path class="cls-16" d="M461.168,210.423l9.135.016-9.135-.016Z"/>
      <path class="cls-10" d="M461.168,210.423l9.135.016-9.135-.016Z"/>
      <polygon class="cls-16" points="461.154 218.09 470.29 218.106 461.168 210.423 461.154 218.09"/>
      <polygon class="cls-10" points="461.154 218.09 470.29 218.106 461.168 210.423 461.154 218.09"/>
      <polygon class="cls-16" points="470.29 218.106 470.303 210.439 461.168 210.423 470.29 218.106"/>
      <polygon class="cls-10" points="470.29 218.106 470.303 210.439 461.168 210.423 470.29 218.106"/>
      <polygon class="cls-16" points="534.236 218.216 559.195 218.259 534.25 210.549 534.236 218.216"/>
      <polygon class="cls-10" points="534.236 218.216 559.195 218.259 534.25 210.549 534.236 218.216"/>
      <polygon class="cls-16" points="559.195 218.259 559.209 210.592 534.25 210.549 559.195 218.259"/>
      <polygon class="cls-10" points="559.195 218.259 559.209 210.592 534.25 210.549 559.195 218.259"/>
      <line class="cls-5" x1="461.154" y1="218.09" x2="559.195" y2="218.259"/>
      <polyline class="cls-5" points="384.207 284.026 427.599 284.1 427.586 291.931 384.193 291.856 384.207 284.026"/>
      <path class="cls-16" d="M481.576,295.123l26.753.046-26.753-.046Z"/>
      <path class="cls-10" d="M481.576,295.123l26.753.046-26.753-.046Z"/>
      <path class="cls-16" d="M508.33,295.169l11.093.019-11.093-.019Z"/>
      <path class="cls-10" d="M508.33,295.169l11.093.019-11.093-.019Z"/>
      <path class="cls-16" d="M519.422,295.188l39.64.068-39.64-.068Z"/>
      <path class="cls-10" d="M519.422,295.188l39.64.068-39.64-.068Z"/>
      <polygon class="cls-16" points="519.414 300.245 559.054 300.313 519.422 295.188 519.414 300.245"/>
      <polygon class="cls-10" points="519.414 300.245 559.054 300.313 519.422 295.188 519.414 300.245"/>
      <polygon class="cls-16" points="559.054 300.313 559.063 295.256 519.422 295.188 559.054 300.313"/>
      <polygon class="cls-10" points="559.054 300.313 559.063 295.256 519.422 295.188 559.054 300.313"/>
      <polygon class="cls-16" points="508.321 300.226 519.414 300.245 508.33 295.169 508.321 300.226"/>
      <polygon class="cls-16" points="519.414 300.245 519.422 295.188 508.33 295.169 519.414 300.245"/>
      <polygon class="cls-10" points="508.321 300.226 519.414 300.245 508.33 295.169 508.321 300.226"/>
      <polygon class="cls-10" points="519.414 300.245 519.422 295.188 508.33 295.169 519.414 300.245"/>
      <polygon class="cls-16" points="481.567 300.18 508.321 300.226 481.576 295.123 481.567 300.18"/>
      <polygon class="cls-16" points="481.567 300.343 508.321 300.226 481.567 300.18 481.567 300.343"/>
      <polygon class="cls-16" points="508.321 300.226 508.33 295.169 481.576 295.123 508.321 300.226"/>
      <polygon class="cls-10" points="481.567 300.343 508.321 300.226 481.567 300.18 481.567 300.343"/>
      <polygon class="cls-10" points="481.567 300.18 508.321 300.226 481.576 295.123 481.567 300.18"/>
      <polygon class="cls-10" points="508.321 300.226 508.33 295.169 481.576 295.123 508.321 300.226"/>
      <path class="cls-16" d="M508.321,300.226h0l-26.753-.046,26.753.046ZM481.568,300.18l26.753.046-26.753-.046Z"/>
      <path class="cls-10" d="M508.321,300.226h0l-26.753-.046,26.753.046ZM481.568,300.18l26.753.046-26.753-.046Z"/>
      <text class="cls-1" transform="translate(387.348 302.992) rotate(.099)"><tspan x="0" y="0">H.S.P.5.25</tspan></text>
      <line class="cls-5" x1="368.674" y1="210.101" x2="371.284" y2="210.106"/>
      <line class="cls-5" x1="398.2" y1="210.152" x2="564.102" y2="210.6"/>
      <line class="cls-11" x1="364.733" y1="319.881" x2="364.742" y2="314.334"/>
      <line class="cls-11" x1="476.31" y1="322.194" x2="476.323" y2="314.526"/>
      <line class="cls-11" x1="366.695" y1="316.948" x2="474.361" y2="317.133"/>
      <polygon class="cls-15" points="364.736 317.923 365.389 317.761 364.737 316.945 364.736 317.923"/>
      <polygon class="cls-15" points="363.596 316.943 363.921 317.759 364.737 316.945 363.596 316.943"/>
      <polygon class="cls-15" points="363.921 317.759 364.736 317.923 364.737 316.945 363.921 317.759"/>
      <polygon class="cls-9" points="363.921 317.759 364.736 317.923 364.737 316.945 363.921 317.759"/>
      <polygon class="cls-9" points="363.596 316.943 363.921 317.759 364.737 316.945 363.596 316.943"/>
      <polygon class="cls-9" points="364.736 317.923 365.389 317.761 364.737 316.945 364.736 317.923"/>
      <polygon class="cls-15" points="364.739 315.966 364.737 316.945 365.391 316.293 364.739 315.966"/>
      <polygon class="cls-15" points="365.389 317.761 365.716 316.946 364.737 316.945 365.389 317.761"/>
      <polygon class="cls-15" points="364.737 316.945 365.716 316.946 365.391 316.293 364.737 316.945"/>
      <polygon class="cls-9" points="365.389 317.761 365.716 316.946 364.737 316.945 365.389 317.761"/>
      <polygon class="cls-9" points="364.739 315.966 364.737 316.945 365.391 316.293 364.739 315.966"/>
      <polygon class="cls-9" points="364.737 316.945 365.716 316.946 365.391 316.293 364.737 316.945"/>
      <polygon class="cls-15" points="363.596 316.943 364.737 316.945 363.923 316.291 363.596 316.943"/>
      <polygon class="cls-15" points="364.737 316.945 364.739 315.966 363.923 316.291 364.737 316.945"/>
      <polygon class="cls-9" points="363.596 316.943 364.737 316.945 363.923 316.291 363.596 316.943"/>
      <polygon class="cls-9" points="364.737 316.945 364.739 315.966 363.923 316.291 364.737 316.945"/>
      <line class="cls-11" x1="365.716" y1="316.946" x2="366.695" y2="316.948"/>
      <polygon class="cls-15" points="475.667 316.483 476.318 317.136 476.32 316.158 475.667 316.483"/>
      <polygon class="cls-15" points="476.318 317.136 477.46 317.138 477.135 316.485 476.318 317.136"/>
      <polygon class="cls-15" points="476.32 316.158 476.318 317.136 477.135 316.485 476.32 316.158"/>
      <polygon class="cls-9" points="476.32 316.158 476.318 317.136 477.135 316.485 476.32 316.158"/>
      <polygon class="cls-9" points="475.667 316.483 476.318 317.136 476.32 316.158 475.667 316.483"/>
      <polygon class="cls-9" points="476.318 317.136 477.46 317.138 477.135 316.485 476.318 317.136"/>
      <polygon class="cls-15" points="476.317 318.115 476.318 317.136 475.664 317.951 476.317 318.115"/>
      <polygon class="cls-15" points="475.664 317.951 476.318 317.136 475.339 317.135 475.664 317.951"/>
      <polygon class="cls-15" points="475.339 317.135 476.318 317.136 475.667 316.483 475.339 317.135"/>
      <polygon class="cls-9" points="476.317 318.115 476.318 317.136 475.664 317.951 476.317 318.115"/>
      <polygon class="cls-9" points="475.664 317.951 476.318 317.136 475.339 317.135 475.664 317.951"/>
      <polygon class="cls-9" points="475.339 317.135 476.318 317.136 475.667 316.483 475.339 317.135"/>
      <polygon class="cls-15" points="476.317 318.115 477.132 317.954 476.318 317.136 476.317 318.115"/>
      <polygon class="cls-15" points="477.132 317.954 477.46 317.138 476.318 317.136 477.132 317.954"/>
      <polygon class="cls-9" points="476.317 318.115 477.132 317.954 476.318 317.136 476.317 318.115"/>
      <polygon class="cls-9" points="477.132 317.954 477.46 317.138 476.318 317.136 477.132 317.954"/>
      <line class="cls-11" x1="475.339" y1="317.135" x2="474.361" y2="317.133"/>
      <text class="cls-1" transform="translate(413.752 315.762) rotate(.099)"><tspan x="0" y="0">435</tspan></text>
      <line class="cls-11" x1="446.27" y1="336.008" x2="445.944" y2="336.007"/>
      <line class="cls-11" x1="446.477" y1="215.455" x2="446.151" y2="215.455"/>
      <line class="cls-11" x1="443.337" y1="333.882" x2="443.537" y2="217.571"/>
      <polygon class="cls-15" points="443.332 336.982 443.985 336.656 443.334 336.003 443.332 336.982"/>
      <polygon class="cls-15" points="443.334 336.003 444.312 336.004 443.987 335.188 443.334 336.003"/>
      <polygon class="cls-15" points="443.985 336.656 444.312 336.004 443.334 336.003 443.985 336.656"/>
      <polygon class="cls-9" points="443.332 336.982 443.985 336.656 443.334 336.003 443.332 336.982"/>
      <polygon class="cls-9" points="443.334 336.003 444.312 336.004 443.987 335.188 443.334 336.003"/>
      <polygon class="cls-9" points="443.985 336.656 444.312 336.004 443.334 336.003 443.985 336.656"/>
      <polygon class="cls-15" points="442.355 336.001 443.334 336.003 442.519 335.186 442.355 336.001"/>
      <polygon class="cls-15" points="443.334 336.003 443.987 335.188 443.336 334.861 443.334 336.003"/>
      <polygon class="cls-15" points="442.519 335.186 443.334 336.003 443.336 334.861 442.519 335.186"/>
      <polygon class="cls-9" points="442.355 336.001 443.334 336.003 442.519 335.186 442.355 336.001"/>
      <polygon class="cls-9" points="442.519 335.186 443.334 336.003 443.336 334.861 442.519 335.186"/>
      <polygon class="cls-9" points="443.334 336.003 443.987 335.188 443.336 334.861 443.334 336.003"/>
      <polygon class="cls-15" points="442.517 336.654 443.334 336.003 442.355 336.001 442.517 336.654"/>
      <polygon class="cls-15" points="443.332 336.982 443.334 336.003 442.517 336.654 443.332 336.982"/>
      <polygon class="cls-9" points="443.332 336.982 443.334 336.003 442.517 336.654 443.332 336.982"/>
      <polygon class="cls-9" points="442.517 336.654 443.334 336.003 442.355 336.001 442.517 336.654"/>
      <line class="cls-11" x1="443.335" y1="334.861" x2="443.337" y2="333.882"/>
      <polygon class="cls-15" points="443.541 215.45 443.543 214.471 442.727 214.633 443.541 215.45"/>
      <polygon class="cls-15" points="442.724 216.101 443.541 215.45 442.562 215.448 442.724 216.101"/>
      <polygon class="cls-15" points="442.562 215.448 443.541 215.45 442.727 214.633 442.562 215.448"/>
      <polygon class="cls-9" points="442.724 216.101 443.541 215.45 442.562 215.448 442.724 216.101"/>
      <polygon class="cls-9" points="442.562 215.448 443.541 215.45 442.727 214.633 442.562 215.448"/>
      <polygon class="cls-9" points="443.541 215.45 443.543 214.471 442.727 214.633 443.541 215.45"/>
      <polygon class="cls-15" points="442.724 216.101 443.539 216.429 443.541 215.45 442.724 216.101"/>
      <polygon class="cls-15" points="444.192 216.104 444.52 215.452 443.541 215.45 444.192 216.104"/>
      <polygon class="cls-15" points="443.539 216.429 444.192 216.104 443.541 215.45 443.539 216.429"/>
      <polygon class="cls-9" points="442.724 216.101 443.539 216.429 443.541 215.45 442.724 216.101"/>
      <polygon class="cls-9" points="444.192 216.104 444.52 215.452 443.541 215.45 444.192 216.104"/>
      <polygon class="cls-9" points="443.539 216.429 444.192 216.104 443.541 215.45 443.539 216.429"/>
      <polygon class="cls-15" points="443.543 214.471 443.541 215.45 444.195 214.636 443.543 214.471"/>
      <polygon class="cls-15" points="443.541 215.45 444.52 215.452 444.195 214.636 443.541 215.45"/>
      <polygon class="cls-9" points="443.543 214.471 443.541 215.45 444.195 214.636 443.543 214.471"/>
      <polygon class="cls-9" points="443.541 215.45 444.52 215.452 444.195 214.636 443.541 215.45"/>
      <line class="cls-11" x1="443.539" y1="216.429" x2="443.537" y2="217.571"/>
      <text class="cls-2" transform="translate(441.749 282.419) rotate(-89.901)"><tspan x="0" y="0">470</tspan></text>
      <text class="cls-1" transform="translate(379.722 278.836) rotate(.099)"><tspan x="0" y="0" xml:space="preserve"> Bureau 05</tspan></text>
      <line class="cls-5" x1="432.719" y1="342.347" x2="432.726" y2="338.432"/>
      <path class="cls-5" d="M472.077,364.763c-.676-.001-1.225.546-1.226,1.221"/>
      <line class="cls-5" x1="472.158" y1="364.763" x2="474.768" y2="364.768"/>
      <path class="cls-5" d="M475.908,365.993c.001-.676-.546-1.224-1.221-1.226"/>
      <line class="cls-5" x1="475.908" y1="366.075" x2="475.89" y2="376.352"/>
      <path class="cls-5" d="M474.665,377.492c.676.001,1.225-.546,1.226-1.221"/>
      <line class="cls-5" x1="474.746" y1="377.655" x2="472.136" y2="377.651"/>
      <path class="cls-5" d="M470.833,376.262c-.001.676.546,1.224,1.221,1.226"/>
      <line class="cls-5" x1="470.833" y1="376.343" x2="470.851" y2="366.066"/>
      <path class="cls-5" d="M472.061,364.795c-4.917-.253-9.689.905-12.305,2.985-2.616,2.08-2.62,4.721-.012,6.811s7.376,3.263,12.294,3.028"/>
      <line class="cls-5" x1="469.732" y1="352.524" x2="467.285" y2="352.52"/>
      <path class="cls-5" d="M475.033,353.023c.225,0,.408-.182.408-.407"/>
      <line class="cls-5" x1="476.286" y1="336.06" x2="430.12" y2="335.98"/>
      <line class="cls-5" x1="476.282" y1="338.506" x2="432.726" y2="338.432"/>
      <line class="cls-5" x1="476.242" y1="361.671" x2="463.518" y2="361.649"/>
      <polygon class="cls-16" points="430.045 379.536 432.655 379.54 430.073 362.896 430.045 379.536"/>
      <polygon class="cls-16" points="432.655 379.54 432.684 362.901 430.073 362.896 432.655 379.54"/>
      <polygon class="cls-10" points="430.045 379.536 432.655 379.54 430.073 362.896 430.045 379.536"/>
      <polygon class="cls-10" points="432.655 379.54 432.684 362.901 430.073 362.896 432.655 379.54"/>
      <line class="cls-5" x1="432.655" y1="379.866" x2="432.684" y2="362.901"/>
      <line class="cls-5" x1="430.074" y1="362.896" x2="430.044" y2="379.862"/>
      <line class="cls-5" x1="432.719" y1="342.347" x2="432.716" y2="344.467"/>
      <polyline class="cls-5" points="432.717 343.815 431.575 343.813 431.574 344.302 430.106 344.3 430.109 342.342"/>
      <polyline class="cls-5" points="432.684 362.901 432.686 361.596 431.544 361.594 431.545 360.941 430.077 360.939 430.074 362.896"/>
      <line class="cls-5" x1="432.717" y1="343.815" x2="451.64" y2="343.847"/>
      <path class="cls-5" d="M432.536,361.475c4.984.606,9.982-1.017,13.66-4.435,3.678-3.418,5.662-8.283,5.424-13.298"/>
      <line class="cls-5" x1="432.716" y1="344.467" x2="451.638" y2="344.5"/>
      <line class="cls-5" x1="430.109" y1="342.342" x2="432.719" y2="342.347"/>
      <line class="cls-5" x1="469.204" y1="374.872" x2="469.217" y2="367.531"/>
      <polyline class="cls-5" points="467.734 376.175 465.777 375.845 464.146 375.353 462.516 374.698 461.375 374.043 460.398 373.226 459.747 372.572 459.259 371.919 459.26 371.266 459.261 370.451 459.751 369.799 460.405 369.148 461.385 368.334 462.528 367.683 464.161 367.033 465.793 366.547 467.751 366.224"/>
      <line class="cls-5" x1="476.551" y1="371.296" x2="472.147" y2="371.288"/>
      <path class="cls-5" d="M474.431,371.211c0-.315-.255-.571-.57-.572s-.571.255-.572.57.255.571.57.572.571-.255.572-.57"/>
      <path class="cls-5" d="M467.66,376.002c.349.045.7-.061.965-.293.264-.232.416-.566.417-.918"/>
      <path class="cls-5" d="M469.054,367.45c0-.352-.15-.687-.414-.92-.264-.233-.615-.341-.964-.296"/>
      <line class="cls-5" x1="473.321" y1="352.531" x2="475.931" y2="352.535"/>
      <line class="cls-5" x1="473.939" y1="372.597" x2="473.944" y2="369.66"/>
      <line class="cls-5" x1="476.714" y1="371.296" x2="457.302" y2="371.263"/>
      <path class="cls-5" d="M473.143,351.941c-.201-3.269-2.326-5.745-4.816-5.613-2.491.132-4.461,2.825-4.467,6.104-.006,3.28,1.955,5.979,4.446,6.12,2.49.14,4.623-2.328,4.836-5.596"/>
      <line class="cls-5" x1="474.631" y1="349.596" x2="474.62" y2="355.795"/>
      <line class="cls-5" x1="475.608" y1="350.74" x2="473.813" y2="350.737"/>
      <line class="cls-5" x1="475.602" y1="354.492" x2="473.807" y2="354.489"/>
      <path class="cls-5" d="M474.956,350.657c0-.225-.182-.408-.407-.409s-.408.182-.408.407.182.408.407.409.408-.182.408-.407"/>
      <path class="cls-5" d="M474.949,354.409c0-.225-.182-.408-.407-.409s-.408.182-.408.407.182.408.407.409.408-.182.408-.407"/>
      <path class="cls-5" d="M469.243,352.442c0-.496-.4-.898-.896-.899s-.898.4-.899.896.4.898.896.899.898-.4.899-.896"/>
      <line class="cls-5" x1="472.341" y1="353.181" x2="475.114" y2="353.186"/>
      <line class="cls-5" x1="472.343" y1="352.039" x2="475.116" y2="352.044"/>
      <line class="cls-5" x1="468.429" y1="351.38" x2="468.425" y2="353.501"/>
      <path class="cls-5" d="M472.262,352.039c-.225,0-.408.182-.408.407"/>
      <path class="cls-5" d="M471.853,352.61c0,.225.182.408.407.409"/>
      <line class="cls-5" x1="475.442" y1="352.534" x2="475.441" y2="352.697"/>
      <path class="cls-5" d="M475.442,352.453c0-.225-.182-.408-.407-.409"/>
      <line class="cls-5" x1="471.853" y1="352.528" x2="471.853" y2="352.691"/>
      <line class="cls-5" x1="463.557" y1="338.485" x2="463.518" y2="361.649"/>
      <line class="cls-11" x1="442.117" y1="379.556" x2="442.769" y2="379.558"/>
      <line class="cls-11" x1="442.187" y1="338.448" x2="442.84" y2="338.449"/>
      <line class="cls-11" x1="445.383" y1="377.605" x2="445.446" y2="340.574"/>
      <polygon class="cls-15" points="445.377 380.704 446.193 380.379 445.38 379.562 445.377 380.704"/>
      <polygon class="cls-15" points="445.38 379.562 446.521 379.564 446.196 378.911 445.38 379.562"/>
      <polygon class="cls-15" points="446.193 380.379 446.521 379.564 445.38 379.562 446.193 380.379"/>
      <polygon class="cls-9" points="446.193 380.379 446.521 379.564 445.38 379.562 446.193 380.379"/>
      <polygon class="cls-9" points="445.377 380.704 446.193 380.379 445.38 379.562 445.377 380.704"/>
      <polygon class="cls-9" points="445.38 379.562 446.521 379.564 446.196 378.911 445.38 379.562"/>
      <polygon class="cls-15" points="445.38 379.562 446.196 378.911 445.381 378.583 445.38 379.562"/>
      <polygon class="cls-15" points="444.401 379.56 445.38 379.562 444.728 378.908 444.401 379.56"/>
      <polygon class="cls-15" points="444.728 378.908 445.38 379.562 445.381 378.583 444.728 378.908"/>
      <polygon class="cls-9" points="444.401 379.56 445.38 379.562 444.728 378.908 444.401 379.56"/>
      <polygon class="cls-9" points="445.38 379.562 446.196 378.911 445.381 378.583 445.38 379.562"/>
      <polygon class="cls-9" points="444.728 378.908 445.38 379.562 445.381 378.583 444.728 378.908"/>
      <polygon class="cls-15" points="444.725 380.376 445.38 379.562 444.401 379.56 444.725 380.376"/>
      <polygon class="cls-15" points="445.377 380.704 445.38 379.562 444.725 380.376 445.377 380.704"/>
      <polygon class="cls-9" points="445.377 380.704 445.38 379.562 444.725 380.376 445.377 380.704"/>
      <polygon class="cls-9" points="444.725 380.376 445.38 379.562 444.401 379.56 444.725 380.376"/>
      <line class="cls-11" x1="445.381" y1="378.583" x2="445.383" y2="377.605"/>
      <polygon class="cls-15" points="444.796 339.268 445.45 338.453 444.471 338.452 444.796 339.268"/>
      <polygon class="cls-15" points="444.471 338.452 445.45 338.453 444.798 337.8 444.471 338.452"/>
      <polygon class="cls-15" points="445.45 338.453 445.452 337.475 444.798 337.8 445.45 338.453"/>
      <polygon class="cls-9" points="444.796 339.268 445.45 338.453 444.471 338.452 444.796 339.268"/>
      <polygon class="cls-9" points="445.45 338.453 445.452 337.475 444.798 337.8 445.45 338.453"/>
      <polygon class="cls-9" points="444.471 338.452 445.45 338.453 444.798 337.8 444.471 338.452"/>
      <polygon class="cls-15" points="444.796 339.268 445.448 339.595 445.45 338.453 444.796 339.268"/>
      <polygon class="cls-15" points="445.448 339.595 446.264 339.27 445.45 338.453 445.448 339.595"/>
      <polygon class="cls-15" points="446.264 339.27 446.592 338.455 445.45 338.453 446.264 339.27"/>
      <polygon class="cls-9" points="444.796 339.268 445.448 339.595 445.45 338.453 444.796 339.268"/>
      <polygon class="cls-9" points="446.264 339.27 446.592 338.455 445.45 338.453 446.264 339.27"/>
      <polygon class="cls-9" points="445.448 339.595 446.264 339.27 445.45 338.453 445.448 339.595"/>
      <polygon class="cls-15" points="445.45 338.453 446.592 338.455 446.267 337.802 445.45 338.453"/>
      <polygon class="cls-15" points="445.452 337.475 445.45 338.453 446.267 337.802 445.452 337.475"/>
      <polygon class="cls-9" points="445.452 337.475 445.45 338.453 446.267 337.802 445.452 337.475"/>
      <polygon class="cls-9" points="445.45 338.453 446.592 338.455 446.267 337.802 445.45 338.453"/>
      <line class="cls-11" x1="445.448" y1="339.595" x2="445.446" y2="340.574"/>
      <text class="cls-2" transform="translate(443.888 366.269) rotate(-89.901)"><tspan x="0" y="0">160</tspan></text>
      <text class="cls-1" transform="translate(442.372 368.993) rotate(.099)"><tspan x="0" y="0">Toil.</tspan></text>
      <line class="cls-12" x1="469.034" y1="378.787" x2="432.657" y2="378.725"/>
      <line class="cls-12" x1="459.254" y1="374.692" x2="432.664" y2="374.646"/>
      <line class="cls-12" x1="458.119" y1="370.612" x2="432.671" y2="370.568"/>
      <line class="cls-12" x1="463.183" y1="366.542" x2="432.678" y2="366.49"/>
      <line class="cls-12" x1="463.516" y1="362.465" x2="432.685" y2="362.412"/>
      <line class="cls-12" x1="463.523" y1="358.386" x2="432.692" y2="358.333"/>
      <line class="cls-12" x1="463.53" y1="354.308" x2="432.699" y2="354.255"/>
      <line class="cls-12" x1="463.537" y1="350.23" x2="432.706" y2="350.177"/>
      <line class="cls-12" x1="463.544" y1="346.152" x2="432.713" y2="346.099"/>
      <line class="cls-12" x1="463.551" y1="342.073" x2="432.72" y2="342.02"/>
      <line class="cls-12" x1="474.417" y1="379.449" x2="474.416" y2="379.612"/>
      <line class="cls-12" x1="470.339" y1="378.952" x2="470.338" y2="379.605"/>
      <line class="cls-12" x1="466.262" y1="378.13" x2="466.26" y2="379.598"/>
      <line class="cls-12" x1="462.252" y1="338.482" x2="462.204" y2="366.867"/>
      <line class="cls-12" x1="462.188" y1="376.165" x2="462.182" y2="379.591"/>
      <line class="cls-12" x1="458.174" y1="338.475" x2="458.12" y2="370.122"/>
      <line class="cls-12" x1="458.113" y1="374.201" x2="458.103" y2="379.584"/>
      <line class="cls-12" x1="454.096" y1="338.468" x2="454.025" y2="379.577"/>
      <line class="cls-12" x1="450.018" y1="338.461" x2="449.947" y2="379.57"/>
      <line class="cls-12" x1="445.939" y1="338.454" x2="445.869" y2="379.563"/>
      <line class="cls-12" x1="441.861" y1="338.447" x2="441.79" y2="379.556"/>
      <line class="cls-12" x1="437.783" y1="338.44" x2="437.712" y2="379.549"/>
      <line class="cls-12" x1="433.705" y1="338.433" x2="433.634" y2="379.542"/>
      <line class="cls-5" x1="432.684" y1="362.901" x2="430.074" y2="362.896"/>
      <line class="cls-11" x1="432.712" y1="346.262" x2="432.701" y2="352.624"/>
      <line class="cls-11" x1="476.428" y1="347.968" x2="476.42" y2="352.699"/>
      <line class="cls-11" x1="434.663" y1="350.017" x2="474.304" y2="350.085"/>
      <polygon class="cls-15" points="431.564 350.012 431.889 350.828 432.706 350.014 431.564 350.012"/>
      <polygon class="cls-15" points="432.704 351.156 433.357 350.831 432.706 350.014 432.704 351.156"/>
      <polygon class="cls-15" points="431.889 350.828 432.704 351.156 432.706 350.014 431.889 350.828"/>
      <polygon class="cls-9" points="431.564 350.012 431.889 350.828 432.706 350.014 431.564 350.012"/>
      <polygon class="cls-9" points="431.889 350.828 432.704 351.156 432.706 350.014 431.889 350.828"/>
      <polygon class="cls-9" points="432.704 351.156 433.357 350.831 432.706 350.014 432.704 351.156"/>
      <polygon class="cls-15" points="432.708 349.035 432.706 350.014 433.359 349.362 432.708 349.035"/>
      <polygon class="cls-15" points="433.357 350.831 433.685 350.015 432.706 350.014 433.357 350.831"/>
      <polygon class="cls-15" points="432.706 350.014 433.685 350.015 433.359 349.362 432.706 350.014"/>
      <polygon class="cls-9" points="433.357 350.831 433.685 350.015 432.706 350.014 433.357 350.831"/>
      <polygon class="cls-9" points="432.706 350.014 433.685 350.015 433.359 349.362 432.706 350.014"/>
      <polygon class="cls-9" points="432.708 349.035 432.706 350.014 433.359 349.362 432.708 349.035"/>
      <polygon class="cls-15" points="431.564 350.012 432.706 350.014 431.891 349.36 431.564 350.012"/>
      <polygon class="cls-15" points="432.706 350.014 432.708 349.035 431.891 349.36 432.706 350.014"/>
      <polygon class="cls-9" points="431.564 350.012 432.706 350.014 431.891 349.36 431.564 350.012"/>
      <polygon class="cls-9" points="432.706 350.014 432.708 349.035 431.891 349.36 432.706 350.014"/>
      <line class="cls-11" x1="433.685" y1="350.015" x2="434.663" y2="350.017"/>
      <polygon class="cls-15" points="476.426 349.11 476.425 350.089 477.078 349.437 476.426 349.11"/>
      <polygon class="cls-15" points="475.61 349.435 476.425 350.089 476.426 349.11 475.61 349.435"/>
      <polygon class="cls-15" points="476.425 350.089 477.403 350.091 477.078 349.437 476.425 350.089"/>
      <polygon class="cls-9" points="475.61 349.435 476.425 350.089 476.426 349.11 475.61 349.435"/>
      <polygon class="cls-9" points="476.425 350.089 477.403 350.091 477.078 349.437 476.425 350.089"/>
      <polygon class="cls-9" points="476.426 349.11 476.425 350.089 477.078 349.437 476.426 349.11"/>
      <polygon class="cls-15" points="475.608 350.903 476.425 350.089 475.283 350.087 475.608 350.903"/>
      <polygon class="cls-15" points="476.423 351.231 476.425 350.089 475.608 350.903 476.423 351.231"/>
      <polygon class="cls-15" points="475.283 350.087 476.425 350.089 475.61 349.435 475.283 350.087"/>
      <polygon class="cls-9" points="475.608 350.903 476.425 350.089 475.283 350.087 475.608 350.903"/>
      <polygon class="cls-9" points="476.423 351.231 476.425 350.089 475.608 350.903 476.423 351.231"/>
      <polygon class="cls-9" points="475.283 350.087 476.425 350.089 475.61 349.435 475.283 350.087"/>
      <polygon class="cls-15" points="477.076 350.906 477.403 350.091 476.425 350.089 477.076 350.906"/>
      <polygon class="cls-15" points="476.423 351.231 477.076 350.906 476.425 350.089 476.423 351.231"/>
      <polygon class="cls-9" points="476.423 351.231 477.076 350.906 476.425 350.089 476.423 351.231"/>
      <polygon class="cls-9" points="477.076 350.906 477.403 350.091 476.425 350.089 477.076 350.906"/>
      <line class="cls-11" x1="475.283" y1="350.087" x2="474.304" y2="350.085"/>
      <text class="cls-1" transform="translate(447.135 348.772) rotate(.099)"><tspan x="0" y="0">170</tspan></text>
      <line class="cls-5" x1="432.655" y1="379.54" x2="435.102" y2="379.544"/>
      <line class="cls-5" x1="430.109" y1="342.342" x2="430.12" y2="335.98"/>
      <polyline class="cls-5" points="476.286 336.06 430.12 335.98 430.109 342.342 432.719 342.347 432.726 338.432 476.282 338.506 476.286 336.06"/>
      <line class="cls-5" x1="481.433" y1="378.482" x2="476.213" y2="378.473"/>
      <line class="cls-5" x1="476.239" y1="363.139" x2="481.459" y2="363.148"/>
      <line class="cls-5" x1="481.455" y1="365.432" x2="481.429" y2="380.766"/>
      <polyline class="cls-5" points="476.239 363.139 481.459 363.148 481.576 295.123 476.356 295.114 476.239 363.139"/>
      <line class="cls-14" x1="508.313" y1="304.957" x2="508.318" y2="301.857"/>
      <line class="cls-14" x1="508.32" y1="301.042" x2="508.325" y2="297.942"/>
      <line class="cls-14" x1="508.326" y1="297.29" x2="508.331" y2="294.19"/>
      <line class="cls-14" x1="508.333" y1="293.375" x2="508.338" y2="290.275"/>
      <line class="cls-14" x1="508.339" y1="289.46" x2="508.345" y2="286.36"/>
      <line class="cls-14" x1="508.346" y1="285.708" x2="508.351" y2="282.608"/>
      <line class="cls-14" x1="508.353" y1="281.792" x2="508.358" y2="278.693"/>
      <line class="cls-14" x1="508.359" y1="277.877" x2="508.364" y2="274.941"/>
      <line class="cls-14" x1="508.366" y1="274.125" x2="508.371" y2="271.026"/>
      <line class="cls-14" x1="508.373" y1="270.21" x2="508.378" y2="267.111"/>
      <line class="cls-14" x1="508.379" y1="266.458" x2="508.384" y2="263.359"/>
      <line class="cls-14" x1="508.386" y1="262.543" x2="508.391" y2="259.444"/>
      <line class="cls-14" x1="508.392" y1="258.628" x2="508.398" y2="255.529"/>
      <line class="cls-14" x1="508.399" y1="254.876" x2="508.404" y2="251.777"/>
      <line class="cls-14" x1="508.406" y1="250.961" x2="508.411" y2="247.861"/>
      <line class="cls-14" x1="508.412" y1="247.046" x2="508.417" y2="244.109"/>
      <line class="cls-14" x1="508.419" y1="243.294" x2="508.424" y2="240.194"/>
      <line class="cls-14" x1="508.426" y1="239.379" x2="508.431" y2="236.279"/>
      <line class="cls-14" x1="508.432" y1="235.627" x2="508.437" y2="232.527"/>
      <line class="cls-14" x1="508.439" y1="231.712" x2="508.444" y2="228.612"/>
      <line class="cls-14" x1="508.446" y1="227.797" x2="508.451" y2="224.697"/>
      <line class="cls-14" x1="508.452" y1="224.045" x2="508.457" y2="220.945"/>
      <line class="cls-14" x1="508.459" y1="220.129" x2="508.464" y2="217.03"/>
      <line class="cls-14" x1="508.465" y1="216.214" x2="508.471" y2="213.278"/>
      <line class="cls-14" x1="508.472" y1="212.462" x2="508.477" y2="209.363"/>
      <line class="cls-5" x1="371.283" y1="210.269" x2="363.616" y2="210.256"/>
      <line class="cls-5" x1="372.58" y1="215.165" x2="368.665" y2="215.321"/>
      <path class="cls-5" d="M372.457,239.471c13.379.023,24.243-10.804,24.266-24.183"/>
      <polyline class="cls-5" points="398.191 215.372 396.723 215.37 396.724 214.391 396.235 214.39 396.238 212.759 398.195 212.762"/>
      <line class="cls-5" x1="372.58" y1="215.328" x2="372.538" y2="239.471"/>
      <line class="cls-5" x1="371.275" y1="215.326" x2="373.232" y2="215.329"/>
      <polyline class="cls-5" points="372.58 215.328 372.581 214.349 373.234 214.35 373.236 212.719 371.279 212.716"/>
      <line class="cls-5" x1="373.232" y1="215.329" x2="373.19" y2="239.472"/>
      <polyline class="cls-5" points="368.665 215.321 371.275 215.326 371.284 210.106"/>
      <polygon class="cls-4" points="385.805 208.662 389.89 204.428 381.57 204.414 385.805 208.662"/>
      <polygon class="cls-7" points="385.805 208.662 389.89 204.428 381.57 204.414 385.805 208.662"/>
      <polyline class="cls-5" points="389.89 204.428 381.571 204.414 385.805 208.662 389.89 204.428"/>
      <polygon class="cls-16" points="363.444 215.312 371.275 215.326 363.453 210.255 363.444 215.312"/>
      <polygon class="cls-16" points="371.275 215.326 371.283 210.269 363.453 210.255 371.275 215.326"/>
      <polygon class="cls-10" points="371.275 215.326 371.283 210.269 363.453 210.255 371.275 215.326"/>
      <polygon class="cls-10" points="363.444 215.312 371.275 215.326 363.453 210.255 363.444 215.312"/>
      <polyline class="cls-5" points="363.444 215.312 371.275 215.326 371.283 210.269 363.453 210.255 363.444 215.312"/>
      <polygon class="cls-4" points="377.962 215.99 377.789 221.699 390.35 221.721 377.962 215.99"/>
      <polygon class="cls-4" points="377.789 221.699 390.676 221.884 390.35 221.721 377.789 221.699"/>
      <polygon class="cls-7" points="377.962 215.99 377.789 221.699 390.35 221.721 377.962 215.99"/>
      <polygon class="cls-7" points="377.789 221.699 390.676 221.884 390.35 221.721 377.789 221.699"/>
      <polyline class="cls-5" points="377.789 221.699 390.676 221.884 390.685 216.175 377.962 215.99 377.789 221.699"/>
      <line class="cls-5" x1="390.676" y1="221.884" x2="377.962" y2="215.99"/>
      <line class="cls-5" x1="368.665" y1="215.321" x2="372.58" y2="215.328"/>
      <line class="cls-5" x1="396.723" y1="215.37" x2="461.159" y2="215.48"/>
      <line class="cls-5" x1="476.356" y1="295.114" x2="559.063" y2="295.256"/>
      <line class="cls-5" x1="481.567" y1="300.343" x2="559.054" y2="300.313"/>
      <line class="cls-5" x1="530.485" y1="217.72" x2="505.2" y2="217.677"/>
      <line class="cls-5" x1="472.249" y1="217.294" x2="532.933" y2="217.398"/>
      <line class="cls-5" x1="534.237" y1="218.216" x2="470.29" y2="218.106"/>
      <line class="cls-5" x1="534.241" y1="215.606" x2="470.294" y2="215.496"/>
      <line class="cls-5" x1="530.321" y1="218.209" x2="530.323" y2="217.394"/>
      <line class="cls-5" x1="532.933" y1="217.398" x2="532.932" y2="218.214"/>
      <line class="cls-5" x1="532.447" y1="215.603" x2="532.443" y2="217.398"/>
      <line class="cls-5" x1="500.633" y1="217.669" x2="474.042" y2="217.623"/>
      <line class="cls-5" x1="500.306" y1="218.158" x2="500.307" y2="217.342"/>
      <line class="cls-5" x1="505.526" y1="218.167" x2="505.527" y2="217.351"/>
      <line class="cls-5" x1="474.205" y1="218.113" x2="474.206" y2="217.297"/>
      <polyline class="cls-5" points="472.252 215.499 472.249 217.294 471.596 217.293 471.595 218.108"/>
      <line class="cls-5" x1="470.29" y1="218.106" x2="470.303" y2="210.439"/>
      <line class="cls-5" x1="534.237" y1="218.216" x2="534.25" y2="210.549"/>
      <polyline class="cls-5" points="470.29 218.106 470.303 210.439 470.29 218.106"/>
      <line class="cls-11" x1="461.174" y1="206.508" x2="461.182" y2="202.104"/>
      <line class="cls-11" x1="470.31" y1="206.524" x2="470.317" y2="202.119"/>
      <line class="cls-11" x1="472.27" y1="204.733" x2="474.391" y2="204.737"/>
      <line class="cls-11" x1="461.177" y1="204.714" x2="470.313" y2="204.73"/>
      <polygon class="cls-15" points="460.363 203.897 461.177 204.714 461.179 203.572 460.363 203.897"/>
      <polygon class="cls-15" points="461.179 203.572 461.177 204.714 461.831 203.899 461.179 203.572"/>
      <polygon class="cls-15" points="461.177 204.714 462.156 204.716 461.831 203.899 461.177 204.714"/>
      <polygon class="cls-9" points="460.363 203.897 461.177 204.714 461.179 203.572 460.363 203.897"/>
      <polygon class="cls-9" points="461.177 204.714 462.156 204.716 461.831 203.899 461.177 204.714"/>
      <polygon class="cls-9" points="461.179 203.572 461.177 204.714 461.831 203.899 461.179 203.572"/>
      <polygon class="cls-15" points="461.176 205.693 461.177 204.714 460.36 205.365 461.176 205.693"/>
      <polygon class="cls-15" points="460.36 205.365 461.177 204.714 460.199 204.712 460.36 205.365"/>
      <polygon class="cls-15" points="460.199 204.712 461.177 204.714 460.363 203.897 460.199 204.712"/>
      <polygon class="cls-9" points="460.36 205.365 461.177 204.714 460.199 204.712 460.36 205.365"/>
      <polygon class="cls-9" points="461.176 205.693 461.177 204.714 460.36 205.365 461.176 205.693"/>
      <polygon class="cls-9" points="460.199 204.712 461.177 204.714 460.363 203.897 460.199 204.712"/>
      <polygon class="cls-15" points="461.176 205.693 461.829 205.367 461.177 204.714 461.176 205.693"/>
      <polygon class="cls-15" points="461.829 205.367 462.156 204.716 461.177 204.714 461.829 205.367"/>
      <polygon class="cls-9" points="461.176 205.693 461.829 205.367 461.177 204.714 461.176 205.693"/>
      <polygon class="cls-9" points="461.829 205.367 462.156 204.716 461.177 204.714 461.829 205.367"/>
      <line class="cls-11" x1="460.199" y1="204.712" x2="459.057" y2="204.71"/>
      <polygon class="cls-15" points="469.171 204.728 469.496 205.381 470.313 204.729 469.171 204.728"/>
      <polygon class="cls-15" points="470.311 205.708 470.964 205.383 470.313 204.729 470.311 205.708"/>
      <polygon class="cls-15" points="469.496 205.381 470.311 205.708 470.313 204.729 469.496 205.381"/>
      <polygon class="cls-9" points="469.496 205.381 470.311 205.708 470.313 204.729 469.496 205.381"/>
      <polygon class="cls-9" points="469.171 204.728 469.496 205.381 470.313 204.729 469.171 204.728"/>
      <polygon class="cls-9" points="470.311 205.708 470.964 205.383 470.313 204.729 470.311 205.708"/>
      <polygon class="cls-15" points="470.964 205.383 471.292 204.731 470.313 204.729 470.964 205.383"/>
      <polygon class="cls-15" points="470.313 204.729 471.292 204.731 470.966 203.915 470.313 204.729"/>
      <polygon class="cls-15" points="470.315 203.588 470.313 204.729 470.966 203.915 470.315 203.588"/>
      <polygon class="cls-9" points="470.964 205.383 471.292 204.731 470.313 204.729 470.964 205.383"/>
      <polygon class="cls-9" points="470.315 203.588 470.313 204.729 470.966 203.915 470.315 203.588"/>
      <polygon class="cls-9" points="470.313 204.729 471.292 204.731 470.966 203.915 470.313 204.729"/>
      <polygon class="cls-15" points="469.171 204.728 470.313 204.729 469.499 203.913 469.171 204.728"/>
      <polygon class="cls-15" points="470.313 204.729 470.315 203.588 469.499 203.913 470.313 204.729"/>
      <polygon class="cls-9" points="469.171 204.728 470.313 204.729 469.499 203.913 469.171 204.728"/>
      <polygon class="cls-9" points="470.313 204.729 470.315 203.588 469.499 203.913 470.313 204.729"/>
      <line class="cls-11" x1="471.292" y1="204.731" x2="472.27" y2="204.733"/>
      <text class="cls-1" transform="translate(461.088 203.283) rotate(.099)"><tspan x="0" y="0">35</tspan></text>
      <line class="cls-11" x1="534.256" y1="206.634" x2="534.264" y2="202.23"/>
      <line class="cls-11" x1="564.109" y1="206.685" x2="564.117" y2="202.281"/>
      <line class="cls-11" x1="536.38" y1="204.843" x2="561.991" y2="204.887"/>
      <polygon class="cls-15" points="533.606 205.491 534.258 205.818 534.259 204.84 533.606 205.491"/>
      <polygon class="cls-15" points="533.281 204.838 533.606 205.491 534.259 204.84 533.281 204.838"/>
      <polygon class="cls-15" points="534.258 205.818 535.074 205.494 534.259 204.84 534.258 205.818"/>
      <polygon class="cls-9" points="533.281 204.838 533.606 205.491 534.259 204.84 533.281 204.838"/>
      <polygon class="cls-9" points="533.606 205.491 534.258 205.818 534.259 204.84 533.606 205.491"/>
      <polygon class="cls-9" points="534.258 205.818 535.074 205.494 534.259 204.84 534.258 205.818"/>
      <polygon class="cls-15" points="535.074 205.494 535.401 204.842 534.259 204.84 535.074 205.494"/>
      <polygon class="cls-15" points="534.259 204.84 535.401 204.842 535.076 204.025 534.259 204.84"/>
      <polygon class="cls-15" points="534.261 203.698 534.259 204.84 535.076 204.025 534.261 203.698"/>
      <polygon class="cls-9" points="534.259 204.84 535.401 204.842 535.076 204.025 534.259 204.84"/>
      <polygon class="cls-9" points="535.074 205.494 535.401 204.842 534.259 204.84 535.074 205.494"/>
      <polygon class="cls-9" points="534.261 203.698 534.259 204.84 535.076 204.025 534.261 203.698"/>
      <polygon class="cls-15" points="533.281 204.838 534.259 204.84 533.609 204.023 533.281 204.838"/>
      <polygon class="cls-15" points="534.259 204.84 534.261 203.698 533.609 204.023 534.259 204.84"/>
      <polygon class="cls-9" points="533.281 204.838 534.259 204.84 533.609 204.023 533.281 204.838"/>
      <polygon class="cls-9" points="534.259 204.84 534.261 203.698 533.609 204.023 534.259 204.84"/>
      <line class="cls-11" x1="535.401" y1="204.842" x2="536.38" y2="204.843"/>
      <polygon class="cls-15" points="564.114 203.749 564.112 204.891 564.766 204.076 564.114 203.749"/>
      <polygon class="cls-15" points="563.298 204.074 564.112 204.891 564.114 203.749 563.298 204.074"/>
      <polygon class="cls-15" points="564.112 204.891 565.091 204.893 564.766 204.076 564.112 204.891"/>
      <polygon class="cls-9" points="564.114 203.749 564.112 204.891 564.766 204.076 564.114 203.749"/>
      <polygon class="cls-9" points="563.298 204.074 564.112 204.891 564.114 203.749 563.298 204.074"/>
      <polygon class="cls-9" points="564.112 204.891 565.091 204.893 564.766 204.076 564.112 204.891"/>
      <polygon class="cls-15" points="564.11 205.87 564.112 204.891 563.296 205.542 564.11 205.87"/>
      <polygon class="cls-15" points="563.296 205.542 564.112 204.891 562.97 204.889 563.296 205.542"/>
      <polygon class="cls-15" points="562.97 204.889 564.112 204.891 563.298 204.074 562.97 204.889"/>
      <polygon class="cls-9" points="564.11 205.87 564.112 204.891 563.296 205.542 564.11 205.87"/>
      <polygon class="cls-9" points="562.97 204.889 564.112 204.891 563.298 204.074 562.97 204.889"/>
      <polygon class="cls-9" points="563.296 205.542 564.112 204.891 562.97 204.889 563.296 205.542"/>
      <polygon class="cls-15" points="564.11 205.87 564.764 205.545 564.112 204.891 564.11 205.87"/>
      <polygon class="cls-15" points="564.764 205.545 565.091 204.893 564.112 204.891 564.764 205.545"/>
      <polygon class="cls-9" points="564.764 205.545 565.091 204.893 564.112 204.891 564.764 205.545"/>
      <polygon class="cls-9" points="564.11 205.87 564.764 205.545 564.112 204.891 564.11 205.87"/>
      <line class="cls-11" x1="562.97" y1="204.889" x2="561.991" y2="204.887"/>
      <text class="cls-1" transform="translate(541.837 203.422) rotate(.099)"><tspan x="0" y="0">115</tspan></text>
      <line class="cls-11" x1="537.856" y1="295.22" x2="542.261" y2="295.227"/>
      <line class="cls-11" x1="537.988" y1="218.223" x2="542.393" y2="218.23"/>
      <line class="cls-11" x1="539.654" y1="293.265" x2="539.779" y2="220.183"/>
      <polygon class="cls-15" points="539.649 296.365 540.465 296.04 539.651 295.223 539.649 296.365"/>
      <polygon class="cls-15" points="540.465 296.04 540.792 295.225 539.651 295.223 540.465 296.04"/>
      <polygon class="cls-15" points="539.651 295.223 540.792 295.225 540.467 294.572 539.651 295.223"/>
      <polygon class="cls-9" points="540.465 296.04 540.792 295.225 539.651 295.223 540.465 296.04"/>
      <polygon class="cls-9" points="539.649 296.365 540.465 296.04 539.651 295.223 539.649 296.365"/>
      <polygon class="cls-9" points="539.651 295.223 540.792 295.225 540.467 294.572 539.651 295.223"/>
      <polygon class="cls-15" points="538.672 295.221 539.651 295.223 538.999 294.569 538.672 295.221"/>
      <polygon class="cls-15" points="538.999 294.569 539.651 295.223 539.652 294.244 538.999 294.569"/>
      <polygon class="cls-15" points="539.651 295.223 540.467 294.572 539.652 294.244 539.651 295.223"/>
      <polygon class="cls-9" points="538.672 295.221 539.651 295.223 538.999 294.569 538.672 295.221"/>
      <polygon class="cls-9" points="538.999 294.569 539.651 295.223 539.652 294.244 538.999 294.569"/>
      <polygon class="cls-9" points="539.651 295.223 540.467 294.572 539.652 294.244 539.651 295.223"/>
      <polygon class="cls-15" points="539.649 296.365 539.651 295.223 538.996 296.038 539.649 296.365"/>
      <polygon class="cls-15" points="538.996 296.038 539.651 295.223 538.672 295.221 538.996 296.038"/>
      <polygon class="cls-9" points="539.649 296.365 539.651 295.223 538.996 296.038 539.649 296.365"/>
      <polygon class="cls-9" points="538.996 296.038 539.651 295.223 538.672 295.221 538.996 296.038"/>
      <line class="cls-11" x1="539.652" y1="294.244" x2="539.654" y2="293.265"/>
      <polygon class="cls-15" points="538.804 218.224 539.783 218.226 539.132 217.409 538.804 218.224"/>
      <polygon class="cls-15" points="539.129 218.877 539.783 218.226 538.804 218.224 539.129 218.877"/>
      <polygon class="cls-15" points="539.783 218.226 539.785 217.084 539.132 217.409 539.783 218.226"/>
      <polygon class="cls-9" points="538.804 218.224 539.783 218.226 539.132 217.409 538.804 218.224"/>
      <polygon class="cls-9" points="539.129 218.877 539.783 218.226 538.804 218.224 539.129 218.877"/>
      <polygon class="cls-9" points="539.783 218.226 539.785 217.084 539.132 217.409 539.783 218.226"/>
      <polygon class="cls-15" points="539.129 218.877 539.781 219.205 539.783 218.226 539.129 218.877"/>
      <polygon class="cls-15" points="539.781 219.205 540.597 218.88 539.783 218.226 539.781 219.205"/>
      <polygon class="cls-15" points="540.597 218.88 540.925 218.228 539.783 218.226 540.597 218.88"/>
      <polygon class="cls-9" points="539.129 218.877 539.781 219.205 539.783 218.226 539.129 218.877"/>
      <polygon class="cls-9" points="540.597 218.88 540.925 218.228 539.783 218.226 540.597 218.88"/>
      <polygon class="cls-9" points="539.781 219.205 540.597 218.88 539.783 218.226 539.781 219.205"/>
      <polygon class="cls-15" points="539.785 217.084 539.783 218.226 540.6 217.412 539.785 217.084"/>
      <polygon class="cls-15" points="539.783 218.226 540.925 218.228 540.6 217.412 539.783 218.226"/>
      <polygon class="cls-9" points="539.785 217.084 539.783 218.226 540.6 217.412 539.785 217.084"/>
      <polygon class="cls-9" points="539.783 218.226 540.925 218.228 540.6 217.412 539.783 218.226"/>
      <line class="cls-11" x1="539.781" y1="219.205" x2="539.779" y2="220.183"/>
      <text class="cls-2" transform="translate(538.189 263.661) rotate(-89.901)"><tspan x="0" y="0">300</tspan></text>
      <line class="cls-11" x1="470.413" y1="336.049" x2="459.32" y2="336.03"/>
      <line class="cls-11" x1="472.604" y1="295.108" x2="459.391" y2="295.085"/>
      <line class="cls-11" x1="461.771" y1="333.914" x2="461.834" y2="297.21"/>
      <polygon class="cls-15" points="461.766 337.013 462.582 336.688 461.767 336.035 461.766 337.013"/>
      <polygon class="cls-15" points="461.767 336.035 462.909 336.037 462.584 335.22 461.767 336.035"/>
      <polygon class="cls-15" points="462.582 336.688 462.909 336.037 461.767 336.035 462.582 336.688"/>
      <polygon class="cls-9" points="461.766 337.013 462.582 336.688 461.767 336.035 461.766 337.013"/>
      <polygon class="cls-9" points="462.582 336.688 462.909 336.037 461.767 336.035 462.582 336.688"/>
      <polygon class="cls-9" points="461.767 336.035 462.909 336.037 462.584 335.22 461.767 336.035"/>
      <polygon class="cls-15" points="460.788 336.033 461.767 336.035 461.116 335.218 460.788 336.033"/>
      <polygon class="cls-15" points="461.116 335.218 461.767 336.035 461.769 334.893 461.116 335.218"/>
      <polygon class="cls-15" points="461.767 336.035 462.584 335.22 461.769 334.893 461.767 336.035"/>
      <polygon class="cls-9" points="460.788 336.033 461.767 336.035 461.116 335.218 460.788 336.033"/>
      <polygon class="cls-9" points="461.767 336.035 462.584 335.22 461.769 334.893 461.767 336.035"/>
      <polygon class="cls-9" points="461.116 335.218 461.767 336.035 461.769 334.893 461.116 335.218"/>
      <polygon class="cls-15" points="461.766 337.013 461.767 336.035 461.113 336.686 461.766 337.013"/>
      <polygon class="cls-15" points="461.113 336.686 461.767 336.035 460.788 336.033 461.113 336.686"/>
      <polygon class="cls-9" points="461.766 337.013 461.767 336.035 461.113 336.686 461.766 337.013"/>
      <polygon class="cls-9" points="461.113 336.686 461.767 336.035 460.788 336.033 461.113 336.686"/>
      <line class="cls-11" x1="461.769" y1="334.893" x2="461.771" y2="333.914"/>
      <polygon class="cls-15" points="460.859 295.087 461.838 295.089 461.186 294.436 460.859 295.087"/>
      <polygon class="cls-15" points="461.184 295.904 461.838 295.089 460.859 295.087 461.184 295.904"/>
      <polygon class="cls-15" points="461.838 295.089 461.839 294.11 461.186 294.436 461.838 295.089"/>
      <polygon class="cls-9" points="460.859 295.087 461.838 295.089 461.186 294.436 460.859 295.087"/>
      <polygon class="cls-9" points="461.184 295.904 461.838 295.089 460.859 295.087 461.184 295.904"/>
      <polygon class="cls-9" points="461.838 295.089 461.839 294.11 461.186 294.436 461.838 295.089"/>
      <polygon class="cls-15" points="461.836 296.231 462.652 295.906 461.838 295.089 461.836 296.231"/>
      <polygon class="cls-15" points="461.184 295.904 461.836 296.231 461.838 295.089 461.184 295.904"/>
      <polygon class="cls-15" points="462.652 295.906 462.98 295.091 461.838 295.089 462.652 295.906"/>
      <polygon class="cls-9" points="461.184 295.904 461.836 296.231 461.838 295.089 461.184 295.904"/>
      <polygon class="cls-9" points="461.836 296.231 462.652 295.906 461.838 295.089 461.836 296.231"/>
      <polygon class="cls-9" points="462.652 295.906 462.98 295.091 461.838 295.089 462.652 295.906"/>
      <polygon class="cls-15" points="461.839 294.11 461.838 295.089 462.654 294.438 461.839 294.11"/>
      <polygon class="cls-15" points="461.838 295.089 462.98 295.091 462.654 294.438 461.838 295.089"/>
      <polygon class="cls-9" points="461.839 294.11 461.838 295.089 462.654 294.438 461.839 294.11"/>
      <polygon class="cls-9" points="461.838 295.089 462.98 295.091 462.654 294.438 461.838 295.089"/>
      <line class="cls-11" x1="461.836" y1="296.231" x2="461.834" y2="297.21"/>
      <text class="cls-2" transform="translate(460.277 322.743) rotate(-89.901)"><tspan x="0" y="0">160</tspan></text>
      <line class="cls-11" x1="476.363" y1="291.362" x2="476.382" y2="280.106"/>
      <line class="cls-11" x1="558.906" y1="291.341" x2="558.925" y2="280.248"/>
      <line class="cls-11" x1="478.498" y1="282.72" x2="556.963" y2="282.855"/>
      <polygon class="cls-15" points="475.399 282.714 475.724 283.368 476.378 282.716 475.399 282.714"/>
      <polygon class="cls-15" points="475.724 283.368 476.376 283.695 476.378 282.716 475.724 283.368"/>
      <polygon class="cls-15" points="476.376 283.695 477.192 283.37 476.378 282.716 476.376 283.695"/>
      <polygon class="cls-9" points="475.399 282.714 475.724 283.368 476.378 282.716 475.399 282.714"/>
      <polygon class="cls-9" points="476.376 283.695 477.192 283.37 476.378 282.716 476.376 283.695"/>
      <polygon class="cls-9" points="475.724 283.368 476.376 283.695 476.378 282.716 475.724 283.368"/>
      <polygon class="cls-15" points="476.379 281.737 476.378 282.716 477.194 281.902 476.379 281.737"/>
      <polygon class="cls-15" points="477.192 283.37 477.52 282.718 476.378 282.716 477.192 283.37"/>
      <polygon class="cls-15" points="476.378 282.716 477.52 282.718 477.194 281.902 476.378 282.716"/>
      <polygon class="cls-9" points="476.378 282.716 477.52 282.718 477.194 281.902 476.378 282.716"/>
      <polygon class="cls-9" points="477.192 283.37 477.52 282.718 476.378 282.716 477.192 283.37"/>
      <polygon class="cls-9" points="476.379 281.737 476.378 282.716 477.194 281.902 476.379 281.737"/>
      <polygon class="cls-15" points="475.399 282.714 476.378 282.716 475.727 281.899 475.399 282.714"/>
      <polygon class="cls-15" points="476.378 282.716 476.379 281.737 475.727 281.899 476.378 282.716"/>
      <polygon class="cls-9" points="475.399 282.714 476.378 282.716 475.727 281.899 475.399 282.714"/>
      <polygon class="cls-9" points="476.378 282.716 476.379 281.737 475.727 281.899 476.378 282.716"/>
      <line class="cls-11" x1="477.519" y1="282.718" x2="478.498" y2="282.72"/>
      <polygon class="cls-15" points="558.922 281.879 558.921 282.858 559.738 282.044 558.922 281.879"/>
      <polygon class="cls-15" points="558.27 282.041 558.921 282.858 558.922 281.879 558.27 282.041"/>
      <polygon class="cls-15" points="558.921 282.858 559.9 282.86 559.738 282.044 558.921 282.858"/>
      <polygon class="cls-9" points="558.922 281.879 558.921 282.858 559.738 282.044 558.922 281.879"/>
      <polygon class="cls-9" points="558.27 282.041 558.921 282.858 558.922 281.879 558.27 282.041"/>
      <polygon class="cls-9" points="558.921 282.858 559.9 282.86 559.738 282.044 558.921 282.858"/>
      <polygon class="cls-15" points="558.267 283.509 558.921 282.858 557.942 282.856 558.267 283.509"/>
      <polygon class="cls-15" points="558.919 283.837 558.921 282.858 558.267 283.509 558.919 283.837"/>
      <polygon class="cls-15" points="557.942 282.856 558.921 282.858 558.27 282.041 557.942 282.856"/>
      <polygon class="cls-9" points="558.267 283.509 558.921 282.858 557.942 282.856 558.267 283.509"/>
      <polygon class="cls-9" points="558.919 283.837 558.921 282.858 558.267 283.509 558.919 283.837"/>
      <polygon class="cls-9" points="557.942 282.856 558.921 282.858 558.27 282.041 557.942 282.856"/>
      <polygon class="cls-15" points="558.919 283.837 559.735 283.512 558.921 282.858 558.919 283.837"/>
      <polygon class="cls-15" points="559.735 283.512 559.9 282.86 558.921 282.858 559.735 283.512"/>
      <polygon class="cls-9" points="559.735 283.512 559.9 282.86 558.921 282.858 559.735 283.512"/>
      <polygon class="cls-9" points="558.919 283.837 559.735 283.512 558.921 282.858 558.919 283.837"/>
      <line class="cls-11" x1="557.942" y1="282.857" x2="556.963" y2="282.855"/>
      <text class="cls-1" transform="translate(510.71 281.347) rotate(.099)"><tspan x="0" y="0">320</tspan></text>
      <polygon class="cls-4" points="373.985 251.708 374.148 251.709 373.496 251.707 373.985 251.708"/>
      <polygon class="cls-7" points="373.985 251.708 374.148 251.709 373.496 251.707 373.985 251.708"/>
      <polygon class="cls-4" points="373.333 251.707 373.496 251.707 373.714 251.708 373.333 251.707"/>
      <polygon class="cls-4" points="373.496 251.707 374.475 251.709 373.714 251.708 373.496 251.707"/>
      <polygon class="cls-4" points="373.714 251.708 374.475 251.709 374.148 251.709 373.714 251.708"/>
      <polygon class="cls-7" points="373.333 251.707 373.496 251.707 373.714 251.708 373.333 251.707"/>
      <polygon class="cls-7" points="373.496 251.707 374.475 251.709 373.714 251.708 373.496 251.707"/>
      <polygon class="cls-7" points="373.714 251.708 374.475 251.709 374.148 251.709 373.714 251.708"/>
      <polygon class="cls-4" points="373.006 251.87 374.8 251.873 373.333 251.707 373.006 251.87"/>
      <polygon class="cls-4" points="373.333 251.707 374.8 251.873 374.475 251.709 373.333 251.707"/>
      <polygon class="cls-7" points="373.006 251.87 374.8 251.873 373.333 251.707 373.006 251.87"/>
      <polygon class="cls-7" points="373.333 251.707 374.8 251.873 374.475 251.709 373.333 251.707"/>
      <polygon class="cls-4" points="372.843 251.87 373.006 251.87 373.905 251.871 372.843 251.87"/>
      <polygon class="cls-4" points="373.905 251.871 374.963 251.873 374.8 251.873 373.905 251.871"/>
      <polygon class="cls-4" points="373.006 251.87 374.963 251.873 373.905 251.871 373.006 251.87"/>
      <polygon class="cls-7" points="372.843 251.87 373.006 251.87 373.905 251.871 372.843 251.87"/>
      <polygon class="cls-7" points="373.905 251.871 374.963 251.873 374.8 251.873 373.905 251.871"/>
      <polygon class="cls-7" points="373.006 251.87 374.963 251.873 373.905 251.871 373.006 251.87"/>
      <polygon class="cls-4" points="372.843 251.87 375.29 252.037 374.963 251.873 372.843 251.87"/>
      <polygon class="cls-4" points="372.516 252.032 375.29 252.037 372.843 251.87 372.516 252.032"/>
      <polygon class="cls-7" points="372.843 251.87 375.29 252.037 374.963 251.873 372.843 251.87"/>
      <polygon class="cls-7" points="372.516 252.032 375.29 252.037 372.843 251.87 372.516 252.032"/>
      <polygon class="cls-4" points="372.353 252.195 375.452 252.2 372.516 252.032 372.353 252.195"/>
      <polygon class="cls-4" points="372.516 252.032 375.452 252.2 375.29 252.037 372.516 252.032"/>
      <polygon class="cls-7" points="372.353 252.195 375.452 252.2 372.516 252.032 372.353 252.195"/>
      <polygon class="cls-7" points="372.516 252.032 375.452 252.2 375.29 252.037 372.516 252.032"/>
      <polygon class="cls-4" points="372.19 252.358 375.615 252.364 372.353 252.195 372.19 252.358"/>
      <polygon class="cls-4" points="372.353 252.195 375.615 252.364 375.452 252.2 372.353 252.195"/>
      <polygon class="cls-7" points="372.353 252.195 375.615 252.364 375.452 252.2 372.353 252.195"/>
      <polygon class="cls-7" points="372.19 252.358 375.615 252.364 372.353 252.195 372.19 252.358"/>
      <polygon class="cls-4" points="372.026 252.521 375.778 252.527 372.19 252.358 372.026 252.521"/>
      <polygon class="cls-4" points="372.19 252.358 375.778 252.527 375.615 252.364 372.19 252.358"/>
      <polygon class="cls-7" points="372.026 252.521 375.778 252.527 372.19 252.358 372.026 252.521"/>
      <polygon class="cls-7" points="372.19 252.358 375.778 252.527 375.615 252.364 372.19 252.358"/>
      <polygon class="cls-4" points="371.863 252.684 375.941 252.691 372.026 252.521 371.863 252.684"/>
      <polygon class="cls-4" points="372.026 252.521 375.941 252.691 375.778 252.527 372.026 252.521"/>
      <polygon class="cls-7" points="371.863 252.684 375.941 252.691 372.026 252.521 371.863 252.684"/>
      <polygon class="cls-7" points="372.026 252.521 375.941 252.691 375.778 252.527 372.026 252.521"/>
      <polygon class="cls-4" points="371.699 252.846 376.104 252.854 371.863 252.684 371.699 252.846"/>
      <polygon class="cls-4" points="371.863 252.684 376.104 252.854 375.941 252.691 371.863 252.684"/>
      <polygon class="cls-7" points="371.699 252.846 376.104 252.854 371.863 252.684 371.699 252.846"/>
      <polygon class="cls-7" points="371.863 252.684 376.104 252.854 375.941 252.691 371.863 252.684"/>
      <polygon class="cls-4" points="371.536 253.172 376.267 253.181 371.699 252.846 371.536 253.172"/>
      <polygon class="cls-4" points="371.699 252.846 376.267 253.181 376.104 252.854 371.699 252.846"/>
      <polygon class="cls-7" points="371.536 253.172 376.267 253.181 371.699 252.846 371.536 253.172"/>
      <polygon class="cls-7" points="371.699 252.846 376.267 253.181 376.104 252.854 371.699 252.846"/>
      <polygon class="cls-4" points="371.372 253.335 376.429 253.344 371.536 253.172 371.372 253.335"/>
      <polygon class="cls-4" points="371.536 253.172 376.429 253.344 376.267 253.181 371.536 253.172"/>
      <polygon class="cls-7" points="371.372 253.335 376.429 253.344 371.536 253.172 371.372 253.335"/>
      <polygon class="cls-7" points="371.536 253.172 376.429 253.344 376.267 253.181 371.536 253.172"/>
      <polygon class="cls-4" points="371.372 253.498 376.429 253.507 371.372 253.335 371.372 253.498"/>
      <polygon class="cls-4" points="376.429 253.507 376.429 253.344 371.372 253.335 376.429 253.507"/>
      <polygon class="cls-7" points="371.372 253.498 376.429 253.507 371.372 253.335 371.372 253.498"/>
      <polygon class="cls-7" points="376.429 253.507 376.429 253.344 371.372 253.335 376.429 253.507"/>
      <polygon class="cls-4" points="371.208 253.824 376.591 253.833 371.372 253.498 371.208 253.824"/>
      <polygon class="cls-4" points="371.372 253.498 376.591 253.833 376.429 253.507 371.372 253.498"/>
      <polygon class="cls-7" points="371.208 253.824 376.591 253.833 371.372 253.498 371.208 253.824"/>
      <polygon class="cls-7" points="371.372 253.498 376.591 253.833 376.429 253.507 371.372 253.498"/>
      <polygon class="cls-4" points="371.208 254.151 376.591 254.16 371.208 253.824 371.208 254.151"/>
      <polygon class="cls-4" points="376.591 254.16 376.591 253.833 371.208 253.824 376.591 254.16"/>
      <polygon class="cls-7" points="371.208 254.151 376.591 254.16 371.208 253.824 371.208 254.151"/>
      <polygon class="cls-7" points="376.591 254.16 376.591 253.833 371.208 253.824 376.591 254.16"/>
      <polygon class="cls-4" points="371.208 254.314 376.591 254.323 371.208 254.151 371.208 254.314"/>
      <polygon class="cls-4" points="376.591 254.323 376.591 254.16 371.208 254.151 376.591 254.323"/>
      <polygon class="cls-7" points="371.208 254.314 376.591 254.323 371.208 254.151 371.208 254.314"/>
      <polygon class="cls-7" points="376.591 254.323 376.591 254.16 371.208 254.151 376.591 254.323"/>
      <polygon class="cls-4" points="371.207 254.64 376.59 254.649 371.208 254.314 371.207 254.64"/>
      <polygon class="cls-4" points="376.59 254.649 376.591 254.323 371.208 254.314 376.59 254.649"/>
      <polygon class="cls-7" points="371.207 254.64 376.59 254.649 371.208 254.314 371.207 254.64"/>
      <polygon class="cls-7" points="376.59 254.649 376.591 254.323 371.208 254.314 376.59 254.649"/>
      <polygon class="cls-4" points="371.207 254.803 376.59 254.812 371.207 254.64 371.207 254.803"/>
      <polygon class="cls-4" points="376.59 254.812 376.59 254.649 371.207 254.64 376.59 254.812"/>
      <polygon class="cls-7" points="376.59 254.812 376.59 254.649 371.207 254.64 376.59 254.812"/>
      <polygon class="cls-7" points="371.207 254.803 376.59 254.812 371.207 254.64 371.207 254.803"/>
      <polygon class="cls-4" points="371.369 255.13 376.426 255.138 371.207 254.803 371.369 255.13"/>
      <polygon class="cls-4" points="376.426 255.138 376.59 254.812 371.207 254.803 376.426 255.138"/>
      <polygon class="cls-7" points="371.369 255.13 376.426 255.138 371.207 254.803 371.369 255.13"/>
      <polygon class="cls-7" points="376.426 255.138 376.59 254.812 371.207 254.803 376.426 255.138"/>
      <polygon class="cls-4" points="371.369 255.293 376.426 255.301 371.369 255.13 371.369 255.293"/>
      <polygon class="cls-4" points="376.426 255.301 376.426 255.138 371.369 255.13 376.426 255.301"/>
      <polygon class="cls-7" points="376.426 255.301 376.426 255.138 371.369 255.13 376.426 255.301"/>
      <polygon class="cls-7" points="371.369 255.293 376.426 255.301 371.369 255.13 371.369 255.293"/>
      <polygon class="cls-4" points="371.531 255.619 376.262 255.627 371.369 255.293 371.531 255.619"/>
      <polygon class="cls-4" points="376.262 255.627 376.426 255.301 371.369 255.293 376.262 255.627"/>
      <polygon class="cls-7" points="371.531 255.619 376.262 255.627 371.369 255.293 371.531 255.619"/>
      <polygon class="cls-7" points="376.262 255.627 376.426 255.301 371.369 255.293 376.262 255.627"/>
      <polygon class="cls-4" points="371.694 255.783 376.099 255.79 371.531 255.619 371.694 255.783"/>
      <polygon class="cls-4" points="376.099 255.79 376.262 255.627 371.531 255.619 376.099 255.79"/>
      <polygon class="cls-7" points="371.694 255.783 376.099 255.79 371.531 255.619 371.694 255.783"/>
      <polygon class="cls-7" points="376.099 255.79 376.262 255.627 371.531 255.619 376.099 255.79"/>
      <polygon class="cls-4" points="375.935 255.953 376.099 255.79 371.694 255.783 375.935 255.953"/>
      <polygon class="cls-4" points="371.857 255.946 375.935 255.953 371.694 255.783 371.857 255.946"/>
      <polygon class="cls-7" points="371.857 255.946 375.935 255.953 371.694 255.783 371.857 255.946"/>
      <polygon class="cls-7" points="375.935 255.953 376.099 255.79 371.694 255.783 375.935 255.953"/>
      <polygon class="cls-4" points="375.772 256.116 375.935 255.953 371.857 255.946 375.772 256.116"/>
      <polygon class="cls-4" points="372.02 256.11 375.772 256.116 371.857 255.946 372.02 256.11"/>
      <polygon class="cls-7" points="372.02 256.11 375.772 256.116 371.857 255.946 372.02 256.11"/>
      <polygon class="cls-7" points="375.772 256.116 375.935 255.953 371.857 255.946 375.772 256.116"/>
      <polygon class="cls-4" points="372.183 256.436 375.609 256.442 372.02 256.11 372.183 256.436"/>
      <polygon class="cls-4" points="375.609 256.442 375.772 256.116 372.02 256.11 375.609 256.442"/>
      <polygon class="cls-7" points="375.609 256.442 375.772 256.116 372.02 256.11 375.609 256.442"/>
      <polygon class="cls-7" points="372.183 256.436 375.609 256.442 372.02 256.11 372.183 256.436"/>
      <polygon class="cls-4" points="375.445 256.605 375.609 256.442 372.183 256.436 375.445 256.605"/>
      <polygon class="cls-4" points="372.345 256.6 375.445 256.605 372.183 256.436 372.345 256.6"/>
      <polygon class="cls-7" points="372.345 256.6 375.445 256.605 372.183 256.436 372.345 256.6"/>
      <polygon class="cls-7" points="375.445 256.605 375.609 256.442 372.183 256.436 375.445 256.605"/>
      <polygon class="cls-4" points="372.508 256.6 372.345 256.6 375.282 256.604 372.508 256.6"/>
      <polygon class="cls-4" points="372.345 256.6 375.445 256.605 375.282 256.604 372.345 256.6"/>
      <polygon class="cls-7" points="372.508 256.6 372.345 256.6 375.282 256.604 372.508 256.6"/>
      <polygon class="cls-7" points="372.345 256.6 375.445 256.605 375.282 256.604 372.345 256.6"/>
      <polygon class="cls-4" points="372.835 256.763 374.955 256.767 372.508 256.6 372.835 256.763"/>
      <polygon class="cls-4" points="374.955 256.767 375.282 256.604 372.508 256.6 374.955 256.767"/>
      <polygon class="cls-7" points="372.835 256.763 374.955 256.767 372.508 256.6 372.835 256.763"/>
      <polygon class="cls-7" points="374.955 256.767 375.282 256.604 372.508 256.6 374.955 256.767"/>
      <polygon class="cls-4" points="372.997 256.927 374.792 256.93 372.835 256.763 372.997 256.927"/>
      <polygon class="cls-4" points="374.792 256.93 374.955 256.767 372.835 256.763 374.792 256.93"/>
      <polygon class="cls-7" points="372.997 256.927 374.792 256.93 372.835 256.763 372.997 256.927"/>
      <polygon class="cls-7" points="374.792 256.93 374.955 256.767 372.835 256.763 374.792 256.93"/>
      <polygon class="cls-4" points="372.997 256.927 374.465 256.929 373.902 256.928 372.997 256.927"/>
      <polygon class="cls-4" points="373.324 256.927 372.997 256.927 373.902 256.928 373.324 256.927"/>
      <polygon class="cls-4" points="374.465 256.929 374.792 256.93 373.902 256.928 374.465 256.929"/>
      <polygon class="cls-7" points="374.465 256.929 374.792 256.93 373.902 256.928 374.465 256.929"/>
      <polygon class="cls-7" points="373.324 256.927 372.997 256.927 373.902 256.928 373.324 256.927"/>
      <polygon class="cls-7" points="372.997 256.927 374.465 256.929 373.902 256.928 372.997 256.927"/>
      <polygon class="cls-4" points="373.976 257.092 374.139 256.929 373.487 256.928 373.976 257.092"/>
      <polygon class="cls-4" points="373.487 256.928 374.139 256.929 373.324 256.927 373.487 256.928"/>
      <polygon class="cls-7" points="373.976 257.092 374.139 256.929 373.487 256.928 373.976 257.092"/>
      <polygon class="cls-7" points="373.487 256.928 374.139 256.929 373.324 256.927 373.487 256.928"/>
      <polygon class="cls-4" points="373.324 256.927 374.465 256.929 374.139 256.929 373.324 256.927"/>
      <polygon class="cls-7" points="373.324 256.927 374.465 256.929 374.139 256.929 373.324 256.927"/>
      <text class="cls-3" transform="translate(369.328 250.761) rotate(.099) scale(1 1.25)"><tspan x="0" y="0">EXT</tspan></text>
      <path class="cls-5" d="M376.428,254.241c.003-1.487-1.2-2.694-2.687-2.696-1.487-.003-2.694,1.2-2.696,2.687s1.2,2.694,2.687,2.696c1.487.003,2.694-1.2,2.696-2.687"/>
      <line class="cls-11" x1="412.718" y1="210.177" x2="414.513" y2="210.18"/>
      <polygon class="cls-15" points="411.901 211.317 412.554 210.992 411.903 210.176 411.901 211.317"/>
      <polygon class="cls-15" points="412.554 210.992 412.881 210.177 411.903 210.176 412.554 210.992"/>
      <polygon class="cls-15" points="411.903 210.176 412.881 210.177 412.556 209.524 411.903 210.176"/>
      <polygon class="cls-9" points="411.901 211.317 412.554 210.992 411.903 210.176 411.901 211.317"/>
      <polygon class="cls-9" points="411.903 210.176 412.881 210.177 412.556 209.524 411.903 210.176"/>
      <polygon class="cls-9" points="412.554 210.992 412.881 210.177 411.903 210.176 412.554 210.992"/>
      <polygon class="cls-15" points="411.252 209.522 411.903 210.176 411.904 209.197 411.252 209.522"/>
      <polygon class="cls-15" points="410.924 210.174 411.903 210.176 411.252 209.522 410.924 210.174"/>
      <polygon class="cls-15" points="411.903 210.176 412.556 209.524 411.904 209.197 411.903 210.176"/>
      <polygon class="cls-9" points="410.924 210.174 411.903 210.176 411.252 209.522 410.924 210.174"/>
      <polygon class="cls-9" points="411.252 209.522 411.903 210.176 411.904 209.197 411.252 209.522"/>
      <polygon class="cls-9" points="411.903 210.176 412.556 209.524 411.904 209.197 411.903 210.176"/>
      <polygon class="cls-15" points="411.901 211.317 411.903 210.176 411.249 210.99 411.901 211.317"/>
      <polygon class="cls-15" points="411.249 210.99 411.903 210.176 410.924 210.174 411.249 210.99"/>
      <polygon class="cls-9" points="411.901 211.317 411.903 210.176 411.249 210.99 411.901 211.317"/>
      <polygon class="cls-9" points="411.249 210.99 411.903 210.176 410.924 210.174 411.249 210.99"/>
      <line class="cls-11" x1="411.905" y1="209.197" x2="411.906" y2="208.218"/>
      <line class="cls-5" x1="364.621" y1="384.97" x2="481.421" y2="385.17"/>
      <line class="cls-5" x1="364.63" y1="379.749" x2="481.43" y2="379.95"/>
      <polyline class="cls-12" points="363.561 379.74 481.43 379.95 481.421 385.17 363.156 384.961 363.165 379.74"/>
      <line class="cls-11" x1="440.639" y1="385.1" x2="439.986" y2="385.099"/>
      <polygon class="cls-15" points="436.723 385.746 437.376 385.095 436.398 385.093 436.723 385.746"/>
      <polygon class="cls-15" points="437.376 385.095 437.378 383.953 436.725 384.278 437.376 385.095"/>
      <polygon class="cls-15" points="436.398 385.093 437.376 385.095 436.725 384.278 436.398 385.093"/>
      <polygon class="cls-9" points="436.723 385.746 437.376 385.095 436.398 385.093 436.723 385.746"/>
      <polygon class="cls-9" points="437.376 385.095 437.378 383.953 436.725 384.278 437.376 385.095"/>
      <polygon class="cls-9" points="436.398 385.093 437.376 385.095 436.725 384.278 436.398 385.093"/>
      <polygon class="cls-15" points="436.723 385.746 437.375 386.073 437.376 385.095 436.723 385.746"/>
      <polygon class="cls-15" points="438.191 385.749 438.518 385.097 437.376 385.095 438.191 385.749"/>
      <polygon class="cls-15" points="437.375 386.073 438.191 385.749 437.376 385.095 437.375 386.073"/>
      <polygon class="cls-9" points="436.723 385.746 437.375 386.073 437.376 385.095 436.723 385.746"/>
      <polygon class="cls-9" points="438.191 385.749 438.518 385.097 437.376 385.095 438.191 385.749"/>
      <polygon class="cls-9" points="437.375 386.073 438.191 385.749 437.376 385.095 437.375 386.073"/>
      <polygon class="cls-15" points="437.378 383.953 437.376 385.095 438.193 384.28 437.378 383.953"/>
      <polygon class="cls-15" points="437.376 385.095 438.518 385.097 438.193 384.28 437.376 385.095"/>
      <polygon class="cls-9" points="437.378 383.953 437.376 385.095 438.193 384.28 437.378 383.953"/>
      <polygon class="cls-9" points="437.376 385.095 438.518 385.097 438.193 384.28 437.376 385.095"/>
      <line class="cls-11" x1="363.191" y1="362.781" x2="363.188" y2="364.413"/>
      <polygon class="cls-15" points="362.541 361.149 363.192 361.803 363.194 360.824 362.541 361.149"/>
      <polygon class="cls-15" points="363.192 361.803 364.334 361.805 364.009 361.151 363.192 361.803"/>
      <polygon class="cls-15" points="363.194 360.824 363.192 361.803 364.009 361.151 363.194 360.824"/>
      <polygon class="cls-9" points="362.541 361.149 363.192 361.803 363.194 360.824 362.541 361.149"/>
      <polygon class="cls-9" points="363.194 360.824 363.192 361.803 364.009 361.151 363.194 360.824"/>
      <polygon class="cls-9" points="363.192 361.803 364.334 361.805 364.009 361.151 363.192 361.803"/>
      <polygon class="cls-15" points="362.538 362.617 363.192 361.803 362.213 361.801 362.538 362.617"/>
      <polygon class="cls-15" points="363.191 362.945 363.192 361.803 362.538 362.617 363.191 362.945"/>
      <polygon class="cls-15" points="362.213 361.801 363.192 361.803 362.541 361.149 362.213 361.801"/>
      <polygon class="cls-9" points="362.538 362.617 363.192 361.803 362.213 361.801 362.538 362.617"/>
      <polygon class="cls-9" points="363.191 362.945 363.192 361.803 362.538 362.617 363.191 362.945"/>
      <polygon class="cls-9" points="362.213 361.801 363.192 361.803 362.541 361.149 362.213 361.801"/>
      <polygon class="cls-15" points="364.006 362.62 364.334 361.805 363.192 361.803 364.006 362.62"/>
      <polygon class="cls-15" points="363.191 362.945 364.006 362.62 363.192 361.803 363.191 362.945"/>
      <polygon class="cls-9" points="363.191 362.945 364.006 362.62 363.192 361.803 363.191 362.945"/>
      <polygon class="cls-9" points="364.006 362.62 364.334 361.805 363.192 361.803 364.006 362.62"/>
      <polygon class="cls-16" points="364.63 384.565 364.63 384.799 363.153 384.804 364.63 384.565"/>
      <polygon class="cls-10" points="364.63 384.565 364.63 384.799 363.153 384.804 364.63 384.565"/>
      <polygon class="cls-10" points="363.153 384.804 363.161 379.747 363.161 379.742 363.161 384.565 363.153 384.804"/>
      <polyline class="cls-5" points="398.2 210.152 398.191 215.372 398.195 212.762"/>
      <line class="cls-5" x1="363.237" y1="336.028" x2="363.453" y2="210.255"/>
      <line class="cls-5" x1="368.457" y1="336.037" x2="368.665" y2="215.321"/>
      <polygon class="cls-16" points="363.152 384.967 368.373 384.976 363.453 210.255 363.152 384.967"/>
      <polygon class="cls-16" points="368.373 384.976 368.673 210.264 363.453 210.255 368.373 384.976"/>
      <polygon class="cls-10" points="363.152 384.967 368.373 384.976 363.453 210.255 363.152 384.967"/>
      <polygon class="cls-10" points="368.373 384.976 368.673 210.264 363.453 210.255 368.373 384.976"/>
      <polyline class="cls-5" points="363.153 384.967 368.373 384.976 368.673 210.264 363.453 210.255 363.153 384.967"/>
      <polygon class="cls-16" points="398.191 215.372 461.159 215.48 398.199 210.315 398.191 215.372"/>
      <polygon class="cls-16" points="461.159 215.48 461.168 210.423 398.199 210.315 461.159 215.48"/>
      <polygon class="cls-10" points="398.191 215.372 461.159 215.48 398.199 210.315 398.191 215.372"/>
      <polygon class="cls-10" points="461.159 215.48 461.168 210.423 398.199 210.315 461.159 215.48"/>
      <polyline class="cls-5" points="398.191 215.372 461.159 215.48 461.168 210.423 398.2 210.315 398.191 215.372"/>
      <line class="cls-11" x1="363.386" y1="249.243" x2="363.384" y2="250.548"/>
      <polygon class="cls-15" points="362.728 252.342 363.38 252.995 363.381 252.016 362.728 252.342"/>
      <polygon class="cls-15" points="363.38 252.995 364.522 252.997 364.196 252.344 363.38 252.995"/>
      <polygon class="cls-15" points="363.381 252.016 363.38 252.995 364.196 252.344 363.381 252.016"/>
      <polygon class="cls-9" points="362.728 252.342 363.38 252.995 363.381 252.016 362.728 252.342"/>
      <polygon class="cls-9" points="363.38 252.995 364.522 252.997 364.196 252.344 363.38 252.995"/>
      <polygon class="cls-9" points="363.381 252.016 363.38 252.995 364.196 252.344 363.381 252.016"/>
      <polygon class="cls-15" points="363.378 254.137 363.38 252.995 362.726 253.81 363.378 254.137"/>
      <polygon class="cls-15" points="362.726 253.81 363.38 252.995 362.401 252.994 362.726 253.81"/>
      <polygon class="cls-15" points="362.401 252.994 363.38 252.995 362.728 252.342 362.401 252.994"/>
      <polygon class="cls-9" points="362.726 253.81 363.38 252.995 362.401 252.994 362.726 253.81"/>
      <polygon class="cls-9" points="363.378 254.137 363.38 252.995 362.726 253.81 363.378 254.137"/>
      <polygon class="cls-9" points="362.401 252.994 363.38 252.995 362.728 252.342 362.401 252.994"/>
      <polygon class="cls-15" points="363.378 254.137 364.193 253.812 363.38 252.995 363.378 254.137"/>
      <polygon class="cls-15" points="364.193 253.812 364.522 252.997 363.38 252.995 364.193 253.812"/>
      <polygon class="cls-9" points="363.378 254.137 364.193 253.812 363.38 252.995 363.378 254.137"/>
      <polygon class="cls-9" points="364.193 253.812 364.522 252.997 363.38 252.995 364.193 253.812"/>
    </g>
  </g>
</svg>