<?xml version="1.0" encoding="UTF-8"?>
<svg xmlns="http://www.w3.org/2000/svg" viewBox="0 0 841.89 595.276">
  <defs>
    <style>
      .cls-1 {
        font-size: 9.483px;
      }

      .cls-1, .cls-2, .cls-3 {
        font-family: TimesNewRomanPSMT, 'Times New Roman';
      }

      .cls-1, .cls-2, .cls-3, .cls-4 {
        fill: #010101;
      }

      .cls-2 {
        font-size: 9.483px;
      }

      .cls-3 {
        font-size: 4.369px;
      }

      .cls-5, .cls-6, .cls-7, .cls-8, .cls-9, .cls-10, .cls-11, .cls-12 {
        stroke-miterlimit: 10;
      }

      .cls-5, .cls-7, .cls-13 {
        stroke: #000;
      }

      .cls-5, .cls-7, .cls-13, .cls-8, .cls-9, .cls-10, .cls-11 {
        fill: none;
        stroke-linecap: round;
      }

      .cls-5, .cls-10, .cls-11 {
        stroke-width: .18px;
      }

      .cls-6 {
        fill: #fcd7d7;
      }

      .cls-6, .cls-12 {
        stroke: #fff;
      }

      .cls-13 {
        stroke-linejoin: round;
      }

      .cls-8, .cls-10 {
        stroke: #818181;
      }

      .cls-9, .cls-11 {
        stroke: #646566;
      }

      .cls-12 {
        fill: #d2edfb;
      }

      .cls-14 {
        fill: #818181;
      }

      .cls-15 {
        fill: #646566;
      }
    </style>
  </defs>
  <g id="Layer_3" data-name="Layer 3">
    <g>
      <polygon class="cls-12" points="342.245 423.728 384.659 423.883 384.734 380.162 431.063 380.082 430.961 305.612 536.573 305.612 536.666 157.019 342.704 157.019 342.245 423.728"/>
      <rect class="cls-6" x="388.608" y="381.428" width="41.111" height="43.719" transform="translate(5.173 811.757) rotate(-89.901)"/>
    </g>
  </g>
  <g id="Layer_6" data-name="Layer 6">
    <g>
      <polygon class="cls-15" points="337.188 423.719 342.245 423.728 337.193 421.109 337.188 423.719"/>
      <polygon class="cls-15" points="342.245 423.728 342.25 421.118 337.193 421.109 342.245 423.728"/>
      <polygon class="cls-9" points="342.245 423.728 342.25 421.118 337.193 421.109 342.245 423.728"/>
      <polygon class="cls-9" points="337.188 423.719 342.245 423.728 337.193 421.109 337.188 423.719"/>
      <line class="cls-10" x1="438.717" y1="387.679" x2="438.715" y2="388.984"/>
      <polygon class="cls-14" points="437.732 391.592 437.893 392.245 438.71 391.594 437.732 391.592"/>
      <polygon class="cls-14" points="438.708 392.573 439.361 392.247 438.71 391.594 438.708 392.573"/>
      <polygon class="cls-14" points="437.893 392.245 438.708 392.573 438.71 391.594 437.893 392.245"/>
      <polygon class="cls-8" points="437.732 391.592 437.893 392.245 438.71 391.594 437.732 391.592"/>
      <polygon class="cls-8" points="437.893 392.245 438.708 392.573 438.71 391.594 437.893 392.245"/>
      <polygon class="cls-8" points="438.708 392.573 439.361 392.247 438.71 391.594 438.708 392.573"/>
      <polygon class="cls-14" points="439.361 392.247 439.689 391.596 438.71 391.594 439.361 392.247"/>
      <polygon class="cls-14" points="438.712 390.615 438.71 391.594 439.364 390.942 438.712 390.615"/>
      <polygon class="cls-14" points="438.71 391.594 439.689 391.596 439.364 390.942 438.71 391.594"/>
      <polygon class="cls-8" points="438.712 390.615 438.71 391.594 439.364 390.942 438.712 390.615"/>
      <polygon class="cls-8" points="439.361 392.247 439.689 391.596 438.71 391.594 439.361 392.247"/>
      <polygon class="cls-8" points="438.71 391.594 439.689 391.596 439.364 390.942 438.71 391.594"/>
      <polygon class="cls-14" points="437.732 391.592 438.71 391.594 437.896 390.94 437.732 391.592"/>
      <polygon class="cls-14" points="438.71 391.594 438.712 390.615 437.896 390.94 438.71 391.594"/>
      <polygon class="cls-8" points="437.732 391.592 438.71 391.594 437.896 390.94 437.732 391.592"/>
      <polygon class="cls-8" points="438.71 391.594 438.712 390.615 437.896 390.94 438.71 391.594"/>
      <line class="cls-10" x1="439.689" y1="391.596" x2="440.668" y2="391.597"/>
      <path class="cls-5" d="M366.396,419.609c.023-13.379-10.804-24.243-24.183-24.266"/>
      <polyline class="cls-5" points="342.296 394.201 342.294 395.506 341.315 395.505 341.314 396.157 339.682 396.154 339.686 394.197"/>
      <line class="cls-5" x1="342.252" y1="419.649" x2="366.395" y2="419.691"/>
      <line class="cls-5" x1="342.25" y1="421.118" x2="342.253" y2="419.16"/>
      <polyline class="cls-5" points="342.252 419.649 341.273 419.648 341.274 419.158 339.643 419.156 339.639 421.113"/>
      <line class="cls-5" x1="342.253" y1="419.16" x2="366.396" y2="419.202"/>
      <polygon class="cls-15" points="337.239 394.192 342.296 394.201 337.486 250.312 337.239 394.192"/>
      <polygon class="cls-15" points="342.296 394.201 342.543 250.321 337.486 250.312 342.296 394.201"/>
      <polygon class="cls-9" points="337.239 394.192 342.296 394.201 337.486 250.312 337.239 394.192"/>
      <polygon class="cls-9" points="342.296 394.201 342.543 250.321 337.486 250.312 342.296 394.201"/>
      <line class="cls-5" x1="342.296" y1="394.201" x2="337.239" y2="394.193"/>
      <polyline class="cls-5" points="342.245 423.728 342.25 421.118 337.192 421.109"/>
      <polygon class="cls-4" points="331.352 402.339 331.338 410.659 332.58 409.468 332.58 403.571 331.352 402.339"/>
      <polygon class="cls-4" points="332.58 403.571 332.58 409.468 335.586 406.588 332.58 403.571"/>
      <polygon class="cls-7" points="331.352 402.339 331.338 410.659 332.58 409.468 332.58 403.571 331.352 402.339"/>
      <polygon class="cls-7" points="332.58 403.571 332.58 409.468 335.586 406.588 332.58 403.571"/>
      <polyline class="cls-5" points="331.352 402.339 331.338 410.658 335.586 406.588 331.352 402.339"/>
      <polyline class="cls-5" points="432.129 423.882 342.245 423.728 342.25 421.118 337.192 421.109 337.188 423.719 342.245 423.728"/>
      <polygon class="cls-4" points="357.445 406.952 357.771 406.789 344.884 406.93 357.445 406.952"/>
      <polygon class="cls-4" points="345.037 412.64 357.445 406.952 344.884 406.93 345.037 412.64"/>
      <polygon class="cls-7" points="345.037 412.64 357.445 406.952 344.884 406.93 345.037 412.64"/>
      <polygon class="cls-7" points="357.445 406.952 357.771 406.789 344.884 406.93 357.445 406.952"/>
      <polyline class="cls-5" points="344.884 406.93 357.771 406.789 357.762 412.498 345.037 412.64 344.884 406.93"/>
      <line class="cls-5" x1="357.771" y1="406.789" x2="345.037" y2="412.64"/>
      <polygon class="cls-15" points="541.453 313.631 538.379 151.875 536.066 151.875 536.396 313.623 541.453 313.631"/>
      <polygon class="cls-9" points="541.453 313.631 538.379 151.875 536.066 151.875 536.396 313.623 541.453 313.631"/>
      <polygon class="cls-15" points="541.212 151.875 538.379 151.875 541.453 313.631 541.212 151.875"/>
      <polygon class="cls-9" points="541.212 151.875 538.379 151.875 541.453 313.631 541.212 151.875"/>
      <polygon class="cls-15" points="518.126 313.591 536.559 313.623 518.139 305.761 518.126 313.591"/>
      <polygon class="cls-15" points="536.559 313.623 536.573 305.793 518.139 305.761 536.559 313.623"/>
      <polygon class="cls-9" points="536.559 313.623 536.573 305.793 518.139 305.761 536.559 313.623"/>
      <polygon class="cls-9" points="518.126 313.591 536.559 313.623 518.139 305.761 518.126 313.591"/>
      <path class="cls-15" d="M486.43,151.875l50.244.086-50.244-.086Z"/>
      <path class="cls-9" d="M486.43,151.875l50.244.086-50.244-.086Z"/>
      <polygon class="cls-15" points="486.422 156.932 536.666 157.018 486.43 151.875 486.422 156.932"/>
      <polygon class="cls-15" points="536.666 157.018 536.674 151.961 486.43 151.875 536.666 157.018"/>
      <polygon class="cls-9" points="486.422 156.932 536.666 157.018 486.43 151.875 486.422 156.932"/>
      <polygon class="cls-9" points="536.666 157.018 536.674 151.961 486.43 151.875 536.666 157.018"/>
      <path class="cls-15" d="M337.656,151.619l148.774.256-148.774-.256Z"/>
      <path class="cls-9" d="M337.656,151.619l148.774.256-148.774-.256Z"/>
      <polygon class="cls-15" points="337.648 156.676 486.422 156.932 337.656 151.619 337.648 156.676"/>
      <polygon class="cls-15" points="486.422 156.932 486.43 151.875 337.656 151.619 486.422 156.932"/>
      <polygon class="cls-9" points="337.648 156.676 486.422 156.932 337.656 151.619 337.648 156.676"/>
      <polygon class="cls-9" points="486.422 156.932 486.43 151.875 337.656 151.619 486.422 156.932"/>
      <polygon class="cls-15" points="337.486 250.312 342.543 250.321 337.648 156.676 337.486 250.312"/>
      <polygon class="cls-15" points="342.543 250.321 342.704 156.685 337.648 156.676 342.543 250.321"/>
      <polygon class="cls-9" points="342.543 250.321 342.704 156.685 337.648 156.676 342.543 250.321"/>
      <polygon class="cls-9" points="337.486 250.312 342.543 250.321 337.648 156.676 337.486 250.312"/>
      <line class="cls-13" x1="486.122" y1="330.991" x2="486.128" y2="327.892"/>
      <line class="cls-13" x1="486.129" y1="327.076" x2="486.134" y2="323.977"/>
      <line class="cls-13" x1="486.136" y1="323.161" x2="486.141" y2="320.061"/>
      <line class="cls-13" x1="486.142" y1="319.409" x2="486.147" y2="316.309"/>
      <line class="cls-13" x1="486.149" y1="315.494" x2="486.154" y2="312.394"/>
      <line class="cls-13" x1="486.156" y1="311.579" x2="486.161" y2="308.642"/>
      <line class="cls-13" x1="486.162" y1="307.827" x2="486.167" y2="304.727"/>
      <line class="cls-13" x1="486.169" y1="303.912" x2="486.174" y2="300.812"/>
      <line class="cls-13" x1="486.175" y1="300.16" x2="486.181" y2="297.06"/>
      <line class="cls-13" x1="486.182" y1="296.244" x2="486.187" y2="293.145"/>
      <line class="cls-13" x1="486.189" y1="292.329" x2="486.194" y2="289.23"/>
      <line class="cls-13" x1="486.195" y1="288.577" x2="486.201" y2="285.478"/>
      <line class="cls-13" x1="486.202" y1="284.662" x2="486.207" y2="281.563"/>
      <line class="cls-13" x1="486.209" y1="280.747" x2="486.214" y2="277.811"/>
      <line class="cls-13" x1="486.215" y1="276.995" x2="486.22" y2="273.896"/>
      <line class="cls-13" x1="486.222" y1="273.08" x2="486.227" y2="269.981"/>
      <line class="cls-13" x1="486.228" y1="269.328" x2="486.234" y2="266.229"/>
      <line class="cls-13" x1="486.235" y1="265.413" x2="486.24" y2="262.314"/>
      <line class="cls-13" x1="486.242" y1="261.498" x2="486.247" y2="258.398"/>
      <line class="cls-13" x1="486.248" y1="257.746" x2="486.254" y2="254.646"/>
      <line class="cls-13" x1="486.255" y1="253.831" x2="486.26" y2="250.731"/>
      <line class="cls-13" x1="486.262" y1="249.916" x2="486.267" y2="246.979"/>
      <line class="cls-13" x1="486.268" y1="246.164" x2="486.274" y2="243.064"/>
      <line class="cls-13" x1="486.275" y1="242.249" x2="486.28" y2="239.149"/>
      <line class="cls-13" x1="486.281" y1="238.497" x2="486.287" y2="235.397"/>
      <line class="cls-13" x1="486.288" y1="234.582" x2="486.293" y2="231.482"/>
      <line class="cls-13" x1="486.295" y1="230.666" x2="486.3" y2="227.567"/>
      <line class="cls-13" x1="486.301" y1="226.914" x2="486.307" y2="223.815"/>
      <line class="cls-13" x1="486.308" y1="222.999" x2="486.313" y2="219.9"/>
      <line class="cls-13" x1="486.315" y1="219.084" x2="486.32" y2="216.148"/>
      <line class="cls-13" x1="486.321" y1="215.332" x2="486.327" y2="212.233"/>
      <line class="cls-13" x1="486.328" y1="211.417" x2="486.333" y2="208.318"/>
      <line class="cls-13" x1="486.334" y1="207.665" x2="486.34" y2="204.566"/>
      <line class="cls-13" x1="486.341" y1="203.75" x2="486.346" y2="200.651"/>
      <line class="cls-13" x1="486.348" y1="199.835" x2="486.353" y2="196.735"/>
      <line class="cls-13" x1="486.354" y1="196.083" x2="486.36" y2="192.983"/>
      <line class="cls-13" x1="486.361" y1="192.168" x2="486.366" y2="189.068"/>
      <line class="cls-13" x1="486.368" y1="188.416" x2="486.373" y2="185.316"/>
      <line class="cls-13" x1="486.374" y1="184.501" x2="486.38" y2="181.401"/>
      <line class="cls-13" x1="486.381" y1="180.586" x2="486.386" y2="177.486"/>
      <line class="cls-13" x1="486.387" y1="176.834" x2="486.393" y2="173.734"/>
      <line class="cls-13" x1="486.394" y1="172.919" x2="486.4" y2="169.819"/>
      <line class="cls-13" x1="486.401" y1="169.003" x2="486.406" y2="166.067"/>
      <line class="cls-13" x1="486.407" y1="165.251" x2="486.413" y2="162.152"/>
      <line class="cls-13" x1="486.414" y1="161.336" x2="486.419" y2="158.237"/>
      <line class="cls-13" x1="486.421" y1="157.584" x2="486.426" y2="154.485"/>
      <line class="cls-13" x1="486.427" y1="153.669" x2="486.433" y2="150.57"/>
      <line class="cls-5" x1="337.486" y1="250.312" x2="337.656" y2="151.619"/>
      <line class="cls-5" x1="342.245" y1="423.728" x2="342.253" y2="419.16"/>
      <line class="cls-5" x1="342.294" y1="395.506" x2="342.705" y2="156.685"/>
      <polygon class="cls-15" points="438.843 314.27 454.014 314.296 431.176 314.257 438.843 314.27"/>
      <polygon class="cls-15" points="431.176 314.257 454.014 314.296 431.191 305.611 431.176 314.257"/>
      <polygon class="cls-15" points="454.014 314.296 454.029 305.651 431.191 305.611 454.014 314.296"/>
      <polygon class="cls-9" points="438.843 314.27 454.014 314.296 431.176 314.257 438.843 314.27"/>
      <polygon class="cls-9" points="454.014 314.296 454.029 305.651 431.191 305.611 454.014 314.296"/>
      <polygon class="cls-9" points="431.176 314.257 454.014 314.296 431.191 305.611 431.176 314.257"/>
      <path class="cls-15" d="M431.176,314.257l22.838.039-22.838-.039Z"/>
      <path class="cls-9" d="M431.176,314.257l22.838.039-22.838-.039Z"/>
      <line class="cls-5" x1="536.666" y1="157.018" x2="342.705" y2="156.685"/>
      <line class="cls-5" x1="536.674" y1="151.961" x2="337.656" y2="151.619"/>
      <line class="cls-10" x1="342.422" y1="320.956" x2="342.396" y2="335.801"/>
      <line class="cls-10" x1="431.146" y1="331.549" x2="431.139" y2="335.954"/>
      <line class="cls-10" x1="344.521" y1="333.194" x2="429.023" y2="333.34"/>
      <polygon class="cls-14" points="341.747 333.842 342.399 334.17 342.401 333.191 341.747 333.842"/>
      <polygon class="cls-14" points="341.422 333.189 341.747 333.842 342.401 333.191 341.422 333.189"/>
      <polygon class="cls-14" points="342.399 334.17 343.052 333.844 342.401 333.191 342.399 334.17"/>
      <polygon class="cls-8" points="341.422 333.189 341.747 333.842 342.401 333.191 341.422 333.189"/>
      <polygon class="cls-8" points="342.399 334.17 343.052 333.844 342.401 333.191 342.399 334.17"/>
      <polygon class="cls-8" points="341.747 333.842 342.399 334.17 342.401 333.191 341.747 333.842"/>
      <polygon class="cls-14" points="343.052 333.844 343.38 333.192 342.401 333.191 343.052 333.844"/>
      <polygon class="cls-14" points="342.402 332.212 342.401 333.191 343.055 332.376 342.402 332.212"/>
      <polygon class="cls-14" points="342.401 333.191 343.38 333.192 343.055 332.376 342.401 333.191"/>
      <polygon class="cls-8" points="343.052 333.844 343.38 333.192 342.401 333.191 343.052 333.844"/>
      <polygon class="cls-8" points="342.401 333.191 343.38 333.192 343.055 332.376 342.401 333.191"/>
      <polygon class="cls-8" points="342.402 332.212 342.401 333.191 343.055 332.376 342.402 332.212"/>
      <polygon class="cls-14" points="341.422 333.189 342.401 333.191 341.75 332.374 341.422 333.189"/>
      <polygon class="cls-14" points="342.401 333.191 342.402 332.212 341.75 332.374 342.401 333.191"/>
      <polygon class="cls-8" points="342.401 333.191 342.402 332.212 341.75 332.374 342.401 333.191"/>
      <polygon class="cls-8" points="341.422 333.189 342.401 333.191 341.75 332.374 341.422 333.189"/>
      <line class="cls-10" x1="343.38" y1="333.192" x2="344.521" y2="333.194"/>
      <polygon class="cls-14" points="430.329 332.526 431.143 333.343 431.145 332.365 430.329 332.526"/>
      <polygon class="cls-14" points="431.145 332.365 431.143 333.343 431.797 332.529 431.145 332.365"/>
      <polygon class="cls-14" points="431.143 333.343 432.122 333.345 431.797 332.529 431.143 333.343"/>
      <polygon class="cls-8" points="430.329 332.526 431.143 333.343 431.145 332.365 430.329 332.526"/>
      <polygon class="cls-8" points="431.145 332.365 431.143 333.343 431.797 332.529 431.145 332.365"/>
      <polygon class="cls-8" points="431.143 333.343 432.122 333.345 431.797 332.529 431.143 333.343"/>
      <polygon class="cls-14" points="430.327 333.994 431.143 333.343 430.001 333.341 430.327 333.994"/>
      <polygon class="cls-14" points="431.141 334.322 431.143 333.343 430.327 333.994 431.141 334.322"/>
      <polygon class="cls-14" points="430.001 333.341 431.143 333.343 430.329 332.526 430.001 333.341"/>
      <polygon class="cls-8" points="431.141 334.322 431.143 333.343 430.327 333.994 431.141 334.322"/>
      <polygon class="cls-8" points="430.327 333.994 431.143 333.343 430.001 333.341 430.327 333.994"/>
      <polygon class="cls-8" points="430.001 333.341 431.143 333.343 430.329 332.526 430.001 333.341"/>
      <polygon class="cls-14" points="431.141 334.322 431.795 333.997 431.143 333.343 431.141 334.322"/>
      <polygon class="cls-14" points="431.795 333.997 432.122 333.345 431.143 333.343 431.795 333.997"/>
      <polygon class="cls-8" points="431.141 334.322 431.795 333.997 431.143 333.343 431.141 334.322"/>
      <polygon class="cls-8" points="431.795 333.997 432.122 333.345 431.143 333.343 431.795 333.997"/>
      <line class="cls-10" x1="430.001" y1="333.341" x2="429.023" y2="333.34"/>
      <text class="cls-1" transform="translate(379.833 331.823) rotate(.099)"><tspan x="0" y="0">345</tspan></text>
      <line class="cls-10" x1="507.637" y1="151.911" x2="508.453" y2="151.913"/>
      <polygon class="cls-14" points="505.841 152.887 506.657 152.562 505.843 151.908 505.841 152.887"/>
      <polygon class="cls-14" points="506.657 152.562 506.822 151.91 505.843 151.908 506.657 152.562"/>
      <polygon class="cls-14" points="505.843 151.908 506.822 151.91 506.66 151.094 505.843 151.908"/>
      <polygon class="cls-8" points="506.657 152.562 506.822 151.91 505.843 151.908 506.657 152.562"/>
      <polygon class="cls-8" points="505.841 152.887 506.657 152.562 505.843 151.908 505.841 152.887"/>
      <polygon class="cls-8" points="505.843 151.908 506.822 151.91 506.66 151.094 505.843 151.908"/>
      <polygon class="cls-14" points="504.864 151.907 505.843 151.908 505.192 151.091 504.864 151.907"/>
      <polygon class="cls-14" points="505.192 151.091 505.843 151.908 505.844 150.93 505.192 151.091"/>
      <polygon class="cls-14" points="505.843 151.908 506.66 151.094 505.844 150.93 505.843 151.908"/>
      <polygon class="cls-8" points="504.864 151.907 505.843 151.908 505.192 151.091 504.864 151.907"/>
      <polygon class="cls-8" points="505.843 151.908 506.66 151.094 505.844 150.93 505.843 151.908"/>
      <polygon class="cls-8" points="505.192 151.091 505.843 151.908 505.844 150.93 505.192 151.091"/>
      <polygon class="cls-14" points="505.841 152.887 505.843 151.908 505.189 152.56 505.841 152.887"/>
      <polygon class="cls-14" points="505.189 152.56 505.843 151.908 504.864 151.907 505.189 152.56"/>
      <polygon class="cls-8" points="505.841 152.887 505.843 151.908 505.189 152.56 505.841 152.887"/>
      <polygon class="cls-8" points="505.189 152.56 505.843 151.908 504.864 151.907 505.189 152.56"/>
      <line class="cls-5" x1="514.386" y1="306.244" x2="489.101" y2="306.2"/>
      <line class="cls-5" x1="455.985" y1="306.47" x2="516.669" y2="306.574"/>
      <line class="cls-5" x1="518.139" y1="305.761" x2="454.029" y2="305.651"/>
      <line class="cls-5" x1="518.134" y1="308.371" x2="454.025" y2="308.261"/>
      <line class="cls-5" x1="514.224" y1="305.754" x2="514.223" y2="306.57"/>
      <line class="cls-5" x1="516.669" y1="306.574" x2="516.671" y2="305.758"/>
      <line class="cls-5" x1="516.177" y1="308.368" x2="516.18" y2="306.573"/>
      <line class="cls-5" x1="484.37" y1="306.192" x2="457.78" y2="306.147"/>
      <line class="cls-5" x1="484.208" y1="305.703" x2="484.207" y2="306.518"/>
      <line class="cls-5" x1="489.265" y1="305.711" x2="489.264" y2="306.527"/>
      <line class="cls-5" x1="458.107" y1="305.658" x2="458.106" y2="306.473"/>
      <polyline class="cls-5" points="455.982 308.264 455.985 306.47 455.496 306.469 455.497 305.653"/>
      <line class="cls-5" x1="454.029" y1="305.651" x2="454.016" y2="313.481"/>
      <line class="cls-5" x1="518.139" y1="305.761" x2="518.125" y2="313.591"/>
      <polyline class="cls-5" points="454.029 305.651 454.016 313.481 454.029 305.651"/>
      <line class="cls-5" x1="431.399" y1="374.616" x2="431.442" y2="349.331"/>
      <line class="cls-5" x1="431.825" y1="316.216" x2="431.721" y2="376.9"/>
      <line class="cls-5" x1="431.066" y1="378.367" x2="431.176" y2="314.257"/>
      <line class="cls-5" x1="433.513" y1="378.371" x2="433.623" y2="314.262"/>
      <line class="cls-5" x1="431.073" y1="374.452" x2="431.725" y2="374.453"/>
      <line class="cls-5" x1="431.721" y1="376.9" x2="431.068" y2="376.899"/>
      <line class="cls-5" x1="433.516" y1="376.414" x2="431.722" y2="376.411"/>
      <line class="cls-5" x1="431.45" y1="344.6" x2="431.496" y2="318.01"/>
      <line class="cls-5" x1="431.124" y1="344.436" x2="431.777" y2="344.437"/>
      <line class="cls-5" x1="431.115" y1="349.493" x2="431.768" y2="349.494"/>
      <line class="cls-5" x1="431.169" y1="318.336" x2="431.822" y2="318.337"/>
      <polyline class="cls-5" points="433.62 316.219 431.825 316.216 431.826 315.727 431.174 315.725"/>
      <line class="cls-5" x1="431.176" y1="314.257" x2="438.843" y2="314.27"/>
      <line class="cls-5" x1="431.066" y1="378.367" x2="438.733" y2="378.38"/>
      <polyline class="cls-5" points="431.176 314.257 438.843 314.27 431.176 314.257"/>
      <line class="cls-10" x1="427.148" y1="380.155" x2="411.161" y2="380.127"/>
      <line class="cls-10" x1="427.276" y1="305.605" x2="411.289" y2="305.577"/>
      <line class="cls-10" x1="413.611" y1="378.174" x2="413.732" y2="307.702"/>
      <polygon class="cls-14" points="413.606 381.11 414.422 380.949 413.608 380.132 413.606 381.11"/>
      <polygon class="cls-14" points="414.422 380.949 414.75 380.134 413.608 380.132 414.422 380.949"/>
      <polygon class="cls-14" points="413.608 380.132 414.75 380.134 414.425 379.48 413.608 380.132"/>
      <polygon class="cls-8" points="414.422 380.949 414.75 380.134 413.608 380.132 414.422 380.949"/>
      <polygon class="cls-8" points="413.606 381.11 414.422 380.949 413.608 380.132 413.606 381.11"/>
      <polygon class="cls-8" points="413.608 380.132 414.75 380.134 414.425 379.48 413.608 380.132"/>
      <polygon class="cls-14" points="413.608 380.132 414.425 379.48 413.61 379.153 413.608 380.132"/>
      <polygon class="cls-14" points="412.629 380.13 413.608 380.132 412.956 379.478 412.629 380.13"/>
      <polygon class="cls-14" points="412.956 379.478 413.608 380.132 413.61 379.153 412.956 379.478"/>
      <polygon class="cls-8" points="412.629 380.13 413.608 380.132 412.956 379.478 412.629 380.13"/>
      <polygon class="cls-8" points="412.956 379.478 413.608 380.132 413.61 379.153 412.956 379.478"/>
      <polygon class="cls-8" points="413.608 380.132 414.425 379.48 413.61 379.153 413.608 380.132"/>
      <polygon class="cls-14" points="413.606 381.11 413.608 380.132 412.954 380.946 413.606 381.11"/>
      <polygon class="cls-14" points="412.954 380.946 413.608 380.132 412.629 380.13 412.954 380.946"/>
      <polygon class="cls-8" points="413.606 381.11 413.608 380.132 412.954 380.946 413.606 381.11"/>
      <polygon class="cls-8" points="412.954 380.946 413.608 380.132 412.629 380.13 412.954 380.946"/>
      <line class="cls-10" x1="413.609" y1="379.153" x2="413.611" y2="378.174"/>
      <polygon class="cls-14" points="413.082 306.396 413.736 305.581 412.757 305.58 413.082 306.396"/>
      <polygon class="cls-14" points="412.757 305.58 413.736 305.581 413.085 304.928 412.757 305.58"/>
      <polygon class="cls-14" points="413.736 305.581 413.738 304.603 413.085 304.928 413.736 305.581"/>
      <polygon class="cls-8" points="413.082 306.396 413.736 305.581 412.757 305.58 413.082 306.396"/>
      <polygon class="cls-8" points="412.757 305.58 413.736 305.581 413.085 304.928 412.757 305.58"/>
      <polygon class="cls-8" points="413.736 305.581 413.738 304.603 413.085 304.928 413.736 305.581"/>
      <polygon class="cls-14" points="414.55 306.398 414.878 305.583 413.736 305.581 414.55 306.398"/>
      <polygon class="cls-14" points="413.082 306.396 413.734 306.723 413.736 305.581 413.082 306.396"/>
      <polygon class="cls-14" points="413.734 306.723 414.55 306.398 413.736 305.581 413.734 306.723"/>
      <polygon class="cls-8" points="413.082 306.396 413.734 306.723 413.736 305.581 413.082 306.396"/>
      <polygon class="cls-8" points="413.734 306.723 414.55 306.398 413.736 305.581 413.734 306.723"/>
      <polygon class="cls-8" points="414.55 306.398 414.878 305.583 413.736 305.581 414.55 306.398"/>
      <polygon class="cls-14" points="413.738 304.603 413.736 305.581 414.553 304.93 413.738 304.603"/>
      <polygon class="cls-14" points="413.736 305.581 414.878 305.583 414.553 304.93 413.736 305.581"/>
      <polygon class="cls-8" points="413.738 304.603 413.736 305.581 414.553 304.93 413.738 304.603"/>
      <polygon class="cls-8" points="413.736 305.581 414.878 305.583 414.553 304.93 413.736 305.581"/>
      <line class="cls-10" x1="413.734" y1="306.723" x2="413.732" y2="307.702"/>
      <text class="cls-2" transform="translate(412.146 349.714) rotate(-89.901)"><tspan x="0" y="0">290</tspan></text>
      <line class="cls-10" x1="442.435" y1="407.261" x2="453.854" y2="407.28"/>
      <line class="cls-10" x1="442.485" y1="378.387" x2="453.904" y2="378.406"/>
      <line class="cls-10" x1="451.411" y1="405.155" x2="451.453" y2="380.523"/>
      <polygon class="cls-14" points="451.406 408.255 452.059 407.93 451.407 407.276 451.406 408.255"/>
      <polygon class="cls-14" points="452.059 407.93 452.386 407.278 451.407 407.276 452.059 407.93"/>
      <polygon class="cls-14" points="451.407 407.276 452.386 407.278 452.061 406.625 451.407 407.276"/>
      <polygon class="cls-8" points="451.406 408.255 452.059 407.93 451.407 407.276 451.406 408.255"/>
      <polygon class="cls-8" points="451.407 407.276 452.386 407.278 452.061 406.625 451.407 407.276"/>
      <polygon class="cls-8" points="452.059 407.93 452.386 407.278 451.407 407.276 452.059 407.93"/>
      <polygon class="cls-14" points="450.593 406.622 451.407 407.276 451.409 406.297 450.593 406.622"/>
      <polygon class="cls-14" points="450.265 407.274 451.407 407.276 450.593 406.622 450.265 407.274"/>
      <polygon class="cls-14" points="451.407 407.276 452.061 406.625 451.409 406.297 451.407 407.276"/>
      <polygon class="cls-8" points="450.593 406.622 451.407 407.276 451.409 406.297 450.593 406.622"/>
      <polygon class="cls-8" points="450.265 407.274 451.407 407.276 450.593 406.622 450.265 407.274"/>
      <polygon class="cls-8" points="451.407 407.276 452.061 406.625 451.409 406.297 451.407 407.276"/>
      <polygon class="cls-14" points="451.406 408.255 451.407 407.276 450.59 407.927 451.406 408.255"/>
      <polygon class="cls-14" points="450.59 407.927 451.407 407.276 450.265 407.274 450.59 407.927"/>
      <polygon class="cls-8" points="451.406 408.255 451.407 407.276 450.59 407.927 451.406 408.255"/>
      <polygon class="cls-8" points="450.59 407.927 451.407 407.276 450.265 407.274 450.59 407.927"/>
      <line class="cls-10" x1="451.409" y1="406.297" x2="451.411" y2="405.155"/>
      <polygon class="cls-14" points="450.64 379.053 451.457 378.402 450.315 378.4 450.64 379.053"/>
      <polygon class="cls-14" points="451.457 378.402 451.459 377.423 450.642 377.748 451.457 378.402"/>
      <polygon class="cls-14" points="450.315 378.4 451.457 378.402 450.642 377.748 450.315 378.4"/>
      <polygon class="cls-8" points="450.64 379.053 451.457 378.402 450.315 378.4 450.64 379.053"/>
      <polygon class="cls-8" points="450.315 378.4 451.457 378.402 450.642 377.748 450.315 378.4"/>
      <polygon class="cls-8" points="451.457 378.402 451.459 377.423 450.642 377.748 451.457 378.402"/>
      <polygon class="cls-14" points="451.455 379.381 452.108 379.056 451.457 378.402 451.455 379.381"/>
      <polygon class="cls-14" points="450.64 379.053 451.455 379.381 451.457 378.402 450.64 379.053"/>
      <polygon class="cls-14" points="452.108 379.056 452.436 378.404 451.457 378.402 452.108 379.056"/>
      <polygon class="cls-8" points="450.64 379.053 451.455 379.381 451.457 378.402 450.64 379.053"/>
      <polygon class="cls-8" points="451.455 379.381 452.108 379.056 451.457 378.402 451.455 379.381"/>
      <polygon class="cls-8" points="452.108 379.056 452.436 378.404 451.457 378.402 452.108 379.056"/>
      <polygon class="cls-14" points="451.459 377.423 451.457 378.402 452.11 377.751 451.459 377.423"/>
      <polygon class="cls-14" points="451.457 378.402 452.436 378.404 452.11 377.751 451.457 378.402"/>
      <polygon class="cls-8" points="451.459 377.423 451.457 378.402 452.11 377.751 451.459 377.423"/>
      <polygon class="cls-8" points="451.457 378.402 452.436 378.404 452.11 377.751 451.457 378.402"/>
      <line class="cls-10" x1="451.455" y1="379.381" x2="451.453" y2="380.523"/>
      <text class="cls-2" transform="translate(449.743 400.023) rotate(-89.901)"><tspan x="0" y="0">110</tspan></text>
      <line class="cls-10" x1="442.485" y1="378.387" x2="453.904" y2="378.406"/>
      <line class="cls-10" x1="442.595" y1="314.277" x2="454.014" y2="314.297"/>
      <line class="cls-10" x1="451.461" y1="376.282" x2="451.564" y2="316.413"/>
      <polygon class="cls-14" points="451.455 379.381 452.108 379.056 451.457 378.402 451.455 379.381"/>
      <polygon class="cls-14" points="452.108 379.056 452.436 378.404 451.457 378.402 452.108 379.056"/>
      <polygon class="cls-14" points="451.457 378.402 452.436 378.404 452.11 377.751 451.457 378.402"/>
      <polygon class="cls-8" points="451.455 379.381 452.108 379.056 451.457 378.402 451.455 379.381"/>
      <polygon class="cls-8" points="451.457 378.402 452.436 378.404 452.11 377.751 451.457 378.402"/>
      <polygon class="cls-8" points="452.108 379.056 452.436 378.404 451.457 378.402 452.108 379.056"/>
      <polygon class="cls-14" points="450.315 378.4 451.457 378.402 450.642 377.748 450.315 378.4"/>
      <polygon class="cls-14" points="450.642 377.748 451.457 378.402 451.459 377.423 450.642 377.748"/>
      <polygon class="cls-14" points="451.457 378.402 452.11 377.751 451.459 377.423 451.457 378.402"/>
      <polygon class="cls-8" points="450.315 378.4 451.457 378.402 450.642 377.748 450.315 378.4"/>
      <polygon class="cls-8" points="451.457 378.402 452.11 377.751 451.459 377.423 451.457 378.402"/>
      <polygon class="cls-8" points="450.642 377.748 451.457 378.402 451.459 377.423 450.642 377.748"/>
      <polygon class="cls-14" points="451.455 379.381 451.457 378.402 450.64 379.053 451.455 379.381"/>
      <polygon class="cls-14" points="450.64 379.053 451.457 378.402 450.315 378.4 450.64 379.053"/>
      <polygon class="cls-8" points="451.455 379.381 451.457 378.402 450.64 379.053 451.455 379.381"/>
      <polygon class="cls-8" points="450.64 379.053 451.457 378.402 450.315 378.4 450.64 379.053"/>
      <line class="cls-10" x1="451.459" y1="377.423" x2="451.461" y2="376.282"/>
      <polygon class="cls-14" points="450.425 314.29 451.567 314.292 450.753 313.639 450.425 314.29"/>
      <polygon class="cls-14" points="450.75 315.107 451.567 314.292 450.425 314.29 450.75 315.107"/>
      <polygon class="cls-14" points="451.567 314.292 451.569 313.314 450.753 313.639 451.567 314.292"/>
      <polygon class="cls-8" points="450.75 315.107 451.567 314.292 450.425 314.29 450.75 315.107"/>
      <polygon class="cls-8" points="451.567 314.292 451.569 313.314 450.753 313.639 451.567 314.292"/>
      <polygon class="cls-8" points="450.425 314.29 451.567 314.292 450.753 313.639 450.425 314.29"/>
      <polygon class="cls-14" points="450.75 315.107 451.565 315.434 451.567 314.292 450.75 315.107"/>
      <polygon class="cls-14" points="451.565 315.434 452.218 315.109 451.567 314.292 451.565 315.434"/>
      <polygon class="cls-14" points="452.218 315.109 452.546 314.294 451.567 314.292 452.218 315.109"/>
      <polygon class="cls-8" points="451.565 315.434 452.218 315.109 451.567 314.292 451.565 315.434"/>
      <polygon class="cls-8" points="450.75 315.107 451.565 315.434 451.567 314.292 450.75 315.107"/>
      <polygon class="cls-8" points="452.218 315.109 452.546 314.294 451.567 314.292 452.218 315.109"/>
      <polygon class="cls-14" points="451.569 313.314 451.567 314.292 452.221 313.641 451.569 313.314"/>
      <polygon class="cls-14" points="451.567 314.292 452.546 314.294 452.221 313.641 451.567 314.292"/>
      <polygon class="cls-8" points="451.567 314.292 452.546 314.294 452.221 313.641 451.567 314.292"/>
      <polygon class="cls-8" points="451.569 313.314 451.567 314.292 452.221 313.641 451.569 313.314"/>
      <line class="cls-10" x1="451.565" y1="315.434" x2="451.564" y2="316.413"/>
      <text class="cls-2" transform="translate(449.823 353.205) rotate(-89.901)"><tspan x="0" y="0">250</tspan></text>
      <line class="cls-10" x1="442.595" y1="314.277" x2="454.014" y2="314.297"/>
      <line class="cls-10" x1="442.597" y1="313.461" x2="454.016" y2="313.481"/>
      <line class="cls-10" x1="451.564" y1="316.413" x2="451.56" y2="318.534"/>
      <line class="cls-10" x1="451.572" y1="311.356" x2="451.576" y2="309.398"/>
      <line class="cls-10" x1="451.567" y1="314.292" x2="451.569" y2="313.477"/>
      <polygon class="cls-14" points="450.425 314.29 451.567 314.292 450.753 313.639 450.425 314.29"/>
      <polygon class="cls-14" points="450.75 315.107 451.567 314.292 450.425 314.29 450.75 315.107"/>
      <polygon class="cls-14" points="451.567 314.292 451.569 313.314 450.753 313.639 451.567 314.292"/>
      <polygon class="cls-8" points="450.75 315.107 451.567 314.292 450.425 314.29 450.75 315.107"/>
      <polygon class="cls-8" points="450.425 314.29 451.567 314.292 450.753 313.639 450.425 314.29"/>
      <polygon class="cls-8" points="451.567 314.292 451.569 313.314 450.753 313.639 451.567 314.292"/>
      <polygon class="cls-14" points="450.75 315.107 451.565 315.434 451.567 314.292 450.75 315.107"/>
      <polygon class="cls-14" points="451.565 315.434 452.218 315.109 451.567 314.292 451.565 315.434"/>
      <polygon class="cls-14" points="452.218 315.109 452.546 314.294 451.567 314.292 452.218 315.109"/>
      <polygon class="cls-8" points="450.75 315.107 451.565 315.434 451.567 314.292 450.75 315.107"/>
      <polygon class="cls-8" points="452.218 315.109 452.546 314.294 451.567 314.292 452.218 315.109"/>
      <polygon class="cls-8" points="451.565 315.434 452.218 315.109 451.567 314.292 451.565 315.434"/>
      <polygon class="cls-14" points="451.569 313.314 451.567 314.292 452.221 313.641 451.569 313.314"/>
      <polygon class="cls-14" points="451.567 314.292 452.546 314.294 452.221 313.641 451.567 314.292"/>
      <polygon class="cls-8" points="451.569 313.314 451.567 314.292 452.221 313.641 451.569 313.314"/>
      <polygon class="cls-8" points="451.567 314.292 452.546 314.294 452.221 313.641 451.567 314.292"/>
      <line class="cls-10" x1="451.565" y1="315.434" x2="451.564" y2="316.413"/>
      <polygon class="cls-14" points="451.567 314.455 452.22 314.13 451.569 313.477 451.567 314.455"/>
      <polygon class="cls-14" points="451.569 313.477 452.547 313.478 452.223 312.662 451.569 313.477"/>
      <polygon class="cls-14" points="452.22 314.13 452.547 313.478 451.569 313.477 452.22 314.13"/>
      <polygon class="cls-8" points="451.567 314.455 452.22 314.13 451.569 313.477 451.567 314.455"/>
      <polygon class="cls-8" points="451.569 313.477 452.547 313.478 452.223 312.662 451.569 313.477"/>
      <polygon class="cls-8" points="452.22 314.13 452.547 313.478 451.569 313.477 452.22 314.13"/>
      <polygon class="cls-14" points="450.427 313.475 451.569 313.477 450.755 312.66 450.427 313.475"/>
      <polygon class="cls-14" points="450.755 312.66 451.569 313.477 451.571 312.335 450.755 312.66"/>
      <polygon class="cls-14" points="451.569 313.477 452.223 312.662 451.571 312.335 451.569 313.477"/>
      <polygon class="cls-8" points="450.427 313.475 451.569 313.477 450.755 312.66 450.427 313.475"/>
      <polygon class="cls-8" points="450.755 312.66 451.569 313.477 451.571 312.335 450.755 312.66"/>
      <polygon class="cls-8" points="451.569 313.477 452.223 312.662 451.571 312.335 451.569 313.477"/>
      <polygon class="cls-14" points="451.567 314.455 451.569 313.477 450.752 314.128 451.567 314.455"/>
      <polygon class="cls-14" points="450.752 314.128 451.569 313.477 450.427 313.475 450.752 314.128"/>
      <polygon class="cls-8" points="451.567 314.455 451.569 313.477 450.752 314.128 451.567 314.455"/>
      <polygon class="cls-8" points="450.752 314.128 451.569 313.477 450.427 313.475 450.752 314.128"/>
      <line class="cls-10" x1="451.571" y1="312.335" x2="451.572" y2="311.356"/>
      <text class="cls-2" transform="translate(449.887 316.013) rotate(-89.901)"><tspan x="0" y="0">5</tspan></text>
      <line class="cls-10" x1="438.838" y1="317.207" x2="438.817" y2="329.442"/>
      <line class="cls-10" x1="454.009" y1="317.233" x2="453.988" y2="329.468"/>
      <line class="cls-10" x1="440.779" y1="326.998" x2="452.035" y2="327.017"/>
      <polygon class="cls-14" points="437.843 326.993 438.005 327.646 438.821 326.994 437.843 326.993"/>
      <polygon class="cls-14" points="438.819 327.973 439.473 327.648 438.821 326.994 438.819 327.973"/>
      <polygon class="cls-14" points="438.005 327.646 438.819 327.973 438.821 326.994 438.005 327.646"/>
      <polygon class="cls-8" points="437.843 326.993 438.005 327.646 438.821 326.994 437.843 326.993"/>
      <polygon class="cls-8" points="438.005 327.646 438.819 327.973 438.821 326.994 438.005 327.646"/>
      <polygon class="cls-8" points="438.819 327.973 439.473 327.648 438.821 326.994 438.819 327.973"/>
      <polygon class="cls-14" points="439.473 327.648 439.8 326.996 438.821 326.994 439.473 327.648"/>
      <polygon class="cls-14" points="438.821 326.994 439.8 326.996 439.475 326.18 438.821 326.994"/>
      <polygon class="cls-14" points="438.823 325.853 438.821 326.994 439.475 326.18 438.823 325.853"/>
      <polygon class="cls-8" points="438.821 326.994 439.8 326.996 439.475 326.18 438.821 326.994"/>
      <polygon class="cls-8" points="439.473 327.648 439.8 326.996 438.821 326.994 439.473 327.648"/>
      <polygon class="cls-8" points="438.823 325.853 438.821 326.994 439.475 326.18 438.823 325.853"/>
      <polygon class="cls-14" points="437.843 326.993 438.821 326.994 438.007 326.178 437.843 326.993"/>
      <polygon class="cls-14" points="438.821 326.994 438.823 325.853 438.007 326.178 438.821 326.994"/>
      <polygon class="cls-8" points="437.843 326.993 438.821 326.994 438.007 326.178 437.843 326.993"/>
      <polygon class="cls-8" points="438.821 326.994 438.823 325.853 438.007 326.178 438.821 326.994"/>
      <line class="cls-10" x1="439.8" y1="326.996" x2="440.779" y2="326.998"/>
      <polygon class="cls-14" points="453.341 326.204 453.992 327.021 453.994 325.879 453.341 326.204"/>
      <polygon class="cls-14" points="453.992 327.021 455.134 327.023 454.809 326.206 453.992 327.021"/>
      <polygon class="cls-14" points="453.994 325.879 453.992 327.021 454.809 326.206 453.994 325.879"/>
      <polygon class="cls-8" points="453.341 326.204 453.992 327.021 453.994 325.879 453.341 326.204"/>
      <polygon class="cls-8" points="453.994 325.879 453.992 327.021 454.809 326.206 453.994 325.879"/>
      <polygon class="cls-8" points="453.992 327.021 455.134 327.023 454.809 326.206 453.992 327.021"/>
      <polygon class="cls-14" points="453.991 327.999 453.992 327.021 453.339 327.672 453.991 327.999"/>
      <polygon class="cls-14" points="453.014 327.019 453.992 327.021 453.341 326.204 453.014 327.019"/>
      <polygon class="cls-14" points="453.339 327.672 453.992 327.021 453.014 327.019 453.339 327.672"/>
      <polygon class="cls-8" points="453.339 327.672 453.992 327.021 453.014 327.019 453.339 327.672"/>
      <polygon class="cls-8" points="453.991 327.999 453.992 327.021 453.339 327.672 453.991 327.999"/>
      <polygon class="cls-8" points="453.014 327.019 453.992 327.021 453.341 326.204 453.014 327.019"/>
      <polygon class="cls-14" points="453.991 327.999 454.807 327.675 453.992 327.021 453.991 327.999"/>
      <polygon class="cls-14" points="454.807 327.675 455.134 327.023 453.992 327.021 454.807 327.675"/>
      <polygon class="cls-8" points="453.991 327.999 454.807 327.675 453.992 327.021 453.991 327.999"/>
      <polygon class="cls-8" points="454.807 327.675 455.134 327.023 453.992 327.021 454.807 327.675"/>
      <line class="cls-10" x1="453.014" y1="327.019" x2="452.035" y2="327.017"/>
      <text class="cls-1" transform="translate(441.667 325.568) rotate(.099)"><tspan x="0" y="0">60</tspan></text>
      <line class="cls-10" x1="454.009" y1="317.233" x2="453.988" y2="329.468"/>
      <line class="cls-10" x1="518.119" y1="317.343" x2="518.098" y2="329.578"/>
      <line class="cls-10" x1="456.113" y1="327.024" x2="515.982" y2="327.127"/>
      <polygon class="cls-14" points="453.339 327.672 453.991 327.999 453.992 327.021 453.339 327.672"/>
      <polygon class="cls-14" points="453.014 327.019 453.339 327.672 453.992 327.021 453.014 327.019"/>
      <polygon class="cls-14" points="453.991 327.999 454.807 327.675 453.992 327.021 453.991 327.999"/>
      <polygon class="cls-8" points="453.991 327.999 454.807 327.675 453.992 327.021 453.991 327.999"/>
      <polygon class="cls-8" points="453.014 327.019 453.339 327.672 453.992 327.021 453.014 327.019"/>
      <polygon class="cls-8" points="453.339 327.672 453.991 327.999 453.992 327.021 453.339 327.672"/>
      <polygon class="cls-14" points="453.994 325.879 453.992 327.021 454.809 326.206 453.994 325.879"/>
      <polygon class="cls-14" points="454.807 327.675 455.134 327.023 453.992 327.021 454.807 327.675"/>
      <polygon class="cls-14" points="453.992 327.021 455.134 327.023 454.809 326.206 453.992 327.021"/>
      <polygon class="cls-8" points="453.992 327.021 455.134 327.023 454.809 326.206 453.992 327.021"/>
      <polygon class="cls-8" points="454.807 327.675 455.134 327.023 453.992 327.021 454.807 327.675"/>
      <polygon class="cls-8" points="453.994 325.879 453.992 327.021 454.809 326.206 453.994 325.879"/>
      <polygon class="cls-14" points="453.014 327.019 453.992 327.021 453.341 326.204 453.014 327.019"/>
      <polygon class="cls-14" points="453.992 327.021 453.994 325.879 453.341 326.204 453.992 327.021"/>
      <polygon class="cls-8" points="453.014 327.019 453.992 327.021 453.341 326.204 453.014 327.019"/>
      <polygon class="cls-8" points="453.992 327.021 453.994 325.879 453.341 326.204 453.992 327.021"/>
      <line class="cls-10" x1="455.134" y1="327.023" x2="456.113" y2="327.024"/>
      <polygon class="cls-14" points="518.104 325.989 518.102 327.131 518.756 326.317 518.104 325.989"/>
      <polygon class="cls-14" points="517.288 326.314 518.102 327.131 518.104 325.989 517.288 326.314"/>
      <polygon class="cls-14" points="518.102 327.131 519.081 327.133 518.756 326.317 518.102 327.131"/>
      <polygon class="cls-8" points="517.288 326.314 518.102 327.131 518.104 325.989 517.288 326.314"/>
      <polygon class="cls-8" points="518.104 325.989 518.102 327.131 518.756 326.317 518.104 325.989"/>
      <polygon class="cls-8" points="518.102 327.131 519.081 327.133 518.756 326.317 518.102 327.131"/>
      <polygon class="cls-14" points="518.1 328.11 518.102 327.131 517.286 327.782 518.1 328.11"/>
      <polygon class="cls-14" points="517.286 327.782 518.102 327.131 517.124 327.129 517.286 327.782"/>
      <polygon class="cls-14" points="517.124 327.129 518.102 327.131 517.288 326.314 517.124 327.129"/>
      <polygon class="cls-8" points="518.1 328.11 518.102 327.131 517.286 327.782 518.1 328.11"/>
      <polygon class="cls-8" points="517.286 327.782 518.102 327.131 517.124 327.129 517.286 327.782"/>
      <polygon class="cls-8" points="517.124 327.129 518.102 327.131 517.288 326.314 517.124 327.129"/>
      <polygon class="cls-14" points="518.1 328.11 518.754 327.785 518.102 327.131 518.1 328.11"/>
      <polygon class="cls-14" points="518.754 327.785 519.081 327.133 518.102 327.131 518.754 327.785"/>
      <polygon class="cls-8" points="518.754 327.785 519.081 327.133 518.102 327.131 518.754 327.785"/>
      <polygon class="cls-8" points="518.1 328.11 518.754 327.785 518.102 327.131 518.1 328.11"/>
      <line class="cls-10" x1="517.124" y1="327.129" x2="515.982" y2="327.127"/>
      <text class="cls-1" transform="translate(479.026 325.633) rotate(.099)"><tspan x="0" y="0">250</tspan></text>
      <line class="cls-10" x1="518.119" y1="317.343" x2="518.098" y2="329.578"/>
      <line class="cls-10" x1="541.442" y1="319.83" x2="541.425" y2="329.618"/>
      <line class="cls-10" x1="520.223" y1="327.135" x2="539.309" y2="327.167"/>
      <polygon class="cls-14" points="517.124 327.129 517.286 327.782 518.102 327.131 517.124 327.129"/>
      <polygon class="cls-14" points="517.286 327.782 518.1 328.11 518.102 327.131 517.286 327.782"/>
      <polygon class="cls-14" points="518.1 328.11 518.754 327.785 518.102 327.131 518.1 328.11"/>
      <polygon class="cls-8" points="517.124 327.129 517.286 327.782 518.102 327.131 517.124 327.129"/>
      <polygon class="cls-8" points="518.1 328.11 518.754 327.785 518.102 327.131 518.1 328.11"/>
      <polygon class="cls-8" points="517.286 327.782 518.1 328.11 518.102 327.131 517.286 327.782"/>
      <polygon class="cls-14" points="518.754 327.785 519.081 327.133 518.102 327.131 518.754 327.785"/>
      <polygon class="cls-14" points="518.102 327.131 519.081 327.133 518.756 326.317 518.102 327.131"/>
      <polygon class="cls-14" points="518.104 325.989 518.102 327.131 518.756 326.317 518.104 325.989"/>
      <polygon class="cls-8" points="518.754 327.785 519.081 327.133 518.102 327.131 518.754 327.785"/>
      <polygon class="cls-8" points="518.104 325.989 518.102 327.131 518.756 326.317 518.104 325.989"/>
      <polygon class="cls-8" points="518.102 327.131 519.081 327.133 518.756 326.317 518.102 327.131"/>
      <polygon class="cls-14" points="517.124 327.129 518.102 327.131 517.288 326.314 517.124 327.129"/>
      <polygon class="cls-14" points="518.102 327.131 518.104 325.989 517.288 326.314 518.102 327.131"/>
      <polygon class="cls-8" points="518.102 327.131 518.104 325.989 517.288 326.314 518.102 327.131"/>
      <polygon class="cls-8" points="517.124 327.129 518.102 327.131 517.288 326.314 517.124 327.129"/>
      <line class="cls-10" x1="519.081" y1="327.133" x2="520.223" y2="327.135"/>
      <polygon class="cls-14" points="540.778 326.354 541.43 327.171 541.432 326.029 540.778 326.354"/>
      <polygon class="cls-14" points="541.43 327.171 542.409 327.173 542.084 326.357 541.43 327.171"/>
      <polygon class="cls-14" points="541.432 326.029 541.43 327.171 542.084 326.357 541.432 326.029"/>
      <polygon class="cls-8" points="541.432 326.029 541.43 327.171 542.084 326.357 541.432 326.029"/>
      <polygon class="cls-8" points="540.778 326.354 541.43 327.171 541.432 326.029 540.778 326.354"/>
      <polygon class="cls-8" points="541.43 327.171 542.409 327.173 542.084 326.357 541.43 327.171"/>
      <polygon class="cls-14" points="541.428 328.15 541.43 327.171 540.776 327.823 541.428 328.15"/>
      <polygon class="cls-14" points="540.451 327.169 541.43 327.171 540.778 326.354 540.451 327.169"/>
      <polygon class="cls-14" points="540.776 327.823 541.43 327.171 540.451 327.169 540.776 327.823"/>
      <polygon class="cls-8" points="541.428 328.15 541.43 327.171 540.776 327.823 541.428 328.15"/>
      <polygon class="cls-8" points="540.776 327.823 541.43 327.171 540.451 327.169 540.776 327.823"/>
      <polygon class="cls-8" points="540.451 327.169 541.43 327.171 540.778 326.354 540.451 327.169"/>
      <polygon class="cls-14" points="541.428 328.15 542.081 327.825 541.43 327.171 541.428 328.15"/>
      <polygon class="cls-14" points="542.081 327.825 542.409 327.173 541.43 327.171 542.081 327.825"/>
      <polygon class="cls-8" points="541.428 328.15 542.081 327.825 541.43 327.171 541.428 328.15"/>
      <polygon class="cls-8" points="542.081 327.825 542.409 327.173 541.43 327.171 542.081 327.825"/>
      <line class="cls-10" x1="540.451" y1="327.169" x2="539.309" y2="327.167"/>
      <text class="cls-1" transform="translate(525.027 325.712) rotate(.099)"><tspan x="0" y="0">90</tspan></text>
      <line class="cls-5" x1="387.333" y1="386.612" x2="387.339" y2="382.696"/>
      <path class="cls-5" d="M426.691,408.865c-.676-.001-1.225.546-1.226,1.221"/>
      <line class="cls-5" x1="426.772" y1="409.028" x2="429.382" y2="409.033"/>
      <path class="cls-5" d="M430.522,410.095c.001-.676-.546-1.224-1.221-1.226"/>
      <line class="cls-5" x1="430.685" y1="410.177" x2="430.667" y2="420.454"/>
      <path class="cls-5" d="M429.279,421.594c.676.001,1.225-.546,1.226-1.221"/>
      <line class="cls-5" x1="429.36" y1="421.757" x2="426.75" y2="421.752"/>
      <path class="cls-5" d="M425.447,420.364c-.001.676.546,1.224,1.221,1.226"/>
      <line class="cls-5" x1="425.447" y1="420.445" x2="425.465" y2="410.168"/>
      <path class="cls-5" d="M426.675,408.897c-4.917-.253-9.689.905-12.305,2.985-2.616,2.08-2.62,4.721-.012,6.811,2.608,2.089,7.376,3.263,12.294,3.028"/>
      <line class="cls-5" x1="424.346" y1="396.789" x2="421.899" y2="396.785"/>
      <path class="cls-5" d="M429.647,397.125c.225,0,.408-.182.408-.407"/>
      <line class="cls-5" x1="430.987" y1="423.88" x2="387.269" y2="423.805"/>
      <line class="cls-5" x1="431.063" y1="380.162" x2="384.734" y2="380.082"/>
      <line class="cls-5" x1="431.058" y1="382.772" x2="387.339" y2="382.696"/>
      <line class="cls-5" x1="431.018" y1="405.936" x2="418.131" y2="405.914"/>
      <polygon class="cls-15" points="384.659 423.801 387.269 423.805 384.687 407.161 384.659 423.801"/>
      <polygon class="cls-15" points="387.269 423.805 387.297 407.166 384.687 407.161 387.269 423.805"/>
      <polygon class="cls-9" points="384.659 423.801 387.269 423.805 384.687 407.161 384.659 423.801"/>
      <polygon class="cls-9" points="387.269 423.805 387.297 407.166 384.687 407.161 387.269 423.805"/>
      <line class="cls-5" x1="387.269" y1="423.805" x2="387.297" y2="407.166"/>
      <line class="cls-5" x1="384.687" y1="407.161" x2="384.659" y2="423.801"/>
      <line class="cls-5" x1="387.333" y1="386.612" x2="387.329" y2="388.569"/>
      <polyline class="cls-5" points="387.33 387.917 386.352 387.915 386.351 388.404 384.72 388.401 384.723 386.607"/>
      <polyline class="cls-5" points="387.297 407.166 387.3 405.698 386.321 405.696 386.322 405.207 384.691 405.204 384.687 407.161"/>
      <line class="cls-5" x1="387.33" y1="387.917" x2="406.254" y2="387.949"/>
      <path class="cls-5" d="M387.149,405.577c4.984.606,9.982-1.017,13.66-4.435s5.662-8.283,5.424-13.298"/>
      <line class="cls-5" x1="387.329" y1="388.569" x2="406.253" y2="388.602"/>
      <line class="cls-5" x1="384.723" y1="386.607" x2="387.333" y2="386.612"/>
      <line class="cls-5" x1="423.818" y1="418.974" x2="423.831" y2="411.633"/>
      <polyline class="cls-5" points="422.348 420.277 420.554 419.947 418.76 419.455 417.293 418.963 415.989 418.145 415.012 417.491 414.361 416.674 414.035 416.021 413.874 415.368 414.038 414.716 414.365 414.064 415.019 413.249 415.999 412.435 417.305 411.785 418.774 411.298 420.57 410.812 422.365 410.489"/>
      <line class="cls-5" x1="431.165" y1="415.398" x2="426.924" y2="415.391"/>
      <path class="cls-5" d="M429.045,415.313c0-.315-.255-.571-.57-.572s-.571.255-.572.57.255.571.57.572.571-.255.572-.57"/>
      <path class="cls-5" d="M422.274,420.103c.349.045.7-.061.965-.293.264-.232.416-.566.417-.918"/>
      <path class="cls-5" d="M423.668,411.551c0-.352-.15-.687-.414-.92-.264-.233-.615-.341-.964-.296"/>
      <line class="cls-5" x1="428.098" y1="396.796" x2="430.545" y2="396.8"/>
      <line class="cls-5" x1="428.553" y1="416.698" x2="428.558" y2="413.925"/>
      <line class="cls-5" x1="431.491" y1="415.398" x2="411.916" y2="415.365"/>
      <path class="cls-5" d="M427.757,396.206c-.201-3.269-2.326-5.745-4.816-5.613-2.491.132-4.461,2.825-4.467,6.104-.006,3.28,1.955,5.979,4.446,6.12,2.49.14,4.623-2.328,4.836-5.596"/>
      <line class="cls-5" x1="429.408" y1="393.699" x2="429.397" y2="399.897"/>
      <line class="cls-5" x1="430.222" y1="394.842" x2="428.427" y2="394.839"/>
      <line class="cls-5" x1="430.215" y1="398.594" x2="428.421" y2="398.591"/>
      <path class="cls-5" d="M429.733,394.759c0-.225-.182-.408-.407-.409s-.408.182-.408.407.182.408.407.409.408-.182.408-.407"/>
      <path class="cls-5" d="M429.726,398.511c0-.225-.182-.408-.407-.409s-.408.182-.408.407.182.408.407.409.408-.182.408-.407"/>
      <path class="cls-5" d="M423.857,396.707c0-.496-.4-.898-.896-.899s-.898.4-.899.896.4.898.896.899.898-.4.899-.896"/>
      <line class="cls-5" x1="426.955" y1="397.283" x2="429.728" y2="397.288"/>
      <line class="cls-5" x1="426.957" y1="396.304" x2="429.73" y2="396.309"/>
      <line class="cls-5" x1="423.043" y1="395.482" x2="423.039" y2="397.766"/>
      <path class="cls-5" d="M426.876,396.141c-.225,0-.408.182-.408.407"/>
      <path class="cls-5" d="M426.467,396.711c0,.225.182.408.407.409"/>
      <line class="cls-5" x1="430.219" y1="396.636" x2="430.218" y2="396.799"/>
      <path class="cls-5" d="M430.056,396.554c0-.225-.182-.408-.407-.409"/>
      <line class="cls-5" x1="426.467" y1="396.63" x2="426.466" y2="396.793"/>
      <line class="cls-5" x1="418.171" y1="382.75" x2="418.131" y2="405.914"/>
      <line class="cls-10" x1="396.73" y1="423.821" x2="397.546" y2="423.823"/>
      <line class="cls-10" x1="396.801" y1="382.713" x2="397.617" y2="382.714"/>
      <line class="cls-10" x1="399.997" y1="421.706" x2="400.06" y2="384.676"/>
      <polygon class="cls-14" points="399.991 424.806 400.807 424.481 399.993 423.827 399.991 424.806"/>
      <polygon class="cls-14" points="399.993 423.827 401.135 423.829 400.81 423.013 399.993 423.827"/>
      <polygon class="cls-14" points="400.807 424.481 401.135 423.829 399.993 423.827 400.807 424.481"/>
      <polygon class="cls-8" points="399.991 424.806 400.807 424.481 399.993 423.827 399.991 424.806"/>
      <polygon class="cls-8" points="400.807 424.481 401.135 423.829 399.993 423.827 400.807 424.481"/>
      <polygon class="cls-8" points="399.993 423.827 401.135 423.829 400.81 423.013 399.993 423.827"/>
      <polygon class="cls-14" points="399.014 423.825 399.993 423.827 399.342 423.01 399.014 423.825"/>
      <polygon class="cls-14" points="399.993 423.827 400.81 423.013 399.995 422.848 399.993 423.827"/>
      <polygon class="cls-14" points="399.342 423.01 399.993 423.827 399.995 422.848 399.342 423.01"/>
      <polygon class="cls-8" points="399.014 423.825 399.993 423.827 399.342 423.01 399.014 423.825"/>
      <polygon class="cls-8" points="399.342 423.01 399.993 423.827 399.995 422.848 399.342 423.01"/>
      <polygon class="cls-8" points="399.993 423.827 400.81 423.013 399.995 422.848 399.993 423.827"/>
      <polygon class="cls-14" points="399.991 424.806 399.993 423.827 399.339 424.478 399.991 424.806"/>
      <polygon class="cls-14" points="399.339 424.478 399.993 423.827 399.014 423.825 399.339 424.478"/>
      <polygon class="cls-8" points="399.991 424.806 399.993 423.827 399.339 424.478 399.991 424.806"/>
      <polygon class="cls-8" points="399.339 424.478 399.993 423.827 399.014 423.825 399.339 424.478"/>
      <line class="cls-10" x1="399.995" y1="422.848" x2="399.997" y2="421.706"/>
      <polygon class="cls-14" points="399.41 383.37 400.064 382.718 399.085 382.717 399.41 383.37"/>
      <polygon class="cls-14" points="400.064 382.718 400.065 381.74 399.412 381.901 400.064 382.718"/>
      <polygon class="cls-14" points="399.085 382.717 400.064 382.718 399.412 381.901 399.085 382.717"/>
      <polygon class="cls-8" points="399.41 383.37 400.064 382.718 399.085 382.717 399.41 383.37"/>
      <polygon class="cls-8" points="400.064 382.718 400.065 381.74 399.412 381.901 400.064 382.718"/>
      <polygon class="cls-8" points="399.085 382.717 400.064 382.718 399.412 381.901 399.085 382.717"/>
      <polygon class="cls-14" points="399.41 383.37 400.062 383.697 400.064 382.718 399.41 383.37"/>
      <polygon class="cls-14" points="400.062 383.697 400.878 383.372 400.064 382.718 400.062 383.697"/>
      <polygon class="cls-14" points="400.878 383.372 401.205 382.72 400.064 382.718 400.878 383.372"/>
      <polygon class="cls-8" points="399.41 383.37 400.062 383.697 400.064 382.718 399.41 383.37"/>
      <polygon class="cls-8" points="400.062 383.697 400.878 383.372 400.064 382.718 400.062 383.697"/>
      <polygon class="cls-8" points="400.878 383.372 401.205 382.72 400.064 382.718 400.878 383.372"/>
      <polygon class="cls-14" points="400.065 381.74 400.064 382.718 400.88 381.904 400.065 381.74"/>
      <polygon class="cls-14" points="400.064 382.718 401.205 382.72 400.88 381.904 400.064 382.718"/>
      <polygon class="cls-8" points="400.065 381.74 400.064 382.718 400.88 381.904 400.065 381.74"/>
      <polygon class="cls-8" points="400.064 382.718 401.205 382.72 400.88 381.904 400.064 382.718"/>
      <line class="cls-10" x1="400.062" y1="383.697" x2="400.06" y2="384.676"/>
      <text class="cls-2" transform="translate(398.502 410.539) rotate(-89.901)"><tspan x="0" y="0">160</tspan></text>
      <text class="cls-1" transform="translate(397.147 413.256) rotate(.099)"><tspan x="0" y="0">Toil.</tspan></text>
      <line class="cls-11" x1="423.648" y1="423.052" x2="387.27" y2="422.989"/>
      <line class="cls-11" x1="413.867" y1="418.957" x2="387.277" y2="418.911"/>
      <line class="cls-11" x1="412.732" y1="414.877" x2="387.284" y2="414.833"/>
      <line class="cls-11" x1="417.796" y1="410.807" x2="387.291" y2="410.755"/>
      <line class="cls-11" x1="418.13" y1="406.73" x2="387.298" y2="406.677"/>
      <line class="cls-11" x1="418.137" y1="402.651" x2="387.305" y2="402.598"/>
      <line class="cls-11" x1="418.144" y1="398.573" x2="387.312" y2="398.52"/>
      <line class="cls-11" x1="418.151" y1="394.495" x2="387.319" y2="394.442"/>
      <line class="cls-11" x1="418.158" y1="390.417" x2="387.326" y2="390.364"/>
      <line class="cls-11" x1="418.165" y1="386.338" x2="387.333" y2="386.285"/>
      <line class="cls-11" x1="429.03" y1="423.714" x2="429.03" y2="423.877"/>
      <line class="cls-11" x1="424.953" y1="423.217" x2="424.952" y2="423.87"/>
      <line class="cls-11" x1="420.876" y1="422.395" x2="420.874" y2="423.863"/>
      <line class="cls-11" x1="416.866" y1="382.747" x2="416.817" y2="411.132"/>
      <line class="cls-11" x1="416.801" y1="420.267" x2="416.795" y2="423.856"/>
      <line class="cls-11" x1="412.788" y1="382.74" x2="412.733" y2="414.387"/>
      <line class="cls-11" x1="412.727" y1="418.302" x2="412.717" y2="423.849"/>
      <line class="cls-11" x1="408.71" y1="382.733" x2="408.639" y2="423.842"/>
      <line class="cls-11" x1="404.631" y1="382.726" x2="404.561" y2="423.835"/>
      <line class="cls-11" x1="400.553" y1="382.719" x2="400.482" y2="423.828"/>
      <line class="cls-11" x1="396.475" y1="382.712" x2="396.404" y2="423.821"/>
      <line class="cls-11" x1="392.397" y1="382.705" x2="392.326" y2="423.814"/>
      <line class="cls-11" x1="388.318" y1="382.698" x2="388.248" y2="423.807"/>
      <line class="cls-5" x1="387.297" y1="407.166" x2="384.687" y2="407.161"/>
      <line class="cls-10" x1="387.326" y1="390.364" x2="387.315" y2="396.726"/>
      <line class="cls-10" x1="431.042" y1="392.07" x2="431.034" y2="396.801"/>
      <line class="cls-10" x1="389.277" y1="394.282" x2="428.918" y2="394.35"/>
      <polygon class="cls-14" points="386.503 394.93 387.318 395.257 387.319 394.279 386.503 394.93"/>
      <polygon class="cls-14" points="386.341 394.277 386.503 394.93 387.319 394.279 386.341 394.277"/>
      <polygon class="cls-14" points="387.318 395.257 387.971 394.932 387.319 394.279 387.318 395.257"/>
      <polygon class="cls-8" points="387.318 395.257 387.971 394.932 387.319 394.279 387.318 395.257"/>
      <polygon class="cls-8" points="386.341 394.277 386.503 394.93 387.319 394.279 386.341 394.277"/>
      <polygon class="cls-8" points="386.503 394.93 387.318 395.257 387.319 394.279 386.503 394.93"/>
      <polygon class="cls-14" points="387.321 393.137 387.319 394.279 387.974 393.464 387.321 393.137"/>
      <polygon class="cls-14" points="387.971 394.932 388.298 394.28 387.319 394.279 387.971 394.932"/>
      <polygon class="cls-14" points="387.319 394.279 388.298 394.28 387.974 393.464 387.319 394.279"/>
      <polygon class="cls-8" points="387.321 393.137 387.319 394.279 387.974 393.464 387.321 393.137"/>
      <polygon class="cls-8" points="387.971 394.932 388.298 394.28 387.319 394.279 387.971 394.932"/>
      <polygon class="cls-8" points="387.319 394.279 388.298 394.28 387.974 393.464 387.319 394.279"/>
      <polygon class="cls-14" points="387.319 394.279 387.321 393.137 386.505 393.462 387.319 394.279"/>
      <polygon class="cls-14" points="386.341 394.277 387.319 394.279 386.505 393.462 386.341 394.277"/>
      <polygon class="cls-8" points="386.341 394.277 387.319 394.279 386.505 393.462 386.341 394.277"/>
      <polygon class="cls-8" points="387.319 394.279 387.321 393.137 386.505 393.462 387.319 394.279"/>
      <line class="cls-10" x1="388.298" y1="394.28" x2="389.277" y2="394.282"/>
      <polygon class="cls-14" points="430.224 393.537 431.038 394.354 431.04 393.212 430.224 393.537"/>
      <polygon class="cls-14" points="431.038 394.354 432.017 394.356 431.692 393.539 431.038 394.354"/>
      <polygon class="cls-14" points="431.04 393.212 431.038 394.354 431.692 393.539 431.04 393.212"/>
      <polygon class="cls-8" points="430.224 393.537 431.038 394.354 431.04 393.212 430.224 393.537"/>
      <polygon class="cls-8" points="431.038 394.354 432.017 394.356 431.692 393.539 431.038 394.354"/>
      <polygon class="cls-8" points="431.04 393.212 431.038 394.354 431.692 393.539 431.04 393.212"/>
      <polygon class="cls-14" points="431.037 395.333 431.038 394.354 430.222 395.005 431.037 395.333"/>
      <polygon class="cls-14" points="430.222 395.005 431.038 394.354 429.896 394.352 430.222 395.005"/>
      <polygon class="cls-14" points="429.896 394.352 431.038 394.354 430.224 393.537 429.896 394.352"/>
      <polygon class="cls-8" points="429.896 394.352 431.038 394.354 430.224 393.537 429.896 394.352"/>
      <polygon class="cls-8" points="431.037 395.333 431.038 394.354 430.222 395.005 431.037 395.333"/>
      <polygon class="cls-8" points="430.222 395.005 431.038 394.354 429.896 394.352 430.222 395.005"/>
      <polygon class="cls-14" points="431.69 395.007 432.017 394.356 431.038 394.354 431.69 395.007"/>
      <polygon class="cls-14" points="431.037 395.333 431.69 395.007 431.038 394.354 431.037 395.333"/>
      <polygon class="cls-8" points="431.69 395.007 432.017 394.356 431.038 394.354 431.69 395.007"/>
      <polygon class="cls-8" points="431.037 395.333 431.69 395.007 431.038 394.354 431.037 395.333"/>
      <line class="cls-10" x1="429.896" y1="394.352" x2="428.918" y2="394.35"/>
      <text class="cls-1" transform="translate(401.749 392.872) rotate(.099)"><tspan x="0" y="0">170</tspan></text>
      <line class="cls-5" x1="387.269" y1="423.805" x2="389.879" y2="423.81"/>
      <line class="cls-5" x1="384.723" y1="386.607" x2="384.734" y2="380.082"/>
      <path class="cls-15" d="M387.339,382.696l43.719.075-43.719-.075Z"/>
      <path class="cls-9" d="M387.339,382.696l43.719.075-43.719-.075Z"/>
      <polygon class="cls-15" points="384.73 382.692 431.058 382.772 384.734 380.082 384.73 382.692"/>
      <polygon class="cls-15" points="431.058 382.772 431.063 380.161 384.734 380.082 431.058 382.772"/>
      <polygon class="cls-9" points="384.73 382.692 431.058 382.772 384.734 380.082 384.73 382.692"/>
      <polygon class="cls-9" points="431.058 382.772 431.063 380.161 384.734 380.082 431.058 382.772"/>
      <polygon class="cls-15" points="384.723 386.607 387.333 386.612 384.73 382.692 384.723 386.607"/>
      <polygon class="cls-15" points="387.333 386.612 387.339 382.696 384.73 382.692 387.333 386.612"/>
      <polygon class="cls-9" points="387.333 386.612 387.339 382.696 384.73 382.692 387.333 386.612"/>
      <polygon class="cls-9" points="384.723 386.607 387.333 386.612 384.73 382.692 384.723 386.607"/>
      <polyline class="cls-5" points="431.063 380.162 384.734 380.082 384.723 386.607 387.333 386.612 387.339 382.696 431.058 382.772 431.063 380.162"/>
      <line class="cls-5" x1="438.656" y1="422.752" x2="430.989" y2="422.738"/>
      <line class="cls-5" x1="431.016" y1="407.241" x2="438.683" y2="407.254"/>
      <polygon class="cls-15" points="431.016 407.241 438.683 407.254 431.066 378.367 431.016 407.241"/>
      <polygon class="cls-15" points="438.683 407.254 438.733 378.38 431.066 378.367 438.683 407.254"/>
      <polygon class="cls-9" points="438.683 407.254 438.733 378.38 431.066 378.367 438.683 407.254"/>
      <polygon class="cls-9" points="431.016 407.241 438.683 407.254 431.066 378.367 431.016 407.241"/>
      <polyline class="cls-5" points="431.016 407.241 438.683 407.254 438.733 378.38 431.066 378.367 431.016 407.241"/>
      <text class="cls-3" transform="translate(347.084 240.307) rotate(-89.901) scale(1 1.25)"><tspan x="0" y="0">MCF1H</tspan></text>
      <text class="cls-1" transform="translate(409.042 232.038) rotate(.099)"><tspan x="0" y="0" xml:space="preserve"> Bureau 03</tspan></text>
      <text class="cls-1" transform="translate(411.142 243.952) rotate(.099)"><tspan x="0" y="0">S-61.80 m</tspan></text>
      <polyline class="cls-5" points="410.755 237.062 454.31 237.137 454.297 244.967 410.741 244.892 410.755 237.062"/>
      <text class="cls-1" transform="translate(413.887 260.105) rotate(.099)"><tspan x="0" y="0">H.S.P.5.25</tspan></text>
      <line class="cls-10" x1="342.243" y1="424.87" x2="342.244" y2="424.543"/>
      <polygon class="cls-14" points="341.269 421.931 341.595 422.585 342.248 421.933 341.269 421.931"/>
      <polygon class="cls-14" points="342.246 422.912 342.9 422.587 342.248 421.933 342.246 422.912"/>
      <polygon class="cls-14" points="341.595 422.585 342.246 422.912 342.248 421.933 341.595 422.585"/>
      <polygon class="cls-8" points="341.269 421.931 341.595 422.585 342.248 421.933 341.269 421.931"/>
      <polygon class="cls-8" points="341.595 422.585 342.246 422.912 342.248 421.933 341.595 422.585"/>
      <polygon class="cls-8" points="342.246 422.912 342.9 422.587 342.248 421.933 342.246 422.912"/>
      <polygon class="cls-14" points="342.9 422.587 343.227 421.935 342.248 421.933 342.9 422.587"/>
      <polygon class="cls-14" points="342.248 421.933 343.227 421.935 342.902 421.282 342.248 421.933"/>
      <polygon class="cls-14" points="342.25 420.954 342.248 421.933 342.902 421.282 342.25 420.954"/>
      <polygon class="cls-8" points="342.25 420.954 342.248 421.933 342.902 421.282 342.25 420.954"/>
      <polygon class="cls-8" points="342.9 422.587 343.227 421.935 342.248 421.933 342.9 422.587"/>
      <polygon class="cls-8" points="342.248 421.933 343.227 421.935 342.902 421.282 342.248 421.933"/>
      <polygon class="cls-14" points="341.269 421.931 342.248 421.933 341.597 421.28 341.269 421.931"/>
      <polygon class="cls-14" points="342.248 421.933 342.25 420.954 341.597 421.28 342.248 421.933"/>
      <polygon class="cls-8" points="341.269 421.931 342.248 421.933 341.597 421.28 341.269 421.931"/>
      <polygon class="cls-8" points="342.248 421.933 342.25 420.954 341.597 421.28 342.248 421.933"/>
      <line class="cls-10" x1="343.227" y1="421.935" x2="344.369" y2="421.937"/>
      <text class="cls-1" transform="translate(432.533 420.657) rotate(.099)"><tspan x="0" y="0">755</tspan></text>
      <line class="cls-10" x1="505.577" y1="306.229" x2="507.535" y2="306.232"/>
      <line class="cls-10" x1="505.834" y1="156.965" x2="507.792" y2="156.969"/>
      <line class="cls-10" x1="504.928" y1="304.107" x2="505.178" y2="159.085"/>
      <polygon class="cls-14" points="505.739 306.882 505.903 306.229 504.925 306.228 505.739 306.882"/>
      <polygon class="cls-14" points="504.923 307.206 505.739 306.882 504.925 306.228 504.923 307.206"/>
      <polygon class="cls-14" points="504.925 306.228 505.903 306.229 505.741 305.577 504.925 306.228"/>
      <polygon class="cls-8" points="505.739 306.882 505.903 306.229 504.925 306.228 505.739 306.882"/>
      <polygon class="cls-8" points="504.923 307.206 505.739 306.882 504.925 306.228 504.923 307.206"/>
      <polygon class="cls-8" points="504.925 306.228 505.903 306.229 505.741 305.577 504.925 306.228"/>
      <polygon class="cls-14" points="504.925 306.228 505.741 305.577 504.926 305.249 504.925 306.228"/>
      <polygon class="cls-14" points="503.946 306.226 504.925 306.228 504.273 305.574 503.946 306.226"/>
      <polygon class="cls-14" points="504.273 305.574 504.925 306.228 504.926 305.249 504.273 305.574"/>
      <polygon class="cls-8" points="503.946 306.226 504.925 306.228 504.273 305.574 503.946 306.226"/>
      <polygon class="cls-8" points="504.925 306.228 505.741 305.577 504.926 305.249 504.925 306.228"/>
      <polygon class="cls-8" points="504.273 305.574 504.925 306.228 504.926 305.249 504.273 305.574"/>
      <polygon class="cls-14" points="504.923 307.206 504.925 306.228 504.271 306.879 504.923 307.206"/>
      <polygon class="cls-14" points="504.271 306.879 504.925 306.228 503.946 306.226 504.271 306.879"/>
      <polygon class="cls-8" points="504.923 307.206 504.925 306.228 504.271 306.879 504.923 307.206"/>
      <polygon class="cls-8" points="504.271 306.879 504.925 306.228 503.946 306.226 504.271 306.879"/>
      <line class="cls-10" x1="504.926" y1="305.249" x2="504.928" y2="304.107"/>
      <polygon class="cls-14" points="504.203 156.963 505.182 156.964 504.53 156.31 504.203 156.963"/>
      <polygon class="cls-14" points="504.528 157.779 505.182 156.964 504.203 156.963 504.528 157.779"/>
      <polygon class="cls-14" points="505.182 156.964 505.183 155.985 504.53 156.31 505.182 156.964"/>
      <polygon class="cls-8" points="505.182 156.964 505.183 155.985 504.53 156.31 505.182 156.964"/>
      <polygon class="cls-8" points="504.528 157.779 505.182 156.964 504.203 156.963 504.528 157.779"/>
      <polygon class="cls-8" points="504.203 156.963 505.182 156.964 504.53 156.31 504.203 156.963"/>
      <polygon class="cls-14" points="505.18 158.106 505.996 157.781 505.182 156.964 505.18 158.106"/>
      <polygon class="cls-14" points="504.528 157.779 505.18 158.106 505.182 156.964 504.528 157.779"/>
      <polygon class="cls-14" points="505.996 157.781 506.16 156.966 505.182 156.964 505.996 157.781"/>
      <polygon class="cls-8" points="504.528 157.779 505.18 158.106 505.182 156.964 504.528 157.779"/>
      <polygon class="cls-8" points="505.18 158.106 505.996 157.781 505.182 156.964 505.18 158.106"/>
      <polygon class="cls-8" points="505.996 157.781 506.16 156.966 505.182 156.964 505.996 157.781"/>
      <polygon class="cls-14" points="505.182 156.964 506.16 156.966 505.998 156.313 505.182 156.964"/>
      <polygon class="cls-14" points="505.183 155.985 505.182 156.964 505.998 156.313 505.183 155.985"/>
      <polygon class="cls-8" points="505.182 156.964 506.16 156.966 505.998 156.313 505.182 156.964"/>
      <polygon class="cls-8" points="505.183 155.985 505.182 156.964 505.998 156.313 505.183 155.985"/>
      <line class="cls-10" x1="505.18" y1="158.106" x2="505.178" y2="159.085"/>
      <text class="cls-2" transform="translate(503.524 238.62) rotate(-89.901)"><tspan x="0" y="0">580</tspan></text>
      <polygon class="cls-4" points="350.512 359.306 351.491 359.307 351.002 359.143 350.512 359.306"/>
      <polygon class="cls-7" points="350.512 359.306 351.491 359.307 351.002 359.143 350.512 359.306"/>
      <polygon class="cls-4" points="350.023 359.468 351.98 359.471 350.512 359.306 350.023 359.468"/>
      <polygon class="cls-4" points="350.512 359.306 351.98 359.471 351.491 359.307 350.512 359.306"/>
      <polygon class="cls-7" points="350.512 359.306 351.98 359.471 351.491 359.307 350.512 359.306"/>
      <polygon class="cls-7" points="350.023 359.468 351.98 359.471 350.512 359.306 350.023 359.468"/>
      <polygon class="cls-4" points="350.023 359.468 352.469 359.635 351.98 359.471 350.023 359.468"/>
      <polygon class="cls-4" points="349.533 359.63 352.469 359.635 350.023 359.468 349.533 359.63"/>
      <polygon class="cls-7" points="349.533 359.63 352.469 359.635 350.023 359.468 349.533 359.63"/>
      <polygon class="cls-7" points="350.023 359.468 352.469 359.635 351.98 359.471 350.023 359.468"/>
      <polygon class="cls-4" points="349.206 359.956 352.795 359.962 349.533 359.63 349.206 359.956"/>
      <polygon class="cls-4" points="349.533 359.63 352.795 359.962 352.469 359.635 349.533 359.63"/>
      <polygon class="cls-7" points="349.206 359.956 352.795 359.962 349.533 359.63 349.206 359.956"/>
      <polygon class="cls-7" points="349.533 359.63 352.795 359.962 352.469 359.635 349.533 359.63"/>
      <polygon class="cls-4" points="348.88 360.282 353.121 360.289 349.206 359.956 348.88 360.282"/>
      <polygon class="cls-4" points="349.206 359.956 353.121 360.289 352.795 359.962 349.206 359.956"/>
      <polygon class="cls-7" points="348.88 360.282 353.121 360.289 349.206 359.956 348.88 360.282"/>
      <polygon class="cls-7" points="349.206 359.956 353.121 360.289 352.795 359.962 349.206 359.956"/>
      <polygon class="cls-4" points="348.88 360.282 353.446 360.779 353.121 360.289 348.88 360.282"/>
      <polygon class="cls-4" points="348.552 360.77 353.446 360.779 348.88 360.282 348.552 360.77"/>
      <polygon class="cls-7" points="348.552 360.77 353.446 360.779 348.88 360.282 348.552 360.77"/>
      <polygon class="cls-7" points="348.88 360.282 353.446 360.779 353.121 360.289 348.88 360.282"/>
      <polygon class="cls-4" points="348.388 361.259 353.609 361.268 348.552 360.77 348.388 361.259"/>
      <polygon class="cls-4" points="348.552 360.77 353.609 361.268 353.446 360.779 348.552 360.77"/>
      <polygon class="cls-7" points="348.388 361.259 353.609 361.268 348.552 360.77 348.388 361.259"/>
      <polygon class="cls-7" points="348.552 360.77 353.609 361.268 353.446 360.779 348.552 360.77"/>
      <polygon class="cls-4" points="348.224 361.748 353.608 361.758 348.388 361.259 348.224 361.748"/>
      <polygon class="cls-4" points="353.608 361.758 353.609 361.268 348.388 361.259 353.608 361.758"/>
      <polygon class="cls-7" points="348.224 361.748 353.608 361.758 348.388 361.259 348.224 361.748"/>
      <polygon class="cls-7" points="353.608 361.758 353.609 361.268 348.388 361.259 353.608 361.758"/>
      <polygon class="cls-4" points="348.387 362.238 353.607 362.247 348.224 361.748 348.387 362.238"/>
      <polygon class="cls-4" points="353.607 362.247 353.608 361.758 348.224 361.748 353.607 362.247"/>
      <polygon class="cls-7" points="353.607 362.247 353.608 361.758 348.224 361.748 353.607 362.247"/>
      <polygon class="cls-7" points="348.387 362.238 353.607 362.247 348.224 361.748 348.387 362.238"/>
      <polygon class="cls-4" points="348.386 362.727 353.443 362.736 348.387 362.238 348.386 362.727"/>
      <polygon class="cls-4" points="353.443 362.736 353.607 362.247 348.387 362.238 353.443 362.736"/>
      <polygon class="cls-7" points="353.443 362.736 353.607 362.247 348.387 362.238 353.443 362.736"/>
      <polygon class="cls-7" points="348.386 362.727 353.443 362.736 348.387 362.238 348.386 362.727"/>
      <polygon class="cls-4" points="348.711 363.218 353.279 363.225 348.386 362.727 348.711 363.218"/>
      <polygon class="cls-4" points="353.279 363.225 353.443 362.736 348.386 362.727 353.279 363.225"/>
      <polygon class="cls-7" points="348.711 363.218 353.279 363.225 348.386 362.727 348.711 363.218"/>
      <polygon class="cls-7" points="353.279 363.225 353.443 362.736 348.386 362.727 353.279 363.225"/>
      <polygon class="cls-4" points="348.873 363.707 352.952 363.714 348.711 363.218 348.873 363.707"/>
      <polygon class="cls-4" points="352.952 363.714 353.279 363.225 348.711 363.218 352.952 363.714"/>
      <polygon class="cls-7" points="348.873 363.707 352.952 363.714 348.711 363.218 348.873 363.707"/>
      <polygon class="cls-7" points="352.952 363.714 353.279 363.225 348.711 363.218 352.952 363.714"/>
      <polygon class="cls-4" points="349.362 364.034 352.625 364.04 348.873 363.707 349.362 364.034"/>
      <polygon class="cls-4" points="352.625 364.04 352.952 363.714 348.873 363.707 352.625 364.04"/>
      <polygon class="cls-7" points="349.362 364.034 352.625 364.04 348.873 363.707 349.362 364.034"/>
      <polygon class="cls-7" points="352.625 364.04 352.952 363.714 348.873 363.707 352.625 364.04"/>
      <polygon class="cls-4" points="349.688 364.198 352.135 364.202 349.362 364.034 349.688 364.198"/>
      <polygon class="cls-4" points="352.135 364.202 352.625 364.04 349.362 364.034 352.135 364.202"/>
      <polygon class="cls-7" points="349.688 364.198 352.135 364.202 349.362 364.034 349.688 364.198"/>
      <polygon class="cls-7" points="352.135 364.202 352.625 364.04 349.362 364.034 352.135 364.202"/>
      <polygon class="cls-4" points="350.177 364.525 351.808 364.528 349.688 364.198 350.177 364.525"/>
      <polygon class="cls-4" points="351.808 364.528 352.135 364.202 349.688 364.198 351.808 364.528"/>
      <polygon class="cls-7" points="350.177 364.525 351.808 364.528 349.688 364.198 350.177 364.525"/>
      <polygon class="cls-7" points="351.808 364.528 352.135 364.202 349.688 364.198 351.808 364.528"/>
      <polygon class="cls-4" points="350.177 364.525 351.156 364.527 350.667 364.526 350.177 364.525"/>
      <polygon class="cls-4" points="350.667 364.526 351.156 364.527 351.808 364.528 350.177 364.525 350.667 364.526"/>
      <polygon class="cls-7" points="350.667 364.526 351.156 364.527 351.808 364.528 350.177 364.525 350.667 364.526"/>
      <polygon class="cls-7" points="350.177 364.525 351.156 364.527 350.667 364.526 350.177 364.525"/>
      <text class="cls-3" transform="translate(347.193 366.242) rotate(-89.901) scale(1 1.25)"><tspan x="0" y="0">EXT</tspan></text>
      <path class="cls-5" d="M353.608,361.839c.003-1.487-1.2-2.694-2.687-2.696-1.487-.003-2.694,1.2-2.696,2.687-.003,1.487,1.2,2.694,2.687,2.696s2.694-1.2,2.696-2.687"/>
      <line class="cls-11" x1="438.836" y1="318.675" x2="444.065" y2="313.464"/>
      <line class="cls-11" x1="438.816" y1="329.768" x2="449.438" y2="319.183"/>
      <line class="cls-11" x1="454.994" y1="313.646" x2="455.157" y2="313.483"/>
      <line class="cls-11" x1="438.798" y1="340.697" x2="449.419" y2="330.112"/>
      <line class="cls-11" x1="454.975" y1="324.739" x2="466.25" y2="313.502"/>
      <line class="cls-11" x1="438.779" y1="351.79" x2="449.4" y2="341.205"/>
      <line class="cls-11" x1="477.18" y1="313.684" x2="477.18" y2="313.521"/>
      <line class="cls-11" x1="438.759" y1="362.883" x2="449.381" y2="352.298"/>
      <line class="cls-11" x1="477.161" y1="324.777" x2="488.273" y2="313.54"/>
      <line class="cls-11" x1="438.74" y1="373.976" x2="449.362" y2="363.391"/>
      <line class="cls-11" x1="499.202" y1="313.722" x2="499.366" y2="313.559"/>
      <line class="cls-11" x1="438.721" y1="385.069" x2="449.343" y2="374.484"/>
      <line class="cls-11" x1="499.183" y1="324.815" x2="510.458" y2="313.578"/>
      <line class="cls-11" x1="438.702" y1="396.162" x2="449.324" y2="385.576"/>
      <line class="cls-11" x1="521.388" y1="313.76" x2="521.551" y2="313.597"/>
      <line class="cls-11" x1="438.683" y1="407.254" x2="449.305" y2="396.669"/>
      <line class="cls-11" x1="521.369" y1="324.853" x2="532.644" y2="313.616"/>
      <line class="cls-11" x1="438.664" y1="418.347" x2="449.286" y2="407.762"/>
      <line class="cls-11" x1="438.645" y1="429.277" x2="449.267" y2="418.692"/>
      <line class="cls-11" x1="460.512" y1="330.131" x2="443.901" y2="313.627"/>
      <line class="cls-11" x1="460.531" y1="319.202" x2="454.831" y2="313.482"/>
      <line class="cls-11" x1="482.535" y1="330.169" x2="466.087" y2="313.665"/>
      <line class="cls-11" x1="482.553" y1="319.24" x2="477.017" y2="313.52"/>
      <line class="cls-11" x1="504.72" y1="330.207" x2="488.109" y2="313.703"/>
      <line class="cls-11" x1="504.739" y1="319.278" x2="499.039" y2="313.558"/>
      <line class="cls-11" x1="526.906" y1="330.246" x2="510.295" y2="313.741"/>
      <line class="cls-11" x1="536.37" y1="328.631" x2="532.462" y2="324.872"/>
      <line class="cls-11" x1="526.925" y1="319.316" x2="521.225" y2="313.597"/>
      <line class="cls-11" x1="536.389" y1="317.538" x2="532.481" y2="313.779"/>
      <line class="cls-10" x1="337.317" y1="349.006" x2="337.316" y2="349.169"/>
      <polygon class="cls-14" points="336.498 350.962 337.312 351.616 337.314 350.637 336.498 350.962"/>
      <polygon class="cls-14" points="337.314 350.637 337.312 351.616 337.966 350.964 337.314 350.637"/>
      <polygon class="cls-14" points="337.312 351.616 338.291 351.617 337.966 350.964 337.312 351.616"/>
      <polygon class="cls-8" points="336.498 350.962 337.312 351.616 337.314 350.637 336.498 350.962"/>
      <polygon class="cls-8" points="337.312 351.616 338.291 351.617 337.966 350.964 337.312 351.616"/>
      <polygon class="cls-8" points="337.314 350.637 337.312 351.616 337.966 350.964 337.314 350.637"/>
      <polygon class="cls-14" points="337.31 352.758 337.312 351.616 336.495 352.43 337.31 352.758"/>
      <polygon class="cls-14" points="336.495 352.43 337.312 351.616 336.333 351.614 336.495 352.43"/>
      <polygon class="cls-14" points="336.333 351.614 337.312 351.616 336.498 350.962 336.333 351.614"/>
      <polygon class="cls-8" points="337.31 352.758 337.312 351.616 336.495 352.43 337.31 352.758"/>
      <polygon class="cls-8" points="336.333 351.614 337.312 351.616 336.498 350.962 336.333 351.614"/>
      <polygon class="cls-8" points="336.495 352.43 337.312 351.616 336.333 351.614 336.495 352.43"/>
      <polygon class="cls-14" points="337.31 352.758 337.963 352.432 337.312 351.616 337.31 352.758"/>
      <polygon class="cls-14" points="337.963 352.432 338.291 351.617 337.312 351.616 337.963 352.432"/>
      <polygon class="cls-8" points="337.31 352.758 337.963 352.432 337.312 351.616 337.31 352.758"/>
      <polygon class="cls-8" points="337.963 352.432 338.291 351.617 337.312 351.616 337.963 352.432"/>
      <line class="cls-10" x1="336.333" y1="351.614" x2="335.191" y2="351.612"/>
      <line class="cls-5" x1="337.179" y1="428.776" x2="430.979" y2="428.937"/>
      <line class="cls-10" x1="442.435" y1="407.261" x2="453.854" y2="407.28"/>
      <line class="cls-10" x1="442.409" y1="422.758" x2="453.828" y2="422.778"/>
      <line class="cls-10" x1="451.404" y1="409.397" x2="451.384" y2="420.653"/>
      <polygon class="cls-14" points="450.265 407.274 451.407 407.276 450.593 406.622 450.265 407.274"/>
      <polygon class="cls-14" points="450.59 407.927 451.407 407.276 450.265 407.274 450.59 407.927"/>
      <polygon class="cls-14" points="451.407 407.276 451.409 406.297 450.593 406.622 451.407 407.276"/>
      <polygon class="cls-8" points="450.59 407.927 451.407 407.276 450.265 407.274 450.59 407.927"/>
      <polygon class="cls-8" points="450.265 407.274 451.407 407.276 450.593 406.622 450.265 407.274"/>
      <polygon class="cls-8" points="451.407 407.276 451.409 406.297 450.593 406.622 451.407 407.276"/>
      <polygon class="cls-14" points="450.59 407.927 451.406 408.255 451.407 407.276 450.59 407.927"/>
      <polygon class="cls-14" points="452.059 407.93 452.386 407.278 451.407 407.276 452.059 407.93"/>
      <polygon class="cls-14" points="451.406 408.255 452.059 407.93 451.407 407.276 451.406 408.255"/>
      <polygon class="cls-8" points="450.59 407.927 451.406 408.255 451.407 407.276 450.59 407.927"/>
      <polygon class="cls-8" points="452.059 407.93 452.386 407.278 451.407 407.276 452.059 407.93"/>
      <polygon class="cls-8" points="451.406 408.255 452.059 407.93 451.407 407.276 451.406 408.255"/>
      <polygon class="cls-14" points="451.409 406.297 451.407 407.276 452.061 406.625 451.409 406.297"/>
      <polygon class="cls-14" points="451.407 407.276 452.386 407.278 452.061 406.625 451.407 407.276"/>
      <polygon class="cls-8" points="451.409 406.297 451.407 407.276 452.061 406.625 451.409 406.297"/>
      <polygon class="cls-8" points="451.407 407.276 452.386 407.278 452.061 406.625 451.407 407.276"/>
      <line class="cls-10" x1="451.406" y1="408.255" x2="451.404" y2="409.397"/>
      <polygon class="cls-14" points="451.379 423.752 452.032 423.427 451.38 422.774 451.379 423.752"/>
      <polygon class="cls-14" points="451.38 422.774 452.36 422.775 452.035 421.959 451.38 422.774"/>
      <polygon class="cls-14" points="452.032 423.427 452.36 422.775 451.38 422.774 452.032 423.427"/>
      <polygon class="cls-8" points="451.38 422.774 452.36 422.775 452.035 421.959 451.38 422.774"/>
      <polygon class="cls-8" points="451.379 423.752 452.032 423.427 451.38 422.774 451.379 423.752"/>
      <polygon class="cls-8" points="452.032 423.427 452.36 422.775 451.38 422.774 452.032 423.427"/>
      <polygon class="cls-14" points="450.239 422.772 451.38 422.774 450.567 421.956 450.239 422.772"/>
      <polygon class="cls-14" points="451.38 422.774 452.035 421.959 451.382 421.632 451.38 422.774"/>
      <polygon class="cls-14" points="450.567 421.956 451.38 422.774 451.382 421.632 450.567 421.956"/>
      <polygon class="cls-8" points="450.567 421.956 451.38 422.774 451.382 421.632 450.567 421.956"/>
      <polygon class="cls-8" points="450.239 422.772 451.38 422.774 450.567 421.956 450.239 422.772"/>
      <polygon class="cls-8" points="451.38 422.774 452.035 421.959 451.382 421.632 451.38 422.774"/>
      <polygon class="cls-14" points="451.379 423.752 451.38 422.774 450.564 423.425 451.379 423.752"/>
      <polygon class="cls-14" points="450.564 423.425 451.38 422.774 450.239 422.772 450.564 423.425"/>
      <polygon class="cls-8" points="451.379 423.752 451.38 422.774 450.564 423.425 451.379 423.752"/>
      <polygon class="cls-8" points="450.564 423.425 451.38 422.774 450.239 422.772 450.564 423.425"/>
      <line class="cls-10" x1="451.383" y1="421.632" x2="451.384" y2="420.653"/>
      <text class="cls-2" transform="translate(449.709 419.597) rotate(-89.901)"><tspan x="0" y="0">60</tspan></text>
      <polygon class="cls-15" points="430.989 422.738 430.975 431.153 435.224 431.153 430.989 422.738"/>
      <polygon class="cls-15" points="430.989 422.738 435.224 431.153 438.642 431.153 438.656 422.752 430.989 422.738"/>
      <polygon class="cls-9" points="430.989 422.738 430.975 431.153 435.224 431.153 430.989 422.738"/>
      <polygon class="cls-9" points="430.989 422.738 435.224 431.153 438.642 431.153 438.656 422.752 430.989 422.738"/>
      <polygon class="cls-15" points="337.179 428.776 430.979 428.937 337.188 423.719 337.179 428.776"/>
      <polygon class="cls-15" points="430.979 428.937 430.987 423.88 337.188 423.719 430.979 428.937"/>
      <polygon class="cls-9" points="430.979 428.937 430.987 423.88 337.188 423.719 430.979 428.937"/>
      <polygon class="cls-9" points="337.179 428.776 430.979 428.937 337.188 423.719 337.179 428.776"/>
      <polyline class="cls-5" points="337.179 428.776 430.979 428.937 430.987 423.88 337.188 423.719 337.179 428.776"/>
      <line class="cls-10" x1="390.196" y1="428.867" x2="391.991" y2="428.87"/>
      <polygon class="cls-14" points="388.402 428.864 389.381 428.866 388.729 428.212 388.402 428.864"/>
      <polygon class="cls-14" points="388.727 429.68 389.381 428.866 388.402 428.864 388.727 429.68"/>
      <polygon class="cls-14" points="389.381 428.866 389.382 427.887 388.729 428.212 389.381 428.866"/>
      <polygon class="cls-8" points="388.402 428.864 389.381 428.866 388.729 428.212 388.402 428.864"/>
      <polygon class="cls-8" points="388.727 429.68 389.381 428.866 388.402 428.864 388.727 429.68"/>
      <polygon class="cls-8" points="389.381 428.866 389.382 427.887 388.729 428.212 389.381 428.866"/>
      <polygon class="cls-14" points="388.727 429.68 389.379 430.008 389.381 428.866 388.727 429.68"/>
      <polygon class="cls-14" points="390.032 429.682 390.36 428.868 389.381 428.866 390.032 429.682"/>
      <polygon class="cls-14" points="389.379 430.008 390.032 429.682 389.381 428.866 389.379 430.008"/>
      <polygon class="cls-8" points="388.727 429.68 389.379 430.008 389.381 428.866 388.727 429.68"/>
      <polygon class="cls-8" points="390.032 429.682 390.36 428.868 389.381 428.866 390.032 429.682"/>
      <polygon class="cls-8" points="389.379 430.008 390.032 429.682 389.381 428.866 389.379 430.008"/>
      <polygon class="cls-14" points="389.382 427.887 389.381 428.866 390.034 428.214 389.382 427.887"/>
      <polygon class="cls-14" points="389.381 428.866 390.36 428.868 390.034 428.214 389.381 428.866"/>
      <polygon class="cls-8" points="389.382 427.887 389.381 428.866 390.034 428.214 389.382 427.887"/>
      <polygon class="cls-8" points="389.381 428.866 390.36 428.868 390.034 428.214 389.381 428.866"/>
      <line class="cls-10" x1="389.379" y1="430.008" x2="389.377" y2="430.986"/>
      <line class="cls-10" x1="342.611" y1="211.007" x2="342.609" y2="211.985"/>
      <line class="cls-10" x1="536.573" y1="211.014" x2="536.57" y2="212.319"/>
      <line class="cls-10" x1="344.725" y1="214.599" x2="534.608" y2="214.926"/>
      <polygon class="cls-14" points="341.626 214.594 341.951 215.247 342.605 214.596 341.626 214.594"/>
      <polygon class="cls-14" points="341.951 215.247 342.603 215.574 342.605 214.596 341.951 215.247"/>
      <polygon class="cls-14" points="342.603 215.574 343.256 215.249 342.605 214.596 342.603 215.574"/>
      <polygon class="cls-8" points="341.951 215.247 342.603 215.574 342.605 214.596 341.951 215.247"/>
      <polygon class="cls-8" points="341.626 214.594 341.951 215.247 342.605 214.596 341.626 214.594"/>
      <polygon class="cls-8" points="342.603 215.574 343.256 215.249 342.605 214.596 342.603 215.574"/>
      <polygon class="cls-14" points="343.256 215.249 343.584 214.597 342.605 214.596 343.256 215.249"/>
      <polygon class="cls-14" points="342.605 214.596 343.584 214.597 343.259 213.781 342.605 214.596"/>
      <polygon class="cls-14" points="342.607 213.453 342.605 214.596 343.259 213.781 342.607 213.453"/>
      <polygon class="cls-8" points="343.256 215.249 343.584 214.597 342.605 214.596 343.256 215.249"/>
      <polygon class="cls-8" points="342.605 214.596 343.584 214.597 343.259 213.781 342.605 214.596"/>
      <polygon class="cls-8" points="342.607 213.453 342.605 214.596 343.259 213.781 342.607 213.453"/>
      <polygon class="cls-14" points="341.626 214.594 342.605 214.596 341.954 213.779 341.626 214.594"/>
      <polygon class="cls-14" points="342.605 214.596 342.607 213.453 341.954 213.779 342.605 214.596"/>
      <polygon class="cls-8" points="341.626 214.594 342.605 214.596 341.954 213.779 341.626 214.594"/>
      <polygon class="cls-8" points="342.605 214.596 342.607 213.453 341.954 213.779 342.605 214.596"/>
      <line class="cls-10" x1="343.584" y1="214.597" x2="344.725" y2="214.599"/>
      <polygon class="cls-14" points="536.568 213.787 536.566 214.929 537.383 214.115 536.568 213.787"/>
      <polygon class="cls-14" points="535.915 214.113 536.566 214.929 536.568 213.787 535.915 214.113"/>
      <polygon class="cls-14" points="536.566 214.929 537.708 214.931 537.383 214.115 536.566 214.929"/>
      <polygon class="cls-8" points="535.915 214.113 536.566 214.929 536.568 213.787 535.915 214.113"/>
      <polygon class="cls-8" points="536.566 214.929 537.708 214.931 537.383 214.115 536.566 214.929"/>
      <polygon class="cls-8" points="536.568 213.787 536.566 214.929 537.383 214.115 536.568 213.787"/>
      <polygon class="cls-14" points="536.564 215.908 536.566 214.929 535.912 215.581 536.564 215.908"/>
      <polygon class="cls-14" points="535.587 214.928 536.566 214.929 535.915 214.113 535.587 214.928"/>
      <polygon class="cls-14" points="535.912 215.581 536.566 214.929 535.587 214.928 535.912 215.581"/>
      <polygon class="cls-8" points="536.564 215.908 536.566 214.929 535.912 215.581 536.564 215.908"/>
      <polygon class="cls-8" points="535.587 214.928 536.566 214.929 535.915 214.113 535.587 214.928"/>
      <polygon class="cls-8" points="535.912 215.581 536.566 214.929 535.587 214.928 535.912 215.581"/>
      <polygon class="cls-14" points="536.564 215.908 537.38 215.583 536.566 214.929 536.564 215.908"/>
      <polygon class="cls-14" points="537.38 215.583 537.708 214.931 536.566 214.929 537.38 215.583"/>
      <polygon class="cls-8" points="536.564 215.908 537.38 215.583 536.566 214.929 536.564 215.908"/>
      <polygon class="cls-8" points="537.38 215.583 537.708 214.931 536.566 214.929 537.38 215.583"/>
      <line class="cls-10" x1="535.587" y1="214.928" x2="534.608" y2="214.926"/>
      <text class="cls-1" transform="translate(432.725 213.319) rotate(.099)"><tspan x="0" y="0">755</tspan></text>
    </g>
  </g>
</svg>