<?xml version="1.0" encoding="UTF-8"?>
<svg id="Layer_2" data-name="Layer 2" xmlns="http://www.w3.org/2000/svg" viewBox="0 0 489.513 489.513">
  <defs>
    <style>
      .cls-1 {
        fill: #231f20;
      }
    </style>
  </defs>
  <g>
    <path class="cls-1" d="M396.485,145.385c-20.771-19.36-35.568-31.973-76.277-46.691-4.588-1.658-8.242-4.95-10.026-9.03-3.413-7.807-11.725-15.684-22.599-15.684-13.994,0-24.548,10.554-24.548,24.548,0,7.864.988,17.745,1.708,24.96.42,4.205.783,7.837.783,9.392,0,.697.059,1.452.12,2.251.211,2.719.473,6.103-1.449,8.178-1.723,1.862-5.314,2.846-10.383,2.846-36.194,0-69.51,26.187-96.279,47.23-17.057,13.406-31.787,24.985-41.302,24.985-2.053,0-3.718,1.664-3.718,3.718s1.665,3.718,3.718,3.718c45.61,0,63.051,3.99,77.065,7.195,5.503,1.259,10.58,2.418,16.607,3.179l-15.787,27.506v57.566l-8.063,1.97c-1.994.486-3.217,2.499-2.729,4.493.414,1.698,1.934,2.837,3.608,2.837.292,0,.589-.035.885-.108l10.194-2.49,17.435,2.557c.183.028.365.04.545.04,1.814,0,3.402-1.33,3.673-3.178.298-2.032-1.107-3.92-3.139-4.217l-14.975-2.196v-55.291l16.508-28.762c2.313.123,4.791.19,7.481.19,3.167,0,6.245-.178,9.239-.504l-8.208,33.17,32.02,51.963-6.37,1.488c-1.999.466-3.241,2.466-2.774,4.466.401,1.715,1.928,2.873,3.617,2.873.28,0,.565-.033.849-.099l10.648-2.487,14.017,2.526c.223.04.445.061.664.061.005,0,.009-.001.014-.001h98.507c2.053,0,3.718-1.664,3.718-3.718v-162.567c0-2.054-1.665-3.718-3.718-3.718s-3.718,1.664-3.718,3.718v158.849h-94.476l-12.809-2.309-32.22-52.288,8.213-33.189c43.753-9.227,66.793-52.419,66.963-76.822.064-9.108-1.225-17.037-2.362-24.032-1.98-12.184-2.71-18.183,2.273-21.394,8.079-5.207,25.072-.419,47.852,13.475,18.239,11.126,33.922,24.262,34.078,24.392,1.544,1.299,3.84,1.129,5.176-.381,1.337-1.509,1.227-3.808-.249-5.183ZM305.601,106.832c-9.298,5.99-7.578,16.577-5.586,28.836,1.09,6.706,2.325,14.306,2.265,22.789-.128,18.438-19.211,62.261-62.991,70.016-.121.014-.239.035-.358.06-3.596.619-7.357.998-11.288,1.097,4.294-1.14,8.095-2.473,11.344-3.811,15.223-6.27,27.106-16.19,32.601-27.218,5.707-11.454,3.795-22.704-5.246-30.864-6.916-6.243-18.171-6.917-26.183-1.572-6.847,4.572-8.699,13.863-4.127,20.71,3.884,5.819,11.779,7.392,17.6,3.508,1.708-1.14,2.168-3.448,1.028-5.155-1.139-1.709-3.447-2.17-5.156-1.029-2.411,1.608-5.679.955-7.288-1.453-2.295-3.437-1.366-8.101,2.072-10.397,5.18-3.456,12.678-3.058,17.072.906,8.295,7.487,6.522,16.112,3.573,22.03-9.552,19.169-42.71,35.464-79.617,28.36-10.803-2.178-25.157-4.27-49.582-5.001,7.832-4.823,16.577-11.696,26.394-19.412,25.869-20.333,58.063-45.639,91.685-45.639,7.401,0,12.582-1.711,15.84-5.23,4.129-4.461,3.675-10.309,3.405-13.803-.049-.635-.098-1.205-.098-1.677,0-1.925-.362-5.547-.82-10.132-.706-7.059-1.671-16.727-1.671-24.22,0-9.916,7.197-17.113,17.113-17.113,7.474,0,13.423,5.82,15.787,11.228,2.052,4.695,5.741,8.649,10.405,11.261-2.998.425-5.751,1.367-8.173,2.927Z"/>
    <path class="cls-1" d="M292.266,93.139c-2.24-1.138-4.781-.633-5.676,1.128-.895,1.761.196,4.111,2.436,5.249,2.24,1.138,4.781.633,5.676-1.128.895-1.761-.196-4.111-2.436-5.249Z"/>
    <path class="cls-1" d="M159.059,323.116h-59.779V48.349h274.766v59.577c0,2.054,1.665,3.718,3.718,3.718s3.718-1.664,3.718-3.718v-63.295c0-2.054-1.665-3.718-3.718-3.718H95.563c-2.053,0-3.718,1.664-3.718,3.718v282.202c0,2.054,1.665,3.718,3.718,3.718h63.496c2.053,0,3.718-1.664,3.718-3.718s-1.665-3.718-3.718-3.718Z"/>
  </g>
  <g>
    <path d="M130.008,440.002h-27.178v-88.383c0-1.026-.832-1.859-1.859-1.859h-4.13c-1.027,0-1.859.833-1.859,1.859v93.871c0,1.026.832,1.859,1.859,1.859h33.167c1.027,0,1.859-.833,1.859-1.859v-3.629c0-1.026-.832-1.859-1.859-1.859Z"/>
    <path d="M175.565,349.76h-33.668c-1.027,0-1.859.833-1.859,1.859v93.871c0,1.026.832,1.859,1.859,1.859h33.668c1.027,0,1.859-.833,1.859-1.859v-3.629c0-1.026-.832-1.859-1.859-1.859h-27.679v-28.198h22.798c1.027,0,1.859-.833,1.859-1.859v-3.631c0-1.026-.832-1.859-1.859-1.859h-22.798v-47.348h27.679c1.027,0,1.859-.833,1.859-1.859v-3.629c0-1.026-.832-1.859-1.859-1.859Z"/>
    <path d="M295.842,439.501h-49.34l28.55-17.844c15.278-9.581,23.025-21.732,23.025-36.119,0-9.94-3.32-18.656-9.867-25.904-6.597-7.3-15.377-11.001-26.098-11.001s-19.759,3.771-26.934,11.207c-7.156,7.417-10.784,16.779-10.784,27.824,0,1.026.832,1.859,1.859,1.859h3.88c1.027,0,1.859-.833,1.859-1.859,0-8.82,2.887-16.417,8.581-22.582,5.734-6.209,12.718-9.228,21.352-9.228s15.322,2.864,20.508,8.757c5.174,5.88,7.797,12.877,7.797,20.799,0,11.862-6.91,22.239-20.539,30.846l-43.681,27.661c-.699.443-1.021,1.294-.79,2.089.23.794.958,1.341,1.785,1.341h68.838c1.027,0,1.859-.833,1.859-1.859v-4.13c0-1.026-.832-1.859-1.859-1.859Z"/>
  </g>
  <path d="M329.468,438.405c-1.747-.881-3.442-1.929-5.066-3.189-.239-.185-.457-.386-.69-.576-.773-.632-1.506-1.291-2.202-1.975-4.365-4.661-5.948-11.587-3.461-17.915,1.262-3.21,3.698-5.737,6.86-7.115,3.162-1.377,6.671-1.443,9.88-.177,4.927,1.938,7.359,7.524,5.423,12.452-.679,1.728-1.99,3.088-3.692,3.829-1.702.741-3.589.775-5.316.095-1.876-.734-4,.184-4.74,2.063-.739,1.879.184,4.001,2.063,4.741,3.545,1.394,7.422,1.324,10.913-.197,3.492-1.521,6.182-4.312,7.576-7.858,3.411-8.678-.874-18.516-9.551-21.931-5.028-1.978-10.524-1.88-15.477.279-4.953,2.157-8.769,6.115-10.745,11.144-.793,2.016-1.267,4.076-1.503,6.134-.984,8.583,2.692,17.117,9.592,22.292l-.077-.043c.07.053.143.098.213.151.122.09.248.176.372.264,6.706,4.962,14.234,7.725,22.309,7.725,10.306,0,19.23-3.655,26.526-10.863,7.302-7.215,11.004-16.082,11.004-26.354s-3.677-19.17-10.929-26.468c-7.258-7.299-16.208-10.999-26.601-10.999-5.326,0-10.461,1.063-15.262,3.159-3.028,1.322-5.737,3.023-8.1,5.084l2.632-25.052h46.013c1.027,0,1.859-.833,1.859-1.859v-3.629c0-1.026-.832-1.859-1.859-1.859h-51.316c-.952,0-1.749.719-1.849,1.665l-4.381,41.804c-.055.524.115,1.047.467,1.438.353.391.855.615,1.381.615h4.381c.61,0,1.181-.299,1.528-.801,2.825-4.081,6.447-7.364,10.763-9.759,4.288-2.378,8.912-3.583,13.742-3.583,8.316,0,15.211,2.908,21.076,8.891,5.875,5.996,8.731,12.982,8.731,21.354s-2.853,15.311-8.723,21.219c-5.865,5.904-12.761,8.775-21.085,8.775-4.488,0-8.729-1.013-12.683-2.972Z"/>
</svg>