<?xml version="1.0" encoding="UTF-8"?>
<svg id="Layer_2" data-name="Layer 2" xmlns="http://www.w3.org/2000/svg" viewBox="0 0 489.513 489.513">
  <defs>
    <style>
      .cls-1 {
        fill: #231f20;
      }
    </style>
  </defs>
  <path class="cls-1" d="M479.749,184.129c-31.211-29.092-53.445-48.044-114.617-70.16-6.894-2.491-12.385-7.437-15.066-13.569-5.129-11.731-17.619-23.567-33.959-23.567-21.029,0-36.886,15.859-36.886,36.887,0,11.816,1.484,26.664,2.567,37.506.631,6.319,1.177,11.776,1.177,14.113,0,1.047.088,2.182.181,3.382.316,4.086.71,9.17-2.177,12.289-2.589,2.799-7.985,4.277-15.602,4.277-54.386,0-104.448,39.35-144.673,70.969-25.63,20.145-47.764,37.544-62.061,37.544-3.085,0-5.586,2.5-5.586,5.586s2.501,5.586,5.586,5.586c68.536,0,94.742,5.995,115.8,10.811,8.269,1.892,15.899,3.633,24.955,4.777l-23.722,41.331v86.501l-12.115,2.96c-2.997.731-4.833,3.755-4.101,6.752.623,2.551,2.907,4.262,5.422,4.262.439,0,.885-.053,1.33-.162l15.318-3.742,26.198,3.842c.275.042.548.06.818.06,2.726,0,5.113-1.998,5.52-4.775.447-3.053-1.664-5.89-4.716-6.337l-22.502-3.3v-83.082l24.805-43.219c3.476.185,7.199.285,11.241.285,4.759,0,9.383-.267,13.883-.757l-12.334,49.843,48.115,78.082-9.572,2.236c-3.004.7-4.871,3.706-4.169,6.71.602,2.577,2.898,4.317,5.435,4.317.42,0,.848-.049,1.276-.149l16-3.737,21.063,3.795c.336.06.668.091.997.091.007,0,.014-.002.02-.002h148.02c3.085,0,5.586-2.5,5.586-5.586v-244.279c0-3.086-2.501-5.586-5.586-5.586s-5.586,2.5-5.586,5.586v238.692h-141.964l-19.248-3.47-48.415-78.57,12.34-49.871c65.744-13.864,100.365-78.766,100.621-115.436.095-13.686-1.84-25.6-3.549-36.111-2.975-18.308-4.072-27.322,3.416-32.147,12.139-7.825,37.675-.629,71.904,20.249,27.407,16.719,50.972,36.456,51.207,36.653,2.32,1.951,5.77,1.697,7.778-.573,2.008-2.268,1.843-5.723-.374-7.788ZM343.184,126.197c-13.972,9.001-11.386,24.909-8.393,43.33,1.638,10.076,3.493,21.496,3.404,34.243-.193,27.706-28.868,93.555-94.652,105.208-.182.021-.36.052-.538.091-5.404.93-11.054,1.5-16.962,1.649,6.452-1.712,12.164-3.717,17.046-5.727,22.875-9.421,40.731-24.327,48.987-40.899,8.575-17.212,5.702-34.116-7.883-46.378-10.392-9.381-27.305-10.394-39.343-2.362-10.289,6.87-13.071,20.83-6.202,31.119,5.836,8.743,17.699,11.107,26.446,5.272,2.566-1.713,3.258-5.181,1.545-7.747-1.712-2.568-5.18-3.26-7.748-1.546-3.622,2.417-8.533,1.435-10.951-2.184-3.449-5.164-2.052-12.173,3.113-15.622,7.784-5.194,19.051-4.595,25.653,1.362,12.464,11.251,9.8,24.211,5.369,33.103-14.353,28.803-64.177,53.289-119.636,42.615-16.232-3.273-37.801-6.417-74.504-7.515,11.769-7.247,24.909-17.575,39.661-29.17,38.871-30.554,87.248-68.579,137.769-68.579,11.121,0,18.906-2.571,23.802-7.859,6.204-6.703,5.523-15.491,5.116-20.741-.074-.955-.147-1.811-.147-2.52,0-2.893-.544-8.336-1.232-15.224-1.06-10.607-2.511-25.135-2.511-36.395,0-14.9,10.814-25.715,25.714-25.715,11.231,0,20.169,8.745,23.723,16.872,3.084,7.056,8.627,12.997,15.635,16.921-4.504.638-8.642,2.055-12.281,4.399Z"/>
  <path class="cls-1" d="M323.146,105.621c-3.366-1.71-7.185-.951-8.529,1.695-1.344,2.646.294,6.178,3.661,7.888,3.366,1.71,7.185.951,8.529-1.695,1.344-2.646-.295-6.178-3.661-7.888Z"/>
  <path class="cls-1" d="M122.984,451.193H33.159V38.318h412.874v89.523c0,3.086,2.501,5.586,5.586,5.586s5.586-2.5,5.586-5.586V32.732c0-3.086-2.501-5.586-5.586-5.586H27.573c-3.085,0-5.586,2.5-5.586,5.586v424.048c0,3.086,2.501,5.586,5.586,5.586h95.412c3.085,0,5.586-2.5,5.586-5.586s-2.501-5.586-5.586-5.586Z"/>
</svg>