<?xml version="1.0" encoding="UTF-8"?>
<svg id="Layer_2" data-name="Layer 2" xmlns="http://www.w3.org/2000/svg" viewBox="0 0 176.78 177.118">
  <defs>
    <style>
      .cls-1 {
        fill: none;
        stroke: #231f20;
        stroke-linecap: round;
        stroke-miterlimit: 10;
        stroke-width: 7px;
      }
    </style>
  </defs>
  <g id="Layer_2-2" data-name="Layer 2">
    <path class="cls-1" d="M15.737,156.672c16.691,20.863,48.205,22.184,69.068,5.493,16.691-13.353,19.396-37.708,6.044-54.399-10.682-13.353-30.166-15.517-43.519-4.835-10.682,8.546-12.414,24.133-3.868,34.815,6.837,8.546,19.307,9.931,27.852,3.094,6.837-5.469,7.945-15.445,2.475-22.282"/>
    <path class="cls-1" d="M78.754,98.596c21.235-1.47,83.351,18.954,92.93,48.936,3.129,9.794-.091,20.397-9.494,24.556-7.522,3.327-16.317-.073-19.645-7.595-2.662-6.018.058-13.054,6.076-15.716,4.814-2.13,10.443.047,12.573,4.861,1.704,3.851-.037,8.354-3.889,10.058"/>
    <path class="cls-1" d="M111.586,104.415c36.199,11.984,32.204,63.788,9.058,67.979-6.148,1.113-12.394-.055-14.921-5.769-2.022-4.571.044-9.915,4.615-11.937,3.657-1.618,7.932.035,9.55,3.692"/>
    <rect class="cls-1" x="3.553" y="3.637" width="169.727" height="169.727"/>
    <path class="cls-1" d="M15.737,156.672C-3.443,132.698.276,97.407,24.418,78.536,60.072,49.006,51.665,20.491,43.617,11.087,35.57,1.683,19.141,1.118,9.513,10.325c-7.702,7.366-7.976,19.581-.61,27.283,5.893,6.162,15.665,6.38,21.827.488,4.93-4.714,5.104-12.532.39-17.461-3.771-3.944-10.025-4.083-13.969-.312"/>
    <path class="cls-1" d="M15.737,156.672C-3.443,132.698.444,97.715,24.418,78.536c42.494-34.317,82.789-19.07,86.587-50.103,1.532-12.517-8.06-23.683-20.616-24.853-10.045-.936-18.947,6.448-19.883,16.493-.749,8.036,5.159,15.157,13.194,15.906,6.429.599,12.126-4.127,12.725-10.556.479-5.143-3.301-9.701-8.444-10.18"/>
    <path class="cls-1" d="M80.13,65.819c46.575,14.267,93.15-1.684,93.022-30.173-.073-16.189-10.348-30.405-26.467-31.907-12.896-1.202-24.324,8.278-25.525,21.174-.961,10.316,6.623,19.459,16.939,20.42,8.253.769,15.567-5.298,16.336-13.551.615-6.603-4.238-12.454-10.841-13.069"/>
    <path class="cls-1" d="M15.737,156.672C-3.443,132.698.444,97.715,24.418,78.536c58.013-42.779,110.963,22.836,122.547,28.402,9.267,4.453,20.389.55,24.843-8.717,3.562-7.414.44-16.312-6.973-19.874-5.931-2.85-13.049-.352-15.899,5.579-2.28,4.745-.282,10.439,4.463,12.719,3.796,1.824,8.352.225,10.175-3.57"/>
  </g>
</svg>