<?xml version="1.0" encoding="UTF-8"?>
<svg id="Layer_2" xmlns="http://www.w3.org/2000/svg" version="1.1" viewBox="0 0 489.5 489.5">
  <!-- Generator: Adobe Illustrator 30.0.0, SVG Export Plug-In . SVG Version: 2.1.1 Build 123)  -->
  <defs>
    <style>
      .st0 {
        fill: #f8f4ef;
      }

      .st1 {
        fill: #0f1f3d;
      }
    </style>
  </defs>
  <rect class="st1" width="489.5" height="489.5"/>
  <path class="st0" d="M479.7,184.1c-31.2-29.1-53.4-48-114.6-70.2-6.9-2.5-12.4-7.4-15.1-13.6-5.1-11.7-17.6-23.6-34-23.6s-36.9,15.9-36.9,36.9,1.5,26.7,2.6,37.5c.6,6.3,1.2,11.8,1.2,14.1s0,2.2.2,3.4c.3,4.1.7,9.2-2.2,12.3-2.6,2.8-8,4.3-15.6,4.3-54.4,0-104.4,39.3-144.7,71-25.6,20.1-47.8,37.5-62.1,37.5s-5.6,2.5-5.6,5.6,2.5,5.6,5.6,5.6c68.5,0,94.7,6,115.8,10.8,8.3,1.9,15.9,3.6,25,4.8l-23.7,41.3v86.5l-12.1,3c-3,.7-4.8,3.8-4.1,6.8.6,2.6,2.9,4.3,5.4,4.3s.9,0,1.3-.2l15.3-3.7,26.2,3.8c.3,0,.5,0,.8,0,2.7,0,5.1-2,5.5-4.8.4-3.1-1.7-5.9-4.7-6.3l-22.5-3.3v-83.1l24.8-43.2c3.5.2,7.2.3,11.2.3s9.4-.3,13.9-.8l-12.3,49.8,48.1,78.1-9.6,2.2c-3,.7-4.9,3.7-4.2,6.7.6,2.6,2.9,4.3,5.4,4.3s.8,0,1.3-.1l16-3.7,21.1,3.8c.3,0,.7,0,1,0s0,0,0,0h148c3.1,0,5.6-2.5,5.6-5.6v-244.3c0-3.1-2.5-5.6-5.6-5.6s-5.6,2.5-5.6,5.6v238.7h-142l-19.2-3.5-48.4-78.6,12.3-49.9c65.7-13.9,100.4-78.8,100.6-115.4,0-13.7-1.8-25.6-3.5-36.1-3-18.3-4.1-27.3,3.4-32.1,12.1-7.8,37.7-.6,71.9,20.2,27.4,16.7,51,36.5,51.2,36.7,2.3,2,5.8,1.7,7.8-.6,2-2.3,1.8-5.7-.4-7.8h0ZM343.2,126.2c-14,9-11.4,24.9-8.4,43.3,1.6,10.1,3.5,21.5,3.4,34.2-.2,27.7-28.9,93.6-94.7,105.2-.2,0-.4,0-.5,0-5.4.9-11.1,1.5-17,1.6,6.5-1.7,12.2-3.7,17-5.7,22.9-9.4,40.7-24.3,49-40.9,8.6-17.2,5.7-34.1-7.9-46.4-10.4-9.4-27.3-10.4-39.3-2.4-10.3,6.9-13.1,20.8-6.2,31.1,5.8,8.7,17.7,11.1,26.4,5.3,2.6-1.7,3.3-5.2,1.5-7.7-1.7-2.6-5.2-3.3-7.7-1.5-3.6,2.4-8.5,1.4-11-2.2-3.4-5.2-2.1-12.2,3.1-15.6,7.8-5.2,19.1-4.6,25.7,1.4,12.5,11.3,9.8,24.2,5.4,33.1-14.4,28.8-64.2,53.3-119.6,42.6-16.2-3.3-37.8-6.4-74.5-7.5,11.8-7.2,24.9-17.6,39.7-29.2,38.9-30.6,87.2-68.6,137.8-68.6s18.9-2.6,23.8-7.9c6.2-6.7,5.5-15.5,5.1-20.7,0-1-.1-1.8-.1-2.5,0-2.9-.5-8.3-1.2-15.2-1.1-10.6-2.5-25.1-2.5-36.4s10.8-25.7,25.7-25.7,20.2,8.7,23.7,16.9c3.1,7.1,8.6,13,15.6,16.9-4.5.6-8.6,2.1-12.3,4.4h0Z"/>
  <path class="st0" d="M323.1,105.6c-3.4-1.7-7.2-1-8.5,1.7-1.3,2.6.3,6.2,3.7,7.9,3.4,1.7,7.2,1,8.5-1.7s-.3-6.2-3.7-7.9Z"/>
  <path class="st0" d="M123,451.2H33.2V38.3h412.9v89.5c0,3.1,2.5,5.6,5.6,5.6s5.6-2.5,5.6-5.6V32.7c0-3.1-2.5-5.6-5.6-5.6H27.6c-3.1,0-5.6,2.5-5.6,5.6v424c0,3.1,2.5,5.6,5.6,5.6h95.4c3.1,0,5.6-2.5,5.6-5.6s-2.5-5.6-5.6-5.6h0Z"/>
</svg>